%TF.GenerationSoftware,KiCad,Pcbnew,8.0.5*%
%TF.CreationDate,2024-09-17T11:40:20-04:00*%
%TF.ProjectId,Limousine,4c696d6f-7573-4696-9e65-2e6b69636164,rev?*%
%TF.SameCoordinates,Original*%
%TF.FileFunction,Soldermask,Top*%
%TF.FilePolarity,Negative*%
%FSLAX46Y46*%
G04 Gerber Fmt 4.6, Leading zero omitted, Abs format (unit mm)*
G04 Created by KiCad (PCBNEW 8.0.5) date 2024-09-17 11:40:20*
%MOMM*%
%LPD*%
G01*
G04 APERTURE LIST*
%ADD10C,1.750000*%
%ADD11C,3.987800*%
%ADD12C,3.048000*%
G04 APERTURE END LIST*
D10*
%TO.C,MXS2*%
X153669880Y-82550008D03*
D11*
X158749880Y-82550008D03*
D10*
X163829880Y-82550008D03*
%TD*%
D11*
%TO.C,S1*%
X106362435Y-74295000D03*
D12*
X106362434Y-89535000D03*
X82549934Y-89535000D03*
D11*
X82549933Y-74295000D03*
%TD*%
%TO.C,S3*%
X153987395Y-74295000D03*
D12*
X153987394Y-89535000D03*
X130174894Y-89535000D03*
D11*
X130174893Y-74295000D03*
%TD*%
%TO.C,S4*%
X213518573Y-33654992D03*
D12*
X213518574Y-18414992D03*
X237331074Y-18414992D03*
D11*
X237331075Y-33654992D03*
%TD*%
D12*
%TO.C,S6*%
X120649928Y-89535008D03*
D11*
X120649928Y-74295008D03*
D12*
X82549928Y-89535008D03*
D11*
X82549928Y-74295008D03*
%TD*%
D12*
%TO.C,S5*%
X275431042Y-89535000D03*
D11*
X275431042Y-74295000D03*
D12*
X251618542Y-89535000D03*
D11*
X251618542Y-74295000D03*
%TD*%
D10*
%TO.C,MXS1*%
X106679927Y-82550008D03*
D11*
X101599928Y-82550008D03*
D10*
X96519929Y-82550008D03*
%TD*%
D12*
%TO.C,S2*%
X187324904Y-89534999D03*
D11*
X187324904Y-74295000D03*
D12*
X73024904Y-89534999D03*
D11*
X73024904Y-74295000D03*
%TD*%
D12*
%TO.C,S7*%
X177799880Y-89535008D03*
D11*
X177799880Y-74295008D03*
D12*
X139699880Y-89535008D03*
D11*
X139699880Y-74295008D03*
%TD*%
D10*
%TO.C,MX9*%
X182880000Y-25400000D03*
D11*
X177800000Y-25400000D03*
D10*
X172720000Y-25400000D03*
%TD*%
%TO.C,MX51*%
X46513721Y-82550008D03*
D11*
X51593720Y-82550008D03*
D10*
X56673719Y-82550008D03*
%TD*%
%TO.C,MX20*%
X87630000Y-44450000D03*
D11*
X82550000Y-44450000D03*
D10*
X77470000Y-44450000D03*
%TD*%
%TO.C,MX90*%
X227488585Y-63500024D03*
D11*
X232568584Y-63500024D03*
D10*
X237648583Y-63500024D03*
%TD*%
%TO.C,MX50*%
X49529999Y-82550000D03*
D11*
X44450000Y-82550000D03*
D10*
X39370001Y-82550000D03*
%TD*%
%TO.C,MX36*%
X97154951Y-63500048D03*
D11*
X92074952Y-63500048D03*
D10*
X86994953Y-63500048D03*
%TD*%
%TO.C,MX16*%
X320992500Y-25400000D03*
D11*
X315912500Y-25400000D03*
D10*
X310832500Y-25400000D03*
%TD*%
%TO.C,MX5*%
X106680000Y-25400000D03*
D11*
X101600000Y-25400000D03*
D10*
X96520000Y-25400000D03*
%TD*%
%TO.C,MX37*%
X116204951Y-63500048D03*
D11*
X111124952Y-63500048D03*
D10*
X106044953Y-63500048D03*
%TD*%
%TO.C,MX49*%
X22701241Y-82550008D03*
D11*
X27781240Y-82550008D03*
D10*
X32861239Y-82550008D03*
%TD*%
%TO.C,MX82*%
X72707465Y-63500024D03*
D11*
X77787464Y-63500024D03*
D10*
X82867463Y-63500024D03*
%TD*%
%TO.C,MX44*%
X235267335Y-63500024D03*
D11*
X230187336Y-63500024D03*
D10*
X225107337Y-63500024D03*
%TD*%
%TO.C,MX30*%
X278130000Y-44450000D03*
D11*
X273050000Y-44450000D03*
D10*
X267970000Y-44450000D03*
%TD*%
%TO.C,MX52*%
X68579999Y-82550000D03*
D11*
X63500000Y-82550000D03*
D10*
X58420001Y-82550000D03*
%TD*%
%TO.C,MX54*%
X135254904Y-82550000D03*
D11*
X130174904Y-82550000D03*
D10*
X125094904Y-82550000D03*
%TD*%
%TO.C,MX83*%
X91757449Y-63500024D03*
D11*
X96837448Y-63500024D03*
D10*
X101917447Y-63500024D03*
%TD*%
%TO.C,MX74*%
X120332409Y-44450000D03*
D11*
X125412408Y-44450000D03*
D10*
X130492407Y-44450000D03*
%TD*%
%TO.C,MX47*%
X297180000Y-63500000D03*
D11*
X292100000Y-63500000D03*
D10*
X287020000Y-63500000D03*
%TD*%
%TO.C,MX73*%
X101282425Y-44450000D03*
D11*
X106362424Y-44450000D03*
D10*
X111442423Y-44450000D03*
%TD*%
%TO.C,MX1*%
X30480000Y-25400000D03*
D11*
X25400000Y-25400000D03*
D10*
X20320000Y-25400000D03*
%TD*%
%TO.C,MX66*%
X316230000Y-82550000D03*
D11*
X311150000Y-82550000D03*
D10*
X306070000Y-82550000D03*
%TD*%
%TO.C,MX55*%
X137001145Y-82550000D03*
D11*
X142081144Y-82550000D03*
D10*
X147161143Y-82550000D03*
%TD*%
%TO.C,MX84*%
X110807433Y-63500024D03*
D11*
X115887432Y-63500024D03*
D10*
X120967431Y-63500024D03*
%TD*%
%TO.C,MX28*%
X229870001Y-44450000D03*
D11*
X234950000Y-44450000D03*
D10*
X240029999Y-44450000D03*
%TD*%
%TO.C,MX63*%
X258444792Y-82550000D03*
D11*
X263524792Y-82550000D03*
D10*
X268604792Y-82550000D03*
%TD*%
%TO.C,MX71*%
X63182457Y-44450000D03*
D11*
X68262456Y-44450000D03*
D10*
X73342455Y-44450000D03*
%TD*%
%TO.C,MX70*%
X49529999Y-44450000D03*
D11*
X44450000Y-44450000D03*
D10*
X39370001Y-44450000D03*
%TD*%
%TO.C,MX80*%
X27463753Y-63500024D03*
D11*
X32543752Y-63500024D03*
D10*
X37623751Y-63500024D03*
%TD*%
%TO.C,MX19*%
X68580000Y-44450000D03*
D11*
X63500000Y-44450000D03*
D10*
X58420000Y-44450000D03*
%TD*%
%TO.C,MX69*%
X22701241Y-44450000D03*
D11*
X27781240Y-44450000D03*
D10*
X32861239Y-44450000D03*
%TD*%
%TO.C,MX35*%
X78104967Y-63500048D03*
D11*
X73024968Y-63500048D03*
D10*
X67944969Y-63500048D03*
%TD*%
%TO.C,MX31*%
X297180000Y-44450000D03*
D11*
X292100000Y-44450000D03*
D10*
X287020000Y-44450000D03*
%TD*%
%TO.C,MX10*%
X201930000Y-25400000D03*
D11*
X196850000Y-25400000D03*
D10*
X191770000Y-25400000D03*
%TD*%
%TO.C,MX12*%
X229870001Y-25400000D03*
D11*
X234950000Y-25400000D03*
D10*
X240029999Y-25400000D03*
%TD*%
%TO.C,MX77*%
X177482361Y-44450000D03*
D11*
X182562360Y-44450000D03*
D10*
X187642359Y-44450000D03*
%TD*%
%TO.C,MX23*%
X144780000Y-44450000D03*
D11*
X139700000Y-44450000D03*
D10*
X134620000Y-44450000D03*
%TD*%
%TO.C,MX17*%
X30480000Y-44450000D03*
D11*
X25400000Y-44450000D03*
D10*
X20320000Y-44450000D03*
%TD*%
%TO.C,MX24*%
X163830000Y-44450000D03*
D11*
X158750000Y-44450000D03*
D10*
X153670000Y-44450000D03*
%TD*%
%TO.C,MX75*%
X139382393Y-44450000D03*
D11*
X144462392Y-44450000D03*
D10*
X149542391Y-44450000D03*
%TD*%
%TO.C,MX53*%
X99536183Y-82550000D03*
D11*
X94456184Y-82550000D03*
D10*
X89376185Y-82550000D03*
%TD*%
%TO.C,MX81*%
X53657481Y-63500024D03*
D11*
X58737480Y-63500024D03*
D10*
X63817479Y-63500024D03*
%TD*%
%TO.C,MX85*%
X129857417Y-63500024D03*
D11*
X134937416Y-63500024D03*
D10*
X140017415Y-63500024D03*
%TD*%
%TO.C,MX27*%
X210820001Y-44450000D03*
D11*
X215900000Y-44450000D03*
D10*
X220979999Y-44450000D03*
%TD*%
%TO.C,MX26*%
X201930000Y-44450000D03*
D11*
X196850000Y-44450000D03*
D10*
X191770000Y-44450000D03*
%TD*%
%TO.C,MX13*%
X259080000Y-25400000D03*
D11*
X254000000Y-25400000D03*
D10*
X248920000Y-25400000D03*
%TD*%
%TO.C,MX62*%
X259080000Y-82550000D03*
D11*
X254000000Y-82550000D03*
D10*
X248920000Y-82550000D03*
%TD*%
%TO.C,MX78*%
X196532345Y-44450000D03*
D11*
X201612344Y-44450000D03*
D10*
X206692343Y-44450000D03*
%TD*%
%TO.C,MX4*%
X87630000Y-25400000D03*
D11*
X82550000Y-25400000D03*
D10*
X77470000Y-25400000D03*
%TD*%
%TO.C,MX61*%
X229870001Y-82550000D03*
D11*
X234950000Y-82550000D03*
D10*
X240029999Y-82550000D03*
%TD*%
%TO.C,MX41*%
X192404951Y-63500048D03*
D11*
X187324952Y-63500048D03*
D10*
X182244953Y-63500048D03*
%TD*%
%TO.C,MX15*%
X297180000Y-25400000D03*
D11*
X292100000Y-25400000D03*
D10*
X287020000Y-25400000D03*
%TD*%
%TO.C,MX56*%
X182879999Y-82550000D03*
D11*
X177800000Y-82550000D03*
D10*
X172720001Y-82550000D03*
%TD*%
%TO.C,MX39*%
X154304951Y-63500048D03*
D11*
X149224952Y-63500048D03*
D10*
X144144953Y-63500048D03*
%TD*%
%TO.C,MX68*%
X230504823Y-25399992D03*
D11*
X225424824Y-25399992D03*
D10*
X220344825Y-25399992D03*
%TD*%
%TO.C,MX14*%
X278130000Y-25400000D03*
D11*
X273050000Y-25400000D03*
D10*
X267970000Y-25400000D03*
%TD*%
%TO.C,MX88*%
X187007369Y-63500024D03*
D11*
X192087368Y-63500024D03*
D10*
X197167367Y-63500024D03*
%TD*%
%TO.C,MX40*%
X173354951Y-63500048D03*
D11*
X168274952Y-63500048D03*
D10*
X163194953Y-63500048D03*
%TD*%
%TO.C,MX11*%
X210820001Y-25400000D03*
D11*
X215900000Y-25400000D03*
D10*
X220979999Y-25400000D03*
%TD*%
%TO.C,MX89*%
X206057353Y-63500024D03*
D11*
X211137352Y-63500024D03*
D10*
X216217351Y-63500024D03*
%TD*%
%TO.C,MX48*%
X30479999Y-82550000D03*
D11*
X25400000Y-82550000D03*
D10*
X20320001Y-82550000D03*
%TD*%
%TO.C,MX21*%
X106680000Y-44450000D03*
D11*
X101600000Y-44450000D03*
D10*
X96520000Y-44450000D03*
%TD*%
%TO.C,MX59*%
X210820001Y-82550000D03*
D11*
X215900000Y-82550000D03*
D10*
X220979999Y-82550000D03*
%TD*%
%TO.C,MX25*%
X182880000Y-44450000D03*
D11*
X177800000Y-44450000D03*
D10*
X172720000Y-44450000D03*
%TD*%
%TO.C,MX32*%
X320992500Y-49212500D03*
D11*
X315912500Y-49212500D03*
D10*
X310832500Y-49212500D03*
%TD*%
%TO.C,MX86*%
X148907401Y-63500024D03*
D11*
X153987400Y-63500024D03*
D10*
X159067399Y-63500024D03*
%TD*%
%TO.C,MX22*%
X125730000Y-44450000D03*
D11*
X120650000Y-44450000D03*
D10*
X115570000Y-44450000D03*
%TD*%
%TO.C,MX46*%
X278129999Y-63500000D03*
D11*
X273050000Y-63500000D03*
D10*
X267970001Y-63500000D03*
%TD*%
%TO.C,MX72*%
X82232441Y-44450000D03*
D11*
X87312440Y-44450000D03*
D10*
X92392439Y-44450000D03*
%TD*%
%TO.C,MX29*%
X259080000Y-44450000D03*
D11*
X254000000Y-44450000D03*
D10*
X248920000Y-44450000D03*
%TD*%
%TO.C,MX42*%
X211454951Y-63500048D03*
D11*
X206374952Y-63500048D03*
D10*
X201294953Y-63500048D03*
%TD*%
%TO.C,MX33*%
X35262352Y-63500024D03*
D11*
X30182352Y-63500024D03*
D10*
X25102352Y-63500024D03*
%TD*%
%TO.C,MX34*%
X59054968Y-63500048D03*
D11*
X53974968Y-63500048D03*
D10*
X48894968Y-63500048D03*
%TD*%
%TO.C,MX87*%
X167957385Y-63500024D03*
D11*
X173037384Y-63500024D03*
D10*
X178117383Y-63500024D03*
%TD*%
%TO.C,MX45*%
X259079999Y-63500000D03*
D11*
X254000000Y-63500000D03*
D10*
X248920001Y-63500000D03*
%TD*%
%TO.C,MX65*%
X297180000Y-82550000D03*
D11*
X292100000Y-82550000D03*
D10*
X287020000Y-82550000D03*
%TD*%
%TO.C,MX18*%
X44132473Y-44450040D03*
D11*
X49212472Y-44450040D03*
D10*
X54292471Y-44450040D03*
%TD*%
%TO.C,MX64*%
X278130000Y-82550000D03*
D11*
X273050000Y-82550000D03*
D10*
X267970000Y-82550000D03*
%TD*%
%TO.C,MX76*%
X158432377Y-44450000D03*
D11*
X163512376Y-44450000D03*
D10*
X168592375Y-44450000D03*
%TD*%
%TO.C,MX2*%
X49530000Y-25400000D03*
D11*
X44450000Y-25400000D03*
D10*
X39370000Y-25400000D03*
%TD*%
%TO.C,MX57*%
X191770001Y-82550000D03*
D11*
X196850000Y-82550000D03*
D10*
X201929999Y-82550000D03*
%TD*%
%TO.C,MX6*%
X125730000Y-25400000D03*
D11*
X120650000Y-25400000D03*
D10*
X115570000Y-25400000D03*
%TD*%
%TO.C,MX8*%
X163830000Y-25400000D03*
D11*
X158750000Y-25400000D03*
D10*
X153670000Y-25400000D03*
%TD*%
%TO.C,MX38*%
X135254951Y-63500048D03*
D11*
X130174952Y-63500048D03*
D10*
X125094953Y-63500048D03*
%TD*%
%TO.C,MX60*%
X237648567Y-82550008D03*
D11*
X232568568Y-82550008D03*
D10*
X227488569Y-82550008D03*
%TD*%
%TO.C,MX79*%
X232886071Y-44450000D03*
D11*
X227806072Y-44450000D03*
D10*
X222726073Y-44450000D03*
%TD*%
%TO.C,MX7*%
X144780000Y-25400000D03*
D11*
X139700000Y-25400000D03*
D10*
X134620000Y-25400000D03*
%TD*%
%TO.C,MX3*%
X68580000Y-25400000D03*
D11*
X63500000Y-25400000D03*
D10*
X58420000Y-25400000D03*
%TD*%
%TO.C,MX58*%
X213836087Y-82550008D03*
D11*
X208756088Y-82550008D03*
D10*
X203676089Y-82550008D03*
%TD*%
M02*
