%TF.GenerationSoftware,KiCad,Pcbnew,8.0.5*%
%TF.CreationDate,2024-09-17T11:40:20-04:00*%
%TF.ProjectId,Limousine,4c696d6f-7573-4696-9e65-2e6b69636164,rev?*%
%TF.SameCoordinates,Original*%
%TF.FileFunction,Legend,Top*%
%TF.FilePolarity,Positive*%
%FSLAX46Y46*%
G04 Gerber Fmt 4.6, Leading zero omitted, Abs format (unit mm)*
G04 Created by KiCad (PCBNEW 8.0.5) date 2024-09-17 11:40:20*
%MOMM*%
%LPD*%
G01*
G04 APERTURE LIST*
%ADD10C,0.000000*%
%ADD11C,0.120000*%
%ADD12C,1.750000*%
%ADD13C,3.987800*%
%ADD14C,3.048000*%
G04 APERTURE END LIST*
D10*
G36*
X194027537Y-92533602D02*
G01*
X194045809Y-92534460D01*
X194063883Y-92535878D01*
X194081730Y-92537848D01*
X194099324Y-92540360D01*
X194116638Y-92543407D01*
X194133644Y-92546977D01*
X194150316Y-92551063D01*
X194166626Y-92555656D01*
X194182547Y-92560746D01*
X194198052Y-92566324D01*
X194213114Y-92572382D01*
X194227706Y-92578910D01*
X194241800Y-92585899D01*
X194255370Y-92593340D01*
X194268388Y-92601225D01*
X194280827Y-92609543D01*
X194292661Y-92618287D01*
X194303861Y-92627447D01*
X194314401Y-92637013D01*
X194324254Y-92646978D01*
X194333393Y-92657331D01*
X194341790Y-92668064D01*
X194349418Y-92679168D01*
X194356250Y-92690634D01*
X194362260Y-92702452D01*
X194367419Y-92714614D01*
X194371701Y-92727111D01*
X194375079Y-92739933D01*
X194377525Y-92753071D01*
X194379013Y-92766518D01*
X194379515Y-92780262D01*
X194379013Y-92791833D01*
X194377525Y-92803382D01*
X194375079Y-92814885D01*
X194371701Y-92826320D01*
X194367419Y-92837666D01*
X194362260Y-92848898D01*
X194356250Y-92859994D01*
X194349418Y-92870932D01*
X194333393Y-92892244D01*
X194314401Y-92912651D01*
X194292661Y-92931974D01*
X194268388Y-92950030D01*
X194241800Y-92966639D01*
X194213114Y-92981621D01*
X194182547Y-92994794D01*
X194150316Y-93005978D01*
X194116638Y-93014991D01*
X194081730Y-93021653D01*
X194045809Y-93025783D01*
X194009092Y-93027200D01*
X193990650Y-93026842D01*
X193972380Y-93025783D01*
X193954308Y-93024046D01*
X193936462Y-93021653D01*
X193918869Y-93018627D01*
X193901557Y-93014991D01*
X193884552Y-93010767D01*
X193867881Y-93005978D01*
X193851572Y-93000646D01*
X193835652Y-92994794D01*
X193820148Y-92988445D01*
X193805087Y-92981621D01*
X193790496Y-92974345D01*
X193776402Y-92966639D01*
X193762833Y-92958527D01*
X193749815Y-92950030D01*
X193737377Y-92941171D01*
X193725544Y-92931974D01*
X193714344Y-92922459D01*
X193703804Y-92912651D01*
X193693951Y-92902572D01*
X193684813Y-92892244D01*
X193676416Y-92881690D01*
X193668788Y-92870932D01*
X193661956Y-92859994D01*
X193655946Y-92848898D01*
X193650787Y-92837666D01*
X193646505Y-92826320D01*
X193643127Y-92814885D01*
X193640681Y-92803382D01*
X193639193Y-92791833D01*
X193638691Y-92780262D01*
X193639193Y-92766518D01*
X193640681Y-92753071D01*
X193643127Y-92739933D01*
X193646505Y-92727111D01*
X193650787Y-92714614D01*
X193655946Y-92702452D01*
X193661956Y-92690634D01*
X193668788Y-92679168D01*
X193676416Y-92668064D01*
X193684813Y-92657331D01*
X193693951Y-92646978D01*
X193703804Y-92637013D01*
X193725544Y-92618287D01*
X193749815Y-92601225D01*
X193776402Y-92585899D01*
X193805087Y-92572382D01*
X193835652Y-92560746D01*
X193867881Y-92551063D01*
X193901557Y-92543407D01*
X193936462Y-92537848D01*
X193972380Y-92534460D01*
X194009092Y-92533314D01*
X194027537Y-92533602D01*
G37*
G36*
X50998408Y-65881272D02*
G01*
X51009760Y-65884923D01*
X51021547Y-65891685D01*
X51033731Y-65901544D01*
X51046277Y-65914487D01*
X51059149Y-65930500D01*
X51072310Y-65949571D01*
X51085725Y-65971684D01*
X51113168Y-66024985D01*
X51141190Y-66090297D01*
X51169502Y-66167510D01*
X51197813Y-66256516D01*
X51225835Y-66357206D01*
X51232420Y-66382377D01*
X51238291Y-66406938D01*
X51243456Y-66430856D01*
X51247925Y-66454101D01*
X51251707Y-66476641D01*
X51254810Y-66498443D01*
X51257244Y-66519477D01*
X51259018Y-66539710D01*
X51260141Y-66559112D01*
X51260621Y-66577650D01*
X51260469Y-66595293D01*
X51259693Y-66612009D01*
X51258301Y-66627766D01*
X51256304Y-66642533D01*
X51253710Y-66656279D01*
X51250528Y-66668970D01*
X51246767Y-66680577D01*
X51242437Y-66691067D01*
X51237546Y-66700408D01*
X51232103Y-66708569D01*
X51226118Y-66715519D01*
X51219599Y-66721225D01*
X51212555Y-66725656D01*
X51208840Y-66727383D01*
X51204997Y-66728780D01*
X51201027Y-66729842D01*
X51196931Y-66730566D01*
X51192712Y-66730947D01*
X51188369Y-66730982D01*
X51179318Y-66729996D01*
X51169788Y-66727577D01*
X51159788Y-66723693D01*
X51149326Y-66718312D01*
X51138413Y-66711403D01*
X51127056Y-66702934D01*
X51104212Y-66687347D01*
X51082056Y-66668541D01*
X51060695Y-66646769D01*
X51040239Y-66622284D01*
X51020796Y-66595340D01*
X51002474Y-66566189D01*
X50985382Y-66535085D01*
X50969629Y-66502282D01*
X50955323Y-66468032D01*
X50942572Y-66432588D01*
X50931485Y-66396205D01*
X50922170Y-66359134D01*
X50914737Y-66321630D01*
X50909293Y-66283945D01*
X50905947Y-66246334D01*
X50904808Y-66209048D01*
X50906785Y-66123080D01*
X50912525Y-66050316D01*
X50916715Y-66018851D01*
X50921737Y-65990646D01*
X50927555Y-65965688D01*
X50934133Y-65943963D01*
X50941434Y-65925457D01*
X50949422Y-65910157D01*
X50958062Y-65898050D01*
X50967316Y-65889121D01*
X50977149Y-65883358D01*
X50987525Y-65880746D01*
X50998408Y-65881272D01*
G37*
G36*
X51720801Y-60203189D02*
G01*
X51725194Y-60206445D01*
X51729831Y-60211871D01*
X51734725Y-60219467D01*
X51745342Y-60241171D01*
X51757152Y-60271556D01*
X51770265Y-60310623D01*
X51784788Y-60358372D01*
X51800830Y-60414801D01*
X51818500Y-60479913D01*
X51826325Y-60527602D01*
X51831328Y-60577824D01*
X51833583Y-60630215D01*
X51833161Y-60684415D01*
X51830134Y-60740062D01*
X51824575Y-60796794D01*
X51816557Y-60854250D01*
X51806151Y-60912067D01*
X51793430Y-60969884D01*
X51778466Y-61027340D01*
X51761332Y-61084072D01*
X51742100Y-61139719D01*
X51720842Y-61193919D01*
X51697630Y-61246310D01*
X51672538Y-61296532D01*
X51645636Y-61344221D01*
X51556216Y-61481975D01*
X51490525Y-61580371D01*
X51466036Y-61614810D01*
X51446828Y-61639409D01*
X51432684Y-61654168D01*
X51427444Y-61657858D01*
X51423388Y-61659088D01*
X51420489Y-61657858D01*
X51418721Y-61654168D01*
X51418057Y-61648019D01*
X51418468Y-61639409D01*
X51422412Y-61614810D01*
X51430334Y-61580371D01*
X51457247Y-61481975D01*
X51497473Y-61344221D01*
X51526171Y-61245298D01*
X51555737Y-61136248D01*
X51584725Y-61020831D01*
X51611686Y-60902810D01*
X51635175Y-60785947D01*
X51653745Y-60674002D01*
X51660732Y-60621049D01*
X51665948Y-60570737D01*
X51669209Y-60523534D01*
X51670337Y-60479913D01*
X51674985Y-60414801D01*
X51679742Y-60358372D01*
X51684716Y-60310623D01*
X51690015Y-60271556D01*
X51695749Y-60241171D01*
X51698812Y-60229234D01*
X51702025Y-60219467D01*
X51705400Y-60211871D01*
X51708952Y-60206445D01*
X51712694Y-60203189D01*
X51716639Y-60202104D01*
X51720801Y-60203189D01*
G37*
G36*
X236493044Y-44431190D02*
G01*
X237002119Y-44453228D01*
X237233388Y-44464179D01*
X237463210Y-44478312D01*
X237912725Y-44514970D01*
X238339089Y-44560886D01*
X238730727Y-44613747D01*
X238909907Y-44642058D01*
X239076064Y-44671238D01*
X239227751Y-44700995D01*
X239363523Y-44731042D01*
X239481931Y-44761089D01*
X239581529Y-44790846D01*
X239660870Y-44820025D01*
X239718507Y-44848335D01*
X239778550Y-44887704D01*
X239819168Y-44922516D01*
X239839457Y-44952842D01*
X239841695Y-44966345D01*
X239838512Y-44978754D01*
X239829794Y-44990078D01*
X239815429Y-45000326D01*
X239769303Y-45017629D01*
X239699231Y-45030737D01*
X239604307Y-45039720D01*
X239483627Y-45044651D01*
X239336288Y-45045604D01*
X238958011Y-45035861D01*
X238462241Y-45011070D01*
X237841743Y-44971809D01*
X237364447Y-44931539D01*
X236903356Y-44885769D01*
X236470046Y-44835947D01*
X236076093Y-44783520D01*
X235733072Y-44729935D01*
X235584278Y-44703161D01*
X235452558Y-44676639D01*
X235339359Y-44650552D01*
X235246127Y-44625079D01*
X235174311Y-44600402D01*
X235125355Y-44576702D01*
X235089730Y-44550086D01*
X235075338Y-44525821D01*
X235076049Y-44514582D01*
X235082000Y-44503943D01*
X235109534Y-44484489D01*
X235157760Y-44467494D01*
X235226496Y-44452995D01*
X235315561Y-44441027D01*
X235424775Y-44431628D01*
X235702924Y-44420679D01*
X236059496Y-44420437D01*
X236493044Y-44431190D01*
G37*
G36*
X187777135Y-54781396D02*
G01*
X188036969Y-54796964D01*
X188293114Y-54827218D01*
X188544917Y-54872232D01*
X188791729Y-54932076D01*
X189032897Y-55006824D01*
X189267772Y-55096548D01*
X189429906Y-55179141D01*
X189626080Y-55303552D01*
X189851555Y-55465293D01*
X190101592Y-55659881D01*
X190371452Y-55882829D01*
X190656397Y-56129652D01*
X190951688Y-56395865D01*
X191252586Y-56676981D01*
X191852247Y-57265982D01*
X192141533Y-57564896D01*
X192417471Y-57860772D01*
X192675322Y-58149124D01*
X192910347Y-58425467D01*
X193117807Y-58685315D01*
X193292964Y-58924182D01*
X193358107Y-59013791D01*
X193414750Y-59098154D01*
X193463072Y-59178393D01*
X193503256Y-59255629D01*
X193535481Y-59330984D01*
X193559928Y-59405578D01*
X193569292Y-59442941D01*
X193576780Y-59480534D01*
X193582413Y-59518498D01*
X193586215Y-59556973D01*
X193588416Y-59636016D01*
X193583562Y-59718785D01*
X193571836Y-59806401D01*
X193553417Y-59899986D01*
X193528487Y-60000661D01*
X193497227Y-60109547D01*
X193459817Y-60227766D01*
X193416438Y-60356439D01*
X193385399Y-60444844D01*
X193357100Y-60529465D01*
X193331533Y-60610279D01*
X193308688Y-60687263D01*
X193288555Y-60760394D01*
X193271127Y-60829650D01*
X193256393Y-60895008D01*
X193244346Y-60956446D01*
X193234975Y-61013941D01*
X193228273Y-61067470D01*
X193224229Y-61117011D01*
X193222834Y-61162542D01*
X193224081Y-61204038D01*
X193227959Y-61241479D01*
X193234460Y-61274842D01*
X193243574Y-61304103D01*
X193255293Y-61329240D01*
X193269608Y-61350231D01*
X193286508Y-61367052D01*
X193305987Y-61379682D01*
X193328033Y-61388098D01*
X193352639Y-61392277D01*
X193379795Y-61392196D01*
X193409493Y-61387834D01*
X193441722Y-61379166D01*
X193476475Y-61366171D01*
X193513742Y-61348827D01*
X193553514Y-61327109D01*
X193595781Y-61300997D01*
X193640536Y-61270467D01*
X193687769Y-61235496D01*
X193737471Y-61196063D01*
X193791069Y-61152967D01*
X193840977Y-61116383D01*
X193864660Y-61100578D01*
X193887557Y-61086455D01*
X193909712Y-61074033D01*
X193931170Y-61063328D01*
X193951978Y-61054360D01*
X193972179Y-61047146D01*
X193991820Y-61041705D01*
X194010945Y-61038055D01*
X194029600Y-61036213D01*
X194047830Y-61036198D01*
X194065680Y-61038027D01*
X194083196Y-61041720D01*
X194100421Y-61047294D01*
X194117403Y-61054767D01*
X194134186Y-61064157D01*
X194150814Y-61075483D01*
X194167335Y-61088762D01*
X194183791Y-61104012D01*
X194200230Y-61121252D01*
X194216696Y-61140499D01*
X194233234Y-61161773D01*
X194249889Y-61185090D01*
X194266707Y-61210469D01*
X194283733Y-61237928D01*
X194318589Y-61299159D01*
X194354820Y-61368927D01*
X194388177Y-61437787D01*
X194418812Y-61514374D01*
X194472024Y-61688652D01*
X194514673Y-61887600D01*
X194546977Y-62107059D01*
X194569151Y-62342868D01*
X194581414Y-62590868D01*
X194583983Y-62846898D01*
X194577073Y-63106798D01*
X194560904Y-63366409D01*
X194535690Y-63621571D01*
X194501650Y-63868124D01*
X194459001Y-64101907D01*
X194407960Y-64318761D01*
X194348743Y-64514526D01*
X194281568Y-64685042D01*
X194206651Y-64826149D01*
X194164821Y-64896386D01*
X194127246Y-64963507D01*
X194093840Y-65027437D01*
X194064517Y-65088097D01*
X194039191Y-65145410D01*
X194017776Y-65199301D01*
X194000186Y-65249692D01*
X193986336Y-65296506D01*
X193976139Y-65339667D01*
X193969509Y-65379097D01*
X193966362Y-65414719D01*
X193966609Y-65446458D01*
X193970167Y-65474235D01*
X193976949Y-65497975D01*
X193986868Y-65517600D01*
X193999840Y-65533033D01*
X194015778Y-65544197D01*
X194034596Y-65551016D01*
X194056209Y-65553413D01*
X194080530Y-65551311D01*
X194107474Y-65544632D01*
X194136954Y-65533301D01*
X194168885Y-65517240D01*
X194203181Y-65496373D01*
X194239756Y-65470621D01*
X194278525Y-65439910D01*
X194319400Y-65404162D01*
X194362297Y-65363299D01*
X194407129Y-65317245D01*
X194453811Y-65265924D01*
X194502256Y-65209258D01*
X194552379Y-65147171D01*
X194607942Y-65080606D01*
X194663505Y-65019793D01*
X194719068Y-64964695D01*
X194774632Y-64915277D01*
X194830195Y-64871501D01*
X194885758Y-64833333D01*
X194913539Y-64816339D01*
X194941320Y-64800734D01*
X194969102Y-64786513D01*
X194996883Y-64773671D01*
X195024664Y-64762203D01*
X195052445Y-64752105D01*
X195080226Y-64743373D01*
X195108007Y-64736002D01*
X195135788Y-64729988D01*
X195163569Y-64725325D01*
X195191349Y-64722010D01*
X195219130Y-64720038D01*
X195246910Y-64719404D01*
X195274691Y-64720104D01*
X195302471Y-64722134D01*
X195330251Y-64725488D01*
X195358031Y-64730163D01*
X195385811Y-64736154D01*
X195413591Y-64743455D01*
X195441371Y-64752064D01*
X195479995Y-64769751D01*
X195517113Y-64790256D01*
X195552667Y-64813356D01*
X195586598Y-64838830D01*
X195618846Y-64866457D01*
X195649354Y-64896014D01*
X195678062Y-64927280D01*
X195704911Y-64960035D01*
X195729844Y-64994055D01*
X195752800Y-65029120D01*
X195773722Y-65065008D01*
X195792550Y-65101497D01*
X195809226Y-65138367D01*
X195823690Y-65175394D01*
X195835885Y-65212359D01*
X195845751Y-65249038D01*
X195853230Y-65285211D01*
X195858263Y-65320656D01*
X195860790Y-65355152D01*
X195860754Y-65388476D01*
X195858095Y-65420408D01*
X195852755Y-65450726D01*
X195844675Y-65479207D01*
X195833796Y-65505632D01*
X195820059Y-65529777D01*
X195803406Y-65551422D01*
X195783778Y-65570345D01*
X195761116Y-65586324D01*
X195735361Y-65599138D01*
X195706454Y-65608565D01*
X195674337Y-65614383D01*
X195638951Y-65616372D01*
X195627305Y-65617950D01*
X195615528Y-65622630D01*
X195591634Y-65640970D01*
X195567379Y-65670740D01*
X195542870Y-65711290D01*
X195518216Y-65761968D01*
X195493525Y-65822124D01*
X195468908Y-65891106D01*
X195444471Y-65968263D01*
X195396575Y-66144499D01*
X195350707Y-66345623D01*
X195307735Y-66566427D01*
X195268528Y-66801702D01*
X195252663Y-66927454D01*
X195233072Y-67054145D01*
X195210081Y-67180981D01*
X195184017Y-67307167D01*
X195155204Y-67431905D01*
X195123968Y-67554400D01*
X195090634Y-67673857D01*
X195055528Y-67789479D01*
X195018975Y-67900471D01*
X194981301Y-68006037D01*
X194942831Y-68105381D01*
X194903891Y-68197708D01*
X194864806Y-68282220D01*
X194825902Y-68358124D01*
X194787504Y-68424622D01*
X194749937Y-68480918D01*
X194697877Y-68556004D01*
X194652942Y-68624360D01*
X194633204Y-68656264D01*
X194615315Y-68686784D01*
X194599299Y-68716020D01*
X194585176Y-68744071D01*
X194572971Y-68771037D01*
X194562706Y-68797017D01*
X194554404Y-68822111D01*
X194548086Y-68846418D01*
X194543776Y-68870038D01*
X194541496Y-68893070D01*
X194541269Y-68915614D01*
X194543118Y-68937769D01*
X194547065Y-68959634D01*
X194553132Y-68981310D01*
X194561343Y-69002895D01*
X194571720Y-69024489D01*
X194584285Y-69046192D01*
X194599061Y-69068103D01*
X194616071Y-69090322D01*
X194635338Y-69112947D01*
X194656883Y-69136079D01*
X194680730Y-69159817D01*
X194706901Y-69184261D01*
X194735419Y-69209509D01*
X194799586Y-69262819D01*
X194873411Y-69320542D01*
X194919955Y-69361248D01*
X194966789Y-69408900D01*
X195013622Y-69462918D01*
X195060166Y-69522725D01*
X195106130Y-69587740D01*
X195151227Y-69657386D01*
X195195166Y-69731083D01*
X195237657Y-69808253D01*
X195278412Y-69888317D01*
X195317141Y-69970696D01*
X195353555Y-70054810D01*
X195387363Y-70140082D01*
X195418278Y-70225933D01*
X195446008Y-70311783D01*
X195470266Y-70397054D01*
X195490761Y-70481167D01*
X195511561Y-70596460D01*
X195527513Y-70702021D01*
X195533604Y-70751368D01*
X195538402Y-70798539D01*
X195541879Y-70843622D01*
X195544009Y-70886701D01*
X195544764Y-70927863D01*
X195544118Y-70967193D01*
X195542043Y-71004779D01*
X195538511Y-71040704D01*
X195533497Y-71075056D01*
X195526973Y-71107921D01*
X195518911Y-71139383D01*
X195509284Y-71169530D01*
X195498066Y-71198447D01*
X195485230Y-71226220D01*
X195470747Y-71252935D01*
X195454592Y-71278677D01*
X195436736Y-71303534D01*
X195417153Y-71327590D01*
X195395816Y-71350931D01*
X195372697Y-71373645D01*
X195347770Y-71395815D01*
X195321007Y-71417529D01*
X195292381Y-71438872D01*
X195261865Y-71459931D01*
X195229432Y-71480790D01*
X195195055Y-71501536D01*
X195120360Y-71543034D01*
X195037515Y-71588945D01*
X194964618Y-71635977D01*
X194901199Y-71686987D01*
X194846787Y-71744835D01*
X194800912Y-71812377D01*
X194763105Y-71892471D01*
X194732893Y-71987975D01*
X194709808Y-72101746D01*
X194693379Y-72236643D01*
X194683136Y-72395523D01*
X194678608Y-72581244D01*
X194679325Y-72796664D01*
X194694615Y-73328030D01*
X194725242Y-74012484D01*
X194741973Y-74354963D01*
X194754905Y-74661774D01*
X194763713Y-74935450D01*
X194768072Y-75178524D01*
X194767656Y-75393527D01*
X194765556Y-75491294D01*
X194762140Y-75582992D01*
X194757367Y-75668939D01*
X194751197Y-75749450D01*
X194743589Y-75824843D01*
X194734503Y-75895434D01*
X194723897Y-75961539D01*
X194711731Y-76023476D01*
X194697965Y-76081559D01*
X194682557Y-76136107D01*
X194665467Y-76187435D01*
X194646654Y-76235861D01*
X194626078Y-76281700D01*
X194603697Y-76325268D01*
X194579472Y-76366884D01*
X194553361Y-76406862D01*
X194525324Y-76445520D01*
X194495320Y-76483174D01*
X194463308Y-76520141D01*
X194429248Y-76556737D01*
X194354820Y-76630082D01*
X194308858Y-76674837D01*
X194263764Y-76725344D01*
X194219826Y-76780986D01*
X194177335Y-76841150D01*
X194136579Y-76905221D01*
X194097849Y-76972583D01*
X194061433Y-77042622D01*
X194027622Y-77114722D01*
X193996704Y-77188270D01*
X193968969Y-77262649D01*
X193944707Y-77337245D01*
X193924207Y-77411443D01*
X193907759Y-77484629D01*
X193895651Y-77556187D01*
X193888175Y-77625502D01*
X193885618Y-77691960D01*
X193883629Y-77759278D01*
X193877805Y-77831154D01*
X193868363Y-77906936D01*
X193855522Y-77985975D01*
X193839497Y-78067618D01*
X193820506Y-78151214D01*
X193798766Y-78236113D01*
X193774494Y-78321663D01*
X193747907Y-78407213D01*
X193719223Y-78492112D01*
X193688657Y-78575710D01*
X193656428Y-78657353D01*
X193622753Y-78736393D01*
X193587848Y-78812177D01*
X193551930Y-78884055D01*
X193515217Y-78951374D01*
X193362032Y-79250410D01*
X193178750Y-79602690D01*
X192990838Y-79968860D01*
X192903104Y-80144857D01*
X192823762Y-80309568D01*
X192737598Y-80474760D01*
X192637115Y-80645740D01*
X192396677Y-81002169D01*
X192109431Y-81373067D01*
X191782358Y-81752647D01*
X191422439Y-82135121D01*
X191036655Y-82514701D01*
X190631989Y-82885600D01*
X190215422Y-83242029D01*
X189793935Y-83578202D01*
X189374509Y-83888329D01*
X188964126Y-84166624D01*
X188569768Y-84407298D01*
X188198415Y-84604564D01*
X187857050Y-84752635D01*
X187699794Y-84806413D01*
X187552654Y-84845721D01*
X187416500Y-84869837D01*
X187292207Y-84878036D01*
X187226024Y-84876619D01*
X187157454Y-84872489D01*
X187087002Y-84865827D01*
X187015174Y-84856814D01*
X186942479Y-84845630D01*
X186869421Y-84832457D01*
X186796507Y-84817475D01*
X186724245Y-84800865D01*
X186653140Y-84782808D01*
X186583698Y-84763485D01*
X186516427Y-84743077D01*
X186451832Y-84721764D01*
X186390421Y-84699728D01*
X186332699Y-84677149D01*
X186279174Y-84654209D01*
X186230351Y-84631088D01*
X186171599Y-84600702D01*
X186143296Y-84587028D01*
X186115704Y-84574367D01*
X186088818Y-84562719D01*
X186062632Y-84552084D01*
X186037142Y-84542461D01*
X186012345Y-84533852D01*
X185988235Y-84526255D01*
X185964808Y-84519672D01*
X185942058Y-84514101D01*
X185919983Y-84509543D01*
X185898577Y-84505998D01*
X185877836Y-84503466D01*
X185857754Y-84501946D01*
X185838329Y-84501440D01*
X185819554Y-84501946D01*
X185801426Y-84503466D01*
X185783940Y-84505998D01*
X185767091Y-84509543D01*
X185750876Y-84514101D01*
X185735288Y-84519672D01*
X185720325Y-84526255D01*
X185705981Y-84533852D01*
X185692252Y-84542461D01*
X185679133Y-84552084D01*
X185666619Y-84562719D01*
X185654707Y-84574367D01*
X185643392Y-84587028D01*
X185632669Y-84600702D01*
X185622533Y-84615388D01*
X185612980Y-84631088D01*
X185595126Y-84654209D01*
X185569675Y-84677149D01*
X185537133Y-84699728D01*
X185498007Y-84721764D01*
X185452804Y-84743077D01*
X185402029Y-84763485D01*
X185346190Y-84782808D01*
X185285793Y-84800865D01*
X185221343Y-84817475D01*
X185153349Y-84832457D01*
X185082316Y-84845630D01*
X185008750Y-84856814D01*
X184933158Y-84865827D01*
X184856047Y-84872489D01*
X184777924Y-84876619D01*
X184699293Y-84878036D01*
X184602526Y-84871050D01*
X184497850Y-84850508D01*
X184385894Y-84817034D01*
X184267287Y-84771251D01*
X184012633Y-84645258D01*
X183738915Y-84477521D01*
X183451162Y-84273031D01*
X183154401Y-84036781D01*
X182853661Y-83773763D01*
X182553970Y-83488968D01*
X182260356Y-83187389D01*
X181977848Y-82874018D01*
X181711472Y-82553847D01*
X181466258Y-82231867D01*
X181247233Y-81913072D01*
X181059425Y-81602452D01*
X180907863Y-81305000D01*
X180847246Y-81162772D01*
X180797575Y-81025708D01*
X180663786Y-80619984D01*
X180518999Y-80210788D01*
X180359162Y-79787703D01*
X180180223Y-79340309D01*
X179978132Y-78858188D01*
X179748838Y-78330922D01*
X179192433Y-77099284D01*
X179099116Y-76876997D01*
X179005004Y-76611664D01*
X178911037Y-76308276D01*
X178818155Y-75971826D01*
X178639411Y-75219706D01*
X178476294Y-74395241D01*
X178336328Y-73538364D01*
X178227038Y-72689012D01*
X178155946Y-71887119D01*
X178137076Y-71516450D01*
X178130577Y-71172622D01*
X178127201Y-71046595D01*
X178117458Y-70877448D01*
X178081187Y-70441049D01*
X178026396Y-69925935D01*
X177993501Y-69658394D01*
X177957713Y-69394616D01*
X177932265Y-69213882D01*
X177911555Y-69041469D01*
X177895693Y-68876434D01*
X177884786Y-68717838D01*
X177878944Y-68564740D01*
X177878275Y-68416200D01*
X177882887Y-68271278D01*
X177892889Y-68129032D01*
X177908390Y-67988522D01*
X177929497Y-67848808D01*
X177956320Y-67708950D01*
X177988967Y-67568006D01*
X177990000Y-67564180D01*
X187769087Y-67564180D01*
X187769705Y-67578945D01*
X187771697Y-67594053D01*
X187775082Y-67609492D01*
X187779879Y-67625247D01*
X187786104Y-67641305D01*
X187791163Y-67657436D01*
X187797058Y-67673399D01*
X187803759Y-67689173D01*
X187811232Y-67704734D01*
X187819448Y-67720060D01*
X187828373Y-67735127D01*
X187848226Y-67764400D01*
X187870540Y-67792369D01*
X187895060Y-67818855D01*
X187921533Y-67843678D01*
X187949707Y-67866655D01*
X187979327Y-67887606D01*
X188010142Y-67906351D01*
X188041896Y-67922707D01*
X188074338Y-67936496D01*
X188107215Y-67947535D01*
X188140272Y-67955644D01*
X188156789Y-67958543D01*
X188173256Y-67960642D01*
X188189642Y-67961918D01*
X188205916Y-67962349D01*
X188222189Y-67961918D01*
X188238580Y-67960642D01*
X188255062Y-67958543D01*
X188271607Y-67955644D01*
X188288188Y-67951967D01*
X188304777Y-67947535D01*
X188321349Y-67942371D01*
X188337875Y-67936496D01*
X188354329Y-67929934D01*
X188370683Y-67922707D01*
X188402985Y-67906351D01*
X188434563Y-67887606D01*
X188465201Y-67866655D01*
X188494680Y-67843678D01*
X188522786Y-67818855D01*
X188549299Y-67792369D01*
X188574005Y-67764400D01*
X188596685Y-67735127D01*
X188617122Y-67704734D01*
X188626432Y-67689173D01*
X188635100Y-67673399D01*
X188643098Y-67657436D01*
X188650401Y-67641305D01*
X188654382Y-67625247D01*
X188657075Y-67609492D01*
X188658493Y-67594053D01*
X188658649Y-67578945D01*
X188657557Y-67564180D01*
X188655230Y-67549772D01*
X188651683Y-67535734D01*
X188646929Y-67522082D01*
X188640980Y-67508827D01*
X188633852Y-67495983D01*
X188625557Y-67483564D01*
X188616109Y-67471585D01*
X188605522Y-67460057D01*
X188593809Y-67448995D01*
X188580983Y-67438412D01*
X188567059Y-67428322D01*
X188552049Y-67418738D01*
X188535968Y-67409674D01*
X188500646Y-67393161D01*
X188461200Y-67378891D01*
X188417738Y-67366972D01*
X188370371Y-67357512D01*
X188319206Y-67350621D01*
X188264351Y-67346407D01*
X188205916Y-67344978D01*
X188176256Y-67345337D01*
X188147482Y-67346407D01*
X188119613Y-67348173D01*
X188092667Y-67350621D01*
X188066660Y-67353739D01*
X188041613Y-67357512D01*
X188017542Y-67361928D01*
X187994466Y-67366972D01*
X187972403Y-67372630D01*
X187951371Y-67378891D01*
X187931388Y-67385739D01*
X187912472Y-67393161D01*
X187894641Y-67401144D01*
X187877913Y-67409674D01*
X187862307Y-67418738D01*
X187847841Y-67428322D01*
X187834532Y-67438412D01*
X187822398Y-67448995D01*
X187811459Y-67460057D01*
X187801731Y-67471585D01*
X187793233Y-67483564D01*
X187785983Y-67495983D01*
X187779999Y-67508827D01*
X187775300Y-67522082D01*
X187771902Y-67535734D01*
X187769825Y-67549772D01*
X187769087Y-67564180D01*
X177990000Y-67564180D01*
X178027547Y-67425036D01*
X178072168Y-67279100D01*
X178122938Y-67129257D01*
X178179966Y-66974566D01*
X178233214Y-66840312D01*
X178281832Y-66706203D01*
X178325818Y-66572384D01*
X178365175Y-66438999D01*
X178399900Y-66306193D01*
X178429996Y-66174111D01*
X178455461Y-66042897D01*
X178476296Y-65912695D01*
X178492501Y-65783652D01*
X178504077Y-65655911D01*
X178511022Y-65529617D01*
X178513338Y-65404915D01*
X178511024Y-65281949D01*
X178504080Y-65160865D01*
X178492507Y-65041806D01*
X178476304Y-64924917D01*
X178444314Y-64712919D01*
X178422960Y-64520742D01*
X178413036Y-64347376D01*
X178412609Y-64267430D01*
X178415339Y-64191807D01*
X178421324Y-64120379D01*
X178430664Y-64053021D01*
X178443459Y-63989606D01*
X178459808Y-63930007D01*
X178479810Y-63874098D01*
X178503566Y-63821752D01*
X178531174Y-63772842D01*
X178562734Y-63727242D01*
X178598345Y-63684826D01*
X178638107Y-63645466D01*
X178682120Y-63609036D01*
X178730482Y-63575409D01*
X178783294Y-63544460D01*
X178840655Y-63516060D01*
X178902663Y-63490085D01*
X178969420Y-63466406D01*
X179041024Y-63444898D01*
X179117575Y-63425434D01*
X179285914Y-63392131D01*
X179475233Y-63365484D01*
X179686329Y-63344480D01*
X180674101Y-63245712D01*
X180007341Y-62949363D01*
X179879970Y-62891101D01*
X179766236Y-62827051D01*
X179665886Y-62756635D01*
X179620650Y-62718858D01*
X179578666Y-62679273D01*
X179539902Y-62637807D01*
X179504325Y-62594387D01*
X179471904Y-62548942D01*
X179442607Y-62501399D01*
X179416404Y-62451685D01*
X179393261Y-62399728D01*
X179373149Y-62345456D01*
X179356033Y-62288797D01*
X179341885Y-62229678D01*
X179330670Y-62168026D01*
X179316919Y-62036837D01*
X179314526Y-61894651D01*
X179323238Y-61740889D01*
X179342802Y-61574972D01*
X179372966Y-61396321D01*
X179413474Y-61204358D01*
X179464076Y-60998504D01*
X179483746Y-60930717D01*
X179505682Y-60866272D01*
X179529833Y-60805181D01*
X179556150Y-60747460D01*
X179584583Y-60693120D01*
X179615083Y-60642177D01*
X179647599Y-60594642D01*
X179682082Y-60550531D01*
X179718482Y-60509856D01*
X179756749Y-60472631D01*
X179796835Y-60438870D01*
X179838688Y-60408586D01*
X179882259Y-60381792D01*
X179927499Y-60358503D01*
X179974358Y-60338732D01*
X180022786Y-60322493D01*
X180072733Y-60309798D01*
X180124149Y-60300662D01*
X180176986Y-60295098D01*
X180231193Y-60293120D01*
X180286720Y-60294741D01*
X180343517Y-60299975D01*
X180401536Y-60308836D01*
X180460726Y-60321336D01*
X180521037Y-60337490D01*
X180582420Y-60357312D01*
X180644825Y-60380813D01*
X180708202Y-60408010D01*
X180772502Y-60438914D01*
X180837674Y-60473539D01*
X180903670Y-60511899D01*
X180970439Y-60554008D01*
X181563115Y-60949115D01*
X181414924Y-59887258D01*
X181389709Y-59707602D01*
X181370606Y-59546213D01*
X181359099Y-59399946D01*
X181356672Y-59265652D01*
X181359326Y-59202011D01*
X181364807Y-59140184D01*
X181373299Y-59079777D01*
X181384987Y-59020396D01*
X181400058Y-58961648D01*
X181418696Y-58903140D01*
X181441087Y-58844478D01*
X181467417Y-58785269D01*
X181497870Y-58725120D01*
X181532632Y-58663637D01*
X181615826Y-58535095D01*
X181718481Y-58396497D01*
X181842080Y-58244695D01*
X181988106Y-58076543D01*
X182158043Y-57888894D01*
X182575581Y-57442514D01*
X182714839Y-57297415D01*
X182863139Y-57149894D01*
X183019107Y-57000997D01*
X183181369Y-56851775D01*
X183348551Y-56703276D01*
X183519276Y-56556550D01*
X183865864Y-56272611D01*
X184210137Y-56008350D01*
X184377969Y-55886222D01*
X184541099Y-55772160D01*
X184698152Y-55667214D01*
X184847753Y-55572432D01*
X184988529Y-55488864D01*
X185119105Y-55417559D01*
X185380025Y-55290241D01*
X185643766Y-55176885D01*
X185909677Y-55077565D01*
X186177108Y-54992353D01*
X186445407Y-54921321D01*
X186713923Y-54864542D01*
X186982005Y-54822087D01*
X187249002Y-54794030D01*
X187514262Y-54780442D01*
X187777135Y-54781396D01*
G37*
G36*
X61304255Y-52546837D02*
G01*
X61331634Y-52551971D01*
X61359353Y-52560425D01*
X61387388Y-52572189D01*
X61415717Y-52587253D01*
X61444318Y-52605609D01*
X61473167Y-52627248D01*
X61502242Y-52652161D01*
X61531521Y-52680338D01*
X61560980Y-52711771D01*
X61590598Y-52746451D01*
X61620351Y-52784369D01*
X61650217Y-52825515D01*
X61680174Y-52869880D01*
X61710198Y-52917456D01*
X61740267Y-52968234D01*
X61770360Y-53022204D01*
X61809065Y-53101001D01*
X61841549Y-53171045D01*
X61867376Y-53232841D01*
X61886114Y-53286896D01*
X61892689Y-53311178D01*
X61897328Y-53333716D01*
X61899978Y-53354571D01*
X61900584Y-53373808D01*
X61899092Y-53391489D01*
X61895448Y-53407678D01*
X61889597Y-53422438D01*
X61881485Y-53435833D01*
X61871058Y-53447926D01*
X61858262Y-53458779D01*
X61843042Y-53468457D01*
X61825344Y-53477023D01*
X61805114Y-53484539D01*
X61782298Y-53491070D01*
X61756841Y-53496678D01*
X61728689Y-53501428D01*
X61664083Y-53508602D01*
X61588046Y-53513100D01*
X61500144Y-53515427D01*
X61399942Y-53516090D01*
X61282356Y-53515674D01*
X61179238Y-53513920D01*
X61090011Y-53510068D01*
X61014095Y-53503358D01*
X60980948Y-53498695D01*
X60950912Y-53493031D01*
X60923915Y-53486274D01*
X60899884Y-53478328D01*
X60878747Y-53469097D01*
X60860431Y-53458487D01*
X60844865Y-53446403D01*
X60831975Y-53432750D01*
X60821690Y-53417433D01*
X60813936Y-53400357D01*
X60808643Y-53381428D01*
X60805737Y-53360549D01*
X60805146Y-53337626D01*
X60806798Y-53312565D01*
X60810620Y-53285270D01*
X60816541Y-53255646D01*
X60824487Y-53223598D01*
X60834386Y-53189032D01*
X60859756Y-53111964D01*
X60892070Y-53023681D01*
X60930752Y-52923425D01*
X60949630Y-52874229D01*
X60969210Y-52828496D01*
X60989467Y-52786217D01*
X61010381Y-52747384D01*
X61031927Y-52711987D01*
X61054084Y-52680018D01*
X61076829Y-52651466D01*
X61100139Y-52626324D01*
X61123992Y-52604582D01*
X61148365Y-52586232D01*
X61173235Y-52571263D01*
X61198580Y-52559668D01*
X61224377Y-52551437D01*
X61250603Y-52546560D01*
X61277237Y-52545030D01*
X61304255Y-52546837D01*
G37*
G36*
X145911787Y-47095565D02*
G01*
X145936592Y-47101560D01*
X145960909Y-47112276D01*
X145984733Y-47127708D01*
X146008060Y-47147851D01*
X146030885Y-47172702D01*
X146053203Y-47202255D01*
X146075011Y-47236506D01*
X146117075Y-47319085D01*
X146157041Y-47420402D01*
X146194873Y-47540420D01*
X146230534Y-47679104D01*
X146263989Y-47836418D01*
X146295201Y-48012324D01*
X146324135Y-48206788D01*
X146343668Y-48336652D01*
X146360602Y-48462324D01*
X146374941Y-48583809D01*
X146386688Y-48701111D01*
X146395850Y-48814236D01*
X146402429Y-48923186D01*
X146406432Y-49027968D01*
X146407861Y-49128586D01*
X146406722Y-49225043D01*
X146403019Y-49317345D01*
X146396758Y-49405496D01*
X146387941Y-49489501D01*
X146376574Y-49569364D01*
X146362662Y-49645089D01*
X146346208Y-49716682D01*
X146327217Y-49784146D01*
X146305695Y-49847487D01*
X146281645Y-49906708D01*
X146255071Y-49961815D01*
X146225979Y-50012811D01*
X146194373Y-50059702D01*
X146160258Y-50102491D01*
X146123637Y-50141184D01*
X146084516Y-50175785D01*
X146042899Y-50206298D01*
X145998790Y-50232728D01*
X145952194Y-50255079D01*
X145903116Y-50273357D01*
X145851560Y-50287564D01*
X145797531Y-50297707D01*
X145741032Y-50303790D01*
X145682069Y-50305816D01*
X145599234Y-50304399D01*
X145526383Y-50299112D01*
X145463080Y-50288399D01*
X145408893Y-50270704D01*
X145385082Y-50258752D01*
X145363388Y-50244472D01*
X145343755Y-50227668D01*
X145326129Y-50208147D01*
X145310457Y-50185715D01*
X145296684Y-50160175D01*
X145284756Y-50131335D01*
X145274618Y-50099000D01*
X145259497Y-50023065D01*
X145250887Y-49930817D01*
X145248355Y-49820699D01*
X145251465Y-49691156D01*
X145259785Y-49540632D01*
X145272879Y-49367572D01*
X145311657Y-48947622D01*
X145341613Y-48672028D01*
X145375330Y-48405116D01*
X145411939Y-48153251D01*
X145450574Y-47922802D01*
X145490365Y-47720133D01*
X145510423Y-47631207D01*
X145530444Y-47551613D01*
X145550321Y-47482147D01*
X145569944Y-47423606D01*
X145589205Y-47376785D01*
X145607995Y-47342480D01*
X145667313Y-47254788D01*
X145724858Y-47186160D01*
X145752955Y-47158983D01*
X145780595Y-47136559D01*
X145807774Y-47118883D01*
X145834487Y-47105950D01*
X145860730Y-47097756D01*
X145886498Y-47094296D01*
X145911787Y-47095565D01*
G37*
G36*
X92329183Y-43104863D02*
G01*
X92372817Y-43108471D01*
X92414046Y-43115198D01*
X92453032Y-43125144D01*
X92489938Y-43138410D01*
X92524927Y-43155093D01*
X92558162Y-43175295D01*
X92589804Y-43199114D01*
X92620018Y-43226650D01*
X92648966Y-43258002D01*
X92676811Y-43293270D01*
X92703714Y-43332553D01*
X92729841Y-43375951D01*
X92755352Y-43423563D01*
X92780411Y-43475489D01*
X92829823Y-43592679D01*
X92879380Y-43728317D01*
X92930384Y-43883200D01*
X92984137Y-44058122D01*
X93004605Y-44134037D01*
X93019394Y-44204744D01*
X93028034Y-44270820D01*
X93029901Y-44302303D01*
X93030054Y-44332845D01*
X93028434Y-44362520D01*
X93024984Y-44391398D01*
X93019643Y-44419553D01*
X93012353Y-44447057D01*
X93003056Y-44473982D01*
X92991692Y-44500400D01*
X92978203Y-44526385D01*
X92962530Y-44552008D01*
X92944614Y-44577341D01*
X92924397Y-44602457D01*
X92901820Y-44627429D01*
X92876823Y-44652328D01*
X92849348Y-44677228D01*
X92819337Y-44702199D01*
X92751470Y-44752649D01*
X92672750Y-44804256D01*
X92582708Y-44857599D01*
X92480874Y-44913257D01*
X92366777Y-44971809D01*
X92118150Y-45090442D01*
X92001788Y-45141477D01*
X91890685Y-45186972D01*
X91784809Y-45226915D01*
X91684128Y-45261292D01*
X91588611Y-45290089D01*
X91498226Y-45313292D01*
X91412941Y-45330889D01*
X91332726Y-45342865D01*
X91257547Y-45349207D01*
X91187374Y-45349901D01*
X91122175Y-45344934D01*
X91061918Y-45334292D01*
X91006571Y-45317962D01*
X90956104Y-45295930D01*
X90910483Y-45268182D01*
X90869679Y-45234706D01*
X90833658Y-45195487D01*
X90802390Y-45150511D01*
X90775842Y-45099766D01*
X90753983Y-45043238D01*
X90736782Y-44980913D01*
X90724206Y-44912777D01*
X90716225Y-44838818D01*
X90712805Y-44759021D01*
X90713917Y-44673373D01*
X90719528Y-44581860D01*
X90729606Y-44484469D01*
X90744120Y-44381186D01*
X90763039Y-44271998D01*
X90786329Y-44156890D01*
X90806635Y-44062793D01*
X90830702Y-43974773D01*
X90858821Y-43892540D01*
X90891281Y-43815806D01*
X90928370Y-43744279D01*
X90948742Y-43710379D01*
X90970380Y-43677673D01*
X90993320Y-43646124D01*
X91017598Y-43615696D01*
X91043251Y-43586353D01*
X91070315Y-43558060D01*
X91098825Y-43530779D01*
X91128819Y-43504475D01*
X91193401Y-43454652D01*
X91264349Y-43408301D01*
X91341954Y-43365134D01*
X91426504Y-43324860D01*
X91518289Y-43287191D01*
X91617599Y-43251837D01*
X91724722Y-43218508D01*
X91873974Y-43176390D01*
X92007744Y-43143170D01*
X92127334Y-43119646D01*
X92182219Y-43111767D01*
X92234046Y-43106611D01*
X92282980Y-43104277D01*
X92329183Y-43104863D01*
G37*
G36*
X98295716Y-26879814D02*
G01*
X98613168Y-26895338D01*
X98918827Y-26920485D01*
X99209835Y-26955289D01*
X99483336Y-26999788D01*
X99736471Y-27054018D01*
X99966383Y-27118014D01*
X100170213Y-27191813D01*
X100309837Y-27254270D01*
X100441607Y-27321045D01*
X100565482Y-27391826D01*
X100681421Y-27466301D01*
X100789384Y-27544158D01*
X100889329Y-27625085D01*
X100981217Y-27708770D01*
X101065007Y-27794902D01*
X101140658Y-27883168D01*
X101208128Y-27973256D01*
X101267378Y-28064854D01*
X101318367Y-28157650D01*
X101361055Y-28251332D01*
X101395399Y-28345589D01*
X101421360Y-28440108D01*
X101438898Y-28534577D01*
X101447970Y-28628684D01*
X101448538Y-28722118D01*
X101440559Y-28814565D01*
X101423994Y-28905716D01*
X101398801Y-28995256D01*
X101364940Y-29082874D01*
X101322371Y-29168259D01*
X101271052Y-29251099D01*
X101210942Y-29331080D01*
X101142002Y-29407892D01*
X101064191Y-29481222D01*
X100977467Y-29550758D01*
X100881790Y-29616189D01*
X100777120Y-29677202D01*
X100663415Y-29733485D01*
X100540635Y-29784727D01*
X100191438Y-29911292D01*
X99802888Y-30056373D01*
X99083662Y-30328003D01*
X98975366Y-30375102D01*
X98872753Y-30432774D01*
X98775865Y-30500593D01*
X98684742Y-30578132D01*
X98599424Y-30664969D01*
X98519953Y-30760677D01*
X98446370Y-30864832D01*
X98378714Y-30977008D01*
X98317027Y-31096780D01*
X98261350Y-31223724D01*
X98168185Y-31497425D01*
X98099545Y-31794711D01*
X98055757Y-32112182D01*
X98037146Y-32446437D01*
X98044037Y-32794076D01*
X98076756Y-33151699D01*
X98135629Y-33515905D01*
X98220981Y-33883294D01*
X98333137Y-34250465D01*
X98472424Y-34614019D01*
X98639166Y-34970555D01*
X98782725Y-35241056D01*
X98927587Y-35488515D01*
X99075632Y-35714197D01*
X99228742Y-35919368D01*
X99388798Y-36105295D01*
X99557680Y-36273243D01*
X99737269Y-36424479D01*
X99929448Y-36560268D01*
X100136096Y-36681877D01*
X100359094Y-36790572D01*
X100600323Y-36887619D01*
X100861666Y-36974284D01*
X101145001Y-37051833D01*
X101452211Y-37121533D01*
X101785176Y-37184648D01*
X102145778Y-37242447D01*
X105020895Y-37678412D01*
X107899196Y-38141869D01*
X110688944Y-38616322D01*
X113298403Y-39085276D01*
X115635837Y-39532237D01*
X117609512Y-39940709D01*
X119127690Y-40294197D01*
X119687301Y-40445166D01*
X120098637Y-40576205D01*
X120476855Y-40689151D01*
X120885675Y-40778294D01*
X121319817Y-40844141D01*
X121774000Y-40887200D01*
X122242941Y-40907975D01*
X122721359Y-40906974D01*
X123203974Y-40884702D01*
X123685504Y-40841668D01*
X124160668Y-40778376D01*
X124624184Y-40695333D01*
X125070770Y-40593047D01*
X125495147Y-40472022D01*
X125892032Y-40332766D01*
X126256143Y-40175786D01*
X126582201Y-40001587D01*
X126729309Y-39908189D01*
X126864923Y-39810676D01*
X127124070Y-39626481D01*
X127398554Y-39462255D01*
X127697925Y-39317127D01*
X128031734Y-39190231D01*
X128409529Y-39080698D01*
X128840861Y-38987660D01*
X129335280Y-38910249D01*
X129902334Y-38847597D01*
X131292552Y-38763096D01*
X133087912Y-38727212D01*
X135364814Y-38733000D01*
X138199655Y-38773515D01*
X141650706Y-38852950D01*
X144462787Y-38955247D01*
X145671175Y-39020666D01*
X146770175Y-39098637D01*
X147776570Y-39191440D01*
X148707145Y-39301353D01*
X149578685Y-39430655D01*
X150407974Y-39581625D01*
X151211797Y-39756542D01*
X152006938Y-39957685D01*
X152810182Y-40187332D01*
X153638313Y-40447763D01*
X154508116Y-40741256D01*
X155436375Y-41070091D01*
X155836315Y-41206395D01*
X156011325Y-41258377D01*
X156177219Y-41299290D01*
X156339639Y-41328916D01*
X156504230Y-41347040D01*
X156676633Y-41353443D01*
X156862493Y-41347909D01*
X157067452Y-41330220D01*
X157297153Y-41300160D01*
X157557239Y-41257512D01*
X157853354Y-41202058D01*
X158576240Y-41051866D01*
X159510957Y-40847848D01*
X160797628Y-40566800D01*
X162002401Y-40331188D01*
X163170710Y-40135512D01*
X164347989Y-39974275D01*
X165579673Y-39841978D01*
X166911196Y-39733122D01*
X168387993Y-39642208D01*
X170055497Y-39563739D01*
X170807164Y-39532719D01*
X171541649Y-39513529D01*
X172256237Y-39505841D01*
X172948217Y-39509331D01*
X173614876Y-39523673D01*
X174253501Y-39548542D01*
X174861378Y-39583612D01*
X175435794Y-39628557D01*
X175974037Y-39683052D01*
X176473394Y-39746772D01*
X176931152Y-39819391D01*
X177344598Y-39900583D01*
X177711018Y-39990022D01*
X178027701Y-40087384D01*
X178291932Y-40192343D01*
X178500999Y-40304573D01*
X178561991Y-40349624D01*
X178624321Y-40401078D01*
X178687593Y-40458394D01*
X178751408Y-40521027D01*
X178815368Y-40588436D01*
X178879074Y-40660078D01*
X178942130Y-40735410D01*
X179004138Y-40813889D01*
X179064698Y-40894972D01*
X179123414Y-40978118D01*
X179179887Y-41062783D01*
X179233720Y-41148425D01*
X179284514Y-41234500D01*
X179331872Y-41320467D01*
X179375395Y-41405782D01*
X179414686Y-41489903D01*
X179466475Y-41617463D01*
X179510668Y-41732507D01*
X179547192Y-41836409D01*
X179562555Y-41884612D01*
X179575974Y-41930545D01*
X179587440Y-41974379D01*
X179596943Y-42016288D01*
X179604475Y-42056442D01*
X179610026Y-42095013D01*
X179613588Y-42132174D01*
X179615151Y-42168096D01*
X179614706Y-42202950D01*
X179612245Y-42236909D01*
X179607758Y-42270145D01*
X179601236Y-42302829D01*
X179592670Y-42335133D01*
X179582051Y-42367229D01*
X179569371Y-42399289D01*
X179554620Y-42431484D01*
X179537788Y-42463987D01*
X179518868Y-42496969D01*
X179497849Y-42530602D01*
X179474723Y-42565058D01*
X179422114Y-42637126D01*
X179360968Y-42714547D01*
X179291212Y-42798696D01*
X179235144Y-42862602D01*
X179182688Y-42929098D01*
X179133840Y-42997881D01*
X179088596Y-43068651D01*
X179046952Y-43141101D01*
X179008901Y-43214931D01*
X178974442Y-43289837D01*
X178943567Y-43365517D01*
X178916274Y-43441666D01*
X178892558Y-43517983D01*
X178872413Y-43594164D01*
X178855836Y-43669906D01*
X178842822Y-43744906D01*
X178833367Y-43818863D01*
X178827465Y-43891471D01*
X178825113Y-43962429D01*
X178826306Y-44031434D01*
X178831040Y-44098183D01*
X178839309Y-44162372D01*
X178851110Y-44223699D01*
X178866437Y-44281860D01*
X178885287Y-44336554D01*
X178907654Y-44387476D01*
X178933535Y-44434325D01*
X178962925Y-44476796D01*
X178995818Y-44514588D01*
X179032212Y-44547396D01*
X179072101Y-44574919D01*
X179115480Y-44596853D01*
X179162346Y-44612895D01*
X179212693Y-44622742D01*
X179266517Y-44626092D01*
X179313628Y-44624669D01*
X179362113Y-44620498D01*
X179411612Y-44613722D01*
X179461761Y-44604486D01*
X179512199Y-44592935D01*
X179562566Y-44579213D01*
X179612498Y-44563466D01*
X179661635Y-44545838D01*
X179709613Y-44526473D01*
X179756073Y-44505517D01*
X179800651Y-44483113D01*
X179842987Y-44459406D01*
X179882718Y-44434542D01*
X179919483Y-44408665D01*
X179952920Y-44381919D01*
X179982667Y-44354449D01*
X179996840Y-44340849D01*
X180011555Y-44327833D01*
X180042468Y-44303567D01*
X180075118Y-44281689D01*
X180109216Y-44262234D01*
X180144471Y-44245238D01*
X180180595Y-44230739D01*
X180217299Y-44218771D01*
X180254292Y-44209371D01*
X180291285Y-44202576D01*
X180327989Y-44198421D01*
X180364114Y-44196943D01*
X180399371Y-44198179D01*
X180433471Y-44202163D01*
X180466124Y-44208933D01*
X180481818Y-44213374D01*
X180497041Y-44218525D01*
X180511758Y-44224391D01*
X180525932Y-44230975D01*
X180541415Y-44243275D01*
X180555450Y-44257026D01*
X180568039Y-44272233D01*
X180579180Y-44288901D01*
X180597123Y-44326636D01*
X180609277Y-44370267D01*
X180615644Y-44419831D01*
X180616223Y-44475364D01*
X180611013Y-44536901D01*
X180600016Y-44604479D01*
X180583232Y-44678134D01*
X180560659Y-44757903D01*
X180532299Y-44843822D01*
X180498150Y-44935926D01*
X180458214Y-45034252D01*
X180412490Y-45138837D01*
X180360978Y-45249716D01*
X180303679Y-45366926D01*
X180251881Y-45470364D01*
X180202986Y-45572242D01*
X180157003Y-45672447D01*
X180113941Y-45770865D01*
X180073808Y-45867385D01*
X180036615Y-45961892D01*
X180002370Y-46054274D01*
X179971082Y-46144418D01*
X179942760Y-46232210D01*
X179917414Y-46317538D01*
X179895051Y-46400289D01*
X179875682Y-46480349D01*
X179859315Y-46557606D01*
X179845960Y-46631946D01*
X179835625Y-46703256D01*
X179828319Y-46771424D01*
X179824052Y-46836337D01*
X179822833Y-46897880D01*
X179824670Y-46955942D01*
X179829572Y-47010409D01*
X179837550Y-47061169D01*
X179848611Y-47108108D01*
X179862765Y-47151112D01*
X179880020Y-47190070D01*
X179900386Y-47224868D01*
X179923873Y-47255393D01*
X179950488Y-47281532D01*
X179980241Y-47303172D01*
X180013142Y-47320200D01*
X180049198Y-47332502D01*
X180088419Y-47339967D01*
X180130815Y-47342480D01*
X180175146Y-47336505D01*
X180242375Y-47318991D01*
X180439886Y-47251804D01*
X180712058Y-47145839D01*
X181047608Y-47006014D01*
X181435246Y-46837252D01*
X181863688Y-46644470D01*
X182321646Y-46432589D01*
X182797834Y-46206529D01*
X183773855Y-45752777D01*
X184729112Y-45354623D01*
X185663100Y-45012104D01*
X186575311Y-44725255D01*
X187465239Y-44494114D01*
X188332378Y-44318715D01*
X189176222Y-44199096D01*
X189996263Y-44135292D01*
X190791997Y-44127339D01*
X191562915Y-44175275D01*
X192308512Y-44279135D01*
X193028281Y-44438954D01*
X193378322Y-44539860D01*
X193721716Y-44654770D01*
X194058400Y-44783688D01*
X194388310Y-44926619D01*
X194711384Y-45083567D01*
X195027557Y-45254536D01*
X195336767Y-45439532D01*
X195638951Y-45638559D01*
X195739149Y-45708085D01*
X195853672Y-45795409D01*
X196120484Y-46018240D01*
X196428969Y-46296633D01*
X196768710Y-46620170D01*
X197129287Y-46978433D01*
X197500284Y-47361005D01*
X197871282Y-47757466D01*
X198231865Y-48157398D01*
X198405930Y-48352873D01*
X198575655Y-48540499D01*
X198740171Y-48719371D01*
X198898609Y-48888584D01*
X199050103Y-49047235D01*
X199193782Y-49194420D01*
X199328780Y-49329233D01*
X199454229Y-49450770D01*
X199569260Y-49558127D01*
X199673004Y-49650400D01*
X199764595Y-49726684D01*
X199843163Y-49786074D01*
X199877292Y-49809151D01*
X199907840Y-49827667D01*
X199934699Y-49841506D01*
X199957760Y-49850557D01*
X199976913Y-49854707D01*
X199992052Y-49853841D01*
X200003067Y-49847848D01*
X200009849Y-49836615D01*
X200017884Y-49785941D01*
X200014510Y-49722345D01*
X199975364Y-49559096D01*
X199896066Y-49352293D01*
X199780269Y-49107364D01*
X199631626Y-48829733D01*
X199453791Y-48524827D01*
X199250417Y-48198071D01*
X199025159Y-47854894D01*
X198781670Y-47500719D01*
X198523603Y-47140974D01*
X198254612Y-46781084D01*
X197978350Y-46426475D01*
X197698472Y-46082575D01*
X197418630Y-45754807D01*
X197142478Y-45448600D01*
X196873671Y-45169378D01*
X196566481Y-44880424D01*
X196226592Y-44575553D01*
X195865289Y-44264315D01*
X195493858Y-43956261D01*
X195123584Y-43660940D01*
X194765754Y-43387902D01*
X194431653Y-43146697D01*
X194132566Y-42946876D01*
X192157023Y-41712156D01*
X191539653Y-41317039D01*
X192231086Y-41144175D01*
X192537672Y-41107652D01*
X193079385Y-41098547D01*
X194766908Y-41154206D01*
X197091084Y-41294366D01*
X199849341Y-41502244D01*
X205857810Y-42054012D01*
X208702878Y-42364333D01*
X211171739Y-42675233D01*
X214505476Y-43119729D01*
X214925288Y-42576464D01*
X215127477Y-42314082D01*
X215176139Y-42251819D01*
X216700220Y-42251819D01*
X216702811Y-42308965D01*
X216711008Y-42366220D01*
X216724623Y-42423430D01*
X216743464Y-42480441D01*
X216767343Y-42537099D01*
X216796069Y-42593251D01*
X216829452Y-42648742D01*
X216867303Y-42703420D01*
X216909431Y-42757130D01*
X216955647Y-42809719D01*
X217005761Y-42861033D01*
X217116922Y-42959219D01*
X217241395Y-43050461D01*
X217377660Y-43133527D01*
X217524200Y-43207189D01*
X217679493Y-43270215D01*
X217842022Y-43321377D01*
X218010267Y-43359443D01*
X218096057Y-43373182D01*
X218182707Y-43383185D01*
X218270027Y-43389300D01*
X218357826Y-43391372D01*
X218447320Y-43389723D01*
X218530602Y-43384837D01*
X218607679Y-43376803D01*
X218678562Y-43365713D01*
X218743259Y-43351657D01*
X218801780Y-43334725D01*
X218854134Y-43315007D01*
X218900328Y-43292595D01*
X218940374Y-43267578D01*
X218974278Y-43240047D01*
X219002052Y-43210092D01*
X219023703Y-43177804D01*
X219039241Y-43143273D01*
X219048674Y-43106590D01*
X219052013Y-43067846D01*
X219049265Y-43027129D01*
X219040440Y-42984532D01*
X219027806Y-42946876D01*
X220308674Y-42946876D01*
X220309277Y-43029671D01*
X220311182Y-43102228D01*
X220314534Y-43164729D01*
X220316798Y-43192265D01*
X220319478Y-43217355D01*
X220322592Y-43240022D01*
X220326159Y-43260287D01*
X220330195Y-43278174D01*
X220334720Y-43293705D01*
X220339751Y-43306903D01*
X220345307Y-43317790D01*
X220351405Y-43326389D01*
X220358064Y-43332723D01*
X220365302Y-43336815D01*
X220373137Y-43338686D01*
X220381586Y-43338359D01*
X220390669Y-43335858D01*
X220400403Y-43331204D01*
X220410806Y-43324420D01*
X220421896Y-43315530D01*
X220433692Y-43304555D01*
X220446211Y-43291518D01*
X220459472Y-43276441D01*
X220473492Y-43259348D01*
X220488291Y-43240261D01*
X220520292Y-43196195D01*
X220555623Y-43144424D01*
X220601684Y-43068366D01*
X220646299Y-42989702D01*
X220667611Y-42950026D01*
X220688019Y-42910459D01*
X220707343Y-42871253D01*
X220725399Y-42832662D01*
X220742010Y-42794940D01*
X220756991Y-42758339D01*
X220770165Y-42723112D01*
X220781349Y-42689514D01*
X220790362Y-42657797D01*
X220797024Y-42628214D01*
X220801154Y-42601019D01*
X220802571Y-42576464D01*
X220802283Y-42567277D01*
X220801425Y-42558243D01*
X220800007Y-42549372D01*
X220798037Y-42540673D01*
X220795524Y-42532155D01*
X220792478Y-42523827D01*
X220788908Y-42515698D01*
X220784821Y-42507778D01*
X220780229Y-42500074D01*
X220775139Y-42492596D01*
X220769560Y-42485354D01*
X220763503Y-42478356D01*
X220756975Y-42471611D01*
X220749986Y-42465128D01*
X220742545Y-42458917D01*
X220734660Y-42452986D01*
X220717598Y-42442002D01*
X220698872Y-42432248D01*
X220678554Y-42423796D01*
X220656717Y-42416718D01*
X220633433Y-42411088D01*
X220608774Y-42406976D01*
X220582813Y-42404457D01*
X220555623Y-42403601D01*
X220544051Y-42404318D01*
X220532501Y-42406446D01*
X220520997Y-42409949D01*
X220509561Y-42414790D01*
X220498215Y-42420933D01*
X220486982Y-42428343D01*
X220464946Y-42446815D01*
X220443634Y-42469917D01*
X220423226Y-42497361D01*
X220403903Y-42528855D01*
X220385846Y-42564112D01*
X220369236Y-42602841D01*
X220354254Y-42644754D01*
X220341080Y-42689561D01*
X220329896Y-42736972D01*
X220320883Y-42786698D01*
X220314221Y-42838451D01*
X220310091Y-42891940D01*
X220308674Y-42946876D01*
X219027806Y-42946876D01*
X219025547Y-42940143D01*
X219004595Y-42894055D01*
X218977593Y-42846357D01*
X218944550Y-42797140D01*
X218905475Y-42746494D01*
X218860378Y-42694509D01*
X218809266Y-42641276D01*
X218752150Y-42586886D01*
X218689038Y-42531428D01*
X218619939Y-42474994D01*
X218544863Y-42417673D01*
X218463818Y-42359557D01*
X218376814Y-42300735D01*
X218283859Y-42241298D01*
X218184962Y-42181337D01*
X217996053Y-42068453D01*
X217826605Y-41970473D01*
X217748749Y-41927026D01*
X217675243Y-41887251D01*
X217605915Y-41851130D01*
X217540594Y-41818643D01*
X217479107Y-41789775D01*
X217421282Y-41764505D01*
X217366948Y-41742816D01*
X217315933Y-41724691D01*
X217268065Y-41710110D01*
X217223172Y-41699056D01*
X217181082Y-41691512D01*
X217141625Y-41687457D01*
X217104626Y-41686876D01*
X217069916Y-41689749D01*
X217037323Y-41696058D01*
X217006673Y-41705786D01*
X216977795Y-41718914D01*
X216950519Y-41735424D01*
X216924671Y-41755298D01*
X216900081Y-41778519D01*
X216876575Y-41805067D01*
X216853983Y-41834925D01*
X216832132Y-41868075D01*
X216810852Y-41904498D01*
X216789969Y-41944178D01*
X216769312Y-41987094D01*
X216748709Y-42033231D01*
X216727989Y-42082568D01*
X216712619Y-42138466D01*
X216703427Y-42194935D01*
X216700220Y-42251819D01*
X215176139Y-42251819D01*
X215375969Y-41996137D01*
X215633721Y-41659674D01*
X215754494Y-41496073D01*
X215863691Y-41341734D01*
X215920620Y-41273204D01*
X215979972Y-41206736D01*
X216041278Y-41142655D01*
X216104068Y-41081287D01*
X216167871Y-41022957D01*
X216232216Y-40967992D01*
X216296635Y-40916715D01*
X216360656Y-40869455D01*
X216423809Y-40826535D01*
X216485624Y-40788281D01*
X216545630Y-40755019D01*
X216603357Y-40727075D01*
X216658336Y-40704774D01*
X216710095Y-40688441D01*
X216734620Y-40682615D01*
X216758164Y-40678403D01*
X216780668Y-40675846D01*
X216802073Y-40674984D01*
X216858264Y-40667370D01*
X216915901Y-40644164D01*
X216975275Y-40604825D01*
X217036674Y-40548810D01*
X217100388Y-40475576D01*
X217166707Y-40384581D01*
X217235919Y-40275283D01*
X217308314Y-40147138D01*
X217384183Y-39999604D01*
X217463812Y-39832139D01*
X217635515Y-39435245D01*
X217825737Y-38952115D01*
X218036793Y-38378409D01*
X218191280Y-37899854D01*
X218337372Y-37434611D01*
X218471309Y-36993678D01*
X218589329Y-36588051D01*
X218687671Y-36228727D01*
X218762572Y-35926704D01*
X218790056Y-35800616D01*
X218810271Y-35692978D01*
X218822744Y-35605163D01*
X218827006Y-35538546D01*
X218832101Y-35367180D01*
X218838340Y-35291824D01*
X218846926Y-35223305D01*
X218857773Y-35161587D01*
X218870795Y-35106633D01*
X218885906Y-35058407D01*
X218903020Y-35016874D01*
X218922051Y-34981997D01*
X218942914Y-34953739D01*
X218965522Y-34932065D01*
X218989790Y-34916938D01*
X219015631Y-34908323D01*
X219042959Y-34906182D01*
X219071690Y-34910481D01*
X219101736Y-34921183D01*
X219133012Y-34938250D01*
X219165433Y-34961648D01*
X219198911Y-34991341D01*
X219233362Y-35027291D01*
X219268698Y-35069464D01*
X219304836Y-35117821D01*
X219341687Y-35172329D01*
X219379167Y-35232949D01*
X219455669Y-35372386D01*
X219533654Y-35535842D01*
X219612436Y-35723027D01*
X219691325Y-35933653D01*
X219781085Y-36202636D01*
X219881552Y-36520526D01*
X220101874Y-37257887D01*
X220326822Y-38055444D01*
X220530928Y-38822904D01*
X220593816Y-39070215D01*
X220653196Y-39294266D01*
X220709609Y-39496107D01*
X220763599Y-39676787D01*
X220789854Y-39759519D01*
X220815707Y-39837354D01*
X220841226Y-39910424D01*
X220866477Y-39978858D01*
X220891530Y-40042790D01*
X220916451Y-40102349D01*
X220941309Y-40157666D01*
X220966171Y-40208873D01*
X220991106Y-40256102D01*
X221016181Y-40299482D01*
X221041464Y-40339146D01*
X221067022Y-40375224D01*
X221092924Y-40407847D01*
X221119238Y-40437147D01*
X221146030Y-40463255D01*
X221173370Y-40486301D01*
X221201325Y-40506417D01*
X221229962Y-40523735D01*
X221259350Y-40538384D01*
X221289556Y-40550497D01*
X221320648Y-40560205D01*
X221352694Y-40567638D01*
X221385763Y-40572928D01*
X221419920Y-40576205D01*
X221569041Y-40584368D01*
X221711144Y-40599839D01*
X221846736Y-40622978D01*
X221976322Y-40654148D01*
X222039021Y-40672857D01*
X222100409Y-40693710D01*
X222160549Y-40716751D01*
X222219505Y-40742026D01*
X222277338Y-40769580D01*
X222334114Y-40799457D01*
X222389895Y-40831705D01*
X222444744Y-40866366D01*
X222498726Y-40903488D01*
X222551902Y-40943115D01*
X222604337Y-40985292D01*
X222656094Y-41030064D01*
X222757825Y-41127575D01*
X222857604Y-41236011D01*
X222955936Y-41355733D01*
X223053327Y-41487102D01*
X223150285Y-41630480D01*
X223247316Y-41786230D01*
X223341905Y-41949283D01*
X223421771Y-42096311D01*
X223486661Y-42228073D01*
X223513411Y-42288467D01*
X223536322Y-42345330D01*
X223555363Y-42398757D01*
X223570501Y-42448841D01*
X223581705Y-42495679D01*
X223588944Y-42539366D01*
X223592185Y-42579996D01*
X223591397Y-42617664D01*
X223586549Y-42652465D01*
X223577609Y-42684495D01*
X223564545Y-42713848D01*
X223547325Y-42740619D01*
X223525919Y-42764902D01*
X223500293Y-42786794D01*
X223470417Y-42806389D01*
X223436259Y-42823782D01*
X223397787Y-42839068D01*
X223354970Y-42852341D01*
X223307775Y-42863698D01*
X223256172Y-42873232D01*
X223200129Y-42881039D01*
X223139613Y-42887213D01*
X223005040Y-42895045D01*
X222852198Y-42897487D01*
X222742054Y-42900121D01*
X222634025Y-42907856D01*
X222528347Y-42920439D01*
X222425256Y-42937615D01*
X222324986Y-42959132D01*
X222227774Y-42984737D01*
X222133853Y-43014176D01*
X222043458Y-43047197D01*
X221956826Y-43083545D01*
X221874191Y-43122969D01*
X221795789Y-43165213D01*
X221721853Y-43210026D01*
X221652620Y-43257155D01*
X221588325Y-43306344D01*
X221529203Y-43357343D01*
X221475489Y-43409898D01*
X221427417Y-43463754D01*
X221385224Y-43518659D01*
X221349144Y-43574360D01*
X221319413Y-43630604D01*
X221296265Y-43687137D01*
X221279935Y-43743707D01*
X221270660Y-43800059D01*
X221268673Y-43855941D01*
X221274210Y-43911099D01*
X221287507Y-43965281D01*
X221308797Y-44018233D01*
X221338318Y-44069701D01*
X221376302Y-44119434D01*
X221422986Y-44167177D01*
X221478605Y-44212676D01*
X221543394Y-44255681D01*
X221655925Y-44287800D01*
X221874079Y-44327445D01*
X222185413Y-44372879D01*
X222577484Y-44422365D01*
X223554069Y-44526546D01*
X224704289Y-44626092D01*
X226018741Y-44741459D01*
X227288336Y-44882293D01*
X228502945Y-45046278D01*
X229652442Y-45231101D01*
X230726698Y-45434444D01*
X231715585Y-45653995D01*
X232608974Y-45887437D01*
X233016693Y-46008644D01*
X233396739Y-46132455D01*
X233593630Y-46198441D01*
X233777283Y-46257517D01*
X233948347Y-46309721D01*
X234107474Y-46355088D01*
X234255316Y-46393655D01*
X234392522Y-46425457D01*
X234519745Y-46450531D01*
X234637635Y-46468913D01*
X234746844Y-46480639D01*
X234848022Y-46485745D01*
X234941821Y-46484267D01*
X234986156Y-46481071D01*
X235028891Y-46476243D01*
X235070107Y-46469786D01*
X235109885Y-46461707D01*
X235148306Y-46452008D01*
X235185452Y-46440696D01*
X235221405Y-46427773D01*
X235256245Y-46413246D01*
X235290054Y-46397117D01*
X235322914Y-46379392D01*
X235474374Y-46326731D01*
X235706934Y-46289154D01*
X236417960Y-46259395D01*
X237461201Y-46290409D01*
X238841868Y-46382482D01*
X240565169Y-46535906D01*
X242636314Y-46750970D01*
X247842976Y-47367175D01*
X253010304Y-47984540D01*
X257103407Y-48453736D01*
X261881783Y-49006267D01*
X268586308Y-49836615D01*
X269635059Y-49944654D01*
X271031069Y-50071215D01*
X272593761Y-50197776D01*
X274142558Y-50305816D01*
X275738831Y-50432757D01*
X277430022Y-50580537D01*
X279014712Y-50732949D01*
X280291484Y-50873787D01*
X280707345Y-50926944D01*
X281077556Y-50976086D01*
X281405661Y-51022407D01*
X281695206Y-51067099D01*
X281949734Y-51111357D01*
X282064975Y-51133696D01*
X282172792Y-51156375D01*
X282273627Y-51179541D01*
X282367924Y-51203346D01*
X282456126Y-51227937D01*
X282538675Y-51253464D01*
X282616016Y-51280076D01*
X282688591Y-51307923D01*
X282756843Y-51337153D01*
X282821216Y-51367917D01*
X282882152Y-51400362D01*
X282940095Y-51434639D01*
X282995488Y-51470896D01*
X283048773Y-51509283D01*
X283100395Y-51549949D01*
X283150796Y-51593044D01*
X283200419Y-51638716D01*
X283249707Y-51687114D01*
X283299105Y-51738388D01*
X283349054Y-51792687D01*
X283452379Y-51910958D01*
X283574948Y-52066985D01*
X283701352Y-52237771D01*
X283962478Y-52617831D01*
X284229391Y-53039563D01*
X284495724Y-53491393D01*
X284755112Y-53961744D01*
X285001189Y-54439043D01*
X285227588Y-54911713D01*
X285427943Y-55368180D01*
X285748955Y-56109015D01*
X285650175Y-55121232D01*
X285511283Y-54080981D01*
X285431407Y-53492556D01*
X285353837Y-52948109D01*
X285340815Y-52829269D01*
X285329528Y-52713901D01*
X285319978Y-52602585D01*
X285312165Y-52495899D01*
X285306087Y-52394422D01*
X285301747Y-52298732D01*
X285299142Y-52209409D01*
X285298274Y-52127030D01*
X285299142Y-52052176D01*
X285301747Y-51985424D01*
X285306087Y-51927354D01*
X285312165Y-51878544D01*
X285319978Y-51839574D01*
X285324536Y-51823959D01*
X285329528Y-51811021D01*
X285334955Y-51800832D01*
X285340815Y-51793465D01*
X285347109Y-51788991D01*
X285353837Y-51787484D01*
X285441143Y-51800892D01*
X285621630Y-51839186D01*
X286218161Y-51978859D01*
X288045552Y-52429528D01*
X288703866Y-52602921D01*
X289319676Y-52781811D01*
X289896203Y-52968226D01*
X290436664Y-53164191D01*
X290944280Y-53371731D01*
X291422270Y-53592873D01*
X291873854Y-53829641D01*
X292302250Y-54084062D01*
X292710678Y-54358161D01*
X293102358Y-54653964D01*
X293480509Y-54973497D01*
X293848350Y-55318785D01*
X294209102Y-55691855D01*
X294565982Y-56094731D01*
X294922210Y-56529440D01*
X295281007Y-56998007D01*
X295447185Y-57238568D01*
X295594081Y-57472075D01*
X295722095Y-57702471D01*
X295831624Y-57933699D01*
X295923067Y-58169701D01*
X295996819Y-58414421D01*
X296053281Y-58671801D01*
X296092850Y-58945784D01*
X296115923Y-59240314D01*
X296122898Y-59559333D01*
X296114174Y-59906785D01*
X296090149Y-60286612D01*
X296051219Y-60702757D01*
X295997784Y-61159162D01*
X295848988Y-62208529D01*
X295750143Y-62798564D01*
X295638167Y-63347324D01*
X295512083Y-63856366D01*
X295370916Y-64327243D01*
X295294370Y-64548856D01*
X295213687Y-64761512D01*
X295128745Y-64965405D01*
X295039422Y-65160729D01*
X294945595Y-65347679D01*
X294847142Y-65526449D01*
X294743941Y-65697234D01*
X294635871Y-65860228D01*
X294522809Y-66015626D01*
X294404632Y-66163621D01*
X294281220Y-66304410D01*
X294152450Y-66438185D01*
X294018199Y-66565141D01*
X293878346Y-66685473D01*
X293732769Y-66799375D01*
X293581345Y-66907042D01*
X293423952Y-67008669D01*
X293260469Y-67104449D01*
X293090773Y-67194576D01*
X292914742Y-67279247D01*
X292732254Y-67358654D01*
X292543188Y-67432993D01*
X292347420Y-67502457D01*
X292144828Y-67567242D01*
X291910084Y-67637412D01*
X291655952Y-67716556D01*
X291390823Y-67802068D01*
X291123091Y-67891343D01*
X290861146Y-67981776D01*
X290613382Y-68070764D01*
X290388188Y-68155700D01*
X290193959Y-68233981D01*
X289999777Y-68303001D01*
X289774922Y-68378677D01*
X289267916Y-68539578D01*
X288742393Y-68695847D01*
X288494391Y-68765732D01*
X288267805Y-68826646D01*
X288101266Y-68871345D01*
X287952995Y-68913367D01*
X287822159Y-68953508D01*
X287707927Y-68992564D01*
X287656778Y-69011934D01*
X287609468Y-69031331D01*
X287565892Y-69050854D01*
X287525948Y-69070604D01*
X287489530Y-69090679D01*
X287456536Y-69111179D01*
X287426860Y-69132204D01*
X287400399Y-69153852D01*
X287377050Y-69176224D01*
X287356707Y-69199420D01*
X287339268Y-69223537D01*
X287324627Y-69248677D01*
X287312681Y-69274938D01*
X287303326Y-69302419D01*
X287296459Y-69331221D01*
X287291974Y-69361443D01*
X287289768Y-69393184D01*
X287289737Y-69426544D01*
X287291777Y-69461623D01*
X287295784Y-69498519D01*
X287301654Y-69537332D01*
X287309283Y-69578162D01*
X287329402Y-69666270D01*
X287433432Y-70162821D01*
X287514565Y-70710087D01*
X287573631Y-71297434D01*
X287611463Y-71914226D01*
X287628894Y-72549829D01*
X287626754Y-73193608D01*
X287605876Y-73834926D01*
X287567092Y-74463150D01*
X287511235Y-75067645D01*
X287439135Y-75637775D01*
X287351626Y-76162905D01*
X287249539Y-76632401D01*
X287133706Y-77035627D01*
X287004959Y-77361949D01*
X286936003Y-77492947D01*
X286864131Y-77600731D01*
X286789446Y-77683971D01*
X286712053Y-77741339D01*
X286581045Y-77797463D01*
X286401386Y-77854635D01*
X285898280Y-77971692D01*
X285207075Y-78091642D01*
X284332110Y-78213618D01*
X283277727Y-78336752D01*
X282048264Y-78460176D01*
X280648061Y-78583023D01*
X279081459Y-78704426D01*
X277469184Y-78849839D01*
X275550157Y-79057472D01*
X271074290Y-79621200D01*
X266218740Y-80319206D01*
X261548390Y-81075087D01*
X252930046Y-82507365D01*
X247914760Y-83304533D01*
X243274519Y-84013728D01*
X239993245Y-84529227D01*
X237841743Y-84878036D01*
X231433538Y-85958413D01*
X228291936Y-86475453D01*
X226358821Y-86779495D01*
X223395102Y-87225549D01*
X219484506Y-87847546D01*
X215430372Y-88515838D01*
X212036036Y-89100776D01*
X205149382Y-90230552D01*
X198207149Y-91323278D01*
X197853326Y-91382022D01*
X197501818Y-91445976D01*
X197161886Y-91513404D01*
X196842789Y-91582569D01*
X196553788Y-91651734D01*
X196304143Y-91719161D01*
X196196973Y-91751681D01*
X196103114Y-91783115D01*
X196023725Y-91813247D01*
X195959962Y-91841859D01*
X195903682Y-91865263D01*
X195837309Y-91889030D01*
X195677904Y-91936780D01*
X195488983Y-91983373D01*
X195277778Y-92027071D01*
X195051526Y-92066141D01*
X194817459Y-92098844D01*
X194582812Y-92123445D01*
X194354820Y-92138207D01*
X194191757Y-92148117D01*
X194044647Y-92159619D01*
X193912656Y-92173147D01*
X193852071Y-92180806D01*
X193794954Y-92189134D01*
X193741201Y-92198186D01*
X193690709Y-92208016D01*
X193643372Y-92218678D01*
X193599088Y-92230226D01*
X193557751Y-92242714D01*
X193519259Y-92256198D01*
X193483507Y-92270730D01*
X193450391Y-92286366D01*
X193419807Y-92303159D01*
X193391651Y-92321164D01*
X193365819Y-92340436D01*
X193342208Y-92361027D01*
X193320712Y-92382993D01*
X193301229Y-92406388D01*
X193283654Y-92431266D01*
X193267883Y-92457682D01*
X193253812Y-92485689D01*
X193241337Y-92515342D01*
X193230355Y-92546695D01*
X193220760Y-92579803D01*
X193212450Y-92614719D01*
X193205320Y-92651498D01*
X193199266Y-92690194D01*
X193194185Y-92730862D01*
X193182639Y-92806152D01*
X193175905Y-92874787D01*
X193174398Y-92906698D01*
X193174162Y-92937054D01*
X193175220Y-92965891D01*
X193177593Y-92993244D01*
X193181304Y-93019151D01*
X193186377Y-93043647D01*
X193192833Y-93066768D01*
X193200696Y-93088551D01*
X193209987Y-93109031D01*
X193220730Y-93128245D01*
X193232947Y-93146230D01*
X193246661Y-93163020D01*
X193261894Y-93178653D01*
X193278669Y-93193165D01*
X193297009Y-93206591D01*
X193316935Y-93218968D01*
X193338472Y-93230332D01*
X193361640Y-93240720D01*
X193386464Y-93250167D01*
X193412965Y-93258709D01*
X193441167Y-93266384D01*
X193471091Y-93273226D01*
X193536198Y-93284559D01*
X193608468Y-93292998D01*
X193688081Y-93298832D01*
X194961239Y-93343788D01*
X196427999Y-93417681D01*
X197976368Y-93512409D01*
X199494353Y-93619869D01*
X200869960Y-93731959D01*
X201991195Y-93840576D01*
X202746064Y-93937619D01*
X202951114Y-93979266D01*
X203004418Y-93997929D01*
X203022575Y-94014982D01*
X203055601Y-94034058D01*
X203152511Y-94054147D01*
X203524953Y-94096784D01*
X204893179Y-94187846D01*
X206918892Y-94278908D01*
X209393733Y-94360710D01*
X212088134Y-94450606D01*
X214743174Y-94561340D01*
X217050944Y-94676707D01*
X218703532Y-94780500D01*
X221168061Y-94930116D01*
X224658759Y-95060632D01*
X233081885Y-95243528D01*
X240699351Y-95287516D01*
X243182973Y-95244397D01*
X243914484Y-95204280D01*
X244237596Y-95150923D01*
X244652580Y-95035986D01*
X245561838Y-94930600D01*
X249182660Y-94740377D01*
X255739030Y-94564044D01*
X265869920Y-94385394D01*
X268578984Y-94321336D01*
X271207017Y-94243391D01*
X273450740Y-94156189D01*
X274333712Y-94110564D01*
X275006877Y-94064361D01*
X276486608Y-93973299D01*
X278491878Y-93891499D01*
X280761070Y-93828221D01*
X283032567Y-93792729D01*
X285104589Y-93751833D01*
X286829348Y-93706302D01*
X287505072Y-93683247D01*
X288026263Y-93660772D01*
X288370348Y-93639455D01*
X288468921Y-93629412D01*
X288514753Y-93619876D01*
X294101856Y-93555042D01*
X307282521Y-93545781D01*
X326321931Y-93570465D01*
X326391759Y-93574440D01*
X326453411Y-93602253D01*
X326507394Y-93663852D01*
X326554213Y-93769185D01*
X326594377Y-93928199D01*
X326628391Y-94150842D01*
X326679996Y-94826807D01*
X326713079Y-95876660D01*
X326731693Y-97379984D01*
X326741722Y-102065367D01*
X326741722Y-110560258D01*
X13863143Y-110560258D01*
X13863143Y-88720817D01*
X85081963Y-88720817D01*
X85082108Y-88733308D01*
X85083121Y-88746658D01*
X85085002Y-88760853D01*
X85087751Y-88775881D01*
X85091368Y-88791727D01*
X85101206Y-88825819D01*
X85114517Y-88863023D01*
X85131300Y-88903228D01*
X85148031Y-88940516D01*
X85170223Y-88978130D01*
X85197553Y-89015816D01*
X85229693Y-89053322D01*
X85266319Y-89090394D01*
X85307105Y-89126779D01*
X85351726Y-89162223D01*
X85399855Y-89196474D01*
X85451167Y-89229278D01*
X85505337Y-89260382D01*
X85562039Y-89289532D01*
X85620948Y-89316475D01*
X85681737Y-89340958D01*
X85744082Y-89362728D01*
X85807656Y-89381531D01*
X85872134Y-89397114D01*
X85935287Y-89407404D01*
X85995076Y-89415189D01*
X86051464Y-89420569D01*
X86104416Y-89423642D01*
X86153896Y-89424509D01*
X86199866Y-89423269D01*
X86242292Y-89420021D01*
X86281136Y-89414865D01*
X86316363Y-89407901D01*
X86347937Y-89399227D01*
X86375820Y-89388943D01*
X86399978Y-89377149D01*
X86420374Y-89363945D01*
X86436972Y-89349429D01*
X86449735Y-89333701D01*
X86458628Y-89316861D01*
X86463614Y-89299008D01*
X86464657Y-89280242D01*
X86461721Y-89260662D01*
X86454770Y-89240367D01*
X86443768Y-89219457D01*
X86428677Y-89198032D01*
X86409463Y-89176191D01*
X86386089Y-89154034D01*
X86358519Y-89131659D01*
X86331867Y-89112809D01*
X110875583Y-89112809D01*
X110878842Y-89135015D01*
X110887617Y-89150177D01*
X110984748Y-89180603D01*
X111199334Y-89197971D01*
X111964522Y-89194546D01*
X114724509Y-89042134D01*
X118905972Y-88709146D01*
X124247303Y-88211784D01*
X131902582Y-87470950D01*
X135875297Y-87100529D01*
X140051745Y-86730116D01*
X150571579Y-85791725D01*
X161017320Y-84779257D01*
X161734764Y-84702086D01*
X162413719Y-84620284D01*
X163038847Y-84536168D01*
X163594810Y-84452052D01*
X164066271Y-84370251D01*
X164265520Y-84330943D01*
X164437891Y-84293082D01*
X164581468Y-84256957D01*
X164694333Y-84222859D01*
X164774569Y-84191075D01*
X164801852Y-84176143D01*
X164820259Y-84161897D01*
X164833210Y-84147141D01*
X164844276Y-84130667D01*
X164853452Y-84112492D01*
X164860733Y-84092636D01*
X164866114Y-84071115D01*
X164869592Y-84047949D01*
X164870818Y-83996750D01*
X164864375Y-83939186D01*
X164850227Y-83875399D01*
X164828337Y-83805535D01*
X164798669Y-83729739D01*
X164761188Y-83648155D01*
X164715857Y-83560928D01*
X164662639Y-83468203D01*
X164601499Y-83370124D01*
X164532401Y-83266836D01*
X164455308Y-83158484D01*
X164370184Y-83045213D01*
X164276994Y-82927166D01*
X164156423Y-82777438D01*
X164043991Y-82642649D01*
X163938576Y-82522113D01*
X163839056Y-82415142D01*
X163744311Y-82321049D01*
X163653219Y-82239147D01*
X163608693Y-82202553D01*
X163564659Y-82168748D01*
X163520978Y-82137648D01*
X163477510Y-82109165D01*
X163434114Y-82083215D01*
X163390650Y-82059710D01*
X163346978Y-82038567D01*
X163302958Y-82019697D01*
X163258450Y-82003016D01*
X163213313Y-81988438D01*
X163167408Y-81975876D01*
X163120594Y-81965245D01*
X163072731Y-81956459D01*
X163023679Y-81949432D01*
X162921447Y-81940311D01*
X162812777Y-81937194D01*
X162696547Y-81939395D01*
X155362291Y-82408596D01*
X149933086Y-82726535D01*
X144525295Y-82975020D01*
X139262198Y-83151738D01*
X134267072Y-83254374D01*
X129663199Y-83280613D01*
X125573857Y-83228139D01*
X122122327Y-83094639D01*
X119431887Y-82877798D01*
X118832615Y-82821215D01*
X118304819Y-82781707D01*
X118064018Y-82768629D01*
X117836637Y-82760144D01*
X117621193Y-82756362D01*
X117416203Y-82757392D01*
X117220184Y-82763342D01*
X117031654Y-82774320D01*
X116849128Y-82790435D01*
X116671124Y-82811795D01*
X116496159Y-82838510D01*
X116322749Y-82870687D01*
X116149413Y-82908434D01*
X115974666Y-82951861D01*
X115768222Y-83006353D01*
X115581385Y-83061351D01*
X115410031Y-83120834D01*
X115250035Y-83188781D01*
X115097274Y-83269171D01*
X114947624Y-83365984D01*
X114796962Y-83483199D01*
X114641162Y-83624794D01*
X114476103Y-83794749D01*
X114297659Y-83997043D01*
X114101707Y-84235655D01*
X113884123Y-84514564D01*
X113367564Y-85209191D01*
X112714991Y-86112756D01*
X112312358Y-86684877D01*
X111943294Y-87226323D01*
X111615902Y-87724938D01*
X111470365Y-87954387D01*
X111338284Y-88168571D01*
X111220673Y-88365970D01*
X111118544Y-88545065D01*
X111032911Y-88704337D01*
X110964785Y-88842267D01*
X110915180Y-88957335D01*
X110885108Y-89048022D01*
X110877714Y-89083748D01*
X110875583Y-89112809D01*
X86331867Y-89112809D01*
X86326717Y-89109166D01*
X86290646Y-89086656D01*
X86250270Y-89064226D01*
X86205554Y-89041978D01*
X86156460Y-89020010D01*
X86102954Y-88998422D01*
X86044998Y-88977313D01*
X85948296Y-88946347D01*
X85845516Y-88910173D01*
X85739841Y-88870525D01*
X85634456Y-88829141D01*
X85437284Y-88748114D01*
X85279469Y-88680986D01*
X85261382Y-88672302D01*
X85244163Y-88664762D01*
X85227813Y-88658352D01*
X85212330Y-88653059D01*
X85197716Y-88648870D01*
X85183970Y-88645770D01*
X85171093Y-88643746D01*
X85159083Y-88642786D01*
X85147942Y-88642874D01*
X85137669Y-88643997D01*
X85128264Y-88646143D01*
X85119727Y-88649297D01*
X85112059Y-88653445D01*
X85105258Y-88658575D01*
X85099326Y-88664672D01*
X85094262Y-88671724D01*
X85090066Y-88679716D01*
X85086738Y-88688634D01*
X85084278Y-88698467D01*
X85082687Y-88709199D01*
X85081963Y-88720817D01*
X13863143Y-88720817D01*
X13863143Y-86359704D01*
X14431116Y-86260925D01*
X42366706Y-85964591D01*
X72265500Y-85816418D01*
X73719337Y-85860258D01*
X75038609Y-85917121D01*
X76216081Y-85986139D01*
X77244519Y-86066445D01*
X78116686Y-86157170D01*
X78491908Y-86206169D01*
X78825349Y-86257446D01*
X79116105Y-86310894D01*
X79363272Y-86366405D01*
X79565944Y-86423869D01*
X79723219Y-86483178D01*
X79803560Y-86519893D01*
X79886722Y-86555812D01*
X79972055Y-86590719D01*
X80058908Y-86624396D01*
X80234567Y-86687192D01*
X80408491Y-86742465D01*
X80493174Y-86766737D01*
X80575470Y-86788477D01*
X80654727Y-86807468D01*
X80730294Y-86823493D01*
X80801521Y-86836335D01*
X80867756Y-86845777D01*
X80928347Y-86851600D01*
X80982644Y-86853590D01*
X81035227Y-86855863D01*
X81090777Y-86862513D01*
X81148786Y-86873287D01*
X81208749Y-86887931D01*
X81270158Y-86906192D01*
X81332508Y-86927818D01*
X81395293Y-86952554D01*
X81458005Y-86980148D01*
X81520139Y-87010347D01*
X81581187Y-87042896D01*
X81640644Y-87077543D01*
X81698003Y-87114034D01*
X81752758Y-87152117D01*
X81804402Y-87191538D01*
X81852428Y-87232044D01*
X81896332Y-87273380D01*
X81951334Y-87326060D01*
X82005287Y-87372986D01*
X82058300Y-87414197D01*
X82084487Y-87432670D01*
X82110480Y-87449728D01*
X82136292Y-87465375D01*
X82161937Y-87479615D01*
X82187428Y-87492454D01*
X82212779Y-87503895D01*
X82238003Y-87513943D01*
X82263114Y-87522604D01*
X82288126Y-87529881D01*
X82313051Y-87535778D01*
X82337905Y-87540301D01*
X82362699Y-87543453D01*
X82387449Y-87545240D01*
X82412166Y-87545666D01*
X82436866Y-87544736D01*
X82461561Y-87542453D01*
X82486265Y-87538823D01*
X82510992Y-87533850D01*
X82535755Y-87527539D01*
X82560568Y-87519894D01*
X82585444Y-87510919D01*
X82610397Y-87500620D01*
X82635441Y-87489001D01*
X82660588Y-87476065D01*
X82685854Y-87461819D01*
X82711250Y-87446266D01*
X82761940Y-87416768D01*
X82787158Y-87404236D01*
X82812341Y-87393204D01*
X82837523Y-87383692D01*
X82862742Y-87375718D01*
X82888033Y-87369300D01*
X82913433Y-87364455D01*
X82938977Y-87361202D01*
X82964702Y-87359559D01*
X82990645Y-87359543D01*
X83016840Y-87361174D01*
X83043326Y-87364469D01*
X83070136Y-87369445D01*
X83097309Y-87376123D01*
X83124879Y-87384518D01*
X83152883Y-87394650D01*
X83181358Y-87406536D01*
X83210340Y-87420195D01*
X83239863Y-87435644D01*
X83300684Y-87471986D01*
X83364109Y-87515708D01*
X83430428Y-87566953D01*
X83499930Y-87625867D01*
X83572905Y-87692593D01*
X83649643Y-87767277D01*
X83710353Y-87826560D01*
X83771859Y-87883854D01*
X83833799Y-87938905D01*
X83895811Y-87991460D01*
X83957535Y-88041266D01*
X84018607Y-88088069D01*
X84078666Y-88131616D01*
X84137351Y-88171655D01*
X84194299Y-88207931D01*
X84249150Y-88240193D01*
X84301541Y-88268185D01*
X84351111Y-88291656D01*
X84397497Y-88310352D01*
X84440338Y-88324020D01*
X84460317Y-88328889D01*
X84479273Y-88332406D01*
X84497163Y-88334540D01*
X84513940Y-88335258D01*
X84529353Y-88334684D01*
X84543193Y-88332979D01*
X84555477Y-88330171D01*
X84566224Y-88326286D01*
X84575451Y-88321353D01*
X84583177Y-88315398D01*
X84589420Y-88308447D01*
X84594198Y-88300530D01*
X84597530Y-88291671D01*
X84599432Y-88281899D01*
X84599923Y-88271241D01*
X84599022Y-88259724D01*
X84596746Y-88247375D01*
X84593114Y-88234221D01*
X84588143Y-88220289D01*
X84581852Y-88205606D01*
X84565382Y-88174098D01*
X84543847Y-88139913D01*
X84517392Y-88103269D01*
X84486163Y-88064382D01*
X84450304Y-88023470D01*
X84409959Y-87980749D01*
X84365274Y-87936437D01*
X84316392Y-87890751D01*
X84157669Y-87741065D01*
X83987695Y-87561428D01*
X83807376Y-87353142D01*
X83617615Y-87117508D01*
X83213388Y-86569409D01*
X82782248Y-85927549D01*
X82331428Y-85202345D01*
X81868165Y-84404215D01*
X81399692Y-83543578D01*
X80933244Y-82630850D01*
X79747914Y-80260168D01*
X77253779Y-80111999D01*
X76648909Y-80076218D01*
X76058797Y-80024808D01*
X75486628Y-79958348D01*
X74935585Y-79877418D01*
X74408850Y-79782597D01*
X73909608Y-79674463D01*
X73441041Y-79553597D01*
X73219256Y-79488569D01*
X73006334Y-79420576D01*
X72426884Y-79240136D01*
X71857273Y-79102238D01*
X71189270Y-79000805D01*
X70314643Y-78929759D01*
X69125161Y-78883022D01*
X67512595Y-78854518D01*
X62585284Y-78827900D01*
X59207158Y-78814780D01*
X56414754Y-78778506D01*
X55328632Y-78753136D01*
X54497460Y-78723715D01*
X53957414Y-78690822D01*
X53807866Y-78673254D01*
X53744665Y-78655036D01*
X53691484Y-78576647D01*
X53687903Y-78499040D01*
X53731717Y-78422418D01*
X53820726Y-78346986D01*
X54125519Y-78200502D01*
X54584663Y-78061217D01*
X55180544Y-77930758D01*
X55895543Y-77810752D01*
X57612434Y-77608615D01*
X59594404Y-77467826D01*
X61700521Y-77401409D01*
X63789853Y-77422387D01*
X64784183Y-77469717D01*
X65721467Y-77543780D01*
X67053908Y-77675939D01*
X67626113Y-77730224D01*
X68139211Y-77776840D01*
X68595877Y-77815932D01*
X68998790Y-77847644D01*
X69350625Y-77872121D01*
X69654061Y-77889508D01*
X69911773Y-77899949D01*
X70126438Y-77903589D01*
X70300733Y-77900574D01*
X70373579Y-77896616D01*
X70437336Y-77891048D01*
X70492340Y-77883888D01*
X70538923Y-77875156D01*
X70577422Y-77864867D01*
X70608171Y-77853042D01*
X70631505Y-77839697D01*
X70647757Y-77824851D01*
X70657263Y-77808522D01*
X70660357Y-77790728D01*
X70643284Y-77735989D01*
X70611741Y-77649127D01*
X70567466Y-77535062D01*
X70512194Y-77398713D01*
X70447661Y-77245000D01*
X70375604Y-77078842D01*
X70297759Y-76905160D01*
X70215861Y-76728872D01*
X69796049Y-75864564D01*
X65844941Y-75839880D01*
X64711119Y-75821345D01*
X63675689Y-75792320D01*
X62731705Y-75750997D01*
X61872223Y-75695566D01*
X61090296Y-75624219D01*
X60378981Y-75535147D01*
X59731331Y-75426541D01*
X59429210Y-75364349D01*
X59140401Y-75296594D01*
X58864036Y-75223052D01*
X58599245Y-75143495D01*
X58345163Y-75057699D01*
X58100920Y-74965437D01*
X57865648Y-74866483D01*
X57638478Y-74760611D01*
X57418543Y-74647595D01*
X57204975Y-74527208D01*
X56996905Y-74399224D01*
X56793465Y-74263419D01*
X56593788Y-74119564D01*
X56397004Y-73967435D01*
X56008646Y-73637449D01*
X55621445Y-73271650D01*
X55343627Y-72996888D01*
X55058827Y-72703388D01*
X54770483Y-72395564D01*
X54482029Y-72077827D01*
X54196904Y-71754592D01*
X53974285Y-71495217D01*
X176574221Y-71495217D01*
X176578875Y-72292498D01*
X176608127Y-73119514D01*
X176661253Y-73966172D01*
X176737531Y-74822381D01*
X176836237Y-75678047D01*
X176956647Y-76523078D01*
X177098037Y-77347382D01*
X177259684Y-78140866D01*
X177440865Y-78893437D01*
X177640856Y-79595004D01*
X177858934Y-80235473D01*
X178081804Y-80833903D01*
X178297983Y-81390516D01*
X178509460Y-81908641D01*
X178718223Y-82391605D01*
X178926264Y-82842737D01*
X179135570Y-83265364D01*
X179348132Y-83662814D01*
X179565940Y-84038415D01*
X179790981Y-84395495D01*
X180025247Y-84737382D01*
X180270726Y-85067405D01*
X180529408Y-85388890D01*
X180803283Y-85705166D01*
X181094340Y-86019562D01*
X181404568Y-86335404D01*
X181735957Y-86656021D01*
X182292610Y-87153258D01*
X182850795Y-87598813D01*
X183409732Y-87993091D01*
X183968636Y-88336501D01*
X184526727Y-88629449D01*
X185083221Y-88872341D01*
X185637337Y-89065586D01*
X186188293Y-89209589D01*
X186735305Y-89304758D01*
X187277593Y-89351500D01*
X187814372Y-89350221D01*
X188344863Y-89301329D01*
X188868281Y-89205231D01*
X189383845Y-89062332D01*
X189890772Y-88873042D01*
X190388281Y-88637766D01*
X190875588Y-88356911D01*
X191351913Y-88030884D01*
X191816471Y-87660093D01*
X192268482Y-87244944D01*
X192707163Y-86785844D01*
X193131732Y-86283200D01*
X193541406Y-85737419D01*
X193935403Y-85148908D01*
X194312941Y-84518074D01*
X194673238Y-83845324D01*
X195015510Y-83131065D01*
X195338978Y-82375703D01*
X195380039Y-82268138D01*
X197392626Y-82268138D01*
X197393055Y-82294388D01*
X197398589Y-82319842D01*
X197409087Y-82344428D01*
X197424410Y-82368073D01*
X197444418Y-82390706D01*
X197468970Y-82412253D01*
X197497926Y-82432643D01*
X197531146Y-82451803D01*
X197609818Y-82486144D01*
X197703863Y-82514697D01*
X197812160Y-82536883D01*
X197933588Y-82552124D01*
X198067026Y-82559842D01*
X198211352Y-82559456D01*
X198365444Y-82550388D01*
X198528181Y-82532060D01*
X209254833Y-81430075D01*
X224630204Y-79939146D01*
X226960555Y-79716176D01*
X228896179Y-79525906D01*
X230466015Y-79363995D01*
X231699002Y-79226102D01*
X232198220Y-79164805D01*
X232624079Y-79107886D01*
X232980195Y-79054801D01*
X233270186Y-79005008D01*
X233497669Y-78957964D01*
X233666262Y-78913126D01*
X233779582Y-78869953D01*
X233816645Y-78848820D01*
X233841246Y-78827900D01*
X233849500Y-78817924D01*
X233855769Y-78806550D01*
X233860095Y-78793828D01*
X233862516Y-78779809D01*
X233863075Y-78764542D01*
X233861811Y-78748077D01*
X233858766Y-78730464D01*
X233853980Y-78711752D01*
X233839347Y-78671230D01*
X233818240Y-78626911D01*
X233790984Y-78579192D01*
X233757903Y-78528470D01*
X233719325Y-78475145D01*
X233675574Y-78419613D01*
X233626976Y-78362274D01*
X233573856Y-78303524D01*
X233516541Y-78243762D01*
X233455355Y-78183386D01*
X233390625Y-78122793D01*
X233322676Y-78062382D01*
X233199126Y-77961617D01*
X233077458Y-77872104D01*
X232956080Y-77793514D01*
X232833401Y-77725525D01*
X232707829Y-77667808D01*
X232577771Y-77620040D01*
X232441637Y-77581895D01*
X232297835Y-77553046D01*
X232144773Y-77533168D01*
X231980859Y-77521936D01*
X231804502Y-77519024D01*
X231614109Y-77524106D01*
X231408089Y-77536857D01*
X231184851Y-77556951D01*
X230942802Y-77584062D01*
X230680351Y-77617865D01*
X225772332Y-78334004D01*
X219567851Y-79198312D01*
X216345219Y-79658240D01*
X213641179Y-80062620D01*
X210937138Y-80411426D01*
X209293412Y-80607830D01*
X207714506Y-80778770D01*
X203163408Y-81277670D01*
X201444205Y-81474597D01*
X200068505Y-81639982D01*
X199015760Y-81776428D01*
X198265426Y-81886539D01*
X197997241Y-81932533D01*
X197796954Y-81972920D01*
X197661996Y-82008025D01*
X197589799Y-82038174D01*
X197544341Y-82068185D01*
X197505110Y-82097980D01*
X197471964Y-82127485D01*
X197444765Y-82156628D01*
X197423372Y-82185338D01*
X197407645Y-82213541D01*
X197397443Y-82241165D01*
X197392626Y-82268138D01*
X195380039Y-82268138D01*
X195642857Y-81579647D01*
X195926365Y-80743302D01*
X196188721Y-79867075D01*
X196429143Y-78951374D01*
X196581839Y-78284183D01*
X196724660Y-77540267D01*
X196746584Y-77395611D01*
X200306187Y-77395611D01*
X200308617Y-77448300D01*
X200316363Y-77495310D01*
X200330114Y-77536748D01*
X200339456Y-77555412D01*
X200350557Y-77572724D01*
X200363503Y-77588697D01*
X200378379Y-77603345D01*
X200395273Y-77616682D01*
X200414269Y-77628722D01*
X200458911Y-77648961D01*
X200512995Y-77664171D01*
X200577208Y-77674462D01*
X200652238Y-77679942D01*
X200738770Y-77680719D01*
X200837494Y-77676902D01*
X200949095Y-77668599D01*
X201074262Y-77655920D01*
X201213683Y-77638972D01*
X201368043Y-77617865D01*
X201907853Y-77554586D01*
X202612032Y-77482048D01*
X203385660Y-77409511D01*
X204133821Y-77346232D01*
X208987366Y-76964535D01*
X240783644Y-76964535D01*
X240785736Y-77013015D01*
X240792302Y-77062489D01*
X240803288Y-77112978D01*
X240818640Y-77164504D01*
X240862219Y-77270746D01*
X240922601Y-77381383D01*
X240999346Y-77496583D01*
X241092017Y-77616512D01*
X241200175Y-77741339D01*
X241312646Y-77845815D01*
X241451705Y-77937016D01*
X241625418Y-78014976D01*
X241841853Y-78079733D01*
X242109074Y-78131323D01*
X242435150Y-78169782D01*
X243296130Y-78207450D01*
X244489325Y-78193027D01*
X246079269Y-78126805D01*
X248130494Y-78009072D01*
X250707533Y-77840118D01*
X256667783Y-77507127D01*
X263199854Y-77232019D01*
X269505037Y-77044885D01*
X274784623Y-76975821D01*
X276046883Y-76972154D01*
X276593059Y-76967355D01*
X277085446Y-76960385D01*
X277526177Y-76951099D01*
X277917387Y-76939354D01*
X278261209Y-76925004D01*
X278559778Y-76907904D01*
X278815229Y-76887911D01*
X279029695Y-76864879D01*
X279205310Y-76838664D01*
X279279216Y-76824318D01*
X279344210Y-76809121D01*
X279400558Y-76793057D01*
X279448528Y-76776106D01*
X279488386Y-76758251D01*
X279520399Y-76739473D01*
X279544833Y-76719755D01*
X279561956Y-76699079D01*
X279572034Y-76677425D01*
X279575334Y-76654777D01*
X279565577Y-76617930D01*
X279545871Y-76563719D01*
X279478496Y-76407837D01*
X279376971Y-76196392D01*
X279245059Y-75938645D01*
X279086522Y-75643855D01*
X278905122Y-75321285D01*
X278704622Y-74980195D01*
X278488783Y-74629844D01*
X277426948Y-72901228D01*
X276266292Y-72901228D01*
X276030968Y-72894189D01*
X275809827Y-72891200D01*
X275607787Y-72891683D01*
X275429768Y-72895058D01*
X275280689Y-72900749D01*
X275165470Y-72908175D01*
X275122095Y-72912359D01*
X275089030Y-72916759D01*
X275066889Y-72921305D01*
X275060107Y-72923609D01*
X275056288Y-72925923D01*
X274630671Y-72974536D01*
X273503590Y-73074088D01*
X269821028Y-73370430D01*
X267747861Y-73538657D01*
X265922405Y-73697625D01*
X264546081Y-73828812D01*
X264089289Y-73878199D01*
X263820314Y-73913694D01*
X263593811Y-73944759D01*
X263258501Y-73981611D01*
X262326285Y-74068045D01*
X261153306Y-74163735D01*
X259869206Y-74259422D01*
X258463935Y-74367463D01*
X256961430Y-74494027D01*
X254387019Y-74728624D01*
X251426772Y-75009522D01*
X247596049Y-75345983D01*
X246472926Y-75447492D01*
X245462629Y-75549181D01*
X244561648Y-75652390D01*
X244151054Y-75704982D01*
X243766474Y-75758456D01*
X243407469Y-75812979D01*
X243073600Y-75868718D01*
X242764429Y-75925841D01*
X242479516Y-75984515D01*
X242218423Y-76044908D01*
X241980713Y-76107185D01*
X241765945Y-76171516D01*
X241573682Y-76238067D01*
X241403484Y-76307005D01*
X241254914Y-76378498D01*
X241127533Y-76452713D01*
X241020901Y-76529817D01*
X240975230Y-76569505D01*
X240934581Y-76609978D01*
X240898901Y-76651257D01*
X240868134Y-76693363D01*
X240842226Y-76736317D01*
X240821122Y-76780139D01*
X240804766Y-76824852D01*
X240793104Y-76870474D01*
X240786082Y-76917029D01*
X240783644Y-76964535D01*
X208987366Y-76964535D01*
X216419306Y-76380066D01*
X223889381Y-75765785D01*
X225114074Y-75651957D01*
X226426740Y-75540446D01*
X227674578Y-75442827D01*
X228704787Y-75370678D01*
X229708392Y-75276137D01*
X230880994Y-75151505D01*
X232076743Y-75012988D01*
X233149791Y-74876792D01*
X234222851Y-74740587D01*
X235418604Y-74602066D01*
X236591201Y-74477435D01*
X237594795Y-74382896D01*
X238811004Y-74289516D01*
X240564310Y-74135950D01*
X244756187Y-73740852D01*
X249673469Y-73302519D01*
X254387019Y-72901228D01*
X258853637Y-72540076D01*
X261169119Y-72342135D01*
X263153532Y-72160394D01*
X265169610Y-72001037D01*
X267539894Y-71830107D01*
X272167015Y-71518350D01*
X272974885Y-71472258D01*
X273705741Y-71426275D01*
X274362441Y-71379930D01*
X274947843Y-71332753D01*
X275464805Y-71284274D01*
X275698514Y-71259399D01*
X275916184Y-71234022D01*
X276118173Y-71208085D01*
X276304838Y-71181528D01*
X276476536Y-71154293D01*
X276633624Y-71126321D01*
X276776460Y-71097553D01*
X276905401Y-71067931D01*
X277020805Y-71037395D01*
X277123027Y-71005887D01*
X277212425Y-70973348D01*
X277289358Y-70939719D01*
X277354181Y-70904942D01*
X277407252Y-70868958D01*
X277448929Y-70831707D01*
X277465606Y-70812589D01*
X277479569Y-70793132D01*
X277490861Y-70773329D01*
X277499528Y-70753173D01*
X277505614Y-70732656D01*
X277509164Y-70711772D01*
X277510222Y-70690512D01*
X277508834Y-70668870D01*
X277498896Y-70624407D01*
X277479706Y-70578326D01*
X277451622Y-70530568D01*
X277387178Y-70495286D01*
X277245144Y-70463622D01*
X276758251Y-70411725D01*
X276050845Y-70376034D01*
X275182827Y-70357706D01*
X274214102Y-70357899D01*
X273204570Y-70377768D01*
X272214134Y-70418472D01*
X271302696Y-70481167D01*
X258214653Y-71543034D01*
X256791250Y-71665351D01*
X255106245Y-71799243D01*
X251794105Y-72036931D01*
X247611483Y-72342520D01*
X244984224Y-72554354D01*
X242410200Y-72777764D01*
X230634040Y-73737752D01*
X225300427Y-74135561D01*
X221543394Y-74382896D01*
X219066656Y-74534473D01*
X216731356Y-74692635D01*
X214540026Y-74857018D01*
X212495200Y-75027262D01*
X210599408Y-75203005D01*
X208855183Y-75383884D01*
X207265058Y-75569538D01*
X205831563Y-75759606D01*
X204557232Y-75953725D01*
X203444597Y-76151534D01*
X202496189Y-76352670D01*
X201714541Y-76556773D01*
X201102184Y-76763481D01*
X200860282Y-76867698D01*
X200661652Y-76972431D01*
X200506611Y-77077633D01*
X200395475Y-77183261D01*
X200328562Y-77289269D01*
X200306187Y-77395611D01*
X196746584Y-77395611D01*
X196978217Y-75867265D01*
X197184891Y-74022366D01*
X197339764Y-72095571D01*
X197437917Y-70176880D01*
X197474428Y-68356292D01*
X197444379Y-66723807D01*
X197402858Y-66006228D01*
X197342851Y-65369424D01*
X197243113Y-64632094D01*
X197129522Y-63903048D01*
X197002690Y-63184202D01*
X196863235Y-62477474D01*
X196711770Y-61784782D01*
X196548911Y-61108042D01*
X196375272Y-60449172D01*
X196191468Y-59810088D01*
X195998115Y-59192709D01*
X195795827Y-58598951D01*
X195585219Y-58030731D01*
X195366906Y-57489967D01*
X195141504Y-56978576D01*
X194909625Y-56498475D01*
X194671888Y-56051582D01*
X194428904Y-55639813D01*
X194253874Y-55368723D01*
X194063506Y-55093979D01*
X193859826Y-54817716D01*
X193644860Y-54542068D01*
X193420633Y-54269170D01*
X193189171Y-54001154D01*
X192952500Y-53740157D01*
X192712646Y-53488311D01*
X192471635Y-53247751D01*
X192231491Y-53020612D01*
X191994241Y-52809027D01*
X191761911Y-52615131D01*
X191536527Y-52441057D01*
X191320114Y-52288941D01*
X191114697Y-52160916D01*
X190922303Y-52059117D01*
X190608938Y-51912089D01*
X190281355Y-51785789D01*
X189941546Y-51680109D01*
X189591500Y-51594939D01*
X189233206Y-51530171D01*
X188868654Y-51485696D01*
X188499833Y-51461407D01*
X188128733Y-51457194D01*
X187757344Y-51472948D01*
X187387656Y-51508562D01*
X187021656Y-51563927D01*
X186661337Y-51638934D01*
X186308686Y-51733474D01*
X185965693Y-51847440D01*
X185634349Y-51980722D01*
X185316642Y-52133212D01*
X184744286Y-52446523D01*
X184485763Y-52603757D01*
X184238199Y-52769093D01*
X183995989Y-52948320D01*
X183753525Y-53147225D01*
X183505201Y-53371596D01*
X183245409Y-53627221D01*
X182968544Y-53919887D01*
X182668999Y-54255383D01*
X181979438Y-55078014D01*
X181131872Y-56141417D01*
X180081447Y-57491892D01*
X179942508Y-57696872D01*
X179795287Y-57956799D01*
X179641337Y-58267006D01*
X179482215Y-58622828D01*
X179154675Y-59452649D01*
X178825111Y-60408931D01*
X178505965Y-61454345D01*
X178209683Y-62551558D01*
X177948707Y-63663242D01*
X177735481Y-64752064D01*
X177638727Y-65270503D01*
X177535607Y-65797334D01*
X177429014Y-66317799D01*
X177321843Y-66817139D01*
X177216986Y-67280596D01*
X177117339Y-67693410D01*
X177025794Y-68040823D01*
X176945247Y-68308076D01*
X176816057Y-68805294D01*
X176715083Y-69382710D01*
X176641601Y-70030231D01*
X176594888Y-70737764D01*
X176574221Y-71495217D01*
X53974285Y-71495217D01*
X53918543Y-71430272D01*
X53650383Y-71109280D01*
X53395860Y-70796029D01*
X53158411Y-70494932D01*
X52941472Y-70210402D01*
X52748481Y-69946853D01*
X52582872Y-69708698D01*
X52448084Y-69500350D01*
X52347551Y-69326222D01*
X52284712Y-69190727D01*
X52268501Y-69138846D01*
X52263002Y-69098278D01*
X52262145Y-69074303D01*
X52259626Y-69048844D01*
X52255514Y-69022155D01*
X52249883Y-68994489D01*
X52242805Y-68966100D01*
X52234352Y-68937240D01*
X52224598Y-68908163D01*
X52213613Y-68879122D01*
X52201470Y-68850371D01*
X52188243Y-68822163D01*
X52174003Y-68794750D01*
X52158823Y-68768386D01*
X52142774Y-68743325D01*
X52125930Y-68719819D01*
X52108362Y-68698122D01*
X52090143Y-68678488D01*
X52067577Y-68657712D01*
X52046204Y-68632667D01*
X52026061Y-68603716D01*
X52007184Y-68571220D01*
X51989609Y-68535540D01*
X51973374Y-68497039D01*
X51958512Y-68456077D01*
X51945061Y-68413018D01*
X51933058Y-68368223D01*
X51922537Y-68322053D01*
X51913536Y-68274870D01*
X51906090Y-68227036D01*
X51900235Y-68178912D01*
X51896009Y-68130861D01*
X51893447Y-68083243D01*
X51892585Y-68036422D01*
X51892298Y-68013421D01*
X51891445Y-67990736D01*
X51890041Y-67968395D01*
X51888099Y-67946425D01*
X51885632Y-67924852D01*
X51882655Y-67903705D01*
X51879180Y-67883009D01*
X51875221Y-67862793D01*
X51870792Y-67843083D01*
X51865907Y-67823907D01*
X51860578Y-67805291D01*
X51854819Y-67787263D01*
X51848645Y-67769851D01*
X51842068Y-67753080D01*
X51835103Y-67736978D01*
X51827761Y-67721573D01*
X51820059Y-67706891D01*
X51812008Y-67692959D01*
X51803623Y-67679806D01*
X51794916Y-67667457D01*
X51785902Y-67655940D01*
X51776594Y-67645283D01*
X51767006Y-67635511D01*
X51757151Y-67626653D01*
X51747043Y-67618736D01*
X51736695Y-67611786D01*
X51726122Y-67605831D01*
X51715335Y-67600897D01*
X51704350Y-67597013D01*
X51693180Y-67594205D01*
X51681837Y-67592500D01*
X51670337Y-67591926D01*
X51656735Y-67591351D01*
X51643712Y-67589641D01*
X51631269Y-67586818D01*
X51619404Y-67582906D01*
X51608118Y-67577927D01*
X51597410Y-67571903D01*
X51587282Y-67564857D01*
X51577732Y-67556812D01*
X51568761Y-67547790D01*
X51560369Y-67537814D01*
X51552555Y-67526906D01*
X51545321Y-67515090D01*
X51532587Y-67488820D01*
X51522170Y-67459187D01*
X51514067Y-67426371D01*
X51508279Y-67390553D01*
X51504807Y-67351913D01*
X51503649Y-67310632D01*
X51504806Y-67266892D01*
X51508278Y-67220874D01*
X51514066Y-67172757D01*
X51522168Y-67122724D01*
X51529710Y-67073909D01*
X51533888Y-67020428D01*
X51534811Y-66962822D01*
X51532587Y-66901635D01*
X51527324Y-66837409D01*
X51519131Y-66770688D01*
X51508116Y-66702013D01*
X51494389Y-66631927D01*
X51478057Y-66560973D01*
X51459228Y-66489694D01*
X51438013Y-66418632D01*
X51414518Y-66348330D01*
X51388853Y-66279330D01*
X51361126Y-66212176D01*
X51331445Y-66147410D01*
X51299920Y-66085574D01*
X51267815Y-66018331D01*
X51236398Y-65937740D01*
X51205777Y-65844923D01*
X51176060Y-65741001D01*
X51119774Y-65504328D01*
X51068408Y-65236692D01*
X51022830Y-64947063D01*
X50983908Y-64644411D01*
X50952509Y-64337709D01*
X50929503Y-64035925D01*
X50921169Y-63804222D01*
X50914935Y-63599142D01*
X50911160Y-63419529D01*
X50910207Y-63264224D01*
X50910902Y-63195325D01*
X50912438Y-63132070D01*
X50914860Y-63074313D01*
X50918213Y-63021910D01*
X50922544Y-62974715D01*
X50927896Y-62932585D01*
X50934315Y-62895375D01*
X50941847Y-62862939D01*
X50950536Y-62835134D01*
X50960428Y-62811814D01*
X50965839Y-62801791D01*
X50971568Y-62792835D01*
X50977620Y-62784929D01*
X50984001Y-62778052D01*
X50990716Y-62772189D01*
X50997772Y-62767321D01*
X51005174Y-62763429D01*
X51012927Y-62760496D01*
X51021038Y-62758504D01*
X51029511Y-62757434D01*
X51038353Y-62757268D01*
X51047570Y-62757989D01*
X51057165Y-62759578D01*
X51067147Y-62762016D01*
X51088289Y-62769372D01*
X51111040Y-62779911D01*
X51135446Y-62793488D01*
X51161553Y-62809959D01*
X51189404Y-62829180D01*
X51219046Y-62851005D01*
X51250525Y-62875289D01*
X51310893Y-62919283D01*
X51381570Y-62958682D01*
X51463606Y-62993523D01*
X51558049Y-63023843D01*
X51665949Y-63049676D01*
X51788354Y-63071060D01*
X51926314Y-63088031D01*
X52080877Y-63100624D01*
X52444011Y-63112825D01*
X52886148Y-63107952D01*
X53415681Y-63086295D01*
X54041002Y-63048143D01*
X55696301Y-62962098D01*
X58411918Y-62859850D01*
X65523920Y-62653036D01*
X69074513Y-62539213D01*
X72037073Y-62427701D01*
X74101374Y-62330080D01*
X74699733Y-62290097D01*
X74873499Y-62272946D01*
X74957193Y-62257930D01*
X75000729Y-62233844D01*
X75043293Y-62194606D01*
X75084781Y-62141125D01*
X75125088Y-62074309D01*
X75201746Y-61904311D01*
X75272436Y-61691882D01*
X75333133Y-61456663D01*
X115630243Y-61456663D01*
X115645694Y-61646666D01*
X115659780Y-61724134D01*
X115678328Y-61788738D01*
X115860305Y-61903820D01*
X116430352Y-61991697D01*
X117591329Y-62055266D01*
X119546097Y-62097419D01*
X126648451Y-62129055D01*
X139360301Y-62109761D01*
X150458530Y-62062299D01*
X154581393Y-62029451D01*
X157841010Y-61989369D01*
X160303072Y-61941185D01*
X162033271Y-61884030D01*
X163097298Y-61817037D01*
X163400025Y-61779580D01*
X163560844Y-61739338D01*
X163754695Y-61643009D01*
X163937874Y-61539372D01*
X164110127Y-61428645D01*
X164271203Y-61311045D01*
X164420847Y-61186790D01*
X164558807Y-61056095D01*
X164684830Y-60919179D01*
X164798662Y-60776257D01*
X164900049Y-60627548D01*
X164988740Y-60473269D01*
X165064481Y-60313635D01*
X165127018Y-60148866D01*
X165176099Y-59979176D01*
X165195514Y-59892555D01*
X165211470Y-59804785D01*
X165223936Y-59715893D01*
X165232879Y-59625908D01*
X165238268Y-59534855D01*
X165240071Y-59442762D01*
X165237495Y-59337760D01*
X165229882Y-59231293D01*
X165217404Y-59123632D01*
X165200232Y-59015048D01*
X165178539Y-58905813D01*
X165152495Y-58796198D01*
X165122274Y-58686475D01*
X165088047Y-58576914D01*
X165049985Y-58467788D01*
X165008260Y-58359366D01*
X164963045Y-58251922D01*
X164914511Y-58145725D01*
X164862830Y-58041048D01*
X164808173Y-57938161D01*
X164690622Y-57738845D01*
X164628070Y-57642958D01*
X164563231Y-57549946D01*
X164496275Y-57460082D01*
X164427375Y-57373636D01*
X164356702Y-57290880D01*
X164284429Y-57212085D01*
X164210726Y-57137522D01*
X164135767Y-57067464D01*
X164059722Y-57002179D01*
X163982764Y-56941942D01*
X163905064Y-56887021D01*
X163826795Y-56837690D01*
X163748127Y-56794219D01*
X163669233Y-56756879D01*
X163590285Y-56725942D01*
X163511454Y-56701679D01*
X162814370Y-56629862D01*
X161296292Y-56580906D01*
X155791363Y-56550422D01*
X134865907Y-56751059D01*
X129555014Y-56821818D01*
X125396753Y-56891129D01*
X123704190Y-56927683D01*
X122244982Y-56966805D01*
X121000861Y-57009472D01*
X119953560Y-57056660D01*
X119084812Y-57109346D01*
X118376347Y-57168507D01*
X118076513Y-57200822D01*
X117809900Y-57235121D01*
X117574224Y-57271526D01*
X117367202Y-57310162D01*
X117186551Y-57351148D01*
X117029986Y-57394608D01*
X116895225Y-57440664D01*
X116779984Y-57489437D01*
X116681979Y-57541049D01*
X116598928Y-57595624D01*
X116528547Y-57653282D01*
X116468551Y-57714146D01*
X116426546Y-57767537D01*
X116383985Y-57834515D01*
X116297862Y-58005707D01*
X116211522Y-58220668D01*
X116126304Y-58472346D01*
X116043546Y-58753686D01*
X115964585Y-59057634D01*
X115890762Y-59377136D01*
X115823413Y-59705140D01*
X115763877Y-60034590D01*
X115713493Y-60358433D01*
X115673599Y-60669616D01*
X115645534Y-60961085D01*
X115630636Y-61225785D01*
X115630243Y-61456663D01*
X75333133Y-61456663D01*
X75336325Y-61444292D01*
X75392580Y-61168813D01*
X75440371Y-60872715D01*
X75478866Y-60563270D01*
X75507231Y-60247747D01*
X75524636Y-59933418D01*
X75530248Y-59627554D01*
X75523235Y-59337424D01*
X75502766Y-59070301D01*
X75468008Y-58833454D01*
X75418130Y-58634156D01*
X75387261Y-58550858D01*
X75352299Y-58479675D01*
X75238041Y-58308503D01*
X75149857Y-58239249D01*
X75021629Y-58179871D01*
X74838850Y-58129608D01*
X74587017Y-58087701D01*
X73818161Y-58025917D01*
X72943958Y-57999045D01*
X93627126Y-57999045D01*
X93627291Y-58051296D01*
X93629278Y-58099999D01*
X93633074Y-58145011D01*
X93638666Y-58186194D01*
X93646038Y-58223407D01*
X93655179Y-58256509D01*
X93666074Y-58285361D01*
X93678710Y-58309822D01*
X93693074Y-58329753D01*
X93709150Y-58345013D01*
X93726928Y-58355461D01*
X93746392Y-58360959D01*
X93767529Y-58361365D01*
X93790325Y-58356539D01*
X93814768Y-58346341D01*
X93840842Y-58330632D01*
X93868536Y-58309270D01*
X93897834Y-58282116D01*
X93924736Y-58250380D01*
X93949828Y-58211119D01*
X93973039Y-58164912D01*
X93994297Y-58112340D01*
X94013529Y-58053979D01*
X94030663Y-57990410D01*
X94045626Y-57922211D01*
X94058347Y-57849961D01*
X94068752Y-57774238D01*
X94076771Y-57695622D01*
X94082330Y-57614691D01*
X94085356Y-57532024D01*
X94085779Y-57448201D01*
X94083525Y-57363799D01*
X94078522Y-57279398D01*
X94070698Y-57195576D01*
X94045904Y-56934830D01*
X94035207Y-56830829D01*
X94025161Y-56744119D01*
X94015405Y-56674484D01*
X94005578Y-56621705D01*
X94000523Y-56601570D01*
X93995316Y-56585568D01*
X93989909Y-56573671D01*
X93984258Y-56565853D01*
X93978318Y-56562086D01*
X93972044Y-56562344D01*
X93965389Y-56566599D01*
X93958310Y-56574824D01*
X93950760Y-56586992D01*
X93942696Y-56603075D01*
X93924838Y-56646882D01*
X93904377Y-56706026D01*
X93880950Y-56780290D01*
X93823750Y-56973312D01*
X93796979Y-57060539D01*
X93772220Y-57146180D01*
X93749460Y-57230093D01*
X93728685Y-57312138D01*
X93709881Y-57392176D01*
X93693035Y-57470066D01*
X93678134Y-57545668D01*
X93665163Y-57618842D01*
X93654110Y-57689448D01*
X93644960Y-57757345D01*
X93637700Y-57822393D01*
X93632317Y-57884453D01*
X93628797Y-57943383D01*
X93627126Y-57999045D01*
X72943958Y-57999045D01*
X72599018Y-57988441D01*
X70813541Y-57969197D01*
X65079413Y-57961094D01*
X61923203Y-57963071D01*
X60624593Y-57966465D01*
X59494226Y-57972282D01*
X58518537Y-57981138D01*
X57683960Y-57993647D01*
X56976931Y-58010425D01*
X56383885Y-58032086D01*
X55891256Y-58059246D01*
X55678360Y-58075080D01*
X55485480Y-58092519D01*
X55310923Y-58111641D01*
X55152991Y-58132521D01*
X55009991Y-58155237D01*
X54880225Y-58179866D01*
X54761999Y-58206484D01*
X54653616Y-58235169D01*
X54553381Y-58265998D01*
X54459599Y-58299046D01*
X54370574Y-58334392D01*
X54284609Y-58372111D01*
X54115082Y-58454980D01*
X54018227Y-58506436D01*
X53922493Y-58558724D01*
X53828424Y-58611519D01*
X53736561Y-58664495D01*
X53647447Y-58717327D01*
X53561626Y-58769689D01*
X53479639Y-58821255D01*
X53402028Y-58871700D01*
X53329338Y-58920698D01*
X53262109Y-58967923D01*
X53200886Y-59013050D01*
X53146210Y-59055753D01*
X53098624Y-59095707D01*
X53058670Y-59132585D01*
X53026891Y-59166063D01*
X53003830Y-59195814D01*
X52980338Y-59233514D01*
X52956244Y-59267931D01*
X52931672Y-59299111D01*
X52906741Y-59327098D01*
X52881576Y-59351939D01*
X52856298Y-59373677D01*
X52831028Y-59392359D01*
X52805890Y-59408029D01*
X52781005Y-59420733D01*
X52756495Y-59430516D01*
X52732483Y-59437423D01*
X52709090Y-59441500D01*
X52686439Y-59442791D01*
X52664651Y-59441343D01*
X52643849Y-59437199D01*
X52624155Y-59430406D01*
X52605691Y-59421008D01*
X52588578Y-59409050D01*
X52572940Y-59394579D01*
X52558898Y-59377639D01*
X52546574Y-59358275D01*
X52536091Y-59336533D01*
X52527570Y-59312458D01*
X52521134Y-59286094D01*
X52516904Y-59257488D01*
X52515002Y-59226684D01*
X52515552Y-59193728D01*
X52518674Y-59158665D01*
X52524492Y-59121540D01*
X52533126Y-59082398D01*
X52544700Y-59041284D01*
X52559334Y-58998245D01*
X52581261Y-58940293D01*
X52609736Y-58877838D01*
X52684735Y-58741079D01*
X52781149Y-58591299D01*
X52895795Y-58431823D01*
X53025489Y-58265981D01*
X53167048Y-58097099D01*
X53317288Y-57928508D01*
X53473027Y-57763533D01*
X53631082Y-57605503D01*
X53788268Y-57457747D01*
X53941403Y-57323592D01*
X54087303Y-57206366D01*
X54222786Y-57109397D01*
X54344667Y-57036013D01*
X54399513Y-57009205D01*
X54449764Y-56989542D01*
X54495024Y-56977439D01*
X54534894Y-56973312D01*
X54551022Y-56973026D01*
X54566984Y-56972179D01*
X54582756Y-56970789D01*
X54598315Y-56968875D01*
X54613639Y-56966454D01*
X54628706Y-56963545D01*
X54643492Y-56960166D01*
X54657976Y-56956334D01*
X54672133Y-56952069D01*
X54685943Y-56947387D01*
X54699382Y-56942308D01*
X54712428Y-56936848D01*
X54725057Y-56931028D01*
X54737248Y-56924863D01*
X54748978Y-56918373D01*
X54760224Y-56911575D01*
X54770964Y-56904488D01*
X54781175Y-56897129D01*
X54790834Y-56889518D01*
X54799919Y-56881671D01*
X54808407Y-56873607D01*
X54816275Y-56865344D01*
X54823502Y-56856901D01*
X54830063Y-56848294D01*
X54835938Y-56839543D01*
X54841102Y-56830666D01*
X54845534Y-56821679D01*
X54849211Y-56812603D01*
X54852111Y-56803454D01*
X54854209Y-56794251D01*
X54855485Y-56785011D01*
X54855915Y-56775753D01*
X54860190Y-56748062D01*
X54872748Y-56711653D01*
X54893192Y-56667069D01*
X54921124Y-56614853D01*
X54956146Y-56555547D01*
X54997860Y-56489693D01*
X55099773Y-56340515D01*
X55223679Y-56171659D01*
X55366395Y-55987466D01*
X55524738Y-55792278D01*
X55695524Y-55590434D01*
X55988868Y-55236604D01*
X56108663Y-55077776D01*
X56213337Y-54917501D01*
X56304989Y-54745652D01*
X56385716Y-54552099D01*
X56393227Y-54528556D01*
X58560081Y-54528556D01*
X61449337Y-54454483D01*
X64313894Y-54380398D01*
X64399422Y-53985648D01*
X67498906Y-53985648D01*
X67499948Y-54009610D01*
X67501885Y-54032939D01*
X67504726Y-54055617D01*
X67508481Y-54077626D01*
X67513158Y-54098948D01*
X67518766Y-54119564D01*
X67525315Y-54139456D01*
X67532814Y-54158607D01*
X67541271Y-54176998D01*
X67550696Y-54194611D01*
X67561097Y-54211428D01*
X67572485Y-54227432D01*
X67584867Y-54242603D01*
X67598253Y-54256924D01*
X67638170Y-54280624D01*
X67710391Y-54305300D01*
X67944361Y-54356859D01*
X68285404Y-54410154D01*
X68718762Y-54463738D01*
X69229676Y-54516164D01*
X69803387Y-54565986D01*
X70425138Y-54611757D01*
X71080169Y-54652031D01*
X74364527Y-54824894D01*
X74530894Y-54420859D01*
X91932744Y-54420859D01*
X91936971Y-54650555D01*
X91950060Y-54883543D01*
X91971541Y-55113926D01*
X92000944Y-55335808D01*
X92037799Y-55543293D01*
X92081635Y-55730485D01*
X92131982Y-55891487D01*
X92159450Y-55960324D01*
X92188370Y-56020403D01*
X92218682Y-56070987D01*
X92250328Y-56111338D01*
X92283250Y-56140719D01*
X92317387Y-56158393D01*
X92333660Y-56164334D01*
X92350050Y-56168289D01*
X92366532Y-56170300D01*
X92383076Y-56170407D01*
X92399657Y-56168651D01*
X92416247Y-56165073D01*
X92432819Y-56159714D01*
X92449346Y-56152613D01*
X92465800Y-56143813D01*
X92482155Y-56133352D01*
X92514458Y-56107616D01*
X92546038Y-56075730D01*
X92576677Y-56038020D01*
X92606159Y-55994810D01*
X92634266Y-55946428D01*
X92660782Y-55893198D01*
X92685488Y-55835446D01*
X92708169Y-55773498D01*
X92728606Y-55707678D01*
X92746583Y-55638313D01*
X92761883Y-55565728D01*
X92795118Y-55414042D01*
X92837902Y-55241230D01*
X92888208Y-55053947D01*
X92944012Y-54858851D01*
X93003288Y-54662598D01*
X93064011Y-54471844D01*
X93124155Y-54293247D01*
X93181695Y-54133461D01*
X93209170Y-54051979D01*
X93235956Y-53965469D01*
X93287034Y-53780403D01*
X93334060Y-53584342D01*
X93376166Y-53383362D01*
X93412483Y-53183540D01*
X93442144Y-52990953D01*
X93464280Y-52811678D01*
X93478022Y-52651793D01*
X93480880Y-52545513D01*
X93480048Y-52448639D01*
X93478181Y-52403594D01*
X93475343Y-52361241D01*
X124307883Y-52361241D01*
X124308844Y-52378437D01*
X124310867Y-52394986D01*
X124313967Y-52410857D01*
X124318156Y-52426018D01*
X124323449Y-52440437D01*
X124329859Y-52454083D01*
X124337399Y-52466924D01*
X124346083Y-52478929D01*
X124374544Y-52497147D01*
X124422141Y-52514714D01*
X124487753Y-52531558D01*
X124570257Y-52547607D01*
X124781461Y-52577028D01*
X125046781Y-52602399D01*
X125357246Y-52623140D01*
X125703884Y-52638672D01*
X126077724Y-52648416D01*
X126469795Y-52651793D01*
X126749019Y-52650593D01*
X127004296Y-52646824D01*
X127237145Y-52640234D01*
X127449087Y-52630569D01*
X127641639Y-52617576D01*
X127816321Y-52601001D01*
X127974653Y-52580592D01*
X128118154Y-52556096D01*
X128248343Y-52527259D01*
X128308921Y-52511133D01*
X128366740Y-52493828D01*
X128421990Y-52475310D01*
X128474863Y-52455549D01*
X128525546Y-52434514D01*
X128574231Y-52412171D01*
X128621108Y-52388490D01*
X128666365Y-52363439D01*
X128710194Y-52336986D01*
X128752784Y-52309100D01*
X128835006Y-52248902D01*
X128914550Y-52182591D01*
X128942111Y-52157705D01*
X128969209Y-52133981D01*
X128995820Y-52111423D01*
X129021915Y-52090037D01*
X129047467Y-52069826D01*
X129072449Y-52050795D01*
X129096835Y-52032948D01*
X129120596Y-52016291D01*
X129143706Y-52000828D01*
X129166139Y-51986562D01*
X129187865Y-51973500D01*
X129208859Y-51961644D01*
X129229094Y-51951001D01*
X129248541Y-51941574D01*
X129267175Y-51933367D01*
X129284967Y-51926386D01*
X129301892Y-51920635D01*
X129317921Y-51916118D01*
X129333028Y-51912840D01*
X129347185Y-51910806D01*
X129360365Y-51910019D01*
X129372542Y-51910486D01*
X129383688Y-51912209D01*
X129393775Y-51915194D01*
X129402778Y-51919445D01*
X129410668Y-51924966D01*
X129417419Y-51931763D01*
X129423003Y-51939839D01*
X129427393Y-51949200D01*
X129430563Y-51959849D01*
X129432485Y-51971792D01*
X129433131Y-51985032D01*
X129435263Y-52031493D01*
X129441505Y-52073685D01*
X129451627Y-52111680D01*
X129465398Y-52145552D01*
X129482587Y-52175372D01*
X129502964Y-52201212D01*
X129526298Y-52223146D01*
X129552359Y-52241246D01*
X129580916Y-52255583D01*
X129611738Y-52266230D01*
X129644595Y-52273260D01*
X129679256Y-52276744D01*
X129715491Y-52276757D01*
X129753068Y-52273368D01*
X129791758Y-52266652D01*
X129831330Y-52256679D01*
X129871553Y-52243524D01*
X129912196Y-52227257D01*
X129953029Y-52207952D01*
X129993822Y-52185680D01*
X130034343Y-52160515D01*
X130074362Y-52132528D01*
X130113649Y-52101792D01*
X130149838Y-52070240D01*
X132933523Y-52070240D01*
X132933913Y-52100381D01*
X132935975Y-52129618D01*
X132939743Y-52157896D01*
X132955677Y-52240783D01*
X132978087Y-52313975D01*
X133010552Y-52378196D01*
X133056655Y-52434169D01*
X133119976Y-52482618D01*
X133204098Y-52524266D01*
X133312600Y-52559837D01*
X133449064Y-52590054D01*
X133617072Y-52615641D01*
X133820204Y-52637320D01*
X134346168Y-52671852D01*
X135055604Y-52699439D01*
X135977163Y-52725866D01*
X136644108Y-52739905D01*
X137404814Y-52745550D01*
X139101015Y-52735132D01*
X140852777Y-52701563D01*
X142447111Y-52651793D01*
X145953723Y-52478929D01*
X146422903Y-51688705D01*
X146470291Y-51601250D01*
X146519560Y-51497228D01*
X146604645Y-51287723D01*
X150602947Y-51287723D01*
X150606159Y-51363723D01*
X150613206Y-51441894D01*
X150624051Y-51522018D01*
X150638659Y-51603877D01*
X150656992Y-51687256D01*
X150679015Y-51771937D01*
X150704692Y-51857703D01*
X150733986Y-51944337D01*
X150766862Y-52031621D01*
X150803283Y-52119340D01*
X150843213Y-52207275D01*
X151213635Y-52972814D01*
X153954707Y-53145678D01*
X154945090Y-53191833D01*
X155386420Y-53207695D01*
X155793675Y-53218601D01*
X156168229Y-53224443D01*
X156511456Y-53225112D01*
X156824732Y-53220500D01*
X157109431Y-53210498D01*
X157366927Y-53194998D01*
X157598595Y-53173891D01*
X157805809Y-53147069D01*
X157989945Y-53114422D01*
X158152375Y-53075843D01*
X158294476Y-53031223D01*
X158417621Y-52980453D01*
X158523186Y-52923425D01*
X158559070Y-52890688D01*
X158592640Y-52838634D01*
X158623894Y-52767046D01*
X158652833Y-52675709D01*
X158679457Y-52564403D01*
X158703766Y-52432912D01*
X158745439Y-52108509D01*
X158777851Y-51700762D01*
X158801002Y-51207933D01*
X158814893Y-50628288D01*
X158819523Y-49960089D01*
X158819119Y-49484861D01*
X158817449Y-49066028D01*
X158813826Y-48699791D01*
X158807562Y-48382352D01*
X158803225Y-48240744D01*
X158797970Y-48109912D01*
X158791711Y-47989380D01*
X158784362Y-47878673D01*
X158775838Y-47777317D01*
X158766052Y-47684838D01*
X158754919Y-47600759D01*
X158742352Y-47524607D01*
X158728266Y-47455907D01*
X158712575Y-47394183D01*
X158695192Y-47338962D01*
X158676033Y-47289768D01*
X158655010Y-47246126D01*
X158632039Y-47207562D01*
X158607033Y-47173602D01*
X158579906Y-47143769D01*
X158550573Y-47117590D01*
X158518947Y-47094590D01*
X158484943Y-47074293D01*
X158448474Y-47056226D01*
X158409455Y-47039913D01*
X158367800Y-47024880D01*
X158323423Y-47010651D01*
X158276237Y-46996753D01*
X158020877Y-46946780D01*
X157672189Y-46899087D01*
X156754444Y-46812707D01*
X155642231Y-46741954D01*
X154454776Y-46691169D01*
X153311308Y-46664692D01*
X152331056Y-46666865D01*
X151939394Y-46680051D01*
X151633247Y-46702027D01*
X151427517Y-46733336D01*
X151366967Y-46752660D01*
X151337109Y-46774521D01*
X151322380Y-46806466D01*
X151306095Y-46855305D01*
X151269583Y-46999465D01*
X151229018Y-47198610D01*
X151185849Y-47444346D01*
X151141523Y-47728282D01*
X151097488Y-48042026D01*
X151055189Y-48377186D01*
X151016076Y-48725369D01*
X150976864Y-49078131D01*
X150933891Y-49426842D01*
X150888024Y-49762821D01*
X150840131Y-50077386D01*
X150791081Y-50361856D01*
X150741741Y-50607548D01*
X150717234Y-50713139D01*
X150692980Y-50805780D01*
X150669087Y-50884386D01*
X150645665Y-50947871D01*
X150629163Y-51009765D01*
X150616677Y-51074914D01*
X150608169Y-51143101D01*
X150603605Y-51214110D01*
X150602947Y-51287723D01*
X146604645Y-51287723D01*
X146622005Y-51244978D01*
X146726765Y-50942953D01*
X146830366Y-50602150D01*
X146929337Y-50233566D01*
X147020205Y-49848197D01*
X147099496Y-49457042D01*
X147163737Y-49071096D01*
X147201625Y-48861669D01*
X147241104Y-48659729D01*
X147282030Y-48465821D01*
X147324258Y-48280486D01*
X147367643Y-48104266D01*
X147412041Y-47937705D01*
X147457306Y-47781346D01*
X147503295Y-47635730D01*
X147549863Y-47501400D01*
X147596864Y-47378899D01*
X147644155Y-47268769D01*
X147691591Y-47171553D01*
X147739026Y-47087793D01*
X147786317Y-47018033D01*
X147809864Y-46988571D01*
X147833319Y-46962814D01*
X147856666Y-46940827D01*
X147879887Y-46922679D01*
X147920372Y-46889730D01*
X147958361Y-46855878D01*
X147993672Y-46821374D01*
X148026127Y-46786473D01*
X148055542Y-46751427D01*
X148081738Y-46716489D01*
X148093572Y-46699141D01*
X148104533Y-46681914D01*
X148114599Y-46664841D01*
X148123747Y-46647953D01*
X148131954Y-46631282D01*
X148139199Y-46614860D01*
X148145457Y-46598718D01*
X148150707Y-46582888D01*
X148154927Y-46567402D01*
X148158092Y-46552291D01*
X148160181Y-46537587D01*
X148161172Y-46523322D01*
X148161041Y-46509526D01*
X148159766Y-46496233D01*
X148157325Y-46483473D01*
X148153694Y-46471278D01*
X148148851Y-46459680D01*
X148142773Y-46448710D01*
X148135439Y-46438400D01*
X148126825Y-46428782D01*
X147976777Y-46398882D01*
X147616344Y-46365508D01*
X146358085Y-46292970D01*
X144539570Y-46220430D01*
X142348321Y-46157150D01*
X140509791Y-46125606D01*
X139760922Y-46114935D01*
X139113736Y-46108532D01*
X138559300Y-46107049D01*
X138314070Y-46108355D01*
X138088677Y-46111136D01*
X137882004Y-46115472D01*
X137692934Y-46121445D01*
X137520350Y-46129136D01*
X137363135Y-46138627D01*
X137220173Y-46149999D01*
X137090346Y-46163334D01*
X136972537Y-46178712D01*
X136865631Y-46196215D01*
X136768509Y-46215925D01*
X136680055Y-46237923D01*
X136599153Y-46262290D01*
X136524685Y-46289108D01*
X136455534Y-46318458D01*
X136390584Y-46350422D01*
X136328718Y-46385081D01*
X136268819Y-46422516D01*
X136209769Y-46462808D01*
X136150453Y-46506040D01*
X136026553Y-46601646D01*
X135895321Y-46722967D01*
X135753419Y-46879992D01*
X135603485Y-47067907D01*
X135448162Y-47281904D01*
X135290089Y-47517171D01*
X135131908Y-47768897D01*
X134976258Y-48032270D01*
X134825782Y-48302479D01*
X134683119Y-48574715D01*
X134550910Y-48844165D01*
X134431796Y-49106018D01*
X134328418Y-49355464D01*
X134243415Y-49587692D01*
X134179430Y-49797890D01*
X134139102Y-49981247D01*
X134128635Y-50061357D01*
X134125073Y-50132952D01*
X134121938Y-50168174D01*
X134112726Y-50208677D01*
X134097726Y-50253955D01*
X134077228Y-50303501D01*
X134051521Y-50356809D01*
X134020895Y-50413373D01*
X133985638Y-50472686D01*
X133946041Y-50534242D01*
X133902392Y-50597534D01*
X133854980Y-50662056D01*
X133804097Y-50727301D01*
X133750029Y-50792763D01*
X133693068Y-50857935D01*
X133633502Y-50922311D01*
X133571620Y-50985385D01*
X133507713Y-51046650D01*
X133439750Y-51112849D01*
X133374934Y-51181507D01*
X133313517Y-51252190D01*
X133255755Y-51324465D01*
X133201899Y-51397898D01*
X133152202Y-51472053D01*
X133106919Y-51546498D01*
X133066302Y-51620798D01*
X133030605Y-51694519D01*
X133000080Y-51767228D01*
X132974982Y-51838489D01*
X132955563Y-51907869D01*
X132942076Y-51974934D01*
X132934775Y-52039249D01*
X132933523Y-52070240D01*
X130149838Y-52070240D01*
X130151973Y-52068379D01*
X130189103Y-52032361D01*
X130224809Y-51993811D01*
X130258860Y-51952802D01*
X130291025Y-51909405D01*
X130321074Y-51863693D01*
X130348776Y-51815738D01*
X130373902Y-51765612D01*
X130396219Y-51713389D01*
X130452360Y-51546465D01*
X130525865Y-51294749D01*
X130711072Y-50586714D01*
X130924061Y-49688838D01*
X131032293Y-49199820D01*
X131137053Y-48700674D01*
X131215512Y-48351407D01*
X131284350Y-48034118D01*
X131343783Y-47747214D01*
X131394027Y-47489105D01*
X131435301Y-47258197D01*
X131467820Y-47052901D01*
X131491803Y-46871624D01*
X131500661Y-46789495D01*
X131507466Y-46712774D01*
X131512245Y-46641262D01*
X131515026Y-46574760D01*
X131515835Y-46513069D01*
X131514700Y-46455991D01*
X131511647Y-46403325D01*
X131506705Y-46354874D01*
X131499900Y-46310438D01*
X131491259Y-46269818D01*
X131480809Y-46232815D01*
X131468577Y-46199231D01*
X131454591Y-46168866D01*
X131438878Y-46141522D01*
X131421465Y-46116999D01*
X131402379Y-46095099D01*
X131381647Y-46075623D01*
X131359295Y-46058371D01*
X131324643Y-46040157D01*
X131285794Y-46022631D01*
X131243183Y-46005900D01*
X131197243Y-45990074D01*
X131148410Y-45975261D01*
X131097117Y-45961569D01*
X131043798Y-45949108D01*
X130988888Y-45937985D01*
X130932819Y-45928308D01*
X130876027Y-45920188D01*
X130818946Y-45913732D01*
X130762009Y-45909049D01*
X130705650Y-45906246D01*
X130650305Y-45905434D01*
X130596406Y-45906720D01*
X130544388Y-45910212D01*
X129630687Y-45978113D01*
X128124327Y-46083055D01*
X127857354Y-46106260D01*
X127611434Y-46129792D01*
X127385627Y-46153974D01*
X127178992Y-46179133D01*
X126990588Y-46205594D01*
X126819476Y-46233684D01*
X126664713Y-46263726D01*
X126525361Y-46296048D01*
X126461170Y-46313165D01*
X126400478Y-46330974D01*
X126343168Y-46349515D01*
X126289124Y-46368830D01*
X126238226Y-46388958D01*
X126190358Y-46409942D01*
X126145402Y-46431820D01*
X126103240Y-46454635D01*
X126063755Y-46478426D01*
X126026829Y-46503234D01*
X125992345Y-46529101D01*
X125960185Y-46556067D01*
X125930232Y-46584172D01*
X125902367Y-46613457D01*
X125876474Y-46643963D01*
X125852435Y-46675730D01*
X125789826Y-46783087D01*
X125723129Y-46934973D01*
X125653465Y-47126144D01*
X125581957Y-47351354D01*
X125437892Y-47882912D01*
X125299903Y-48487685D01*
X125176962Y-49123712D01*
X125078040Y-49749032D01*
X125012109Y-50321682D01*
X124994317Y-50575144D01*
X124988138Y-50799702D01*
X124986136Y-50861541D01*
X124980227Y-50926310D01*
X124970557Y-50993466D01*
X124957269Y-51062467D01*
X124940508Y-51132770D01*
X124920420Y-51203832D01*
X124897148Y-51275111D01*
X124870837Y-51346064D01*
X124841633Y-51416150D01*
X124809679Y-51484824D01*
X124775121Y-51551545D01*
X124738102Y-51615771D01*
X124698769Y-51676958D01*
X124657265Y-51734564D01*
X124613736Y-51788047D01*
X124568326Y-51836863D01*
X124528120Y-51883412D01*
X124490917Y-51930286D01*
X124456824Y-51977233D01*
X124425951Y-52023999D01*
X124398405Y-52070332D01*
X124374296Y-52115978D01*
X124353732Y-52160683D01*
X124336821Y-52204195D01*
X124329769Y-52225424D01*
X124323672Y-52246260D01*
X124318542Y-52266671D01*
X124314394Y-52286624D01*
X124311240Y-52306090D01*
X124309094Y-52325036D01*
X124307971Y-52343430D01*
X124307883Y-52361241D01*
X93475343Y-52361241D01*
X93475309Y-52360737D01*
X93471407Y-52320014D01*
X93466447Y-52281372D01*
X93460401Y-52244755D01*
X93453244Y-52210109D01*
X93444946Y-52177381D01*
X93435482Y-52146516D01*
X93424825Y-52117459D01*
X93412946Y-52090157D01*
X93399820Y-52064555D01*
X93385418Y-52040600D01*
X93369714Y-52018235D01*
X93352681Y-51997408D01*
X93334292Y-51978064D01*
X93314518Y-51960149D01*
X93293334Y-51943608D01*
X93270712Y-51928389D01*
X93246626Y-51914434D01*
X93221046Y-51901692D01*
X93193948Y-51890107D01*
X93165303Y-51879625D01*
X93135085Y-51870192D01*
X93103266Y-51861754D01*
X93069820Y-51854256D01*
X93034718Y-51847645D01*
X92959442Y-51836863D01*
X92875741Y-51825080D01*
X92800325Y-51817818D01*
X92732794Y-51815548D01*
X92701862Y-51816431D01*
X92672752Y-51818738D01*
X92645415Y-51822529D01*
X92619800Y-51827861D01*
X92595858Y-51834794D01*
X92573540Y-51843386D01*
X92552796Y-51853697D01*
X92533575Y-51865784D01*
X92515828Y-51879707D01*
X92499506Y-51895524D01*
X92484558Y-51913295D01*
X92470936Y-51933078D01*
X92458588Y-51954931D01*
X92447466Y-51978914D01*
X92437519Y-52005086D01*
X92428698Y-52033505D01*
X92420954Y-52064230D01*
X92414236Y-52097319D01*
X92403679Y-52170828D01*
X92396632Y-52254502D01*
X92392695Y-52348810D01*
X92391471Y-52454223D01*
X92390049Y-52528802D01*
X92385877Y-52604032D01*
X92379100Y-52679406D01*
X92369864Y-52754418D01*
X92358312Y-52828562D01*
X92344590Y-52901331D01*
X92328842Y-52972218D01*
X92311213Y-53040718D01*
X92291848Y-53106325D01*
X92270891Y-53168530D01*
X92248487Y-53226829D01*
X92224782Y-53280714D01*
X92199918Y-53329680D01*
X92174041Y-53373220D01*
X92147297Y-53410827D01*
X92133644Y-53427247D01*
X92119828Y-53441995D01*
X92088927Y-53479855D01*
X92061005Y-53528121D01*
X92036005Y-53586053D01*
X92013866Y-53652915D01*
X91977941Y-53810483D01*
X91952759Y-53994927D01*
X91937850Y-54200351D01*
X91932744Y-54420859D01*
X74530894Y-54420859D01*
X74710245Y-53985292D01*
X74778107Y-53783103D01*
X74850310Y-53534613D01*
X74924250Y-53249081D01*
X74997322Y-52935768D01*
X75066921Y-52603935D01*
X75130442Y-52262841D01*
X75185282Y-51921748D01*
X75228836Y-51589915D01*
X75248193Y-51433508D01*
X75269106Y-51279742D01*
X75291394Y-51129522D01*
X75314876Y-50983750D01*
X75339370Y-50843332D01*
X75364697Y-50709171D01*
X75390676Y-50582173D01*
X75417125Y-50463242D01*
X75443863Y-50353281D01*
X75470709Y-50253195D01*
X75497484Y-50163889D01*
X75524005Y-50086266D01*
X75550093Y-50021232D01*
X75575566Y-49969689D01*
X75588015Y-49949260D01*
X75600242Y-49932544D01*
X75612226Y-49919652D01*
X75623942Y-49910699D01*
X75646786Y-49894541D01*
X75668943Y-49874043D01*
X75690304Y-49849493D01*
X75710760Y-49821182D01*
X75730204Y-49789398D01*
X75748526Y-49754431D01*
X75765618Y-49716569D01*
X75781372Y-49676104D01*
X75795679Y-49633323D01*
X75808430Y-49588516D01*
X75819517Y-49541973D01*
X75828832Y-49493983D01*
X75836266Y-49444835D01*
X75841710Y-49394819D01*
X75845056Y-49344224D01*
X75846196Y-49293339D01*
X75843802Y-49218895D01*
X75835151Y-49152698D01*
X75818034Y-49094314D01*
X75790247Y-49043310D01*
X75749582Y-48999251D01*
X75693832Y-48961704D01*
X75620792Y-48930233D01*
X75543013Y-48908524D01*
X77414243Y-48908524D01*
X77414319Y-48920675D01*
X77415237Y-48931260D01*
X77416991Y-48940286D01*
X77419576Y-48947757D01*
X77422989Y-48953677D01*
X77427226Y-48958050D01*
X77432280Y-48960881D01*
X77438149Y-48962175D01*
X77444826Y-48961937D01*
X77452309Y-48960170D01*
X77460592Y-48956879D01*
X77469671Y-48952069D01*
X77479540Y-48945744D01*
X77490197Y-48937909D01*
X77501636Y-48928568D01*
X77526843Y-48905387D01*
X77555124Y-48876237D01*
X77586444Y-48841155D01*
X77620767Y-48800176D01*
X77658056Y-48753337D01*
X77698275Y-48700674D01*
X77741612Y-48650362D01*
X77787987Y-48601461D01*
X77836966Y-48554224D01*
X77888115Y-48508905D01*
X77941001Y-48465756D01*
X77995189Y-48425031D01*
X78050245Y-48386983D01*
X78105735Y-48351865D01*
X78161225Y-48319930D01*
X78216281Y-48291432D01*
X78270469Y-48266624D01*
X78323354Y-48245758D01*
X78374504Y-48229089D01*
X78423483Y-48216868D01*
X78469858Y-48209350D01*
X78491933Y-48207434D01*
X78513194Y-48206788D01*
X79710874Y-48123439D01*
X82019806Y-47984535D01*
X82835685Y-47921544D01*
X83191173Y-47890880D01*
X83513816Y-47860289D01*
X83805205Y-47829409D01*
X84066932Y-47797877D01*
X84300589Y-47765333D01*
X84507766Y-47731414D01*
X84690057Y-47695759D01*
X84849051Y-47658006D01*
X84920310Y-47638230D01*
X84986342Y-47617794D01*
X85047346Y-47596652D01*
X85103521Y-47574759D01*
X85155065Y-47552071D01*
X85202178Y-47528542D01*
X85245059Y-47504127D01*
X85283907Y-47478780D01*
X85318920Y-47452457D01*
X85350298Y-47425112D01*
X85378239Y-47396700D01*
X85402943Y-47367175D01*
X85451042Y-47302345D01*
X85493716Y-47246740D01*
X85531324Y-47200323D01*
X85564230Y-47163058D01*
X85579032Y-47147847D01*
X85592794Y-47134909D01*
X85605562Y-47124242D01*
X85617380Y-47115840D01*
X85628293Y-47109699D01*
X85638347Y-47105815D01*
X85647588Y-47104182D01*
X85656060Y-47104796D01*
X85663808Y-47107654D01*
X85670878Y-47112749D01*
X85677315Y-47120078D01*
X85683164Y-47129636D01*
X85688471Y-47141419D01*
X85693280Y-47155423D01*
X85697637Y-47171641D01*
X85701587Y-47190071D01*
X85708448Y-47233546D01*
X85714223Y-47285810D01*
X85719275Y-47346829D01*
X85723965Y-47416565D01*
X85724948Y-47486035D01*
X85728355Y-47546353D01*
X85734873Y-47597629D01*
X85739513Y-47619909D01*
X85745189Y-47639970D01*
X85751986Y-47657823D01*
X85759991Y-47673484D01*
X85769288Y-47686965D01*
X85779965Y-47698280D01*
X85792108Y-47707444D01*
X85805800Y-47714468D01*
X85821130Y-47719367D01*
X85838183Y-47722155D01*
X85857044Y-47722845D01*
X85877800Y-47721450D01*
X85900536Y-47717984D01*
X85925339Y-47712461D01*
X85981487Y-47695297D01*
X86046932Y-47670066D01*
X86122360Y-47636878D01*
X86208459Y-47595840D01*
X86415420Y-47490649D01*
X86491637Y-47457707D01*
X86580659Y-47423896D01*
X86792780Y-47354829D01*
X87043100Y-47285763D01*
X87322938Y-47219011D01*
X87623611Y-47156890D01*
X87936438Y-47101715D01*
X88252738Y-47055799D01*
X88563827Y-47021458D01*
X88867013Y-47000815D01*
X89160358Y-46976699D01*
X89436339Y-46950267D01*
X89687431Y-46922677D01*
X89906111Y-46895087D01*
X90084856Y-46868654D01*
X90216141Y-46844536D01*
X90261636Y-46833706D01*
X90292444Y-46823889D01*
X90323903Y-46816344D01*
X90362380Y-46812127D01*
X90407368Y-46811092D01*
X90458360Y-46813095D01*
X90514851Y-46817992D01*
X90576334Y-46825638D01*
X90712250Y-46848597D01*
X90862057Y-46880815D01*
X91021704Y-46921137D01*
X91187138Y-46968403D01*
X91354310Y-47021458D01*
X91460853Y-47063189D01*
X91558424Y-47105282D01*
X91647314Y-47148098D01*
X91727812Y-47192000D01*
X91765004Y-47214471D01*
X91800206Y-47237349D01*
X91833455Y-47260679D01*
X91864787Y-47284507D01*
X91894238Y-47308877D01*
X91921844Y-47333835D01*
X91947641Y-47359427D01*
X91971666Y-47385696D01*
X91993955Y-47412689D01*
X92014543Y-47440450D01*
X92033468Y-47469026D01*
X92050764Y-47498461D01*
X92066469Y-47528799D01*
X92080619Y-47560088D01*
X92093249Y-47592371D01*
X92104396Y-47625694D01*
X92114096Y-47660103D01*
X92122386Y-47695642D01*
X92129301Y-47732356D01*
X92134878Y-47770291D01*
X92142160Y-47850005D01*
X92144523Y-47935145D01*
X92143378Y-47999903D01*
X92139990Y-48064262D01*
X92134431Y-48127826D01*
X92126774Y-48190196D01*
X92117091Y-48250975D01*
X92105455Y-48309763D01*
X92091938Y-48366164D01*
X92076613Y-48419780D01*
X92059550Y-48470212D01*
X92040824Y-48517062D01*
X92020507Y-48559934D01*
X92009773Y-48579753D01*
X91998670Y-48598428D01*
X91987204Y-48615910D01*
X91975385Y-48632147D01*
X91963224Y-48647092D01*
X91950727Y-48660693D01*
X91937904Y-48672902D01*
X91924766Y-48683668D01*
X91911320Y-48692942D01*
X91897575Y-48700674D01*
X91874456Y-48717676D01*
X91851517Y-48740610D01*
X91828940Y-48769043D01*
X91806905Y-48802540D01*
X91785593Y-48840667D01*
X91765186Y-48882991D01*
X91745864Y-48929076D01*
X91727807Y-48978489D01*
X91711198Y-49030797D01*
X91696216Y-49085563D01*
X91683043Y-49142356D01*
X91671859Y-49200740D01*
X91662846Y-49260281D01*
X91656184Y-49320546D01*
X91652054Y-49381099D01*
X91650638Y-49441508D01*
X91649492Y-49501919D01*
X91646104Y-49562474D01*
X91640545Y-49622740D01*
X91632888Y-49682282D01*
X91623206Y-49740667D01*
X91611570Y-49797460D01*
X91598053Y-49852227D01*
X91582727Y-49904535D01*
X91565665Y-49953948D01*
X91546939Y-50000033D01*
X91526621Y-50042356D01*
X91515888Y-50061970D01*
X91504784Y-50080482D01*
X91493318Y-50097836D01*
X91481500Y-50113978D01*
X91469338Y-50128854D01*
X91456841Y-50142409D01*
X91444019Y-50154590D01*
X91430880Y-50165342D01*
X91417434Y-50174611D01*
X91403689Y-50182342D01*
X91320027Y-50236995D01*
X91254125Y-50289658D01*
X91227778Y-50315164D01*
X91205804Y-50340078D01*
X91188180Y-50364368D01*
X91174882Y-50388002D01*
X91165890Y-50410949D01*
X91161179Y-50433177D01*
X91160728Y-50454654D01*
X91164514Y-50475349D01*
X91172514Y-50495230D01*
X91184705Y-50514266D01*
X91201066Y-50532424D01*
X91221573Y-50549674D01*
X91246204Y-50565983D01*
X91274936Y-50581320D01*
X91307746Y-50595652D01*
X91344613Y-50608950D01*
X91430423Y-50632312D01*
X91532185Y-50651153D01*
X91649720Y-50665219D01*
X91782845Y-50674258D01*
X91931380Y-50678015D01*
X92095144Y-50676239D01*
X92396588Y-50674357D01*
X92518262Y-50669890D01*
X92622212Y-50661190D01*
X92667925Y-50654812D01*
X92709667Y-50646847D01*
X92747593Y-50637119D01*
X92781857Y-50625450D01*
X92812611Y-50611666D01*
X92840011Y-50595589D01*
X92864209Y-50577042D01*
X92885360Y-50555851D01*
X92903617Y-50531838D01*
X92919134Y-50504828D01*
X92932064Y-50474643D01*
X92942562Y-50441107D01*
X92950781Y-50404045D01*
X92956874Y-50363279D01*
X92960996Y-50318633D01*
X92963301Y-50269931D01*
X92963071Y-50159655D01*
X92957416Y-50031038D01*
X92934747Y-49713141D01*
X92927265Y-49582815D01*
X92923509Y-49459978D01*
X92923732Y-49344013D01*
X92928187Y-49234306D01*
X92937128Y-49130242D01*
X92950808Y-49031206D01*
X92969479Y-48936583D01*
X92993396Y-48845757D01*
X93022811Y-48758115D01*
X93057977Y-48673041D01*
X93099149Y-48589919D01*
X93146578Y-48508136D01*
X93200518Y-48427075D01*
X93261223Y-48346123D01*
X93328945Y-48264664D01*
X93403938Y-48182083D01*
X93461290Y-48115472D01*
X93517506Y-48041026D01*
X93626046Y-47870850D01*
X93728581Y-47676003D01*
X93824134Y-47460934D01*
X93911729Y-47230094D01*
X93990389Y-46987932D01*
X94059137Y-46738896D01*
X94116997Y-46487437D01*
X94162992Y-46238003D01*
X94196145Y-45995044D01*
X94215480Y-45763009D01*
X94220020Y-45546349D01*
X94208789Y-45349511D01*
X94196954Y-45259916D01*
X94180809Y-45176946D01*
X94160233Y-45101156D01*
X94135104Y-45033102D01*
X94105300Y-44973342D01*
X94070698Y-44922430D01*
X94052900Y-44901591D01*
X94036550Y-44880739D01*
X94021646Y-44859860D01*
X94008190Y-44838940D01*
X93996180Y-44817966D01*
X93985617Y-44796924D01*
X93976501Y-44775801D01*
X93968832Y-44754583D01*
X93962610Y-44733256D01*
X93957835Y-44711807D01*
X93954507Y-44690222D01*
X93952626Y-44668489D01*
X93952191Y-44646592D01*
X93953204Y-44624519D01*
X93955664Y-44602257D01*
X93959570Y-44579791D01*
X93964924Y-44557107D01*
X93971724Y-44534194D01*
X93979972Y-44511036D01*
X93989666Y-44487620D01*
X93990706Y-44485409D01*
X96602212Y-44485409D01*
X96607547Y-44855011D01*
X96620009Y-45202946D01*
X96639271Y-45527585D01*
X96665007Y-45827300D01*
X96696894Y-46100463D01*
X96734604Y-46345448D01*
X96777813Y-46560625D01*
X96801378Y-46656528D01*
X96826195Y-46744368D01*
X96852224Y-46823943D01*
X96879424Y-46895049D01*
X96907755Y-46957482D01*
X96937175Y-47011039D01*
X96967645Y-47055517D01*
X96999123Y-47090712D01*
X97031568Y-47116420D01*
X97064941Y-47132438D01*
X97099200Y-47138563D01*
X97134304Y-47134591D01*
X97170214Y-47120319D01*
X97206887Y-47095542D01*
X97245359Y-47065150D01*
X97286615Y-47038773D01*
X97330548Y-47016375D01*
X97377049Y-46997921D01*
X97426009Y-46983372D01*
X97477321Y-46972695D01*
X97530876Y-46965851D01*
X97586565Y-46962806D01*
X97644280Y-46963523D01*
X97703912Y-46967966D01*
X97765352Y-46976098D01*
X97828494Y-46987884D01*
X97893226Y-47003287D01*
X97959442Y-47022271D01*
X98027033Y-47044799D01*
X98095891Y-47070837D01*
X98243766Y-47122541D01*
X98440838Y-47183505D01*
X98678425Y-47251414D01*
X98947845Y-47323953D01*
X99547455Y-47473662D01*
X99860281Y-47546202D01*
X100170213Y-47614112D01*
X100322004Y-47647622D01*
X100471225Y-47683084D01*
X100617047Y-47720138D01*
X100758637Y-47758423D01*
X100895162Y-47797575D01*
X101025790Y-47837234D01*
X101149691Y-47877037D01*
X101266031Y-47916623D01*
X101373979Y-47955630D01*
X101472703Y-47993696D01*
X101561370Y-48030460D01*
X101639150Y-48065560D01*
X101705209Y-48098634D01*
X101758716Y-48129320D01*
X101798838Y-48157257D01*
X101813621Y-48170081D01*
X101824745Y-48182083D01*
X101855205Y-48210403D01*
X101908671Y-48239627D01*
X101983841Y-48269501D01*
X102079413Y-48299774D01*
X102326551Y-48360498D01*
X102639670Y-48419774D01*
X103008351Y-48475578D01*
X103422175Y-48525882D01*
X103870726Y-48568663D01*
X104343585Y-48601895D01*
X104587322Y-48617190D01*
X104826862Y-48635127D01*
X105060905Y-48655450D01*
X105288146Y-48677909D01*
X105717019Y-48728214D01*
X105916045Y-48755556D01*
X106103062Y-48784019D01*
X106276767Y-48813350D01*
X106435858Y-48843296D01*
X106579032Y-48873604D01*
X106704988Y-48904020D01*
X106812424Y-48934292D01*
X106900036Y-48964166D01*
X106966523Y-48993388D01*
X106991438Y-49007676D01*
X107010583Y-49021707D01*
X107043538Y-49048896D01*
X107077432Y-49074855D01*
X107112050Y-49099512D01*
X107147175Y-49122795D01*
X107182588Y-49144631D01*
X107218074Y-49164948D01*
X107253415Y-49183673D01*
X107288395Y-49200735D01*
X107322795Y-49216060D01*
X107356400Y-49229577D01*
X107388992Y-49241213D01*
X107420354Y-49250895D01*
X107450269Y-49258552D01*
X107478521Y-49264110D01*
X107504891Y-49267499D01*
X107529164Y-49268644D01*
X107589550Y-49272021D01*
X107692765Y-49281763D01*
X108004532Y-49318034D01*
X108418164Y-49372826D01*
X108887358Y-49441508D01*
X109481603Y-49530593D01*
X110084169Y-49612442D01*
X111289662Y-49753279D01*
X112454642Y-49861703D01*
X113529911Y-49935399D01*
X114018531Y-49958501D01*
X114466275Y-49972054D01*
X114866994Y-49975766D01*
X115214537Y-49969351D01*
X115502756Y-49952517D01*
X115725501Y-49924976D01*
X115876623Y-49886438D01*
X115923403Y-49862955D01*
X115949971Y-49836615D01*
X116009776Y-49709141D01*
X116081157Y-49478934D01*
X116168746Y-49124289D01*
X116277171Y-48623503D01*
X116575048Y-47096689D01*
X117011827Y-44724861D01*
X117135301Y-43984027D01*
X115431379Y-43663005D01*
X113952028Y-43377864D01*
X112431005Y-43122820D01*
X110632171Y-42853883D01*
X108319387Y-42527064D01*
X107099662Y-42392452D01*
X105594891Y-42269704D01*
X103925170Y-42163739D01*
X102210593Y-42079478D01*
X100571259Y-42021840D01*
X99127260Y-41995745D01*
X97998694Y-42006113D01*
X97590228Y-42026507D01*
X97305656Y-42057862D01*
X97200765Y-42081050D01*
X97107812Y-42105612D01*
X97026000Y-42133503D01*
X96954535Y-42166675D01*
X96892618Y-42207082D01*
X96864993Y-42230609D01*
X96839456Y-42256677D01*
X96815909Y-42285531D01*
X96794252Y-42317414D01*
X96774386Y-42352571D01*
X96756211Y-42391245D01*
X96724536Y-42480125D01*
X96698432Y-42586006D01*
X96677102Y-42710842D01*
X96659752Y-42856586D01*
X96645584Y-43025191D01*
X96633804Y-43218612D01*
X96614222Y-43687710D01*
X96604329Y-44095766D01*
X96602212Y-44485409D01*
X93990706Y-44485409D01*
X94000807Y-44463933D01*
X94013395Y-44439962D01*
X94027430Y-44415692D01*
X94042912Y-44391110D01*
X94078217Y-44340956D01*
X94119309Y-44289391D01*
X94166189Y-44236307D01*
X94218857Y-44181596D01*
X94259920Y-44133637D01*
X94299645Y-44082675D01*
X94337851Y-44029181D01*
X94374357Y-43973624D01*
X94408981Y-43916476D01*
X94441544Y-43858206D01*
X94471864Y-43799285D01*
X94499760Y-43740183D01*
X94525052Y-43681370D01*
X94547558Y-43623318D01*
X94567098Y-43566495D01*
X94583491Y-43511373D01*
X94596556Y-43458422D01*
X94606112Y-43408113D01*
X94611978Y-43360915D01*
X94613974Y-43317299D01*
X94614836Y-43296107D01*
X94617398Y-43274237D01*
X94621624Y-43251735D01*
X94627478Y-43228644D01*
X94643925Y-43180881D01*
X94666448Y-43131309D01*
X94694760Y-43080291D01*
X94728570Y-43028188D01*
X94767589Y-42975361D01*
X94811527Y-42922173D01*
X94860096Y-42868986D01*
X94913005Y-42816160D01*
X94969966Y-42764058D01*
X95030690Y-42713041D01*
X95094886Y-42663472D01*
X95162266Y-42615711D01*
X95232540Y-42570121D01*
X95305418Y-42527064D01*
X95500176Y-42411983D01*
X95566409Y-42364825D01*
X95608696Y-42324105D01*
X95620113Y-42306047D01*
X95624648Y-42289463D01*
X95622003Y-42274308D01*
X95611878Y-42260537D01*
X95567999Y-42236965D01*
X95490624Y-42218384D01*
X95377364Y-42204434D01*
X95225833Y-42194753D01*
X94798406Y-42186748D01*
X94189242Y-42191475D01*
X93379243Y-42206042D01*
X92177562Y-42263920D01*
X90826845Y-42377360D01*
X89374841Y-42539418D01*
X87869300Y-42743146D01*
X86357970Y-42981601D01*
X84888602Y-43247837D01*
X83508943Y-43534908D01*
X82266743Y-43835869D01*
X82050825Y-43897615D01*
X81796490Y-43979113D01*
X81199485Y-44190076D01*
X80529553Y-44446183D01*
X79840522Y-44724863D01*
X79186217Y-45003545D01*
X78620464Y-45259655D01*
X78197089Y-45470623D01*
X78055614Y-45552124D01*
X77969918Y-45613874D01*
X77950849Y-45639207D01*
X77930802Y-45677634D01*
X77909960Y-45728360D01*
X77888503Y-45790590D01*
X77844467Y-45946378D01*
X77800142Y-46138629D01*
X77756974Y-46360977D01*
X77716411Y-46607054D01*
X77679899Y-46870495D01*
X77648886Y-47144932D01*
X77628195Y-47414591D01*
X77603742Y-47681646D01*
X77576396Y-47938864D01*
X77547024Y-48179008D01*
X77516494Y-48394844D01*
X77485673Y-48579136D01*
X77455430Y-48724649D01*
X77440796Y-48780603D01*
X77426632Y-48824148D01*
X77419104Y-48862642D01*
X77415012Y-48894805D01*
X77414243Y-48908524D01*
X75543013Y-48908524D01*
X75528254Y-48904405D01*
X75414012Y-48883786D01*
X75275859Y-48867942D01*
X75111589Y-48856439D01*
X74918996Y-48848843D01*
X74440011Y-48843634D01*
X73821252Y-48848843D01*
X73401772Y-48856596D01*
X72987717Y-48870354D01*
X72581621Y-48889755D01*
X72186015Y-48914437D01*
X71803432Y-48944039D01*
X71436403Y-48978199D01*
X71087461Y-49016555D01*
X70759138Y-49058745D01*
X70453966Y-49104408D01*
X70174477Y-49153183D01*
X69923203Y-49204707D01*
X69702677Y-49258618D01*
X69515430Y-49314556D01*
X69363995Y-49372158D01*
X69302499Y-49401470D01*
X69250904Y-49431063D01*
X69209529Y-49460890D01*
X69178689Y-49490908D01*
X69157626Y-49517663D01*
X69131715Y-49560262D01*
X69066797Y-49689229D01*
X68986830Y-49870287D01*
X68894708Y-50095912D01*
X68793325Y-50358579D01*
X68685575Y-50650765D01*
X68574352Y-50964946D01*
X68462550Y-51293599D01*
X68216767Y-51963045D01*
X67977929Y-52593138D01*
X67771500Y-53116736D01*
X67688398Y-53317619D01*
X67622947Y-53466700D01*
X67596625Y-53530919D01*
X67573268Y-53593837D01*
X67552951Y-53655308D01*
X67535744Y-53715187D01*
X67521720Y-53773331D01*
X67510953Y-53829593D01*
X67503513Y-53883830D01*
X67499473Y-53935897D01*
X67498906Y-53985648D01*
X64399422Y-53985648D01*
X64634916Y-52898730D01*
X64698341Y-52579773D01*
X64758003Y-52240850D01*
X64812455Y-51892089D01*
X64860251Y-51543619D01*
X64899944Y-51205567D01*
X64930088Y-50888063D01*
X64949234Y-50601233D01*
X64955939Y-50355206D01*
X64980633Y-49318045D01*
X63326112Y-49342729D01*
X63004801Y-49349646D01*
X62689893Y-49361012D01*
X62382581Y-49376646D01*
X62084059Y-49396367D01*
X61795522Y-49419995D01*
X61518161Y-49447348D01*
X61253173Y-49478246D01*
X61001749Y-49512508D01*
X60765084Y-49549953D01*
X60544372Y-49590401D01*
X60340806Y-49633669D01*
X60155579Y-49679579D01*
X59989887Y-49727948D01*
X59844921Y-49778595D01*
X59721877Y-49831341D01*
X59621947Y-49886004D01*
X59520492Y-49964660D01*
X59420339Y-50069578D01*
X59322212Y-50198658D01*
X59226834Y-50349805D01*
X59134929Y-50520919D01*
X59047219Y-50709902D01*
X58964430Y-50914657D01*
X58887283Y-51133085D01*
X58816504Y-51363089D01*
X58752814Y-51602570D01*
X58696937Y-51849430D01*
X58649598Y-52101572D01*
X58611519Y-52356897D01*
X58583424Y-52613308D01*
X58566037Y-52868706D01*
X58560081Y-53120994D01*
X58560081Y-54528556D01*
X56393227Y-54528556D01*
X56457617Y-54326713D01*
X56522790Y-54059367D01*
X56583332Y-53739931D01*
X56641342Y-53358277D01*
X56669327Y-53120994D01*
X56758158Y-52367800D01*
X57053718Y-49194571D01*
X57124246Y-48523682D01*
X57205843Y-47891645D01*
X57298002Y-47299688D01*
X57347884Y-47019125D01*
X57400217Y-46749043D01*
X57454937Y-46489595D01*
X57511982Y-46240937D01*
X57571287Y-46003221D01*
X57632790Y-45776602D01*
X57696427Y-45561232D01*
X57762135Y-45357267D01*
X57829850Y-45164858D01*
X57899510Y-44984162D01*
X57971051Y-44815330D01*
X58044409Y-44658516D01*
X58119522Y-44513876D01*
X58196326Y-44381561D01*
X58274757Y-44261726D01*
X58354753Y-44154525D01*
X58436251Y-44060111D01*
X58519186Y-43978639D01*
X58603496Y-43910261D01*
X58689117Y-43855132D01*
X58775986Y-43813404D01*
X58864040Y-43785234D01*
X58953215Y-43770772D01*
X59043448Y-43770174D01*
X59134676Y-43783594D01*
X59226835Y-43811184D01*
X59264907Y-43822788D01*
X59313796Y-43829944D01*
X59372740Y-43832830D01*
X59440981Y-43831630D01*
X59517759Y-43826523D01*
X59602314Y-43817691D01*
X59791719Y-43789572D01*
X60003117Y-43748721D01*
X60230432Y-43696583D01*
X60467586Y-43634606D01*
X60708504Y-43564236D01*
X61248356Y-43417611D01*
X61906569Y-43289506D01*
X62741308Y-43175293D01*
X63810741Y-43070341D01*
X65173035Y-42970019D01*
X66886356Y-42869699D01*
X71598750Y-42650538D01*
X72524531Y-42609565D01*
X73351523Y-42569316D01*
X74085115Y-42528777D01*
X74418571Y-42508083D01*
X74730697Y-42486937D01*
X75022169Y-42465212D01*
X75293659Y-42442781D01*
X75545842Y-42419519D01*
X75779390Y-42395297D01*
X75994979Y-42369991D01*
X76193281Y-42343473D01*
X76374971Y-42315617D01*
X76540722Y-42286295D01*
X76691207Y-42255381D01*
X76827101Y-42222750D01*
X76949077Y-42188274D01*
X77057809Y-42151826D01*
X77153971Y-42113280D01*
X77238237Y-42072509D01*
X77276119Y-42051250D01*
X77311280Y-42029387D01*
X77343803Y-42006905D01*
X77373773Y-41983787D01*
X77401274Y-41960018D01*
X77426391Y-41935582D01*
X77449207Y-41910464D01*
X77469808Y-41884647D01*
X77488276Y-41858115D01*
X77504696Y-41830853D01*
X77519153Y-41802845D01*
X77531731Y-41774075D01*
X77542513Y-41744527D01*
X77551585Y-41714186D01*
X77564932Y-41651060D01*
X77572446Y-41584569D01*
X77574801Y-41514587D01*
X77576218Y-41479078D01*
X77580348Y-41437709D01*
X77596024Y-41339414D01*
X77620381Y-41223756D01*
X77651973Y-41094784D01*
X77689353Y-40956552D01*
X77731073Y-40813110D01*
X77775688Y-40668510D01*
X77821749Y-40526805D01*
X77865874Y-40417953D01*
X77906201Y-40322739D01*
X77943562Y-40240909D01*
X77961390Y-40204934D01*
X77978789Y-40172210D01*
X77995862Y-40142706D01*
X78012713Y-40116389D01*
X78029448Y-40093229D01*
X78046168Y-40073193D01*
X78062979Y-40056250D01*
X78079985Y-40042368D01*
X78097289Y-40031516D01*
X78114995Y-40023661D01*
X78133208Y-40018773D01*
X78152032Y-40016819D01*
X78171569Y-40017768D01*
X78191925Y-40021589D01*
X78213204Y-40028249D01*
X78235509Y-40037716D01*
X78258944Y-40049960D01*
X78283614Y-40064949D01*
X78309622Y-40082651D01*
X78337073Y-40103034D01*
X78366069Y-40126067D01*
X78396717Y-40151718D01*
X78463378Y-40210746D01*
X78537889Y-40279867D01*
X78609439Y-40344653D01*
X78677373Y-40399962D01*
X78743859Y-40445577D01*
X78811069Y-40481280D01*
X78881173Y-40506855D01*
X78956341Y-40522085D01*
X79038744Y-40526751D01*
X79130552Y-40520639D01*
X79233937Y-40503530D01*
X79351066Y-40475207D01*
X79484112Y-40435453D01*
X79635246Y-40384051D01*
X79806636Y-40320785D01*
X80000453Y-40245436D01*
X80464053Y-40057624D01*
X81383535Y-39710262D01*
X82485911Y-39329910D01*
X83704042Y-38936825D01*
X84970789Y-38551264D01*
X86219015Y-38193484D01*
X87381583Y-37883741D01*
X88391353Y-37642293D01*
X89181187Y-37489395D01*
X89528647Y-37415941D01*
X89932826Y-37309206D01*
X90380993Y-37172953D01*
X90860414Y-37010943D01*
X91358356Y-36826940D01*
X91862086Y-36624705D01*
X92358871Y-36408001D01*
X92835978Y-36180590D01*
X93182285Y-36008573D01*
X93491586Y-35852038D01*
X93766812Y-35708525D01*
X94010892Y-35575575D01*
X94226756Y-35450729D01*
X94417336Y-35331525D01*
X94585559Y-35215505D01*
X94662204Y-35157920D01*
X94734358Y-35100208D01*
X94802389Y-35042062D01*
X94866662Y-34983175D01*
X94927544Y-34923238D01*
X94985401Y-34861946D01*
X95040599Y-34798988D01*
X95093504Y-34734060D01*
X95144484Y-34666853D01*
X95193903Y-34597059D01*
X95289527Y-34448482D01*
X95383306Y-34285869D01*
X95478171Y-34106762D01*
X95577051Y-33908699D01*
X95637184Y-33783323D01*
X95696955Y-33648832D01*
X95813965Y-33357709D01*
X95925186Y-33045750D01*
X96027726Y-32723372D01*
X96118689Y-32400994D01*
X96195184Y-32089033D01*
X96254315Y-31797909D01*
X96276465Y-31663415D01*
X96293190Y-31538038D01*
X96310077Y-31333037D01*
X96322949Y-31151658D01*
X96330684Y-30991475D01*
X96332161Y-30850067D01*
X96330203Y-30785645D01*
X96326259Y-30725009D01*
X96320190Y-30667854D01*
X96311856Y-30613877D01*
X96301116Y-30562777D01*
X96287831Y-30514249D01*
X96271859Y-30467991D01*
X96253062Y-30423700D01*
X96231298Y-30381073D01*
X96206428Y-30339808D01*
X96178312Y-30299600D01*
X96146808Y-30260147D01*
X96111778Y-30221147D01*
X96073080Y-30182296D01*
X96030575Y-30143291D01*
X95984123Y-30103830D01*
X95878815Y-30022326D01*
X95756036Y-29935360D01*
X95614664Y-29840508D01*
X95453576Y-29735348D01*
X95271842Y-29618646D01*
X95101683Y-29504656D01*
X94943099Y-29393344D01*
X94796091Y-29284671D01*
X94660658Y-29178604D01*
X94536801Y-29075105D01*
X94424519Y-28974138D01*
X94323812Y-28875668D01*
X94234681Y-28779657D01*
X94157126Y-28686069D01*
X94091146Y-28594869D01*
X94036742Y-28506021D01*
X93993912Y-28419487D01*
X93962659Y-28335233D01*
X93942981Y-28253222D01*
X93934878Y-28173417D01*
X93938351Y-28095782D01*
X93953399Y-28020282D01*
X93980023Y-27946879D01*
X94018222Y-27875539D01*
X94067997Y-27806225D01*
X94129347Y-27738900D01*
X94202273Y-27673528D01*
X94286774Y-27610074D01*
X94382851Y-27548500D01*
X94490503Y-27488772D01*
X94609731Y-27430852D01*
X94740534Y-27374705D01*
X94882913Y-27320295D01*
X95036868Y-27267584D01*
X95202397Y-27216537D01*
X95379503Y-27167118D01*
X95674492Y-27097672D01*
X95983408Y-27037522D01*
X96303392Y-26986705D01*
X96631588Y-26945257D01*
X96965137Y-26913214D01*
X97301182Y-26890611D01*
X97636866Y-26877487D01*
X97969330Y-26873875D01*
X98295716Y-26879814D01*
G37*
G36*
X212652588Y-26112004D02*
G01*
X212682256Y-26131705D01*
X212757250Y-26206838D01*
X212850258Y-26324366D01*
X212957845Y-26477995D01*
X213076572Y-26661431D01*
X213203005Y-26868380D01*
X213465239Y-27327639D01*
X213717054Y-27805419D01*
X213930960Y-28251365D01*
X214015106Y-28446666D01*
X214079464Y-28615125D01*
X214120600Y-28750450D01*
X214135075Y-28846345D01*
X214134787Y-28857845D01*
X214133930Y-28869187D01*
X214132511Y-28880358D01*
X214130541Y-28891343D01*
X214128029Y-28902129D01*
X214124983Y-28912702D01*
X214121412Y-28923050D01*
X214117326Y-28933158D01*
X214112733Y-28943013D01*
X214107643Y-28952602D01*
X214102065Y-28961910D01*
X214096007Y-28970924D01*
X214089479Y-28979631D01*
X214082490Y-28988016D01*
X214075049Y-28996068D01*
X214067164Y-29003771D01*
X214058846Y-29011112D01*
X214050102Y-29018078D01*
X214040943Y-29024655D01*
X214031376Y-29030830D01*
X214021412Y-29036589D01*
X214011058Y-29041918D01*
X214000325Y-29046804D01*
X213989221Y-29051233D01*
X213977756Y-29055193D01*
X213965937Y-29058668D01*
X213953775Y-29061646D01*
X213941279Y-29064112D01*
X213928456Y-29066055D01*
X213915318Y-29067459D01*
X213901871Y-29068311D01*
X213888127Y-29068599D01*
X213876555Y-29068096D01*
X213865006Y-29066603D01*
X213853501Y-29064142D01*
X213842065Y-29060737D01*
X213830719Y-29056409D01*
X213819487Y-29051181D01*
X213808389Y-29045076D01*
X213797451Y-29038116D01*
X213776138Y-29021723D01*
X213755730Y-29002183D01*
X213736407Y-28979677D01*
X213718350Y-28954385D01*
X213701740Y-28926489D01*
X213686758Y-28896169D01*
X213673585Y-28863606D01*
X213662401Y-28828982D01*
X213653387Y-28792476D01*
X213646725Y-28754270D01*
X213642595Y-28714545D01*
X213641179Y-28673481D01*
X213638044Y-28631067D01*
X213628832Y-28578416D01*
X213613833Y-28516288D01*
X213593336Y-28445442D01*
X213537004Y-28280635D01*
X213462152Y-28090073D01*
X213371094Y-27879832D01*
X213266144Y-27655991D01*
X213149618Y-27424625D01*
X213023829Y-27191813D01*
X212965131Y-27081943D01*
X212909616Y-26974966D01*
X212857573Y-26871462D01*
X212809293Y-26772009D01*
X212765064Y-26677187D01*
X212725176Y-26587573D01*
X212689919Y-26503748D01*
X212659581Y-26426288D01*
X212634452Y-26355775D01*
X212614821Y-26292785D01*
X212600979Y-26237898D01*
X212596318Y-26213674D01*
X212593213Y-26191692D01*
X212591700Y-26172026D01*
X212591815Y-26154747D01*
X212593593Y-26139928D01*
X212597072Y-26127642D01*
X212602287Y-26117959D01*
X212609275Y-26110954D01*
X212618071Y-26106697D01*
X212628712Y-26105262D01*
X212652588Y-26112004D01*
G37*
G36*
X218562326Y-25331244D02*
G01*
X219020429Y-25367418D01*
X219592551Y-25444685D01*
X220266537Y-25561309D01*
X221030233Y-25715553D01*
X221871484Y-25905681D01*
X222778135Y-26129957D01*
X223831748Y-26410374D01*
X224891438Y-26706418D01*
X225916979Y-27005934D01*
X226868149Y-27296769D01*
X227704722Y-27566769D01*
X228386474Y-27803779D01*
X228656723Y-27906115D01*
X228873182Y-27995646D01*
X229030823Y-28070853D01*
X229124620Y-28130217D01*
X229172149Y-28183666D01*
X229239790Y-28277702D01*
X229430202Y-28578566D01*
X229685438Y-29014864D01*
X229995080Y-29568655D01*
X230348710Y-30221997D01*
X230735909Y-30956945D01*
X231146259Y-31755559D01*
X231569343Y-32599894D01*
X232373079Y-34226647D01*
X232726182Y-34930053D01*
X233035585Y-35538538D01*
X233292897Y-36035898D01*
X233489725Y-36405927D01*
X233617677Y-36632420D01*
X233653202Y-36686776D01*
X233663392Y-36698345D01*
X233668361Y-36699171D01*
X233670580Y-36671827D01*
X233676853Y-36628567D01*
X233686599Y-36571994D01*
X233699240Y-36504713D01*
X233730887Y-36348442D01*
X233767161Y-36180590D01*
X233774420Y-36134408D01*
X233777772Y-36079689D01*
X233777362Y-36017157D01*
X233773335Y-35947535D01*
X233765835Y-35871546D01*
X233755007Y-35789915D01*
X233723945Y-35612616D01*
X233681308Y-35421427D01*
X233628253Y-35222136D01*
X233565937Y-35020530D01*
X233531668Y-34920667D01*
X233495518Y-34822396D01*
X233432099Y-34623109D01*
X233372439Y-34418031D01*
X233317985Y-34212953D01*
X233270186Y-34013661D01*
X233230489Y-33825945D01*
X233200341Y-33655592D01*
X233189301Y-33578735D01*
X233181191Y-33508390D01*
X233176192Y-33445280D01*
X233174485Y-33390129D01*
X233170772Y-33312296D01*
X233169084Y-33245532D01*
X233169712Y-33189909D01*
X233172945Y-33145500D01*
X233175629Y-33127523D01*
X233179072Y-33112377D01*
X233183311Y-33100070D01*
X233188382Y-33090612D01*
X233194321Y-33084011D01*
X233201165Y-33080277D01*
X233208949Y-33079419D01*
X233217709Y-33081446D01*
X233227483Y-33086367D01*
X233238305Y-33094190D01*
X233250213Y-33104926D01*
X233263242Y-33118582D01*
X233292808Y-33154694D01*
X233327294Y-33202599D01*
X233366988Y-33262369D01*
X233412179Y-33334076D01*
X233520213Y-33513592D01*
X233595117Y-33647192D01*
X233670311Y-33786002D01*
X233743768Y-33925971D01*
X233813461Y-34063047D01*
X233877366Y-34193177D01*
X233933456Y-34312309D01*
X233979706Y-34416393D01*
X234014088Y-34501374D01*
X234202394Y-34887222D01*
X234309271Y-35102143D01*
X234360829Y-35201935D01*
X234409205Y-35291598D01*
X234432049Y-35340415D01*
X234454206Y-35393897D01*
X234475567Y-35451504D01*
X234496023Y-35512691D01*
X234515467Y-35576916D01*
X234533789Y-35643637D01*
X234550881Y-35712312D01*
X234566635Y-35782397D01*
X234580942Y-35853350D01*
X234593693Y-35924629D01*
X234604780Y-35995692D01*
X234614095Y-36065994D01*
X234621529Y-36134995D01*
X234626973Y-36202151D01*
X234630319Y-36266920D01*
X234631459Y-36328759D01*
X234632876Y-36393517D01*
X234637005Y-36457877D01*
X234643667Y-36521440D01*
X234652681Y-36583810D01*
X234663865Y-36644589D01*
X234677038Y-36703377D01*
X234692020Y-36759778D01*
X234708630Y-36813394D01*
X234726687Y-36863826D01*
X234746010Y-36910677D01*
X234766418Y-36953548D01*
X234787731Y-36992042D01*
X234809767Y-37025761D01*
X234821000Y-37040706D01*
X234832345Y-37054307D01*
X234843782Y-37066516D01*
X234855286Y-37077282D01*
X234866835Y-37086556D01*
X234878407Y-37094288D01*
X234932686Y-37119624D01*
X234979848Y-37126520D01*
X235020010Y-37115492D01*
X235053290Y-37087055D01*
X235079806Y-37041725D01*
X235099676Y-36980018D01*
X235119944Y-36809532D01*
X235115036Y-36579721D01*
X235085892Y-36294710D01*
X235033452Y-35958621D01*
X234958657Y-35575579D01*
X234745763Y-34685131D01*
X234454733Y-33656355D01*
X234093091Y-32522243D01*
X234042185Y-32377641D01*
X235372282Y-32377641D01*
X235372640Y-32396301D01*
X235373699Y-32415210D01*
X235377829Y-32453610D01*
X235384491Y-32492517D01*
X235393504Y-32531604D01*
X235404688Y-32570546D01*
X235417861Y-32609018D01*
X235432844Y-32646693D01*
X235449453Y-32683247D01*
X235467510Y-32718354D01*
X235486833Y-32751688D01*
X235507242Y-32782924D01*
X235528554Y-32811736D01*
X235550590Y-32837798D01*
X235561823Y-32849696D01*
X235573169Y-32860785D01*
X235584605Y-32871024D01*
X235596109Y-32880372D01*
X235607658Y-32888788D01*
X235619230Y-32896232D01*
X235632975Y-32902673D01*
X235646421Y-32908115D01*
X235659560Y-32912572D01*
X235672382Y-32916056D01*
X235684879Y-32918581D01*
X235697041Y-32920161D01*
X235708859Y-32920810D01*
X235720325Y-32920541D01*
X235731429Y-32919368D01*
X235742162Y-32917304D01*
X235752515Y-32914362D01*
X235762480Y-32910557D01*
X235772046Y-32905902D01*
X235781206Y-32900410D01*
X235789949Y-32894096D01*
X235798268Y-32886972D01*
X235806152Y-32879052D01*
X235813594Y-32870350D01*
X235820583Y-32860879D01*
X235827111Y-32850653D01*
X235833168Y-32839685D01*
X235838747Y-32827990D01*
X235843837Y-32815580D01*
X235848429Y-32802469D01*
X235852515Y-32788671D01*
X235856086Y-32774199D01*
X235859132Y-32759067D01*
X235861645Y-32743288D01*
X235863615Y-32726877D01*
X235865033Y-32709845D01*
X235866179Y-32673979D01*
X235865033Y-32636414D01*
X235861645Y-32598017D01*
X235856086Y-32559113D01*
X235848429Y-32520028D01*
X235838747Y-32481088D01*
X235827111Y-32442618D01*
X235813594Y-32404943D01*
X235798268Y-32368390D01*
X235781206Y-32333283D01*
X235762480Y-32299949D01*
X235742162Y-32268713D01*
X235731429Y-32253984D01*
X235720325Y-32239901D01*
X235708859Y-32226505D01*
X235697041Y-32213837D01*
X235684879Y-32201938D01*
X235672382Y-32190849D01*
X235659560Y-32180609D01*
X235646421Y-32171260D01*
X235632975Y-32162843D01*
X235619230Y-32155398D01*
X235607658Y-32148958D01*
X235596109Y-32143517D01*
X235584605Y-32139061D01*
X235573169Y-32135578D01*
X235561823Y-32133053D01*
X235550590Y-32131473D01*
X235539493Y-32130824D01*
X235528554Y-32131093D01*
X235517796Y-32132267D01*
X235507242Y-32134331D01*
X235496913Y-32137272D01*
X235486833Y-32141077D01*
X235477025Y-32145732D01*
X235467510Y-32151224D01*
X235458312Y-32157538D01*
X235449453Y-32164661D01*
X235440956Y-32172581D01*
X235432844Y-32181282D01*
X235425138Y-32190752D01*
X235417861Y-32200978D01*
X235411037Y-32211944D01*
X235404688Y-32223639D01*
X235398836Y-32236048D01*
X235393504Y-32249158D01*
X235388715Y-32262956D01*
X235384491Y-32277426D01*
X235380855Y-32292558D01*
X235377829Y-32308335D01*
X235375436Y-32324746D01*
X235373699Y-32341776D01*
X235372640Y-32359412D01*
X235372282Y-32377641D01*
X234042185Y-32377641D01*
X233668361Y-31315785D01*
X233509347Y-30893810D01*
X233350042Y-30486593D01*
X233194787Y-30104263D01*
X233047924Y-29756948D01*
X232913795Y-29454778D01*
X232796741Y-29207880D01*
X232745973Y-29108324D01*
X232701102Y-29026384D01*
X232662670Y-28963327D01*
X232631221Y-28920419D01*
X232592750Y-28871773D01*
X232560754Y-28827576D01*
X232535341Y-28787648D01*
X232525138Y-28769228D01*
X232516621Y-28751807D01*
X232509805Y-28735363D01*
X232504702Y-28719874D01*
X232501326Y-28705315D01*
X232499692Y-28691666D01*
X232499812Y-28678902D01*
X232501700Y-28667003D01*
X232505369Y-28655944D01*
X232510833Y-28645704D01*
X232518107Y-28636259D01*
X232527202Y-28627588D01*
X232538134Y-28619667D01*
X232550914Y-28612474D01*
X232565558Y-28605987D01*
X232582078Y-28600182D01*
X232600489Y-28595038D01*
X232620803Y-28590531D01*
X232667196Y-28583339D01*
X232721366Y-28578426D01*
X232783423Y-28575611D01*
X232853474Y-28574713D01*
X232918624Y-28579379D01*
X232984569Y-28593522D01*
X233051527Y-28617360D01*
X233119715Y-28651109D01*
X233189350Y-28694986D01*
X233260648Y-28749209D01*
X233333828Y-28813995D01*
X233409105Y-28889560D01*
X233486697Y-28976122D01*
X233566821Y-29073898D01*
X233649694Y-29183104D01*
X233735533Y-29303959D01*
X233824555Y-29436679D01*
X233916977Y-29581482D01*
X234013016Y-29738583D01*
X234112889Y-29908201D01*
X234318989Y-30266114D01*
X234510404Y-30580256D01*
X234685760Y-30850268D01*
X234843680Y-31075785D01*
X234982791Y-31256448D01*
X235101717Y-31391894D01*
X235153182Y-31442547D01*
X235199085Y-31481761D01*
X235239255Y-31509490D01*
X235273519Y-31525688D01*
X235301706Y-31530311D01*
X235323644Y-31523313D01*
X235339162Y-31504649D01*
X235348086Y-31474274D01*
X235350247Y-31432143D01*
X235345471Y-31378210D01*
X235333587Y-31312430D01*
X235314422Y-31234758D01*
X235253566Y-31043558D01*
X235161528Y-30804246D01*
X235036934Y-30516462D01*
X234878407Y-30179844D01*
X234833575Y-30078088D01*
X234791782Y-29976984D01*
X234753172Y-29877181D01*
X234717891Y-29779331D01*
X234686082Y-29684086D01*
X234657890Y-29592097D01*
X234633460Y-29504014D01*
X234612938Y-29420489D01*
X234596466Y-29342173D01*
X234584191Y-29269718D01*
X234576257Y-29203773D01*
X234572809Y-29144992D01*
X234573990Y-29094024D01*
X234576363Y-29071674D01*
X234579947Y-29051521D01*
X234584761Y-29033647D01*
X234590823Y-29018134D01*
X234598151Y-29005062D01*
X234606764Y-28994514D01*
X234643100Y-28967774D01*
X234691390Y-28947572D01*
X234750858Y-28933646D01*
X234820726Y-28925735D01*
X234988549Y-28926904D01*
X235188638Y-28948981D01*
X235414771Y-28989869D01*
X235660727Y-29047469D01*
X235920284Y-29119683D01*
X236187219Y-29204413D01*
X236455312Y-29299562D01*
X236718341Y-29403030D01*
X236970083Y-29512720D01*
X237204318Y-29626534D01*
X237414823Y-29742373D01*
X237595376Y-29858140D01*
X237739757Y-29971737D01*
X237796438Y-30027066D01*
X237841743Y-30081065D01*
X237900315Y-30144177D01*
X237965361Y-30203960D01*
X238037569Y-30260560D01*
X238117627Y-30314121D01*
X238206221Y-30364788D01*
X238304040Y-30412705D01*
X238411770Y-30458018D01*
X238530098Y-30500872D01*
X238659713Y-30541410D01*
X238801301Y-30579777D01*
X238955549Y-30616119D01*
X239123146Y-30650580D01*
X239304778Y-30683305D01*
X239501133Y-30714438D01*
X239940761Y-30772509D01*
X241709985Y-31068021D01*
X244273866Y-31590125D01*
X247322761Y-32264447D01*
X250547025Y-33016615D01*
X253637013Y-33772257D01*
X256283083Y-34456999D01*
X258175589Y-34996468D01*
X258742492Y-35188485D01*
X259004887Y-35316293D01*
X259038336Y-35372314D01*
X259082636Y-35473913D01*
X259200899Y-35804009D01*
X259353887Y-36286900D01*
X259535812Y-36902910D01*
X259963328Y-38455573D01*
X260437144Y-40304573D01*
X260638974Y-41106761D01*
X260828252Y-41838375D01*
X261005738Y-42501188D01*
X261172192Y-43096971D01*
X261328373Y-43627497D01*
X261475041Y-44094538D01*
X261545045Y-44304807D01*
X261612955Y-44499868D01*
X261678867Y-44679945D01*
X261742875Y-44845259D01*
X261805075Y-44996031D01*
X261865560Y-45132482D01*
X261924428Y-45254835D01*
X261981771Y-45363311D01*
X262037685Y-45458132D01*
X262092266Y-45539519D01*
X262145607Y-45607693D01*
X262197805Y-45662877D01*
X262248953Y-45705291D01*
X262299148Y-45735157D01*
X262323917Y-45745455D01*
X262348483Y-45752698D01*
X262372858Y-45756915D01*
X262397054Y-45758134D01*
X262421082Y-45756382D01*
X262444955Y-45751687D01*
X262492283Y-45733579D01*
X262539131Y-45704031D01*
X262585594Y-45663264D01*
X262603002Y-45617583D01*
X262609125Y-45528167D01*
X262588671Y-45226094D01*
X262526547Y-44772960D01*
X262425067Y-44184683D01*
X262286544Y-43477177D01*
X262113293Y-42666361D01*
X261907629Y-41768149D01*
X261671864Y-40798458D01*
X261450246Y-39857173D01*
X261432022Y-39776306D01*
X271474715Y-39776306D01*
X271474933Y-39822151D01*
X271482150Y-39875484D01*
X271496752Y-39936495D01*
X271519122Y-40005373D01*
X271549644Y-40082309D01*
X271607040Y-40218518D01*
X271684694Y-40417233D01*
X271889198Y-40965142D01*
X272413963Y-42403601D01*
X272576320Y-42861460D01*
X272730069Y-43281410D01*
X272875281Y-43663739D01*
X273012028Y-44008738D01*
X273140383Y-44316694D01*
X273260419Y-44587899D01*
X273317339Y-44709809D01*
X273372207Y-44822640D01*
X273425030Y-44926428D01*
X273475819Y-45021208D01*
X273524582Y-45107017D01*
X273571329Y-45183891D01*
X273616067Y-45251867D01*
X273658808Y-45310980D01*
X273699558Y-45361267D01*
X273738328Y-45402763D01*
X273775126Y-45435505D01*
X273809962Y-45459530D01*
X273842845Y-45474872D01*
X273858556Y-45479299D01*
X273873783Y-45481569D01*
X273888525Y-45481687D01*
X273902785Y-45479657D01*
X273916564Y-45475484D01*
X273929862Y-45469172D01*
X273942680Y-45460725D01*
X273955021Y-45450149D01*
X273978271Y-45422626D01*
X273999623Y-45386637D01*
X274019084Y-45342221D01*
X274040473Y-45231747D01*
X274040844Y-45070776D01*
X274021753Y-44864949D01*
X273984755Y-44619910D01*
X273931407Y-44341303D01*
X273863263Y-44034769D01*
X273688812Y-43360496D01*
X273473846Y-42642236D01*
X273230809Y-41925134D01*
X273182642Y-41800221D01*
X274660238Y-41800221D01*
X274660499Y-41824710D01*
X274662316Y-41850284D01*
X274665725Y-41876726D01*
X274670762Y-41903820D01*
X274677463Y-41931348D01*
X274685865Y-41959094D01*
X274792349Y-42246935D01*
X274982182Y-42798702D01*
X275227578Y-43535680D01*
X275500752Y-44379155D01*
X275634729Y-44761117D01*
X275768054Y-45119747D01*
X275900656Y-45454864D01*
X276032462Y-45766287D01*
X276163400Y-46053836D01*
X276293398Y-46317330D01*
X276358021Y-46439999D01*
X276422383Y-46556587D01*
X276486472Y-46667070D01*
X276550282Y-46771427D01*
X276613802Y-46869634D01*
X276677024Y-46961669D01*
X276739938Y-47047509D01*
X276802536Y-47127132D01*
X276864808Y-47200515D01*
X276926745Y-47267636D01*
X276988339Y-47328471D01*
X277049581Y-47382999D01*
X277110460Y-47431196D01*
X277170969Y-47473040D01*
X277231097Y-47508509D01*
X277290837Y-47537580D01*
X277350179Y-47560230D01*
X277409114Y-47576436D01*
X277467634Y-47586176D01*
X277525728Y-47589428D01*
X277603269Y-47586444D01*
X277669163Y-47577129D01*
X277697719Y-47569928D01*
X277723337Y-47560941D01*
X277746006Y-47550101D01*
X277765718Y-47537338D01*
X277782464Y-47522586D01*
X277796235Y-47505776D01*
X277807021Y-47486842D01*
X277814815Y-47465714D01*
X277819605Y-47442326D01*
X277821385Y-47416608D01*
X277820144Y-47388495D01*
X277815873Y-47357917D01*
X277808564Y-47324807D01*
X277798207Y-47289097D01*
X277768315Y-47209606D01*
X277726123Y-47118901D01*
X277671560Y-47016440D01*
X277604554Y-46901680D01*
X277525031Y-46774079D01*
X277432920Y-46633094D01*
X277328148Y-46478183D01*
X277208779Y-46284339D01*
X277058443Y-46024805D01*
X276883217Y-45710288D01*
X276689180Y-45351495D01*
X276268983Y-44543910D01*
X276054981Y-44116534D01*
X275846479Y-43687710D01*
X275749356Y-43481841D01*
X275652884Y-43281652D01*
X275464497Y-42902506D01*
X275286527Y-42558665D01*
X275124183Y-42258521D01*
X275050498Y-42127458D01*
X274982673Y-42010467D01*
X274921358Y-41908596D01*
X274867205Y-41822895D01*
X274820866Y-41754412D01*
X274782990Y-41704197D01*
X274754229Y-41673299D01*
X274743470Y-41665422D01*
X274735234Y-41662767D01*
X274728434Y-41663196D01*
X274721928Y-41664467D01*
X274715720Y-41666551D01*
X274709815Y-41669422D01*
X274704218Y-41673053D01*
X274698933Y-41677416D01*
X274693965Y-41682485D01*
X274689317Y-41688232D01*
X274684995Y-41694629D01*
X274681004Y-41701651D01*
X274674028Y-41717458D01*
X274668428Y-41735436D01*
X274664239Y-41755367D01*
X274661497Y-41777034D01*
X274660238Y-41800221D01*
X273182642Y-41800221D01*
X272972146Y-41254336D01*
X272840843Y-40950408D01*
X272710301Y-40674984D01*
X272666811Y-40590442D01*
X272619944Y-40508260D01*
X272570083Y-40428628D01*
X272517614Y-40351737D01*
X272462919Y-40277775D01*
X272406385Y-40206934D01*
X272348394Y-40139402D01*
X272289331Y-40075371D01*
X272229582Y-40015029D01*
X272169529Y-39958566D01*
X272109558Y-39906173D01*
X272050052Y-39858040D01*
X271991397Y-39814356D01*
X271933975Y-39775311D01*
X271878173Y-39741095D01*
X271824374Y-39711898D01*
X271772962Y-39687910D01*
X271724323Y-39669322D01*
X271678839Y-39656322D01*
X271636896Y-39649100D01*
X271598878Y-39647847D01*
X271565169Y-39652753D01*
X271536154Y-39664007D01*
X271512216Y-39681800D01*
X271493741Y-39706321D01*
X271481112Y-39737759D01*
X271474715Y-39776306D01*
X261432022Y-39776306D01*
X261250910Y-38972608D01*
X261077620Y-38164443D01*
X260934136Y-37452354D01*
X260824220Y-36856021D01*
X260751635Y-36395121D01*
X260730517Y-36221609D01*
X260720142Y-36089334D01*
X260720981Y-36000757D01*
X260725752Y-35973623D01*
X260733503Y-35958337D01*
X260844179Y-35941337D01*
X261093399Y-35962391D01*
X261955095Y-36106507D01*
X263213833Y-36366377D01*
X264764853Y-36717693D01*
X268324709Y-37597430D01*
X270124026Y-38077234D01*
X271796592Y-38551251D01*
X272658592Y-38801290D01*
X273543738Y-39051325D01*
X274957487Y-39440264D01*
X275230633Y-39518344D01*
X275487357Y-39606516D01*
X275730913Y-39707927D01*
X275964557Y-39825725D01*
X276191545Y-39963057D01*
X276415133Y-40123069D01*
X276638576Y-40308909D01*
X276865130Y-40523725D01*
X277098051Y-40770662D01*
X277340594Y-41052869D01*
X277596015Y-41373492D01*
X277867570Y-41735679D01*
X278158514Y-42142577D01*
X278472103Y-42597332D01*
X279180238Y-43663005D01*
X279532605Y-44197559D01*
X279866957Y-44716812D01*
X280182644Y-45219353D01*
X280479012Y-45703770D01*
X280755413Y-46168655D01*
X281011195Y-46612594D01*
X281245706Y-47034179D01*
X281458296Y-47431997D01*
X281648313Y-47804639D01*
X281815107Y-48150693D01*
X281958027Y-48468749D01*
X282076421Y-48757396D01*
X282169638Y-49015223D01*
X282237029Y-49240819D01*
X282277940Y-49432774D01*
X282291722Y-49589677D01*
X282290383Y-49672508D01*
X282285645Y-49745318D01*
X282276420Y-49808507D01*
X282261626Y-49862472D01*
X282251800Y-49886119D01*
X282240175Y-49907610D01*
X282226615Y-49926994D01*
X282210984Y-49944320D01*
X282193146Y-49959639D01*
X282172966Y-49973000D01*
X282150308Y-49984452D01*
X282125037Y-49994047D01*
X282097017Y-50001832D01*
X282066112Y-50007859D01*
X281995105Y-50014835D01*
X281910931Y-50015372D01*
X281812506Y-50009869D01*
X281698743Y-49998722D01*
X281568559Y-49982331D01*
X281254582Y-49935405D01*
X280673871Y-49827745D01*
X279887117Y-49666840D01*
X278993866Y-49473528D01*
X278093666Y-49268644D01*
X277180371Y-49059516D01*
X276250863Y-48855015D01*
X275409321Y-48678294D01*
X274759929Y-48552505D01*
X270342711Y-47805501D01*
X267351588Y-47317785D01*
X266598807Y-47195469D01*
X265811286Y-47061576D01*
X265083951Y-46932314D01*
X264511726Y-46823889D01*
X263942989Y-46719709D01*
X263221451Y-46601641D01*
X262435085Y-46483572D01*
X261671864Y-46379393D01*
X259183914Y-46042932D01*
X255621739Y-45539790D01*
X251701497Y-44987249D01*
X248336873Y-44527313D01*
X245368238Y-44155499D01*
X244147009Y-44000394D01*
X243085451Y-43863267D01*
X242171769Y-43742202D01*
X241394172Y-43635279D01*
X240740867Y-43540584D01*
X240200062Y-43456198D01*
X239968161Y-43417271D01*
X239759963Y-43380203D01*
X239573994Y-43344754D01*
X239408779Y-43310684D01*
X239262845Y-43277753D01*
X239134718Y-43245722D01*
X239022922Y-43214350D01*
X238925986Y-43183400D01*
X238842433Y-43152630D01*
X238770791Y-43121801D01*
X238709584Y-43090674D01*
X238657340Y-43059008D01*
X238612584Y-43026565D01*
X238573842Y-42993104D01*
X238539640Y-42958386D01*
X238508503Y-42922171D01*
X238448415Y-42830859D01*
X238379719Y-42688254D01*
X238219105Y-42259287D01*
X238031870Y-41655529D01*
X237823222Y-40897236D01*
X237598368Y-40004667D01*
X237362515Y-38998079D01*
X237120872Y-37897730D01*
X236878645Y-36723877D01*
X236656413Y-35612620D01*
X236656413Y-36970814D01*
X236652692Y-37282196D01*
X236659102Y-37651456D01*
X236674196Y-38064702D01*
X236696526Y-38508046D01*
X236757110Y-39429459D01*
X236829277Y-40304573D01*
X236872010Y-40699923D01*
X236907217Y-41082831D01*
X236934321Y-41443167D01*
X236952743Y-41770802D01*
X236961906Y-42055608D01*
X236962834Y-42178785D01*
X236961231Y-42287455D01*
X236957024Y-42380354D01*
X236950140Y-42456215D01*
X236940508Y-42513772D01*
X236928056Y-42551759D01*
X236909758Y-42594662D01*
X236887309Y-42635399D01*
X236860754Y-42673975D01*
X236830139Y-42710394D01*
X236756909Y-42776779D01*
X236667980Y-42834590D01*
X236563714Y-42883864D01*
X236444473Y-42924638D01*
X236310618Y-42956946D01*
X236162511Y-42980826D01*
X236000514Y-42996314D01*
X235824988Y-43003445D01*
X235636295Y-43002256D01*
X235434797Y-42992784D01*
X235220855Y-42975064D01*
X234994831Y-42949133D01*
X234757087Y-42915026D01*
X234507985Y-42872781D01*
X230927299Y-42255421D01*
X229458216Y-42004522D01*
X228022994Y-41739154D01*
X226662437Y-41467999D01*
X225417347Y-41199737D01*
X224328526Y-40943051D01*
X223436779Y-40706621D01*
X223077558Y-40598715D01*
X222782907Y-40499129D01*
X222557925Y-40408948D01*
X222407713Y-40329257D01*
X222330994Y-40275371D01*
X222258145Y-40215336D01*
X222188987Y-40148790D01*
X222123337Y-40075370D01*
X222061015Y-39994715D01*
X222001840Y-39906464D01*
X221945632Y-39810254D01*
X221892209Y-39705724D01*
X221841390Y-39592513D01*
X221792995Y-39470259D01*
X221746843Y-39338599D01*
X221702753Y-39197173D01*
X221660544Y-39045618D01*
X221620035Y-38883573D01*
X221581045Y-38710677D01*
X221575776Y-38684913D01*
X235144393Y-38684913D01*
X235146288Y-38749079D01*
X235150029Y-38822905D01*
X235151168Y-38875777D01*
X235154514Y-38932194D01*
X235159958Y-38991651D01*
X235167392Y-39053639D01*
X235176707Y-39117653D01*
X235187794Y-39183187D01*
X235214853Y-39316786D01*
X235247699Y-39450386D01*
X235266021Y-39515921D01*
X235285464Y-39579936D01*
X235305921Y-39641925D01*
X235327282Y-39701383D01*
X235349438Y-39757802D01*
X235372282Y-39810676D01*
X235438560Y-39956285D01*
X235466164Y-40013011D01*
X235490367Y-40058776D01*
X235511386Y-40093400D01*
X235520769Y-40106477D01*
X235529438Y-40116701D01*
X235537420Y-40124050D01*
X235544741Y-40128500D01*
X235551430Y-40130029D01*
X235557512Y-40128614D01*
X235563015Y-40124233D01*
X235567967Y-40116864D01*
X235572394Y-40106483D01*
X235576324Y-40093067D01*
X235582800Y-40057045D01*
X235587611Y-40008615D01*
X235590976Y-39947596D01*
X235593110Y-39873808D01*
X235594557Y-39687202D01*
X235593417Y-39621305D01*
X235590070Y-39553600D01*
X235584625Y-39484592D01*
X235577190Y-39414789D01*
X235567874Y-39344697D01*
X235556784Y-39274822D01*
X235544031Y-39205670D01*
X235529722Y-39137749D01*
X235513966Y-39071564D01*
X235496872Y-39007622D01*
X235478548Y-38946429D01*
X235459103Y-38888492D01*
X235438645Y-38834318D01*
X235417284Y-38784411D01*
X235395126Y-38739280D01*
X235372282Y-38699430D01*
X235336962Y-38647370D01*
X235305005Y-38602436D01*
X235276304Y-38564809D01*
X235250749Y-38534670D01*
X235239118Y-38522465D01*
X235228233Y-38512200D01*
X235218080Y-38503897D01*
X235208646Y-38497579D01*
X235199917Y-38493269D01*
X235191880Y-38490989D01*
X235184521Y-38490763D01*
X235177826Y-38492611D01*
X235171783Y-38496558D01*
X235166377Y-38502625D01*
X235161595Y-38510836D01*
X235157423Y-38521213D01*
X235153848Y-38533778D01*
X235150856Y-38548554D01*
X235146568Y-38584831D01*
X235144450Y-38630223D01*
X235144393Y-38684913D01*
X221575776Y-38684913D01*
X221543394Y-38526567D01*
X221248125Y-37132201D01*
X220903660Y-35668959D01*
X220516364Y-34160571D01*
X220092605Y-32630768D01*
X219638749Y-31103280D01*
X219161163Y-29601838D01*
X218666214Y-28150172D01*
X218160267Y-26772012D01*
X218094853Y-26599669D01*
X218037468Y-26443170D01*
X217988043Y-26301574D01*
X217946503Y-26173942D01*
X217928667Y-26115068D01*
X217912777Y-26059332D01*
X217898821Y-26006617D01*
X217886791Y-25956805D01*
X217876679Y-25909778D01*
X217868475Y-25865419D01*
X217862170Y-25823610D01*
X217857756Y-25784234D01*
X217855222Y-25747173D01*
X217854560Y-25712309D01*
X217855762Y-25679525D01*
X217858817Y-25648704D01*
X217863717Y-25619728D01*
X217870453Y-25592479D01*
X217879016Y-25566839D01*
X217889396Y-25542692D01*
X217901585Y-25519920D01*
X217915574Y-25498404D01*
X217931353Y-25478028D01*
X217948914Y-25458673D01*
X217968248Y-25440223D01*
X217989345Y-25422560D01*
X218012196Y-25405566D01*
X218036793Y-25389123D01*
X218115544Y-25357833D01*
X218230396Y-25337901D01*
X218379830Y-25329110D01*
X218562326Y-25331244D01*
G37*
G36*
X211798856Y-25096171D02*
G01*
X211820598Y-25099496D01*
X211843299Y-25104902D01*
X211866809Y-25112320D01*
X211890979Y-25121682D01*
X211915660Y-25132921D01*
X211940703Y-25145968D01*
X211965958Y-25160756D01*
X211991276Y-25177217D01*
X212016509Y-25195283D01*
X212041507Y-25214887D01*
X212066120Y-25235960D01*
X212090200Y-25258434D01*
X212113597Y-25282242D01*
X212136162Y-25307317D01*
X212157746Y-25333589D01*
X212178200Y-25360992D01*
X212197374Y-25389457D01*
X212215119Y-25418917D01*
X212231286Y-25449304D01*
X212245726Y-25480550D01*
X212258290Y-25512587D01*
X212279669Y-25573656D01*
X212297358Y-25627237D01*
X212311140Y-25673366D01*
X212320799Y-25712079D01*
X212324014Y-25728666D01*
X212326116Y-25743412D01*
X212327079Y-25756323D01*
X212326876Y-25767402D01*
X212325479Y-25776654D01*
X212322861Y-25784084D01*
X212318994Y-25789696D01*
X212313853Y-25793496D01*
X212307410Y-25795486D01*
X212299637Y-25795672D01*
X212290507Y-25794059D01*
X212279994Y-25790650D01*
X212268070Y-25785451D01*
X212254709Y-25778465D01*
X212239882Y-25769699D01*
X212223563Y-25759155D01*
X212186340Y-25732755D01*
X212142822Y-25699301D01*
X212092793Y-25658829D01*
X212036036Y-25611377D01*
X211963406Y-25546794D01*
X211894825Y-25483658D01*
X211862596Y-25453085D01*
X211832031Y-25423416D01*
X211803346Y-25394833D01*
X211776759Y-25367515D01*
X211752488Y-25341645D01*
X211730748Y-25317402D01*
X211711757Y-25294968D01*
X211695732Y-25274524D01*
X211682890Y-25256250D01*
X211673449Y-25240327D01*
X211670071Y-25233304D01*
X211667625Y-25226937D01*
X211666137Y-25221248D01*
X211665635Y-25216259D01*
X211666985Y-25192229D01*
X211670935Y-25171026D01*
X211677335Y-25152580D01*
X211686037Y-25136825D01*
X211696891Y-25123692D01*
X211709748Y-25113114D01*
X211724459Y-25105023D01*
X211740874Y-25099351D01*
X211758845Y-25096030D01*
X211778222Y-25094992D01*
X211798856Y-25096171D01*
G37*
G36*
X210323429Y-24125223D02*
G01*
X210418565Y-24135882D01*
X210517175Y-24152908D01*
X210617086Y-24176011D01*
X210716129Y-24204902D01*
X210812133Y-24239292D01*
X210902927Y-24278890D01*
X210986342Y-24323408D01*
X211024603Y-24347422D01*
X211060206Y-24372557D01*
X211092878Y-24398777D01*
X211122349Y-24426046D01*
X211215027Y-24523520D01*
X211289618Y-24612022D01*
X211320267Y-24652819D01*
X211346556Y-24691265D01*
X211368541Y-24727323D01*
X211386275Y-24760958D01*
X211399813Y-24792133D01*
X211409210Y-24820812D01*
X211414518Y-24846959D01*
X211415793Y-24870538D01*
X211413089Y-24891512D01*
X211406460Y-24909846D01*
X211395961Y-24925503D01*
X211381645Y-24938447D01*
X211363567Y-24948641D01*
X211341781Y-24956051D01*
X211316342Y-24960639D01*
X211287303Y-24962369D01*
X211254719Y-24961206D01*
X211218645Y-24957113D01*
X211179133Y-24950053D01*
X211136240Y-24939991D01*
X211090019Y-24926890D01*
X211040524Y-24910715D01*
X210931929Y-24868996D01*
X210810891Y-24814543D01*
X210677842Y-24747068D01*
X210532574Y-24664061D01*
X210395408Y-24583081D01*
X210269815Y-24506153D01*
X210212445Y-24469841D01*
X210159270Y-24435302D01*
X210110725Y-24402788D01*
X210067245Y-24372554D01*
X210029262Y-24344851D01*
X209997212Y-24319934D01*
X209971529Y-24298055D01*
X209952646Y-24279469D01*
X209945891Y-24271489D01*
X209940998Y-24264427D01*
X209938023Y-24258314D01*
X209937019Y-24253183D01*
X209939578Y-24231110D01*
X209947075Y-24211172D01*
X209959239Y-24193333D01*
X209975798Y-24177555D01*
X209996480Y-24163802D01*
X210021015Y-24152040D01*
X210049131Y-24142231D01*
X210080557Y-24134339D01*
X210152254Y-24124162D01*
X210233935Y-24121220D01*
X210323429Y-24125223D01*
G37*
G36*
X190285640Y-22222837D02*
G01*
X191670938Y-22287372D01*
X192261252Y-22337979D01*
X192774373Y-22401103D01*
X193152657Y-22458306D01*
X193411422Y-22502197D01*
X193493363Y-22520055D01*
X193542277Y-22535670D01*
X193554021Y-22542749D01*
X193557115Y-22549403D01*
X193551427Y-22555678D01*
X193536828Y-22561618D01*
X193480367Y-22572674D01*
X193386684Y-22582935D01*
X193083453Y-22602515D01*
X191984160Y-22648040D01*
X191159213Y-22670420D01*
X190440760Y-22697429D01*
X189907509Y-22724435D01*
X189734932Y-22736491D01*
X189638173Y-22746809D01*
X189572496Y-22766893D01*
X189493580Y-22821812D01*
X189398023Y-22917462D01*
X189282426Y-23059740D01*
X188977509Y-23507763D01*
X188551627Y-24213051D01*
X187977578Y-25222775D01*
X187228160Y-26584105D01*
X185094410Y-30550267D01*
X184167452Y-32297783D01*
X183792978Y-33001526D01*
X183471136Y-33603115D01*
X183196899Y-34110942D01*
X183076060Y-34332318D01*
X182965238Y-34533400D01*
X182863802Y-34715238D01*
X182771124Y-34878881D01*
X182686577Y-35025377D01*
X182609531Y-35155777D01*
X182539358Y-35271128D01*
X182475430Y-35372480D01*
X182417117Y-35460882D01*
X182363792Y-35537383D01*
X182314825Y-35603031D01*
X182269589Y-35658877D01*
X182227455Y-35705969D01*
X182187794Y-35745356D01*
X182149979Y-35778087D01*
X182113379Y-35805211D01*
X182077367Y-35827778D01*
X182041314Y-35846835D01*
X182004592Y-35863433D01*
X181966573Y-35878620D01*
X181884126Y-35908958D01*
X181831957Y-35920835D01*
X181759640Y-35928733D01*
X181559624Y-35932880D01*
X181294207Y-35921978D01*
X180973518Y-35896608D01*
X180607684Y-35857348D01*
X180206834Y-35804777D01*
X179781097Y-35739475D01*
X179340602Y-35662020D01*
X178363243Y-35481049D01*
X177263182Y-35288506D01*
X176177011Y-35109854D01*
X175241325Y-34970555D01*
X174841055Y-34912970D01*
X174460753Y-34852490D01*
X174108811Y-34790853D01*
X173793620Y-34729794D01*
X173523574Y-34671048D01*
X173408103Y-34643086D01*
X173307065Y-34616353D01*
X173221509Y-34591067D01*
X173152484Y-34567445D01*
X173101039Y-34545703D01*
X173068223Y-34526059D01*
X173045206Y-34497222D01*
X173027045Y-34461761D01*
X173005039Y-34371673D01*
X173001699Y-34257203D01*
X173016518Y-34119763D01*
X173048990Y-33960763D01*
X173098608Y-33781615D01*
X173164867Y-33583729D01*
X173247258Y-33368515D01*
X173345277Y-33137385D01*
X173458416Y-32891749D01*
X173586169Y-32633018D01*
X173728029Y-32362602D01*
X173883491Y-32081913D01*
X174052047Y-31792361D01*
X174233191Y-31495357D01*
X174426417Y-31192311D01*
X174719152Y-30720500D01*
X174959037Y-30296655D01*
X175059466Y-30103060D01*
X175147049Y-29921862D01*
X175221908Y-29753199D01*
X175284165Y-29597205D01*
X175333941Y-29454017D01*
X175371360Y-29323770D01*
X175396544Y-29206600D01*
X175409613Y-29102642D01*
X175410691Y-29012032D01*
X175399900Y-28934905D01*
X175377361Y-28871398D01*
X175343197Y-28821646D01*
X175297529Y-28785785D01*
X175240481Y-28763950D01*
X175172173Y-28756276D01*
X175092728Y-28762901D01*
X175002269Y-28783958D01*
X174900917Y-28819585D01*
X174788794Y-28869916D01*
X174666022Y-28935087D01*
X174532724Y-29015234D01*
X174389022Y-29110492D01*
X174235037Y-29220998D01*
X174070892Y-29346886D01*
X173896708Y-29488293D01*
X173712609Y-29645354D01*
X173315150Y-30006980D01*
X172986987Y-30317012D01*
X172639145Y-30630515D01*
X172282042Y-30939388D01*
X171926096Y-31235528D01*
X171581724Y-31510832D01*
X171259345Y-31757198D01*
X170969377Y-31966522D01*
X170839802Y-32054762D01*
X170722236Y-32130703D01*
X170494120Y-32274951D01*
X170291000Y-32411892D01*
X170198667Y-32477871D01*
X170112406Y-32542322D01*
X170032159Y-32605344D01*
X169957867Y-32667036D01*
X169889471Y-32727499D01*
X169826913Y-32786831D01*
X169770133Y-32845132D01*
X169719073Y-32902502D01*
X169673675Y-32959039D01*
X169633879Y-33014844D01*
X169599627Y-33070017D01*
X169570859Y-33124655D01*
X169547517Y-33178860D01*
X169529543Y-33232730D01*
X169516877Y-33286365D01*
X169509461Y-33339864D01*
X169507236Y-33393327D01*
X169510143Y-33446854D01*
X169518123Y-33500543D01*
X169531118Y-33554495D01*
X169549069Y-33608808D01*
X169571916Y-33663583D01*
X169599602Y-33718918D01*
X169632068Y-33774914D01*
X169669254Y-33831669D01*
X169711102Y-33889284D01*
X169757554Y-33947857D01*
X169808549Y-34007489D01*
X169949477Y-34170509D01*
X169996393Y-34236465D01*
X170023849Y-34293016D01*
X170029397Y-34317991D01*
X170029022Y-34340886D01*
X170022371Y-34361791D01*
X170009091Y-34380797D01*
X169988830Y-34397994D01*
X169961235Y-34413473D01*
X169882631Y-34439639D01*
X169770459Y-34460016D01*
X169621896Y-34475330D01*
X169434121Y-34486302D01*
X169204313Y-34493657D01*
X168607309Y-34500410D01*
X167808311Y-34501374D01*
X166615018Y-34517049D01*
X165235069Y-34561952D01*
X162113145Y-34726708D01*
X158838425Y-34970177D01*
X157267482Y-35113470D01*
X155806798Y-35266893D01*
X155270513Y-35325881D01*
X154762299Y-35373005D01*
X154294021Y-35407974D01*
X153877544Y-35430500D01*
X153524732Y-35440292D01*
X153375908Y-35440322D01*
X153247450Y-35437060D01*
X153140840Y-35430470D01*
X153057563Y-35420515D01*
X152999100Y-35407159D01*
X152979638Y-35399195D01*
X152966935Y-35390367D01*
X152960261Y-35378814D01*
X152958682Y-35362762D01*
X152970360Y-35317685D01*
X153001066Y-35256185D01*
X153049894Y-35179311D01*
X153115942Y-35088113D01*
X153198304Y-34983638D01*
X153296075Y-34866937D01*
X153408353Y-34739058D01*
X153672807Y-34453964D01*
X153984430Y-34136747D01*
X154335989Y-33795801D01*
X154720247Y-33439518D01*
X155708792Y-32524662D01*
X156942741Y-31362090D01*
X159535673Y-28895735D01*
X160147000Y-28305865D01*
X160749936Y-27746671D01*
X161331458Y-27227992D01*
X161878544Y-26759666D01*
X162378171Y-26351532D01*
X162606117Y-26173112D01*
X162817315Y-26013429D01*
X163010136Y-25873714D01*
X163182954Y-25755196D01*
X163334139Y-25659105D01*
X163462065Y-25586671D01*
X164396021Y-25205404D01*
X165511711Y-24851629D01*
X166863540Y-24515795D01*
X168505913Y-24188353D01*
X170493237Y-23859754D01*
X172879915Y-23520448D01*
X175720354Y-23160884D01*
X179068959Y-22771514D01*
X181015097Y-22577336D01*
X183002327Y-22421935D01*
X184976822Y-22307048D01*
X186884756Y-22234411D01*
X188672304Y-22205762D01*
X190285640Y-22222837D01*
G37*
D11*
%TO.C,SW2*%
X310012500Y-43112500D02*
X311012500Y-43112500D01*
X310012500Y-44112500D02*
X310012500Y-43112500D01*
X310012500Y-54312500D02*
X310012500Y-55312500D01*
X310012500Y-55312500D02*
X311012500Y-55312500D01*
X315412500Y-43112500D02*
X316412500Y-43112500D01*
X315412500Y-55312500D02*
X316412500Y-55312500D01*
X320812500Y-43112500D02*
X321812500Y-43112500D01*
X321812500Y-43112500D02*
X321812500Y-44112500D01*
X321812500Y-54312500D02*
X321812500Y-55312500D01*
X321812500Y-55312500D02*
X320812500Y-55312500D01*
X315912500Y-55110608D02*
X315672500Y-54780608D01*
X316152500Y-54780608D01*
X315912500Y-55110608D01*
G36*
X315912500Y-55110608D02*
G01*
X315672500Y-54780608D01*
X316152500Y-54780608D01*
X315912500Y-55110608D01*
G37*
%TO.C,SW1*%
X310012500Y-19300000D02*
X311012500Y-19300000D01*
X310012500Y-20300000D02*
X310012500Y-19300000D01*
X310012500Y-30500000D02*
X310012500Y-31500000D01*
X310012500Y-31500000D02*
X311012500Y-31500000D01*
X315412500Y-19300000D02*
X316412500Y-19300000D01*
X315412500Y-31500000D02*
X316412500Y-31500000D01*
X320812500Y-19300000D02*
X321812500Y-19300000D01*
X321812500Y-19300000D02*
X321812500Y-20300000D01*
X321812500Y-30500000D02*
X321812500Y-31500000D01*
X321812500Y-31500000D02*
X320812500Y-31500000D01*
X315912500Y-31298108D02*
X315672500Y-30968108D01*
X316152500Y-30968108D01*
X315912500Y-31298108D01*
G36*
X315912500Y-31298108D02*
G01*
X315672500Y-30968108D01*
X316152500Y-30968108D01*
X315912500Y-31298108D01*
G37*
%TD*%
%LPC*%
D12*
%TO.C,MXS2*%
X153669880Y-82550008D03*
D13*
X158749880Y-82550008D03*
D12*
X163829880Y-82550008D03*
%TD*%
D13*
%TO.C,S1*%
X106362435Y-74295000D03*
D14*
X106362434Y-89535000D03*
X82549934Y-89535000D03*
D13*
X82549933Y-74295000D03*
%TD*%
%TO.C,S3*%
X153987395Y-74295000D03*
D14*
X153987394Y-89535000D03*
X130174894Y-89535000D03*
D13*
X130174893Y-74295000D03*
%TD*%
%TO.C,S4*%
X213518573Y-33654992D03*
D14*
X213518574Y-18414992D03*
X237331074Y-18414992D03*
D13*
X237331075Y-33654992D03*
%TD*%
D14*
%TO.C,S6*%
X120649928Y-89535008D03*
D13*
X120649928Y-74295008D03*
D14*
X82549928Y-89535008D03*
D13*
X82549928Y-74295008D03*
%TD*%
D14*
%TO.C,S5*%
X275431042Y-89535000D03*
D13*
X275431042Y-74295000D03*
D14*
X251618542Y-89535000D03*
D13*
X251618542Y-74295000D03*
%TD*%
D12*
%TO.C,MXS1*%
X106679927Y-82550008D03*
D13*
X101599928Y-82550008D03*
D12*
X96519929Y-82550008D03*
%TD*%
D14*
%TO.C,S2*%
X187324904Y-89534999D03*
D13*
X187324904Y-74295000D03*
D14*
X73024904Y-89534999D03*
D13*
X73024904Y-74295000D03*
%TD*%
D14*
%TO.C,S7*%
X177799880Y-89535008D03*
D13*
X177799880Y-74295008D03*
D14*
X139699880Y-89535008D03*
D13*
X139699880Y-74295008D03*
%TD*%
D12*
%TO.C,MX9*%
X182880000Y-25400000D03*
D13*
X177800000Y-25400000D03*
D12*
X172720000Y-25400000D03*
%TD*%
%TO.C,MX51*%
X46513721Y-82550008D03*
D13*
X51593720Y-82550008D03*
D12*
X56673719Y-82550008D03*
%TD*%
%TO.C,MX20*%
X87630000Y-44450000D03*
D13*
X82550000Y-44450000D03*
D12*
X77470000Y-44450000D03*
%TD*%
%TO.C,MX90*%
X227488585Y-63500024D03*
D13*
X232568584Y-63500024D03*
D12*
X237648583Y-63500024D03*
%TD*%
%TO.C,MX50*%
X49529999Y-82550000D03*
D13*
X44450000Y-82550000D03*
D12*
X39370001Y-82550000D03*
%TD*%
%TO.C,MX36*%
X97154951Y-63500048D03*
D13*
X92074952Y-63500048D03*
D12*
X86994953Y-63500048D03*
%TD*%
%TO.C,MX16*%
X320992500Y-25400000D03*
D13*
X315912500Y-25400000D03*
D12*
X310832500Y-25400000D03*
%TD*%
%TO.C,MX5*%
X106680000Y-25400000D03*
D13*
X101600000Y-25400000D03*
D12*
X96520000Y-25400000D03*
%TD*%
%TO.C,MX37*%
X116204951Y-63500048D03*
D13*
X111124952Y-63500048D03*
D12*
X106044953Y-63500048D03*
%TD*%
%TO.C,MX49*%
X22701241Y-82550008D03*
D13*
X27781240Y-82550008D03*
D12*
X32861239Y-82550008D03*
%TD*%
%TO.C,MX82*%
X72707465Y-63500024D03*
D13*
X77787464Y-63500024D03*
D12*
X82867463Y-63500024D03*
%TD*%
%TO.C,MX44*%
X235267335Y-63500024D03*
D13*
X230187336Y-63500024D03*
D12*
X225107337Y-63500024D03*
%TD*%
%TO.C,MX30*%
X278130000Y-44450000D03*
D13*
X273050000Y-44450000D03*
D12*
X267970000Y-44450000D03*
%TD*%
%TO.C,MX52*%
X68579999Y-82550000D03*
D13*
X63500000Y-82550000D03*
D12*
X58420001Y-82550000D03*
%TD*%
%TO.C,MX54*%
X135254904Y-82550000D03*
D13*
X130174904Y-82550000D03*
D12*
X125094904Y-82550000D03*
%TD*%
%TO.C,MX83*%
X91757449Y-63500024D03*
D13*
X96837448Y-63500024D03*
D12*
X101917447Y-63500024D03*
%TD*%
%TO.C,MX74*%
X120332409Y-44450000D03*
D13*
X125412408Y-44450000D03*
D12*
X130492407Y-44450000D03*
%TD*%
%TO.C,MX47*%
X297180000Y-63500000D03*
D13*
X292100000Y-63500000D03*
D12*
X287020000Y-63500000D03*
%TD*%
%TO.C,MX73*%
X101282425Y-44450000D03*
D13*
X106362424Y-44450000D03*
D12*
X111442423Y-44450000D03*
%TD*%
%TO.C,MX1*%
X30480000Y-25400000D03*
D13*
X25400000Y-25400000D03*
D12*
X20320000Y-25400000D03*
%TD*%
%TO.C,MX66*%
X316230000Y-82550000D03*
D13*
X311150000Y-82550000D03*
D12*
X306070000Y-82550000D03*
%TD*%
%TO.C,MX55*%
X137001145Y-82550000D03*
D13*
X142081144Y-82550000D03*
D12*
X147161143Y-82550000D03*
%TD*%
%TO.C,MX84*%
X110807433Y-63500024D03*
D13*
X115887432Y-63500024D03*
D12*
X120967431Y-63500024D03*
%TD*%
%TO.C,MX28*%
X229870001Y-44450000D03*
D13*
X234950000Y-44450000D03*
D12*
X240029999Y-44450000D03*
%TD*%
%TO.C,MX63*%
X258444792Y-82550000D03*
D13*
X263524792Y-82550000D03*
D12*
X268604792Y-82550000D03*
%TD*%
%TO.C,MX71*%
X63182457Y-44450000D03*
D13*
X68262456Y-44450000D03*
D12*
X73342455Y-44450000D03*
%TD*%
%TO.C,MX70*%
X49529999Y-44450000D03*
D13*
X44450000Y-44450000D03*
D12*
X39370001Y-44450000D03*
%TD*%
%TO.C,MX80*%
X27463753Y-63500024D03*
D13*
X32543752Y-63500024D03*
D12*
X37623751Y-63500024D03*
%TD*%
%TO.C,MX19*%
X68580000Y-44450000D03*
D13*
X63500000Y-44450000D03*
D12*
X58420000Y-44450000D03*
%TD*%
%TO.C,MX69*%
X22701241Y-44450000D03*
D13*
X27781240Y-44450000D03*
D12*
X32861239Y-44450000D03*
%TD*%
%TO.C,MX35*%
X78104967Y-63500048D03*
D13*
X73024968Y-63500048D03*
D12*
X67944969Y-63500048D03*
%TD*%
%TO.C,MX31*%
X297180000Y-44450000D03*
D13*
X292100000Y-44450000D03*
D12*
X287020000Y-44450000D03*
%TD*%
%TO.C,MX10*%
X201930000Y-25400000D03*
D13*
X196850000Y-25400000D03*
D12*
X191770000Y-25400000D03*
%TD*%
%TO.C,MX12*%
X229870001Y-25400000D03*
D13*
X234950000Y-25400000D03*
D12*
X240029999Y-25400000D03*
%TD*%
%TO.C,MX77*%
X177482361Y-44450000D03*
D13*
X182562360Y-44450000D03*
D12*
X187642359Y-44450000D03*
%TD*%
%TO.C,MX23*%
X144780000Y-44450000D03*
D13*
X139700000Y-44450000D03*
D12*
X134620000Y-44450000D03*
%TD*%
%TO.C,MX17*%
X30480000Y-44450000D03*
D13*
X25400000Y-44450000D03*
D12*
X20320000Y-44450000D03*
%TD*%
%TO.C,MX24*%
X163830000Y-44450000D03*
D13*
X158750000Y-44450000D03*
D12*
X153670000Y-44450000D03*
%TD*%
%TO.C,MX75*%
X139382393Y-44450000D03*
D13*
X144462392Y-44450000D03*
D12*
X149542391Y-44450000D03*
%TD*%
%TO.C,MX53*%
X99536183Y-82550000D03*
D13*
X94456184Y-82550000D03*
D12*
X89376185Y-82550000D03*
%TD*%
%TO.C,MX81*%
X53657481Y-63500024D03*
D13*
X58737480Y-63500024D03*
D12*
X63817479Y-63500024D03*
%TD*%
%TO.C,MX85*%
X129857417Y-63500024D03*
D13*
X134937416Y-63500024D03*
D12*
X140017415Y-63500024D03*
%TD*%
%TO.C,MX27*%
X210820001Y-44450000D03*
D13*
X215900000Y-44450000D03*
D12*
X220979999Y-44450000D03*
%TD*%
%TO.C,MX26*%
X201930000Y-44450000D03*
D13*
X196850000Y-44450000D03*
D12*
X191770000Y-44450000D03*
%TD*%
%TO.C,MX13*%
X259080000Y-25400000D03*
D13*
X254000000Y-25400000D03*
D12*
X248920000Y-25400000D03*
%TD*%
%TO.C,MX62*%
X259080000Y-82550000D03*
D13*
X254000000Y-82550000D03*
D12*
X248920000Y-82550000D03*
%TD*%
%TO.C,MX78*%
X196532345Y-44450000D03*
D13*
X201612344Y-44450000D03*
D12*
X206692343Y-44450000D03*
%TD*%
%TO.C,MX4*%
X87630000Y-25400000D03*
D13*
X82550000Y-25400000D03*
D12*
X77470000Y-25400000D03*
%TD*%
%TO.C,MX61*%
X229870001Y-82550000D03*
D13*
X234950000Y-82550000D03*
D12*
X240029999Y-82550000D03*
%TD*%
%TO.C,MX41*%
X192404951Y-63500048D03*
D13*
X187324952Y-63500048D03*
D12*
X182244953Y-63500048D03*
%TD*%
%TO.C,MX15*%
X297180000Y-25400000D03*
D13*
X292100000Y-25400000D03*
D12*
X287020000Y-25400000D03*
%TD*%
%TO.C,MX56*%
X182879999Y-82550000D03*
D13*
X177800000Y-82550000D03*
D12*
X172720001Y-82550000D03*
%TD*%
%TO.C,MX39*%
X154304951Y-63500048D03*
D13*
X149224952Y-63500048D03*
D12*
X144144953Y-63500048D03*
%TD*%
%TO.C,MX68*%
X230504823Y-25399992D03*
D13*
X225424824Y-25399992D03*
D12*
X220344825Y-25399992D03*
%TD*%
%TO.C,MX14*%
X278130000Y-25400000D03*
D13*
X273050000Y-25400000D03*
D12*
X267970000Y-25400000D03*
%TD*%
%TO.C,MX88*%
X187007369Y-63500024D03*
D13*
X192087368Y-63500024D03*
D12*
X197167367Y-63500024D03*
%TD*%
%TO.C,MX40*%
X173354951Y-63500048D03*
D13*
X168274952Y-63500048D03*
D12*
X163194953Y-63500048D03*
%TD*%
%TO.C,MX11*%
X210820001Y-25400000D03*
D13*
X215900000Y-25400000D03*
D12*
X220979999Y-25400000D03*
%TD*%
%TO.C,MX89*%
X206057353Y-63500024D03*
D13*
X211137352Y-63500024D03*
D12*
X216217351Y-63500024D03*
%TD*%
%TO.C,MX48*%
X30479999Y-82550000D03*
D13*
X25400000Y-82550000D03*
D12*
X20320001Y-82550000D03*
%TD*%
%TO.C,MX21*%
X106680000Y-44450000D03*
D13*
X101600000Y-44450000D03*
D12*
X96520000Y-44450000D03*
%TD*%
%TO.C,MX59*%
X210820001Y-82550000D03*
D13*
X215900000Y-82550000D03*
D12*
X220979999Y-82550000D03*
%TD*%
%TO.C,MX25*%
X182880000Y-44450000D03*
D13*
X177800000Y-44450000D03*
D12*
X172720000Y-44450000D03*
%TD*%
%TO.C,MX32*%
X320992500Y-49212500D03*
D13*
X315912500Y-49212500D03*
D12*
X310832500Y-49212500D03*
%TD*%
%TO.C,MX86*%
X148907401Y-63500024D03*
D13*
X153987400Y-63500024D03*
D12*
X159067399Y-63500024D03*
%TD*%
%TO.C,MX22*%
X125730000Y-44450000D03*
D13*
X120650000Y-44450000D03*
D12*
X115570000Y-44450000D03*
%TD*%
%TO.C,MX46*%
X278129999Y-63500000D03*
D13*
X273050000Y-63500000D03*
D12*
X267970001Y-63500000D03*
%TD*%
%TO.C,MX72*%
X82232441Y-44450000D03*
D13*
X87312440Y-44450000D03*
D12*
X92392439Y-44450000D03*
%TD*%
%TO.C,MX29*%
X259080000Y-44450000D03*
D13*
X254000000Y-44450000D03*
D12*
X248920000Y-44450000D03*
%TD*%
%TO.C,MX42*%
X211454951Y-63500048D03*
D13*
X206374952Y-63500048D03*
D12*
X201294953Y-63500048D03*
%TD*%
%TO.C,MX33*%
X35262352Y-63500024D03*
D13*
X30182352Y-63500024D03*
D12*
X25102352Y-63500024D03*
%TD*%
%TO.C,MX34*%
X59054968Y-63500048D03*
D13*
X53974968Y-63500048D03*
D12*
X48894968Y-63500048D03*
%TD*%
%TO.C,MX87*%
X167957385Y-63500024D03*
D13*
X173037384Y-63500024D03*
D12*
X178117383Y-63500024D03*
%TD*%
%TO.C,MX45*%
X259079999Y-63500000D03*
D13*
X254000000Y-63500000D03*
D12*
X248920001Y-63500000D03*
%TD*%
%TO.C,MX65*%
X297180000Y-82550000D03*
D13*
X292100000Y-82550000D03*
D12*
X287020000Y-82550000D03*
%TD*%
%TO.C,MX18*%
X44132473Y-44450040D03*
D13*
X49212472Y-44450040D03*
D12*
X54292471Y-44450040D03*
%TD*%
%TO.C,MX64*%
X278130000Y-82550000D03*
D13*
X273050000Y-82550000D03*
D12*
X267970000Y-82550000D03*
%TD*%
%TO.C,MX76*%
X158432377Y-44450000D03*
D13*
X163512376Y-44450000D03*
D12*
X168592375Y-44450000D03*
%TD*%
%TO.C,MX2*%
X49530000Y-25400000D03*
D13*
X44450000Y-25400000D03*
D12*
X39370000Y-25400000D03*
%TD*%
%TO.C,MX57*%
X191770001Y-82550000D03*
D13*
X196850000Y-82550000D03*
D12*
X201929999Y-82550000D03*
%TD*%
%TO.C,MX6*%
X125730000Y-25400000D03*
D13*
X120650000Y-25400000D03*
D12*
X115570000Y-25400000D03*
%TD*%
%TO.C,MX8*%
X163830000Y-25400000D03*
D13*
X158750000Y-25400000D03*
D12*
X153670000Y-25400000D03*
%TD*%
%TO.C,MX38*%
X135254951Y-63500048D03*
D13*
X130174952Y-63500048D03*
D12*
X125094953Y-63500048D03*
%TD*%
%TO.C,MX60*%
X237648567Y-82550008D03*
D13*
X232568568Y-82550008D03*
D12*
X227488569Y-82550008D03*
%TD*%
%TO.C,MX79*%
X232886071Y-44450000D03*
D13*
X227806072Y-44450000D03*
D12*
X222726073Y-44450000D03*
%TD*%
%TO.C,MX7*%
X144780000Y-25400000D03*
D13*
X139700000Y-25400000D03*
D12*
X134620000Y-25400000D03*
%TD*%
%TO.C,MX3*%
X68580000Y-25400000D03*
D13*
X63500000Y-25400000D03*
D12*
X58420000Y-25400000D03*
%TD*%
%TO.C,MX58*%
X213836087Y-82550008D03*
D13*
X208756088Y-82550008D03*
D12*
X203676089Y-82550008D03*
%TD*%
%LPD*%
M02*
