%TF.GenerationSoftware,KiCad,Pcbnew,8.0.5*%
%TF.CreationDate,2024-09-18T09:40:41-04:00*%
%TF.ProjectId,limousine-plate,6c696d6f-7573-4696-9e65-2d706c617465,rev?*%
%TF.SameCoordinates,Original*%
%TF.FileFunction,Drillmap*%
%TF.FilePolarity,Positive*%
%FSLAX45Y45*%
G04 Gerber Fmt 4.5, Leading zero omitted, Abs format (unit mm)*
G04 Created by KiCad (PCBNEW 8.0.5) date 2024-09-18 09:40:41*
%MOMM*%
%LPD*%
G01*
G04 APERTURE LIST*
%ADD10C,0.185208*%
%ADD11C,0.158749*%
%ADD12C,0.200000*%
G04 APERTURE END LIST*
D10*
X23098119Y-6310307D02*
X23100000Y-6310450D01*
X23101854Y-6310686D01*
X23103678Y-6311012D01*
X23105470Y-6311425D01*
X23107228Y-6311924D01*
X23108949Y-6312507D01*
X23110631Y-6313170D01*
X23112272Y-6313912D01*
X23113869Y-6314730D01*
X23115420Y-6315622D01*
X23116923Y-6316585D01*
X23118375Y-6317618D01*
X23119775Y-6318717D01*
X23121119Y-6319882D01*
X23122405Y-6321108D01*
X23123632Y-6322395D01*
X23124796Y-6323739D01*
X23125896Y-6325138D01*
X23126929Y-6326590D01*
X23127892Y-6328093D01*
X23128784Y-6329644D01*
X23129602Y-6331242D01*
X23130344Y-6332882D01*
X23131007Y-6334564D01*
X23131590Y-6336286D01*
X23132089Y-6338043D01*
X23132502Y-6339835D01*
X23132828Y-6341660D01*
X23133064Y-6343513D01*
X23133207Y-6345394D01*
X23133255Y-6347301D01*
X23133255Y-7323613D01*
X23133207Y-7325519D01*
X23133064Y-7327400D01*
X23132828Y-7329254D01*
X23132502Y-7331078D01*
X23132089Y-7332870D01*
X23131590Y-7334628D01*
X23131007Y-7336349D01*
X23130344Y-7338031D01*
X23129602Y-7339672D01*
X23128784Y-7341269D01*
X23127892Y-7342821D01*
X23126929Y-7344324D01*
X23125896Y-7345776D01*
X23124796Y-7347175D01*
X23123632Y-7348519D01*
X23122405Y-7349806D01*
X23121119Y-7351032D01*
X23119775Y-7352196D01*
X23118375Y-7353296D01*
X23116923Y-7354329D01*
X23115420Y-7355292D01*
X23113869Y-7356184D01*
X23112272Y-7357002D01*
X23110631Y-7357744D01*
X23108949Y-7358407D01*
X23107228Y-7358989D01*
X23105470Y-7359489D01*
X23103678Y-7359902D01*
X23101854Y-7360228D01*
X23100000Y-7360464D01*
X23098119Y-7360607D01*
X23096213Y-7360655D01*
X22119902Y-7360655D01*
X22117996Y-7360607D01*
X22116115Y-7360464D01*
X22114261Y-7360228D01*
X22112437Y-7359902D01*
X22110645Y-7359489D01*
X22108887Y-7358989D01*
X22107166Y-7358407D01*
X22105484Y-7357744D01*
X22103843Y-7357002D01*
X22102246Y-7356184D01*
X22100695Y-7355292D01*
X22099192Y-7354329D01*
X22097739Y-7353296D01*
X22096340Y-7352196D01*
X22094996Y-7351032D01*
X22093709Y-7349806D01*
X22092483Y-7348519D01*
X22091319Y-7347175D01*
X22090219Y-7345776D01*
X22089186Y-7344324D01*
X22088223Y-7342821D01*
X22087331Y-7341269D01*
X22086513Y-7339672D01*
X22085771Y-7338031D01*
X22085108Y-7336349D01*
X22084525Y-7334628D01*
X22084026Y-7332870D01*
X22083612Y-7331078D01*
X22083287Y-7329254D01*
X22083051Y-7327400D01*
X22082908Y-7325519D01*
X22082860Y-7323613D01*
X22082860Y-6347301D01*
X22082908Y-6345394D01*
X22083051Y-6343513D01*
X22083287Y-6341660D01*
X22083612Y-6339835D01*
X22084026Y-6338043D01*
X22084525Y-6336286D01*
X22085108Y-6334564D01*
X22085771Y-6332882D01*
X22086513Y-6331242D01*
X22087331Y-6329644D01*
X22088223Y-6328093D01*
X22089186Y-6326590D01*
X22090219Y-6325138D01*
X22091319Y-6323739D01*
X22092483Y-6322395D01*
X22093709Y-6321108D01*
X22094996Y-6319882D01*
X22096340Y-6318717D01*
X22097739Y-6317618D01*
X22099192Y-6316585D01*
X22100695Y-6315622D01*
X22102246Y-6314730D01*
X22103843Y-6313912D01*
X22105484Y-6313170D01*
X22107166Y-6312507D01*
X22108887Y-6311924D01*
X22110645Y-6311425D01*
X22112437Y-6311012D01*
X22114261Y-6310686D01*
X22116115Y-6310450D01*
X22117996Y-6310307D01*
X22119902Y-6310259D01*
X23096213Y-6310259D01*
X23098119Y-6310307D01*
X12117976Y-10443096D02*
X12119911Y-10443233D01*
X12121812Y-10443460D01*
X12123676Y-10443773D01*
X12125501Y-10444172D01*
X12127285Y-10444655D01*
X12129027Y-10445218D01*
X12130724Y-10445861D01*
X12132375Y-10446582D01*
X12133977Y-10447378D01*
X12135529Y-10448248D01*
X12137029Y-10449189D01*
X12138474Y-10450200D01*
X12139863Y-10451279D01*
X12141194Y-10452424D01*
X12142465Y-10453633D01*
X12143674Y-10454904D01*
X12144819Y-10456235D01*
X12145898Y-10457624D01*
X12146909Y-10459069D01*
X12147851Y-10460569D01*
X12148721Y-10462121D01*
X12149517Y-10463723D01*
X12150237Y-10465374D01*
X12150880Y-10467071D01*
X12151444Y-10468813D01*
X12151926Y-10470597D01*
X12152325Y-10472423D01*
X12152639Y-10474287D01*
X12152865Y-10476187D01*
X12153002Y-10478123D01*
X12153049Y-10480092D01*
X12153049Y-10593862D01*
X12343549Y-10593862D01*
X12343549Y-10480092D01*
X12343595Y-10478123D01*
X12343732Y-10476187D01*
X12343958Y-10474287D01*
X12344272Y-10472423D01*
X12344671Y-10470598D01*
X12345153Y-10468813D01*
X12345717Y-10467071D01*
X12346360Y-10465374D01*
X12347080Y-10463723D01*
X12347876Y-10462121D01*
X12348746Y-10460569D01*
X12349688Y-10459070D01*
X12350699Y-10457624D01*
X12351778Y-10456235D01*
X12352923Y-10454904D01*
X12354132Y-10453633D01*
X12355403Y-10452424D01*
X12356734Y-10451279D01*
X12358123Y-10450200D01*
X12359568Y-10449189D01*
X12361068Y-10448248D01*
X12362620Y-10447378D01*
X12364222Y-10446582D01*
X12365873Y-10445861D01*
X12367570Y-10445218D01*
X12369312Y-10444655D01*
X12371096Y-10444172D01*
X12372921Y-10443774D01*
X12374785Y-10443460D01*
X12376686Y-10443233D01*
X12378621Y-10443096D01*
X12380590Y-10443050D01*
X12830382Y-10443050D01*
X12832350Y-10443096D01*
X12834286Y-10443233D01*
X12836186Y-10443460D01*
X12838050Y-10443773D01*
X12839875Y-10444172D01*
X12841660Y-10444655D01*
X12843402Y-10445218D01*
X12845099Y-10445861D01*
X12846750Y-10446582D01*
X12848352Y-10447378D01*
X12849904Y-10448248D01*
X12851403Y-10449189D01*
X12852849Y-10450200D01*
X12854238Y-10451279D01*
X12855569Y-10452424D01*
X12856840Y-10453633D01*
X12858049Y-10454904D01*
X12859194Y-10456235D01*
X12860273Y-10457624D01*
X12861284Y-10459069D01*
X12862225Y-10460569D01*
X12863095Y-10462121D01*
X12863891Y-10463723D01*
X12864612Y-10465374D01*
X12865255Y-10467071D01*
X12865819Y-10468813D01*
X12866301Y-10470597D01*
X12866700Y-10472423D01*
X12867013Y-10474287D01*
X12867240Y-10476187D01*
X12867377Y-10478123D01*
X12867423Y-10480092D01*
X12867423Y-10593862D01*
X13272236Y-10593862D01*
X13274204Y-10593908D01*
X13276140Y-10594046D01*
X13278041Y-10594272D01*
X13279904Y-10594586D01*
X13281730Y-10594985D01*
X13283514Y-10595467D01*
X13285256Y-10596030D01*
X13286953Y-10596673D01*
X13288604Y-10597394D01*
X13290206Y-10598190D01*
X13291758Y-10599060D01*
X13293258Y-10600001D01*
X13294703Y-10601013D01*
X13296092Y-10602092D01*
X13297423Y-10603237D01*
X13298694Y-10604445D01*
X13299903Y-10605716D01*
X13301048Y-10607047D01*
X13302127Y-10608436D01*
X13303138Y-10609882D01*
X13304080Y-10611381D01*
X13304949Y-10612933D01*
X13305745Y-10614536D01*
X13306466Y-10616186D01*
X13307109Y-10617884D01*
X13307673Y-10619625D01*
X13308155Y-10621410D01*
X13308554Y-10623235D01*
X13308867Y-10625099D01*
X13309094Y-10627000D01*
X13309231Y-10628935D01*
X13309277Y-10630904D01*
X13309277Y-11607217D01*
X13309231Y-11609185D01*
X13309094Y-11611121D01*
X13308867Y-11613021D01*
X13308554Y-11614885D01*
X13308155Y-11616710D01*
X13307673Y-11618495D01*
X13307109Y-11620237D01*
X13306466Y-11621934D01*
X13305745Y-11623585D01*
X13304949Y-11625187D01*
X13304080Y-11626739D01*
X13303138Y-11628238D01*
X13302127Y-11629684D01*
X13301048Y-11631073D01*
X13299903Y-11632404D01*
X13298694Y-11633675D01*
X13297423Y-11634884D01*
X13296092Y-11636029D01*
X13294703Y-11637108D01*
X13293258Y-11638119D01*
X13291758Y-11639060D01*
X13290206Y-11639930D01*
X13288604Y-11640726D01*
X13286953Y-11641447D01*
X13285256Y-11642090D01*
X13283514Y-11642653D01*
X13281730Y-11643136D01*
X13279904Y-11643535D01*
X13278041Y-11643848D01*
X13276140Y-11644075D01*
X13274204Y-11644212D01*
X13272236Y-11644258D01*
X11404277Y-11644258D01*
X11402308Y-11644212D01*
X11400373Y-11644075D01*
X11398472Y-11643848D01*
X11396608Y-11643535D01*
X11394783Y-11643136D01*
X11392999Y-11642654D01*
X11391257Y-11642090D01*
X11389560Y-11641447D01*
X11387909Y-11640726D01*
X11386307Y-11639930D01*
X11384755Y-11639060D01*
X11383255Y-11638119D01*
X11381810Y-11637108D01*
X11380421Y-11636029D01*
X11379090Y-11634884D01*
X11377819Y-11633675D01*
X11376610Y-11632404D01*
X11375465Y-11631073D01*
X11374386Y-11629684D01*
X11373375Y-11628238D01*
X11372433Y-11626739D01*
X11371563Y-11625187D01*
X11370767Y-11623585D01*
X11370047Y-11621934D01*
X11369404Y-11620237D01*
X11368840Y-11618495D01*
X11368358Y-11616710D01*
X11367959Y-11614885D01*
X11367645Y-11613021D01*
X11367419Y-11611121D01*
X11367282Y-11609185D01*
X11367236Y-11607217D01*
X11367236Y-11570175D01*
X10951839Y-11570175D01*
X10949871Y-11570129D01*
X10947935Y-11569992D01*
X10946035Y-11569765D01*
X10944171Y-11569452D01*
X10942346Y-11569053D01*
X10940561Y-11568571D01*
X10938819Y-11568007D01*
X10937122Y-11567364D01*
X10935472Y-11566643D01*
X10933869Y-11565847D01*
X10932317Y-11564977D01*
X10930818Y-11564036D01*
X10929372Y-11563025D01*
X10927983Y-11561946D01*
X10926652Y-11560801D01*
X10925381Y-11559592D01*
X10924173Y-11558321D01*
X10923028Y-11556990D01*
X10921948Y-11555601D01*
X10920937Y-11554155D01*
X10919996Y-11552656D01*
X10919126Y-11551104D01*
X10918330Y-11549502D01*
X10917609Y-11547851D01*
X10916966Y-11546154D01*
X10916403Y-11544412D01*
X10915920Y-11542627D01*
X10915521Y-11540802D01*
X10915208Y-11538938D01*
X10914981Y-11537037D01*
X10914844Y-11535102D01*
X10914798Y-11533133D01*
X10914798Y-10482738D01*
X10914844Y-10480769D01*
X10914981Y-10478834D01*
X10915208Y-10476933D01*
X10915521Y-10475069D01*
X10915920Y-10473244D01*
X10916403Y-10471460D01*
X10916966Y-10469718D01*
X10917609Y-10468021D01*
X10918330Y-10466370D01*
X10919126Y-10464768D01*
X10919996Y-10463216D01*
X10920937Y-10461716D01*
X10921948Y-10460271D01*
X10923028Y-10458882D01*
X10924173Y-10457551D01*
X10925381Y-10456280D01*
X10926652Y-10455071D01*
X10927983Y-10453926D01*
X10929372Y-10452847D01*
X10930818Y-10451836D01*
X10932317Y-10450894D01*
X10933869Y-10450024D01*
X10935472Y-10449228D01*
X10937122Y-10448508D01*
X10938819Y-10447864D01*
X10940561Y-10447301D01*
X10942346Y-10446819D01*
X10944171Y-10446420D01*
X10946035Y-10446106D01*
X10947935Y-10445880D01*
X10949871Y-10445742D01*
X10951839Y-10445696D01*
X11401631Y-10445696D01*
X11403600Y-10445742D01*
X11405535Y-10445880D01*
X11407436Y-10446106D01*
X11409300Y-10446420D01*
X11411125Y-10446819D01*
X11412909Y-10447301D01*
X11414651Y-10447864D01*
X11416348Y-10448507D01*
X11417999Y-10449228D01*
X11419601Y-10450024D01*
X11421153Y-10450894D01*
X11422653Y-10451835D01*
X11424098Y-10452847D01*
X11425487Y-10453926D01*
X11426818Y-10455071D01*
X11428089Y-10456280D01*
X11429298Y-10457550D01*
X11430443Y-10458881D01*
X11431522Y-10460271D01*
X11432533Y-10461716D01*
X11433475Y-10463215D01*
X11434345Y-10464767D01*
X11435141Y-10466370D01*
X11435861Y-10468020D01*
X11436504Y-10469718D01*
X11437068Y-10471459D01*
X11437550Y-10473244D01*
X11437949Y-10475069D01*
X11438263Y-10476933D01*
X11438489Y-10478834D01*
X11438626Y-10480769D01*
X11438673Y-10482738D01*
X11438673Y-10596509D01*
X11626527Y-10596509D01*
X11629174Y-10593862D01*
X11629174Y-10480092D01*
X11629220Y-10478123D01*
X11629357Y-10476187D01*
X11629584Y-10474287D01*
X11629897Y-10472423D01*
X11630296Y-10470598D01*
X11630779Y-10468813D01*
X11631342Y-10467071D01*
X11631985Y-10465374D01*
X11632706Y-10463723D01*
X11633502Y-10462121D01*
X11634372Y-10460569D01*
X11635313Y-10459070D01*
X11636324Y-10457624D01*
X11637404Y-10456235D01*
X11638548Y-10454904D01*
X11639757Y-10453633D01*
X11641028Y-10452424D01*
X11642359Y-10451279D01*
X11643748Y-10450200D01*
X11645194Y-10449189D01*
X11646693Y-10448248D01*
X11648245Y-10447378D01*
X11649847Y-10446582D01*
X11651498Y-10445861D01*
X11653195Y-10445218D01*
X11654937Y-10444655D01*
X11656722Y-10444172D01*
X11658547Y-10443774D01*
X11660411Y-10443460D01*
X11662311Y-10443233D01*
X11664247Y-10443096D01*
X11666215Y-10443050D01*
X12116007Y-10443050D01*
X12117976Y-10443096D01*
X5053856Y-9167806D02*
X5056061Y-9167943D01*
X5060401Y-9168483D01*
X5064625Y-9169364D01*
X5068705Y-9170571D01*
X5072615Y-9172087D01*
X5076328Y-9173898D01*
X5079815Y-9175989D01*
X5081466Y-9177134D01*
X5083051Y-9178343D01*
X5084566Y-9179614D01*
X5086007Y-9180945D01*
X5087372Y-9182334D01*
X5088658Y-9183779D01*
X5089859Y-9185279D01*
X5090975Y-9186830D01*
X5092000Y-9188433D01*
X5092931Y-9190083D01*
X5093766Y-9191781D01*
X5094500Y-9193522D01*
X5095131Y-9195307D01*
X5095654Y-9197132D01*
X5096068Y-9198996D01*
X5096367Y-9200897D01*
X5096549Y-9202832D01*
X5096610Y-9204801D01*
X5096610Y-10181113D01*
X5096557Y-10183082D01*
X5096396Y-10185017D01*
X5096131Y-10186918D01*
X5095763Y-10188782D01*
X5095294Y-10190607D01*
X5094727Y-10192391D01*
X5094063Y-10194133D01*
X5093303Y-10195830D01*
X5092451Y-10197481D01*
X5091507Y-10199084D01*
X5090475Y-10200635D01*
X5089355Y-10202135D01*
X5088150Y-10203580D01*
X5086862Y-10204969D01*
X5085492Y-10206300D01*
X5084043Y-10207571D01*
X5082516Y-10208780D01*
X5080914Y-10209925D01*
X5079238Y-10211004D01*
X5077490Y-10212015D01*
X5075673Y-10212957D01*
X5073788Y-10213827D01*
X5071837Y-10214623D01*
X5069822Y-10215343D01*
X5067745Y-10215986D01*
X5065607Y-10216550D01*
X5063412Y-10217032D01*
X5061161Y-10217431D01*
X5058855Y-10217745D01*
X5056497Y-10217971D01*
X5054088Y-10218108D01*
X5051632Y-10218155D01*
X3911277Y-10218155D01*
X3909053Y-10218108D01*
X3906848Y-10217971D01*
X3902508Y-10217431D01*
X3898284Y-10216550D01*
X3894204Y-10215343D01*
X3890294Y-10213827D01*
X3886581Y-10212015D01*
X3883094Y-10209925D01*
X3881443Y-10208780D01*
X3879858Y-10207571D01*
X3878343Y-10206300D01*
X3876902Y-10204969D01*
X3875536Y-10203580D01*
X3874251Y-10202135D01*
X3873049Y-10200635D01*
X3871934Y-10199083D01*
X3870909Y-10197481D01*
X3869978Y-10195830D01*
X3869143Y-10194133D01*
X3868409Y-10192391D01*
X3867778Y-10190607D01*
X3867254Y-10188782D01*
X3866841Y-10186918D01*
X3866542Y-10185017D01*
X3866360Y-10183082D01*
X3866298Y-10181113D01*
X3866298Y-9204801D01*
X3866352Y-9202832D01*
X3866513Y-9200897D01*
X3866778Y-9198996D01*
X3867146Y-9197132D01*
X3867614Y-9195307D01*
X3868182Y-9193522D01*
X3868846Y-9191781D01*
X3869606Y-9190083D01*
X3870458Y-9188433D01*
X3871401Y-9186830D01*
X3872434Y-9185278D01*
X3873554Y-9183779D01*
X3874759Y-9182333D01*
X3876047Y-9180944D01*
X3877417Y-9179613D01*
X3878866Y-9178342D01*
X3880393Y-9177134D01*
X3881995Y-9175989D01*
X3883671Y-9174910D01*
X3885419Y-9173898D01*
X3887236Y-9172957D01*
X3889121Y-9172087D01*
X3891072Y-9171291D01*
X3893087Y-9170570D01*
X3895164Y-9169927D01*
X3897302Y-9169364D01*
X3899497Y-9168882D01*
X3901748Y-9168483D01*
X3904054Y-9168169D01*
X3906412Y-9167943D01*
X3908821Y-9167806D01*
X3911277Y-9167759D01*
X5051632Y-9167759D01*
X5053856Y-9167806D01*
X15954371Y-6310307D02*
X15956252Y-6310450D01*
X15958106Y-6310686D01*
X15959930Y-6311012D01*
X15961722Y-6311425D01*
X15963480Y-6311924D01*
X15965201Y-6312507D01*
X15966883Y-6313170D01*
X15968524Y-6313912D01*
X15970121Y-6314730D01*
X15971672Y-6315622D01*
X15973175Y-6316585D01*
X15974628Y-6317618D01*
X15976027Y-6318717D01*
X15977371Y-6319882D01*
X15978657Y-6321108D01*
X15979884Y-6322395D01*
X15981048Y-6323739D01*
X15982148Y-6325138D01*
X15983180Y-6326590D01*
X15984144Y-6328093D01*
X15985036Y-6329644D01*
X15985854Y-6331242D01*
X15986596Y-6332882D01*
X15987259Y-6334564D01*
X15987841Y-6336286D01*
X15988340Y-6338043D01*
X15988754Y-6339835D01*
X15989080Y-6341660D01*
X15989315Y-6343513D01*
X15989458Y-6345394D01*
X15989506Y-6347301D01*
X15989506Y-7323613D01*
X15989458Y-7325519D01*
X15989315Y-7327400D01*
X15989080Y-7329254D01*
X15988754Y-7331078D01*
X15988340Y-7332870D01*
X15987841Y-7334628D01*
X15987259Y-7336349D01*
X15986596Y-7338031D01*
X15985854Y-7339672D01*
X15985036Y-7341269D01*
X15984144Y-7342821D01*
X15983180Y-7344324D01*
X15982148Y-7345776D01*
X15981048Y-7347175D01*
X15979884Y-7348519D01*
X15978657Y-7349806D01*
X15977371Y-7351032D01*
X15976027Y-7352196D01*
X15974628Y-7353296D01*
X15973175Y-7354329D01*
X15971672Y-7355292D01*
X15970121Y-7356184D01*
X15968524Y-7357002D01*
X15966883Y-7357744D01*
X15965201Y-7358407D01*
X15963480Y-7358989D01*
X15961722Y-7359489D01*
X15959930Y-7359902D01*
X15958106Y-7360228D01*
X15956252Y-7360464D01*
X15954371Y-7360607D01*
X15952465Y-7360655D01*
X14976152Y-7360655D01*
X14974246Y-7360607D01*
X14972365Y-7360464D01*
X14970511Y-7360228D01*
X14968687Y-7359902D01*
X14966895Y-7359489D01*
X14965137Y-7358989D01*
X14963416Y-7358407D01*
X14961734Y-7357744D01*
X14960093Y-7357002D01*
X14958496Y-7356184D01*
X14956945Y-7355292D01*
X14955442Y-7354329D01*
X14953989Y-7353296D01*
X14952590Y-7352196D01*
X14951246Y-7351032D01*
X14949960Y-7349806D01*
X14948733Y-7348519D01*
X14947569Y-7347175D01*
X14946469Y-7345776D01*
X14945437Y-7344324D01*
X14944473Y-7342821D01*
X14943581Y-7341269D01*
X14942763Y-7339672D01*
X14942021Y-7338031D01*
X14941358Y-7336349D01*
X14940776Y-7334628D01*
X14940277Y-7332870D01*
X14939863Y-7331078D01*
X14939537Y-7329254D01*
X14939302Y-7327400D01*
X14939159Y-7325519D01*
X14939111Y-7323613D01*
X14939111Y-6347301D01*
X14939159Y-6345394D01*
X14939302Y-6343513D01*
X14939537Y-6341660D01*
X14939863Y-6339835D01*
X14940277Y-6338043D01*
X14940776Y-6336286D01*
X14941358Y-6334564D01*
X14942021Y-6332882D01*
X14942763Y-6331242D01*
X14943581Y-6329644D01*
X14944473Y-6328093D01*
X14945437Y-6326590D01*
X14946469Y-6325138D01*
X14947569Y-6323739D01*
X14948733Y-6322395D01*
X14949960Y-6321108D01*
X14951246Y-6319882D01*
X14952590Y-6318717D01*
X14953989Y-6317618D01*
X14955442Y-6316585D01*
X14956945Y-6315622D01*
X14958496Y-6314730D01*
X14960093Y-6313912D01*
X14961734Y-6313170D01*
X14963416Y-6312507D01*
X14965137Y-6311924D01*
X14966895Y-6311425D01*
X14968687Y-6311012D01*
X14970511Y-6310686D01*
X14972365Y-6310450D01*
X14974246Y-6310307D01*
X14976152Y-6310259D01*
X15952465Y-6310259D01*
X15954371Y-6310307D01*
X21669370Y-6310307D02*
X21671251Y-6310450D01*
X21673105Y-6310686D01*
X21674929Y-6311012D01*
X21676721Y-6311425D01*
X21678479Y-6311924D01*
X21680200Y-6312507D01*
X21681882Y-6313170D01*
X21683523Y-6313912D01*
X21685120Y-6314730D01*
X21686671Y-6315622D01*
X21688174Y-6316585D01*
X21689627Y-6317618D01*
X21691026Y-6318717D01*
X21692370Y-6319882D01*
X21693656Y-6321108D01*
X21694883Y-6322395D01*
X21696047Y-6323739D01*
X21697147Y-6325138D01*
X21698180Y-6326590D01*
X21699143Y-6328093D01*
X21700035Y-6329644D01*
X21700853Y-6331242D01*
X21701595Y-6332882D01*
X21702258Y-6334564D01*
X21702841Y-6336286D01*
X21703340Y-6338043D01*
X21703753Y-6339835D01*
X21704079Y-6341660D01*
X21704315Y-6343513D01*
X21704458Y-6345394D01*
X21704506Y-6347301D01*
X21704506Y-7323613D01*
X21704458Y-7325519D01*
X21704315Y-7327400D01*
X21704079Y-7329254D01*
X21703753Y-7331078D01*
X21703340Y-7332870D01*
X21702841Y-7334628D01*
X21702258Y-7336349D01*
X21701595Y-7338031D01*
X21700853Y-7339672D01*
X21700035Y-7341269D01*
X21699143Y-7342821D01*
X21698180Y-7344324D01*
X21697147Y-7345776D01*
X21696047Y-7347175D01*
X21694883Y-7348519D01*
X21693656Y-7349806D01*
X21692370Y-7351032D01*
X21691026Y-7352196D01*
X21689627Y-7353296D01*
X21688174Y-7354329D01*
X21686671Y-7355292D01*
X21685120Y-7356184D01*
X21683523Y-7357002D01*
X21681882Y-7357744D01*
X21680200Y-7358407D01*
X21678479Y-7358989D01*
X21676721Y-7359489D01*
X21674929Y-7359902D01*
X21673105Y-7360228D01*
X21671251Y-7360464D01*
X21669370Y-7360607D01*
X21667464Y-7360655D01*
X20691151Y-7360655D01*
X20689245Y-7360607D01*
X20687364Y-7360464D01*
X20685510Y-7360228D01*
X20683686Y-7359902D01*
X20681894Y-7359489D01*
X20680136Y-7358989D01*
X20678415Y-7358407D01*
X20676733Y-7357744D01*
X20675092Y-7357002D01*
X20673495Y-7356184D01*
X20671944Y-7355292D01*
X20670441Y-7354329D01*
X20668989Y-7353296D01*
X20667589Y-7352196D01*
X20666245Y-7351032D01*
X20664959Y-7349806D01*
X20663732Y-7348519D01*
X20662568Y-7347175D01*
X20661468Y-7345776D01*
X20660436Y-7344324D01*
X20659472Y-7342821D01*
X20658580Y-7341269D01*
X20657762Y-7339672D01*
X20657020Y-7338031D01*
X20656357Y-7336349D01*
X20655775Y-7334628D01*
X20655275Y-7332870D01*
X20654862Y-7331078D01*
X20654536Y-7329254D01*
X20654300Y-7327400D01*
X20654157Y-7325519D01*
X20654109Y-7323613D01*
X20654109Y-6347301D01*
X20654157Y-6345394D01*
X20654300Y-6343513D01*
X20654536Y-6341660D01*
X20654862Y-6339835D01*
X20655275Y-6338043D01*
X20655775Y-6336286D01*
X20656357Y-6334564D01*
X20657020Y-6332882D01*
X20657762Y-6331242D01*
X20658580Y-6329644D01*
X20659472Y-6328093D01*
X20660436Y-6326590D01*
X20661468Y-6325138D01*
X20662568Y-6323739D01*
X20663732Y-6322395D01*
X20664959Y-6321108D01*
X20666245Y-6319882D01*
X20667589Y-6318717D01*
X20668989Y-6317618D01*
X20670441Y-6316585D01*
X20671944Y-6315622D01*
X20673495Y-6314730D01*
X20675092Y-6313912D01*
X20676733Y-6313170D01*
X20678415Y-6312507D01*
X20680136Y-6311924D01*
X20681894Y-6311425D01*
X20683686Y-6311012D01*
X20685510Y-6310686D01*
X20687364Y-6310450D01*
X20689245Y-6310307D01*
X20691151Y-6310259D01*
X21667464Y-6310259D01*
X21669370Y-6310307D01*
X8543392Y-10445745D02*
X8545273Y-10445888D01*
X8547127Y-10446123D01*
X8548951Y-10446449D01*
X8550743Y-10446862D01*
X8552501Y-10447362D01*
X8554222Y-10447944D01*
X8555904Y-10448607D01*
X8557545Y-10449349D01*
X8559142Y-10450167D01*
X8560693Y-10451059D01*
X8562196Y-10452022D01*
X8563648Y-10453055D01*
X8565047Y-10454155D01*
X8566391Y-10455319D01*
X8567678Y-10456545D01*
X8568904Y-10457832D01*
X8570069Y-10459176D01*
X8571168Y-10460575D01*
X8572201Y-10462028D01*
X8573164Y-10463530D01*
X8574056Y-10465082D01*
X8574874Y-10466679D01*
X8575616Y-10468320D01*
X8576279Y-10470002D01*
X8576862Y-10471723D01*
X8577361Y-10473481D01*
X8577775Y-10475273D01*
X8578100Y-10477097D01*
X8578336Y-10478950D01*
X8578479Y-10480832D01*
X8578527Y-10482738D01*
X8578527Y-11533134D01*
X8578479Y-11535040D01*
X8578336Y-11536921D01*
X8578100Y-11538775D01*
X8577775Y-11540599D01*
X8577361Y-11542391D01*
X8576862Y-11544149D01*
X8576279Y-11545870D01*
X8575616Y-11547552D01*
X8574874Y-11549193D01*
X8574056Y-11550790D01*
X8573164Y-11552341D01*
X8572201Y-11553844D01*
X8571168Y-11555296D01*
X8570069Y-11556696D01*
X8568904Y-11558040D01*
X8567678Y-11559326D01*
X8566391Y-11560553D01*
X8565047Y-11561717D01*
X8563648Y-11562817D01*
X8562196Y-11563849D01*
X8560693Y-11564813D01*
X8559142Y-11565705D01*
X8557545Y-11566523D01*
X8555904Y-11567265D01*
X8554222Y-11567928D01*
X8552501Y-11568510D01*
X8550743Y-11569009D01*
X8548951Y-11569423D01*
X8547127Y-11569749D01*
X8545273Y-11569984D01*
X8543392Y-11570127D01*
X8541486Y-11570175D01*
X8091693Y-11570175D01*
X8089787Y-11570127D01*
X8087906Y-11569984D01*
X8086052Y-11569749D01*
X8084228Y-11569423D01*
X8082436Y-11569009D01*
X8080678Y-11568510D01*
X8078957Y-11567928D01*
X8077275Y-11567265D01*
X8075634Y-11566523D01*
X8074037Y-11565705D01*
X8072486Y-11564813D01*
X8070983Y-11563849D01*
X8069531Y-11562817D01*
X8068132Y-11561717D01*
X8066788Y-11560553D01*
X8065501Y-11559326D01*
X8064275Y-11558040D01*
X8063110Y-11556696D01*
X8062011Y-11555296D01*
X8060978Y-11553844D01*
X8060015Y-11552341D01*
X8059123Y-11550790D01*
X8058305Y-11549193D01*
X8057563Y-11547552D01*
X8056900Y-11545870D01*
X8056317Y-11544149D01*
X8055818Y-11542391D01*
X8055405Y-11540599D01*
X8055079Y-11538775D01*
X8054843Y-11536921D01*
X8054700Y-11535040D01*
X8054652Y-11533134D01*
X8054652Y-10482738D01*
X8054700Y-10480832D01*
X8054843Y-10478950D01*
X8055079Y-10477097D01*
X8055405Y-10475273D01*
X8055818Y-10473481D01*
X8056317Y-10471723D01*
X8056900Y-10470002D01*
X8057563Y-10468320D01*
X8058305Y-10466679D01*
X8059123Y-10465082D01*
X8060015Y-10463530D01*
X8060978Y-10462028D01*
X8062011Y-10460575D01*
X8063110Y-10459176D01*
X8064275Y-10457832D01*
X8065501Y-10456545D01*
X8066788Y-10455319D01*
X8068132Y-10454155D01*
X8069531Y-10453055D01*
X8070983Y-10452022D01*
X8072486Y-10451059D01*
X8074037Y-10450167D01*
X8075634Y-10449349D01*
X8077275Y-10448607D01*
X8078957Y-10447944D01*
X8080678Y-10447362D01*
X8082436Y-10446862D01*
X8084228Y-10446449D01*
X8086052Y-10446123D01*
X8087906Y-10445888D01*
X8089787Y-10445745D01*
X8091693Y-10445696D01*
X8541486Y-10445696D01*
X8543392Y-10445745D01*
X18454682Y-9167807D02*
X18456563Y-9167950D01*
X18458417Y-9168186D01*
X18460241Y-9168512D01*
X18462033Y-9168925D01*
X18463791Y-9169424D01*
X18465512Y-9170007D01*
X18467194Y-9170670D01*
X18468835Y-9171412D01*
X18470432Y-9172230D01*
X18471983Y-9173122D01*
X18473486Y-9174085D01*
X18474938Y-9175118D01*
X18476338Y-9176217D01*
X18477682Y-9177382D01*
X18478968Y-9178608D01*
X18480195Y-9179895D01*
X18481359Y-9181239D01*
X18482459Y-9182638D01*
X18483492Y-9184090D01*
X18484455Y-9185593D01*
X18485347Y-9187144D01*
X18486165Y-9188741D01*
X18486907Y-9190382D01*
X18487570Y-9192064D01*
X18488152Y-9193785D01*
X18488652Y-9195543D01*
X18489065Y-9197335D01*
X18489391Y-9199159D01*
X18489627Y-9201013D01*
X18489770Y-9202894D01*
X18489818Y-9204800D01*
X18489818Y-10181113D01*
X18489770Y-10183019D01*
X18489627Y-10184900D01*
X18489391Y-10186754D01*
X18489065Y-10188578D01*
X18488652Y-10190370D01*
X18488152Y-10192128D01*
X18487570Y-10193849D01*
X18486907Y-10195531D01*
X18486165Y-10197172D01*
X18485347Y-10198769D01*
X18484455Y-10200320D01*
X18483492Y-10201823D01*
X18482459Y-10203276D01*
X18481359Y-10204675D01*
X18480195Y-10206019D01*
X18478968Y-10207305D01*
X18477682Y-10208532D01*
X18476338Y-10209696D01*
X18474938Y-10210796D01*
X18473486Y-10211828D01*
X18471983Y-10212792D01*
X18470432Y-10213684D01*
X18468835Y-10214502D01*
X18467194Y-10215244D01*
X18465512Y-10215907D01*
X18463791Y-10216489D01*
X18462033Y-10216988D01*
X18460241Y-10217402D01*
X18458417Y-10217728D01*
X18456563Y-10217963D01*
X18454682Y-10218106D01*
X18452776Y-10218155D01*
X5689277Y-10218155D01*
X5687371Y-10218106D01*
X5685490Y-10217963D01*
X5683636Y-10217728D01*
X5681812Y-10217402D01*
X5680020Y-10216988D01*
X5678262Y-10216489D01*
X5676541Y-10215907D01*
X5674859Y-10215244D01*
X5673218Y-10214502D01*
X5671621Y-10213684D01*
X5670070Y-10212792D01*
X5668567Y-10211828D01*
X5667115Y-10210796D01*
X5665715Y-10209696D01*
X5664371Y-10208532D01*
X5663085Y-10207305D01*
X5661858Y-10206019D01*
X5660694Y-10204675D01*
X5659595Y-10203276D01*
X5658562Y-10201823D01*
X5657598Y-10200320D01*
X5656706Y-10198769D01*
X5655888Y-10197172D01*
X5655147Y-10195531D01*
X5654483Y-10193849D01*
X5653901Y-10192128D01*
X5653402Y-10190370D01*
X5652988Y-10188578D01*
X5652663Y-10186754D01*
X5652427Y-10184900D01*
X5652284Y-10183019D01*
X5652236Y-10181113D01*
X5652236Y-9204800D01*
X5652284Y-9202894D01*
X5652427Y-9201013D01*
X5652663Y-9199159D01*
X5652988Y-9197335D01*
X5653402Y-9195543D01*
X5653901Y-9193785D01*
X5654483Y-9192064D01*
X5655147Y-9190382D01*
X5655888Y-9188741D01*
X5656706Y-9187144D01*
X5657598Y-9185593D01*
X5658562Y-9184090D01*
X5659595Y-9182638D01*
X5660694Y-9181239D01*
X5661858Y-9179895D01*
X5663085Y-9178608D01*
X5664371Y-9177382D01*
X5665715Y-9176217D01*
X5667115Y-9175118D01*
X5668567Y-9174085D01*
X5670070Y-9173122D01*
X5671621Y-9172230D01*
X5673218Y-9171412D01*
X5674859Y-9170670D01*
X5676541Y-9170007D01*
X5678262Y-9169424D01*
X5680020Y-9168925D01*
X5681812Y-9168512D01*
X5683636Y-9168186D01*
X5685490Y-9167950D01*
X5687371Y-9167807D01*
X5689277Y-9167759D01*
X18452776Y-9167759D01*
X18454682Y-9167807D01*
X17383120Y-6310307D02*
X17385001Y-6310450D01*
X17386854Y-6310686D01*
X17388679Y-6311012D01*
X17390471Y-6311425D01*
X17392228Y-6311924D01*
X17393950Y-6312507D01*
X17395632Y-6313170D01*
X17397273Y-6313912D01*
X17398870Y-6314730D01*
X17400421Y-6315622D01*
X17401924Y-6316585D01*
X17403376Y-6317618D01*
X17404776Y-6318717D01*
X17406120Y-6319882D01*
X17407406Y-6321108D01*
X17408633Y-6322395D01*
X17409797Y-6323739D01*
X17410897Y-6325138D01*
X17411929Y-6326590D01*
X17412893Y-6328093D01*
X17413785Y-6329644D01*
X17414603Y-6331242D01*
X17415345Y-6332882D01*
X17416008Y-6334564D01*
X17416590Y-6336286D01*
X17417089Y-6338043D01*
X17417503Y-6339835D01*
X17417829Y-6341660D01*
X17418064Y-6343513D01*
X17418207Y-6345394D01*
X17418256Y-6347301D01*
X17418256Y-7323613D01*
X17418207Y-7325519D01*
X17418064Y-7327400D01*
X17417829Y-7329254D01*
X17417503Y-7331078D01*
X17417089Y-7332870D01*
X17416590Y-7334628D01*
X17416008Y-7336349D01*
X17415345Y-7338031D01*
X17414603Y-7339672D01*
X17413785Y-7341269D01*
X17412893Y-7342821D01*
X17411929Y-7344324D01*
X17410897Y-7345776D01*
X17409797Y-7347175D01*
X17408633Y-7348519D01*
X17407406Y-7349806D01*
X17406120Y-7351032D01*
X17404776Y-7352196D01*
X17403376Y-7353296D01*
X17401924Y-7354329D01*
X17400421Y-7355292D01*
X17398870Y-7356184D01*
X17397273Y-7357002D01*
X17395632Y-7357744D01*
X17393950Y-7358407D01*
X17392228Y-7358989D01*
X17390471Y-7359489D01*
X17388679Y-7359902D01*
X17386854Y-7360228D01*
X17385001Y-7360464D01*
X17383120Y-7360607D01*
X17381213Y-7360655D01*
X16404901Y-7360655D01*
X16402995Y-7360607D01*
X16401114Y-7360464D01*
X16399260Y-7360228D01*
X16397436Y-7359902D01*
X16395644Y-7359489D01*
X16393887Y-7358989D01*
X16392166Y-7358407D01*
X16390484Y-7357744D01*
X16388843Y-7357002D01*
X16387246Y-7356184D01*
X16385695Y-7355292D01*
X16384192Y-7354329D01*
X16382739Y-7353296D01*
X16381340Y-7352196D01*
X16379996Y-7351032D01*
X16378710Y-7349806D01*
X16377483Y-7348519D01*
X16376319Y-7347175D01*
X16375219Y-7345776D01*
X16374187Y-7344324D01*
X16373223Y-7342821D01*
X16372331Y-7341269D01*
X16371513Y-7339672D01*
X16370771Y-7338031D01*
X16370108Y-7336349D01*
X16369526Y-7334628D01*
X16369027Y-7332870D01*
X16368613Y-7331078D01*
X16368287Y-7329254D01*
X16368052Y-7327400D01*
X16367909Y-7325519D01*
X16367860Y-7323613D01*
X16367860Y-6347301D01*
X16367909Y-6345394D01*
X16368052Y-6343513D01*
X16368287Y-6341660D01*
X16368613Y-6339835D01*
X16369027Y-6338043D01*
X16369526Y-6336286D01*
X16370108Y-6334564D01*
X16370771Y-6332882D01*
X16371513Y-6331242D01*
X16372331Y-6329644D01*
X16373223Y-6328093D01*
X16374187Y-6326590D01*
X16375219Y-6325138D01*
X16376319Y-6323739D01*
X16377483Y-6322395D01*
X16378710Y-6321108D01*
X16379996Y-6319882D01*
X16381340Y-6318717D01*
X16382739Y-6317618D01*
X16384192Y-6316585D01*
X16385695Y-6315622D01*
X16387246Y-6314730D01*
X16388843Y-6313912D01*
X16390484Y-6313170D01*
X16392166Y-6312507D01*
X16393887Y-6311924D01*
X16395644Y-6311425D01*
X16397436Y-6311012D01*
X16399260Y-6310686D01*
X16401114Y-6310450D01*
X16402995Y-6310307D01*
X16404901Y-6310259D01*
X17381213Y-6310259D01*
X17383120Y-6310307D01*
X20240621Y-10596557D02*
X20242502Y-10596700D01*
X20244356Y-10596936D01*
X20246180Y-10597261D01*
X20247972Y-10597675D01*
X20249730Y-10598174D01*
X20251451Y-10598756D01*
X20253133Y-10599420D01*
X20254774Y-10600162D01*
X20256371Y-10600980D01*
X20257922Y-10601871D01*
X20259425Y-10602835D01*
X20260877Y-10603868D01*
X20262277Y-10604967D01*
X20263621Y-10606132D01*
X20264907Y-10607358D01*
X20266134Y-10608644D01*
X20267298Y-10609988D01*
X20268398Y-10611388D01*
X20269431Y-10612840D01*
X20270394Y-10614343D01*
X20271286Y-10615894D01*
X20272104Y-10617491D01*
X20272846Y-10619132D01*
X20273509Y-10620814D01*
X20274091Y-10622535D01*
X20274591Y-10624293D01*
X20275004Y-10626085D01*
X20275330Y-10627909D01*
X20275566Y-10629763D01*
X20275709Y-10631644D01*
X20275757Y-10633550D01*
X20275757Y-11609863D01*
X20275709Y-11611769D01*
X20275566Y-11613650D01*
X20275330Y-11615504D01*
X20275004Y-11617328D01*
X20274591Y-11619120D01*
X20274091Y-11620878D01*
X20273509Y-11622599D01*
X20272846Y-11624281D01*
X20272104Y-11625922D01*
X20271286Y-11627519D01*
X20270394Y-11629070D01*
X20269431Y-11630573D01*
X20268398Y-11632025D01*
X20267298Y-11633425D01*
X20266134Y-11634769D01*
X20264907Y-11636055D01*
X20263621Y-11637282D01*
X20262277Y-11638446D01*
X20260877Y-11639545D01*
X20259425Y-11640578D01*
X20257922Y-11641542D01*
X20256371Y-11642434D01*
X20254774Y-11643252D01*
X20253133Y-11643993D01*
X20251451Y-11644657D01*
X20249730Y-11645239D01*
X20247972Y-11645738D01*
X20246180Y-11646152D01*
X20244356Y-11646478D01*
X20242502Y-11646713D01*
X20240621Y-11646856D01*
X20238715Y-11646904D01*
X19085132Y-11646904D01*
X19083226Y-11646856D01*
X19081345Y-11646713D01*
X19079491Y-11646478D01*
X19077667Y-11646152D01*
X19075875Y-11645738D01*
X19074117Y-11645239D01*
X19072396Y-11644657D01*
X19070714Y-11643993D01*
X19069073Y-11643252D01*
X19067476Y-11642434D01*
X19065924Y-11641542D01*
X19064421Y-11640578D01*
X19062969Y-11639545D01*
X19061570Y-11638446D01*
X19060226Y-11637282D01*
X19058939Y-11636055D01*
X19057713Y-11634769D01*
X19056548Y-11633425D01*
X19055449Y-11632025D01*
X19054416Y-11630573D01*
X19053452Y-11629070D01*
X19052561Y-11627519D01*
X19051742Y-11625922D01*
X19051001Y-11624281D01*
X19050337Y-11622599D01*
X19049755Y-11620878D01*
X19049256Y-11619120D01*
X19048842Y-11617328D01*
X19048516Y-11615504D01*
X19048281Y-11613650D01*
X19048138Y-11611769D01*
X19048090Y-11609863D01*
X19048090Y-10633550D01*
X19048138Y-10631644D01*
X19048281Y-10629763D01*
X19048516Y-10627909D01*
X19048842Y-10626085D01*
X19049256Y-10624293D01*
X19049755Y-10622535D01*
X19050337Y-10620814D01*
X19051001Y-10619132D01*
X19051742Y-10617491D01*
X19052561Y-10615894D01*
X19053452Y-10614343D01*
X19054416Y-10612840D01*
X19055449Y-10611388D01*
X19056548Y-10609988D01*
X19057713Y-10608644D01*
X19058939Y-10607358D01*
X19060226Y-10606132D01*
X19061570Y-10604967D01*
X19062969Y-10603868D01*
X19064421Y-10602835D01*
X19065924Y-10601871D01*
X19067476Y-10600980D01*
X19069073Y-10600162D01*
X19070714Y-10599420D01*
X19072396Y-10598756D01*
X19074117Y-10598174D01*
X19075875Y-10597675D01*
X19077667Y-10597261D01*
X19079491Y-10596936D01*
X19081345Y-10596700D01*
X19083226Y-10596557D01*
X19085132Y-10596509D01*
X20238715Y-10596509D01*
X20240621Y-10596557D01*
X7381871Y-6310307D02*
X7383752Y-6310450D01*
X7385606Y-6310686D01*
X7387430Y-6311012D01*
X7389222Y-6311425D01*
X7390980Y-6311924D01*
X7392701Y-6312507D01*
X7394383Y-6313170D01*
X7396024Y-6313912D01*
X7397621Y-6314730D01*
X7399172Y-6315622D01*
X7400675Y-6316585D01*
X7402127Y-6317618D01*
X7403527Y-6318717D01*
X7404871Y-6319882D01*
X7406157Y-6321108D01*
X7407384Y-6322395D01*
X7408548Y-6323739D01*
X7409648Y-6325138D01*
X7410680Y-6326590D01*
X7411644Y-6328093D01*
X7412536Y-6329644D01*
X7413354Y-6331242D01*
X7414096Y-6332882D01*
X7414759Y-6334564D01*
X7415341Y-6336286D01*
X7415840Y-6338043D01*
X7416254Y-6339835D01*
X7416580Y-6341660D01*
X7416815Y-6343513D01*
X7416958Y-6345394D01*
X7417007Y-6347301D01*
X7417007Y-7323613D01*
X7416958Y-7325519D01*
X7416815Y-7327400D01*
X7416580Y-7329254D01*
X7416254Y-7331078D01*
X7415840Y-7332870D01*
X7415341Y-7334628D01*
X7414759Y-7336349D01*
X7414096Y-7338031D01*
X7413354Y-7339672D01*
X7412536Y-7341269D01*
X7411644Y-7342821D01*
X7410680Y-7344324D01*
X7409648Y-7345776D01*
X7408548Y-7347175D01*
X7407384Y-7348519D01*
X7406157Y-7349806D01*
X7404871Y-7351032D01*
X7403527Y-7352196D01*
X7402127Y-7353296D01*
X7400675Y-7354329D01*
X7399172Y-7355292D01*
X7397621Y-7356184D01*
X7396024Y-7357002D01*
X7394383Y-7357744D01*
X7392701Y-7358407D01*
X7390980Y-7358989D01*
X7389222Y-7359489D01*
X7387430Y-7359902D01*
X7385606Y-7360228D01*
X7383752Y-7360464D01*
X7381871Y-7360607D01*
X7379965Y-7360655D01*
X6403652Y-7360655D01*
X6401746Y-7360607D01*
X6399865Y-7360464D01*
X6398011Y-7360228D01*
X6396187Y-7359902D01*
X6394395Y-7359489D01*
X6392637Y-7358989D01*
X6390916Y-7358407D01*
X6389234Y-7357744D01*
X6387593Y-7357002D01*
X6385996Y-7356184D01*
X6384445Y-7355292D01*
X6382942Y-7354329D01*
X6381490Y-7353296D01*
X6380090Y-7352196D01*
X6378746Y-7351032D01*
X6377460Y-7349806D01*
X6376233Y-7348519D01*
X6375069Y-7347175D01*
X6373969Y-7345776D01*
X6372937Y-7344324D01*
X6371973Y-7342821D01*
X6371081Y-7341269D01*
X6370263Y-7339672D01*
X6369522Y-7338031D01*
X6368858Y-7336349D01*
X6368276Y-7334628D01*
X6367777Y-7332870D01*
X6367363Y-7331078D01*
X6367037Y-7329254D01*
X6366802Y-7327400D01*
X6366659Y-7325519D01*
X6366611Y-7323613D01*
X6366611Y-6347301D01*
X6366659Y-6345394D01*
X6366802Y-6343513D01*
X6367037Y-6341660D01*
X6367363Y-6339835D01*
X6367777Y-6338043D01*
X6368276Y-6336286D01*
X6368858Y-6334564D01*
X6369522Y-6332882D01*
X6370263Y-6331242D01*
X6371081Y-6329644D01*
X6371973Y-6328093D01*
X6372937Y-6326590D01*
X6373969Y-6325138D01*
X6375069Y-6323739D01*
X6376233Y-6322395D01*
X6377460Y-6321108D01*
X6378746Y-6319882D01*
X6380090Y-6318717D01*
X6381490Y-6317618D01*
X6382942Y-6316585D01*
X6384445Y-6315622D01*
X6385996Y-6314730D01*
X6387593Y-6313912D01*
X6389234Y-6313170D01*
X6390916Y-6312507D01*
X6392637Y-6311924D01*
X6394395Y-6311425D01*
X6396187Y-6311012D01*
X6398011Y-6310686D01*
X6399865Y-6310450D01*
X6401746Y-6310307D01*
X6403652Y-6310259D01*
X7379965Y-6310259D01*
X7381871Y-6310307D01*
X20238040Y-6310305D02*
X20239976Y-6310442D01*
X20241877Y-6310669D01*
X20243741Y-6310982D01*
X20245566Y-6311381D01*
X20247350Y-6311864D01*
X20249092Y-6312427D01*
X20250789Y-6313070D01*
X20252440Y-6313791D01*
X20254043Y-6314587D01*
X20255594Y-6315457D01*
X20257094Y-6316398D01*
X20258539Y-6317409D01*
X20259929Y-6318488D01*
X20261260Y-6319633D01*
X20262531Y-6320842D01*
X20263739Y-6322113D01*
X20264884Y-6323444D01*
X20265964Y-6324833D01*
X20266975Y-6326279D01*
X20267916Y-6327778D01*
X20268786Y-6329330D01*
X20269582Y-6330932D01*
X20270303Y-6332583D01*
X20270946Y-6334280D01*
X20271509Y-6336022D01*
X20271992Y-6337807D01*
X20272391Y-6339632D01*
X20272704Y-6341496D01*
X20272931Y-6343396D01*
X20273068Y-6345332D01*
X20273114Y-6347301D01*
X20273114Y-7320967D01*
X20273068Y-7322936D01*
X20272931Y-7324871D01*
X20272704Y-7326772D01*
X20272391Y-7328636D01*
X20271992Y-7330461D01*
X20271509Y-7332245D01*
X20270946Y-7333987D01*
X20270303Y-7335685D01*
X20269582Y-7337335D01*
X20268786Y-7338938D01*
X20267916Y-7340489D01*
X20266974Y-7341989D01*
X20265963Y-7343434D01*
X20264884Y-7344824D01*
X20263739Y-7346155D01*
X20262530Y-7347425D01*
X20261259Y-7348634D01*
X20259928Y-7349779D01*
X20258539Y-7350858D01*
X20257093Y-7351870D01*
X20255594Y-7352811D01*
X20254042Y-7353681D01*
X20252440Y-7354477D01*
X20250789Y-7355198D01*
X20249092Y-7355841D01*
X20247350Y-7356404D01*
X20245565Y-7356886D01*
X20243740Y-7357285D01*
X20241876Y-7357599D01*
X20239976Y-7357825D01*
X20238040Y-7357963D01*
X20236072Y-7358009D01*
X20191092Y-7358009D01*
X20191092Y-7471780D01*
X20191046Y-7473748D01*
X20190908Y-7475684D01*
X20190682Y-7477585D01*
X20190368Y-7479449D01*
X20189969Y-7481274D01*
X20189487Y-7483058D01*
X20188924Y-7484800D01*
X20188280Y-7486497D01*
X20187560Y-7488148D01*
X20186764Y-7489750D01*
X20185894Y-7491302D01*
X20184952Y-7492802D01*
X20183941Y-7494247D01*
X20182862Y-7495636D01*
X20181717Y-7496967D01*
X20180508Y-7498238D01*
X20179237Y-7499447D01*
X20177906Y-7500592D01*
X20176517Y-7501671D01*
X20175071Y-7502682D01*
X20173572Y-7503624D01*
X20172020Y-7504494D01*
X20170417Y-7505290D01*
X20168767Y-7506010D01*
X20167070Y-7506653D01*
X20165328Y-7507217D01*
X20163543Y-7507699D01*
X20161718Y-7508098D01*
X20159854Y-7508412D01*
X20157954Y-7508638D01*
X20156018Y-7508775D01*
X20154050Y-7508821D01*
X19704257Y-7508821D01*
X19702289Y-7508775D01*
X19700353Y-7508638D01*
X19698452Y-7508412D01*
X19696588Y-7508098D01*
X19694763Y-7507699D01*
X19692979Y-7507217D01*
X19691237Y-7506653D01*
X19689540Y-7506010D01*
X19687889Y-7505290D01*
X19686286Y-7504494D01*
X19684735Y-7503624D01*
X19683235Y-7502682D01*
X19681790Y-7501671D01*
X19680400Y-7500592D01*
X19679069Y-7499447D01*
X19677798Y-7498238D01*
X19676590Y-7496967D01*
X19675445Y-7495636D01*
X19674366Y-7494247D01*
X19673354Y-7492802D01*
X19672413Y-7491302D01*
X19671543Y-7489750D01*
X19670747Y-7488148D01*
X19670026Y-7486497D01*
X19669383Y-7484800D01*
X19668820Y-7483058D01*
X19668337Y-7481274D01*
X19667938Y-7479449D01*
X19667625Y-7477585D01*
X19667398Y-7475684D01*
X19667261Y-7473748D01*
X19667215Y-7471780D01*
X19667215Y-7358009D01*
X18402507Y-7358009D01*
X18402507Y-7471780D01*
X18402461Y-7473748D01*
X18402324Y-7475684D01*
X18402097Y-7477585D01*
X18401784Y-7479449D01*
X18401385Y-7481274D01*
X18400902Y-7483058D01*
X18400339Y-7484800D01*
X18399696Y-7486497D01*
X18398975Y-7488148D01*
X18398179Y-7489750D01*
X18397309Y-7491302D01*
X18396368Y-7492802D01*
X18395357Y-7494247D01*
X18394277Y-7495636D01*
X18393132Y-7496967D01*
X18391924Y-7498238D01*
X18390653Y-7499447D01*
X18389322Y-7500592D01*
X18387932Y-7501671D01*
X18386487Y-7502682D01*
X18384988Y-7503624D01*
X18383436Y-7504494D01*
X18381833Y-7505290D01*
X18380182Y-7506010D01*
X18378485Y-7506653D01*
X18376743Y-7507217D01*
X18374959Y-7507699D01*
X18373134Y-7508098D01*
X18371270Y-7508412D01*
X18369369Y-7508638D01*
X18367433Y-7508775D01*
X18365465Y-7508821D01*
X17915674Y-7508821D01*
X17913705Y-7508775D01*
X17911769Y-7508638D01*
X17909869Y-7508412D01*
X17908005Y-7508098D01*
X17906179Y-7507699D01*
X17904395Y-7507217D01*
X17902653Y-7506653D01*
X17900956Y-7506010D01*
X17899305Y-7505290D01*
X17897702Y-7504494D01*
X17896151Y-7503624D01*
X17894651Y-7502682D01*
X17893206Y-7501671D01*
X17891816Y-7500592D01*
X17890485Y-7499447D01*
X17889215Y-7498238D01*
X17888006Y-7496967D01*
X17886861Y-7495636D01*
X17885782Y-7494247D01*
X17884770Y-7492802D01*
X17883829Y-7491302D01*
X17882959Y-7489750D01*
X17882163Y-7488148D01*
X17881443Y-7486497D01*
X17880800Y-7484800D01*
X17880236Y-7483058D01*
X17879754Y-7481274D01*
X17879355Y-7479449D01*
X17879041Y-7477585D01*
X17878815Y-7475684D01*
X17878678Y-7473748D01*
X17878632Y-7471780D01*
X17875987Y-7474426D01*
X17875987Y-7360655D01*
X17831009Y-7360655D01*
X17829040Y-7360609D01*
X17827104Y-7360471D01*
X17825204Y-7360245D01*
X17823340Y-7359931D01*
X17821514Y-7359532D01*
X17819730Y-7359050D01*
X17817988Y-7358487D01*
X17816290Y-7357844D01*
X17814640Y-7357123D01*
X17813037Y-7356327D01*
X17811485Y-7355457D01*
X17809985Y-7354516D01*
X17808540Y-7353504D01*
X17807151Y-7352425D01*
X17805820Y-7351280D01*
X17804549Y-7350071D01*
X17803340Y-7348801D01*
X17802195Y-7347470D01*
X17801116Y-7346080D01*
X17800105Y-7344635D01*
X17799163Y-7343135D01*
X17798293Y-7341584D01*
X17797497Y-7339981D01*
X17796776Y-7338331D01*
X17796133Y-7336633D01*
X17795570Y-7334891D01*
X17795088Y-7333107D01*
X17794689Y-7331282D01*
X17794375Y-7329418D01*
X17794149Y-7327517D01*
X17794011Y-7325582D01*
X17793965Y-7323613D01*
X17793965Y-6347301D01*
X17794011Y-6345332D01*
X17794149Y-6343396D01*
X17794375Y-6341496D01*
X17794689Y-6339632D01*
X17795088Y-6337807D01*
X17795570Y-6336022D01*
X17796134Y-6334280D01*
X17796777Y-6332583D01*
X17797497Y-6330932D01*
X17798294Y-6329330D01*
X17799163Y-6327778D01*
X17800105Y-6326279D01*
X17801116Y-6324833D01*
X17802195Y-6323444D01*
X17803340Y-6322113D01*
X17804549Y-6320842D01*
X17805820Y-6319633D01*
X17807152Y-6318488D01*
X17808541Y-6317409D01*
X17809986Y-6316398D01*
X17811486Y-6315457D01*
X17813038Y-6314587D01*
X17814640Y-6313791D01*
X17816291Y-6313070D01*
X17817988Y-6312427D01*
X17819730Y-6311864D01*
X17821515Y-6311381D01*
X17823340Y-6310982D01*
X17825204Y-6310669D01*
X17827105Y-6310442D01*
X17829040Y-6310305D01*
X17831009Y-6310259D01*
X20236072Y-6310259D01*
X20238040Y-6310305D01*
X10239372Y-6310307D02*
X10241253Y-6310450D01*
X10243107Y-6310686D01*
X10244931Y-6311012D01*
X10246723Y-6311425D01*
X10248480Y-6311924D01*
X10250202Y-6312507D01*
X10251884Y-6313170D01*
X10253524Y-6313912D01*
X10255122Y-6314730D01*
X10256673Y-6315622D01*
X10258176Y-6316585D01*
X10259628Y-6317618D01*
X10261027Y-6318717D01*
X10262371Y-6319882D01*
X10263658Y-6321108D01*
X10264884Y-6322395D01*
X10266048Y-6323739D01*
X10267148Y-6325138D01*
X10268181Y-6326590D01*
X10269144Y-6328093D01*
X10270036Y-6329644D01*
X10270854Y-6331242D01*
X10271596Y-6332882D01*
X10272259Y-6334564D01*
X10272842Y-6336286D01*
X10273341Y-6338043D01*
X10273755Y-6339835D01*
X10274080Y-6341660D01*
X10274316Y-6343513D01*
X10274459Y-6345394D01*
X10274507Y-6347301D01*
X10274507Y-7323613D01*
X10274459Y-7325519D01*
X10274316Y-7327400D01*
X10274080Y-7329254D01*
X10273755Y-7331078D01*
X10273341Y-7332870D01*
X10272842Y-7334628D01*
X10272259Y-7336349D01*
X10271596Y-7338031D01*
X10270854Y-7339672D01*
X10270036Y-7341269D01*
X10269144Y-7342821D01*
X10268181Y-7344324D01*
X10267148Y-7345776D01*
X10266048Y-7347175D01*
X10264884Y-7348519D01*
X10263658Y-7349806D01*
X10262371Y-7351032D01*
X10261027Y-7352196D01*
X10259628Y-7353296D01*
X10258176Y-7354329D01*
X10256673Y-7355292D01*
X10255122Y-7356184D01*
X10253524Y-7357002D01*
X10251884Y-7357744D01*
X10250202Y-7358407D01*
X10248480Y-7358989D01*
X10246723Y-7359489D01*
X10244931Y-7359902D01*
X10243107Y-7360228D01*
X10241253Y-7360464D01*
X10239372Y-7360607D01*
X10237466Y-7360655D01*
X9261152Y-7360655D01*
X9259246Y-7360607D01*
X9257365Y-7360464D01*
X9255511Y-7360228D01*
X9253687Y-7359902D01*
X9251895Y-7359489D01*
X9250137Y-7358989D01*
X9248416Y-7358407D01*
X9246734Y-7357744D01*
X9245093Y-7357002D01*
X9243496Y-7356184D01*
X9241945Y-7355292D01*
X9240442Y-7354329D01*
X9238990Y-7353296D01*
X9237590Y-7352196D01*
X9236246Y-7351032D01*
X9234960Y-7349806D01*
X9233734Y-7348519D01*
X9232569Y-7347175D01*
X9231470Y-7345776D01*
X9230437Y-7344324D01*
X9229473Y-7342821D01*
X9228582Y-7341269D01*
X9227764Y-7339672D01*
X9227022Y-7338031D01*
X9226358Y-7336349D01*
X9225776Y-7334628D01*
X9225277Y-7332870D01*
X9224863Y-7331078D01*
X9224538Y-7329254D01*
X9224302Y-7327400D01*
X9224159Y-7325519D01*
X9224111Y-7323613D01*
X9224111Y-6347301D01*
X9224159Y-6345394D01*
X9224302Y-6343513D01*
X9224538Y-6341660D01*
X9224863Y-6339835D01*
X9225277Y-6338043D01*
X9225776Y-6336286D01*
X9226358Y-6334564D01*
X9227022Y-6332882D01*
X9227764Y-6331242D01*
X9228582Y-6329644D01*
X9229473Y-6328093D01*
X9230437Y-6326590D01*
X9231470Y-6325138D01*
X9232569Y-6323739D01*
X9233734Y-6322395D01*
X9234960Y-6321108D01*
X9236246Y-6319882D01*
X9237590Y-6318717D01*
X9238990Y-6317618D01*
X9240442Y-6316585D01*
X9241945Y-6315622D01*
X9243496Y-6314730D01*
X9245093Y-6313912D01*
X9246734Y-6313170D01*
X9248416Y-6312507D01*
X9250137Y-6311924D01*
X9251895Y-6311425D01*
X9253687Y-6311012D01*
X9255511Y-6310686D01*
X9257365Y-6310450D01*
X9259246Y-6310307D01*
X9261152Y-6310259D01*
X10237466Y-6310259D01*
X10239372Y-6310307D01*
D11*
X25831090Y-9427295D02*
X25840630Y-9428020D01*
X25850031Y-9429215D01*
X25859282Y-9430867D01*
X25868370Y-9432965D01*
X25877285Y-9435496D01*
X25886013Y-9438449D01*
X25894544Y-9441813D01*
X25902865Y-9445575D01*
X25910965Y-9449724D01*
X25918831Y-9454247D01*
X25926453Y-9459133D01*
X25933818Y-9464371D01*
X25940915Y-9469947D01*
X25947731Y-9475852D01*
X25954255Y-9482072D01*
X25960475Y-9488596D01*
X25966379Y-9495412D01*
X25971956Y-9502509D01*
X25977193Y-9509874D01*
X25982080Y-9517496D01*
X25986603Y-9525362D01*
X25990751Y-9533462D01*
X25994513Y-9541784D01*
X25997877Y-9550314D01*
X26000830Y-9559043D01*
X26003362Y-9567957D01*
X26005459Y-9577046D01*
X26007111Y-9586297D01*
X26008306Y-9595698D01*
X26009031Y-9605238D01*
X26009276Y-9614905D01*
X26009031Y-9624572D01*
X26008306Y-9634112D01*
X26007111Y-9643513D01*
X26005459Y-9652764D01*
X26003362Y-9661853D01*
X26000830Y-9670767D01*
X25997877Y-9679495D01*
X25994513Y-9688026D01*
X25990751Y-9696347D01*
X25986603Y-9704447D01*
X25982080Y-9712314D01*
X25977193Y-9719936D01*
X25971956Y-9727301D01*
X25966379Y-9734398D01*
X25960475Y-9741214D01*
X25954255Y-9747738D01*
X25947731Y-9753958D01*
X25940915Y-9759862D01*
X25933818Y-9765439D01*
X25926453Y-9770677D01*
X25918831Y-9775563D01*
X25910965Y-9780086D01*
X25902865Y-9784235D01*
X25894544Y-9787997D01*
X25886013Y-9791360D01*
X25877285Y-9794314D01*
X25868370Y-9796845D01*
X25859282Y-9798943D01*
X25850031Y-9800595D01*
X25840630Y-9801789D01*
X25831090Y-9802515D01*
X25821423Y-9802759D01*
X25811756Y-9802515D01*
X25802216Y-9801789D01*
X25792815Y-9800595D01*
X25783564Y-9798943D01*
X25774476Y-9796845D01*
X25765561Y-9794314D01*
X25756833Y-9791360D01*
X25748302Y-9787997D01*
X25739981Y-9784235D01*
X25731881Y-9780086D01*
X25724014Y-9775563D01*
X25716392Y-9770677D01*
X25709027Y-9765439D01*
X25701931Y-9759862D01*
X25695114Y-9753958D01*
X25688590Y-9747738D01*
X25682370Y-9741214D01*
X25676466Y-9734398D01*
X25670889Y-9727301D01*
X25665652Y-9719936D01*
X25660765Y-9712314D01*
X25656242Y-9704447D01*
X25652094Y-9696347D01*
X25648332Y-9688026D01*
X25644968Y-9679495D01*
X25642015Y-9670767D01*
X25639483Y-9661853D01*
X25637386Y-9652764D01*
X25635734Y-9643513D01*
X25634539Y-9634112D01*
X25633814Y-9624572D01*
X25633569Y-9614905D01*
X25633814Y-9605238D01*
X25634539Y-9595698D01*
X25635734Y-9586297D01*
X25637386Y-9577046D01*
X25639483Y-9567957D01*
X25642015Y-9559043D01*
X25644968Y-9550314D01*
X25648332Y-9541784D01*
X25652094Y-9533462D01*
X25656242Y-9525362D01*
X25660765Y-9517496D01*
X25665652Y-9509874D01*
X25670889Y-9502509D01*
X25676466Y-9495412D01*
X25682370Y-9488596D01*
X25688590Y-9482072D01*
X25695114Y-9475852D01*
X25701931Y-9469947D01*
X25709027Y-9464371D01*
X25716392Y-9459133D01*
X25724014Y-9454247D01*
X25731881Y-9449724D01*
X25739981Y-9445575D01*
X25748302Y-9441813D01*
X25756833Y-9438449D01*
X25765561Y-9435496D01*
X25774476Y-9432965D01*
X25783564Y-9430867D01*
X25792815Y-9429215D01*
X25802216Y-9428020D01*
X25811756Y-9427295D01*
X25821423Y-9427050D01*
X25831090Y-9427295D01*
D10*
X25955619Y-10596557D02*
X25957500Y-10596700D01*
X25959353Y-10596936D01*
X25961178Y-10597261D01*
X25962970Y-10597675D01*
X25964727Y-10598174D01*
X25966449Y-10598756D01*
X25968131Y-10599420D01*
X25969772Y-10600162D01*
X25971369Y-10600980D01*
X25972920Y-10601871D01*
X25974423Y-10602835D01*
X25975875Y-10603868D01*
X25977275Y-10604967D01*
X25978619Y-10606132D01*
X25979905Y-10607358D01*
X25981132Y-10608644D01*
X25982296Y-10609988D01*
X25983396Y-10611388D01*
X25984428Y-10612840D01*
X25985392Y-10614343D01*
X25986284Y-10615894D01*
X25987102Y-10617491D01*
X25987844Y-10619132D01*
X25988507Y-10620814D01*
X25989089Y-10622535D01*
X25989588Y-10624293D01*
X25990002Y-10626085D01*
X25990328Y-10627909D01*
X25990563Y-10629763D01*
X25990706Y-10631644D01*
X25990755Y-10633550D01*
X25990755Y-11609863D01*
X25990706Y-11611769D01*
X25990563Y-11613650D01*
X25990328Y-11615504D01*
X25990002Y-11617328D01*
X25989588Y-11619120D01*
X25989089Y-11620878D01*
X25988507Y-11622599D01*
X25987844Y-11624281D01*
X25987102Y-11625922D01*
X25986284Y-11627519D01*
X25985392Y-11629070D01*
X25984428Y-11630573D01*
X25983396Y-11632025D01*
X25982296Y-11633425D01*
X25981132Y-11634769D01*
X25979905Y-11636055D01*
X25978619Y-11637282D01*
X25977275Y-11638446D01*
X25975875Y-11639545D01*
X25974423Y-11640578D01*
X25972920Y-11641542D01*
X25971369Y-11642434D01*
X25969772Y-11643252D01*
X25968131Y-11643993D01*
X25966449Y-11644657D01*
X25964727Y-11645239D01*
X25962970Y-11645738D01*
X25961178Y-11646152D01*
X25959353Y-11646478D01*
X25957500Y-11646713D01*
X25955619Y-11646856D01*
X25953712Y-11646904D01*
X24977402Y-11646904D01*
X24975496Y-11646856D01*
X24973614Y-11646713D01*
X24971761Y-11646478D01*
X24969936Y-11646152D01*
X24968144Y-11645738D01*
X24966387Y-11645239D01*
X24964665Y-11644657D01*
X24962983Y-11643993D01*
X24961343Y-11643252D01*
X24959745Y-11642434D01*
X24958194Y-11641542D01*
X24956691Y-11640578D01*
X24955239Y-11639545D01*
X24953840Y-11638446D01*
X24952495Y-11637282D01*
X24951209Y-11636055D01*
X24949982Y-11634769D01*
X24948818Y-11633425D01*
X24947719Y-11632025D01*
X24946686Y-11630573D01*
X24945722Y-11629070D01*
X24944830Y-11627519D01*
X24944012Y-11625922D01*
X24943270Y-11624281D01*
X24942607Y-11622599D01*
X24942025Y-11620878D01*
X24941526Y-11619120D01*
X24941112Y-11617328D01*
X24940786Y-11615504D01*
X24940551Y-11613650D01*
X24940408Y-11611769D01*
X24940359Y-11609863D01*
X24940359Y-10633550D01*
X24940408Y-10631644D01*
X24940551Y-10629763D01*
X24940786Y-10627909D01*
X24941112Y-10626085D01*
X24941526Y-10624293D01*
X24942025Y-10622535D01*
X24942607Y-10620814D01*
X24943270Y-10619132D01*
X24944012Y-10617491D01*
X24944830Y-10615894D01*
X24945722Y-10614343D01*
X24946686Y-10612840D01*
X24947719Y-10611388D01*
X24948818Y-10609988D01*
X24949982Y-10608644D01*
X24951209Y-10607358D01*
X24952495Y-10606132D01*
X24953840Y-10604967D01*
X24955239Y-10603868D01*
X24956691Y-10602835D01*
X24958194Y-10601871D01*
X24959745Y-10600980D01*
X24961343Y-10600162D01*
X24962983Y-10599420D01*
X24964665Y-10598756D01*
X24966387Y-10598174D01*
X24968144Y-10597675D01*
X24969936Y-10597261D01*
X24971761Y-10596936D01*
X24973614Y-10596700D01*
X24975496Y-10596557D01*
X24977402Y-10596509D01*
X25953712Y-10596509D01*
X25955619Y-10596557D01*
D11*
X13097433Y-5736309D02*
X13105092Y-5736892D01*
X13112640Y-5737851D01*
X13120066Y-5739177D01*
X13127363Y-5740861D01*
X13134519Y-5742893D01*
X13141527Y-5745264D01*
X13148376Y-5747965D01*
X13155056Y-5750985D01*
X13161559Y-5754315D01*
X13167874Y-5757947D01*
X13173993Y-5761870D01*
X13179906Y-5766074D01*
X13185603Y-5770551D01*
X13191076Y-5775291D01*
X13196313Y-5780285D01*
X13201307Y-5785523D01*
X13206047Y-5790995D01*
X13210524Y-5796692D01*
X13214729Y-5802605D01*
X13218652Y-5808724D01*
X13222283Y-5815039D01*
X13225614Y-5821542D01*
X13228634Y-5828223D01*
X13231334Y-5835071D01*
X13233705Y-5842079D01*
X13235737Y-5849235D01*
X13237421Y-5856532D01*
X13238748Y-5863958D01*
X13239707Y-5871506D01*
X13240289Y-5879165D01*
X13240485Y-5886926D01*
X13240485Y-5902801D01*
X13240289Y-5910561D01*
X13239707Y-5918220D01*
X13238748Y-5925768D01*
X13237421Y-5933195D01*
X13235737Y-5940491D01*
X13233705Y-5947648D01*
X13231334Y-5954655D01*
X13228634Y-5961504D01*
X13225614Y-5968184D01*
X13222283Y-5974687D01*
X13218652Y-5981002D01*
X13214729Y-5987121D01*
X13210524Y-5993034D01*
X13206047Y-5998731D01*
X13201307Y-6004204D01*
X13196313Y-6009441D01*
X13191076Y-6014435D01*
X13185603Y-6019175D01*
X13179906Y-6023652D01*
X13173993Y-6027857D01*
X13167874Y-6031780D01*
X13161559Y-6035411D01*
X13155056Y-6038741D01*
X13148376Y-6041762D01*
X13141527Y-6044462D01*
X13134519Y-6046833D01*
X13127363Y-6048865D01*
X13120066Y-6050549D01*
X13112640Y-6051875D01*
X13105092Y-6052835D01*
X13097433Y-6053417D01*
X13089672Y-6053613D01*
X12978548Y-6053613D01*
X12970787Y-6053417D01*
X12963128Y-6052835D01*
X12955580Y-6051875D01*
X12948154Y-6050549D01*
X12940857Y-6048865D01*
X12933701Y-6046833D01*
X12926693Y-6044462D01*
X12919844Y-6041762D01*
X12913164Y-6038741D01*
X12906661Y-6035411D01*
X12900346Y-6031780D01*
X12894227Y-6027857D01*
X12888314Y-6023652D01*
X12882617Y-6019175D01*
X12877145Y-6014435D01*
X12871907Y-6009441D01*
X12866913Y-6004204D01*
X12862173Y-5998731D01*
X12857696Y-5993034D01*
X12853491Y-5987121D01*
X12849569Y-5981002D01*
X12845937Y-5974687D01*
X12842607Y-5968184D01*
X12839587Y-5961504D01*
X12836886Y-5954655D01*
X12834515Y-5947648D01*
X12832483Y-5940491D01*
X12830799Y-5933195D01*
X12829473Y-5925768D01*
X12828514Y-5918220D01*
X12827931Y-5910561D01*
X12827735Y-5902801D01*
X12827735Y-5886926D01*
X12827931Y-5879165D01*
X12828514Y-5871506D01*
X12829473Y-5863958D01*
X12830799Y-5856532D01*
X12832483Y-5849235D01*
X12834515Y-5842079D01*
X12836886Y-5835071D01*
X12839587Y-5828223D01*
X12842607Y-5821542D01*
X12845937Y-5815039D01*
X12849569Y-5808724D01*
X12853491Y-5802605D01*
X12857696Y-5796692D01*
X12862173Y-5790995D01*
X12866913Y-5785523D01*
X12871907Y-5780285D01*
X12877145Y-5775291D01*
X12882617Y-5770551D01*
X12888314Y-5766074D01*
X12894227Y-5761870D01*
X12900346Y-5757947D01*
X12906661Y-5754315D01*
X12913164Y-5750985D01*
X12919844Y-5747965D01*
X12926693Y-5745264D01*
X12933701Y-5742893D01*
X12940857Y-5740861D01*
X12948154Y-5739177D01*
X12955580Y-5737851D01*
X12963128Y-5736892D01*
X12970787Y-5736309D01*
X12978548Y-5736113D01*
X13089672Y-5736113D01*
X13097433Y-5736309D01*
D10*
X10337329Y-10448389D02*
X10339264Y-10448526D01*
X10341165Y-10448752D01*
X10343029Y-10449066D01*
X10344854Y-10449465D01*
X10346638Y-10449947D01*
X10348380Y-10450511D01*
X10350077Y-10451154D01*
X10351728Y-10451874D01*
X10353330Y-10452670D01*
X10354882Y-10453540D01*
X10356382Y-10454482D01*
X10357827Y-10455493D01*
X10359216Y-10456572D01*
X10360547Y-10457717D01*
X10361818Y-10458926D01*
X10363027Y-10460197D01*
X10364172Y-10461528D01*
X10365251Y-10462917D01*
X10366262Y-10464362D01*
X10367204Y-10465862D01*
X10368074Y-10467414D01*
X10368870Y-10469016D01*
X10369590Y-10470667D01*
X10370233Y-10472364D01*
X10370797Y-10474106D01*
X10371279Y-10475890D01*
X10371678Y-10477716D01*
X10371992Y-10479579D01*
X10372218Y-10481480D01*
X10372355Y-10483416D01*
X10372401Y-10485384D01*
X10372401Y-11535780D01*
X10372355Y-11537748D01*
X10372218Y-11539684D01*
X10371992Y-11541585D01*
X10371678Y-11543449D01*
X10371279Y-11545274D01*
X10370797Y-11547058D01*
X10370233Y-11548800D01*
X10369590Y-11550497D01*
X10368870Y-11552148D01*
X10368074Y-11553750D01*
X10367204Y-11555302D01*
X10366262Y-11556802D01*
X10365251Y-11558247D01*
X10364172Y-11559636D01*
X10363027Y-11560967D01*
X10361818Y-11562238D01*
X10360547Y-11563447D01*
X10359216Y-11564592D01*
X10357827Y-11565671D01*
X10356382Y-11566682D01*
X10354882Y-11567624D01*
X10353330Y-11568493D01*
X10351728Y-11569290D01*
X10350077Y-11570010D01*
X10348380Y-11570653D01*
X10346638Y-11571217D01*
X10344854Y-11571699D01*
X10343029Y-11572098D01*
X10341165Y-11572412D01*
X10339264Y-11572638D01*
X10337329Y-11572775D01*
X10335360Y-11572821D01*
X10274506Y-11572821D01*
X10277152Y-11575467D01*
X10277152Y-11612509D01*
X10277105Y-11614477D01*
X10276968Y-11616413D01*
X10276742Y-11618314D01*
X10276428Y-11620177D01*
X10276029Y-11622003D01*
X10275547Y-11623787D01*
X10274983Y-11625529D01*
X10274340Y-11627226D01*
X10273620Y-11628877D01*
X10272824Y-11630479D01*
X10271954Y-11632031D01*
X10271012Y-11633531D01*
X10270001Y-11634976D01*
X10268922Y-11636365D01*
X10267777Y-11637696D01*
X10266568Y-11638967D01*
X10265297Y-11640176D01*
X10263966Y-11641321D01*
X10262577Y-11642400D01*
X10261132Y-11643411D01*
X10259632Y-11644353D01*
X10258080Y-11645222D01*
X10256478Y-11646018D01*
X10254827Y-11646739D01*
X10253130Y-11647382D01*
X10251388Y-11647946D01*
X10249604Y-11648428D01*
X10247779Y-11648827D01*
X10245915Y-11649140D01*
X10244014Y-11649367D01*
X10242079Y-11649504D01*
X10240110Y-11649550D01*
X8729339Y-11649550D01*
X8727371Y-11649504D01*
X8725435Y-11649367D01*
X8723534Y-11649140D01*
X8721671Y-11648827D01*
X8719845Y-11648428D01*
X8718061Y-11647946D01*
X8716319Y-11647382D01*
X8714622Y-11646739D01*
X8712971Y-11646019D01*
X8711369Y-11645222D01*
X8709817Y-11644353D01*
X8708318Y-11643411D01*
X8706872Y-11642400D01*
X8705483Y-11641321D01*
X8704152Y-11640176D01*
X8702881Y-11638967D01*
X8701672Y-11637696D01*
X8700527Y-11636365D01*
X8699448Y-11634976D01*
X8698437Y-11633531D01*
X8697496Y-11632031D01*
X8696626Y-11630479D01*
X8695830Y-11628877D01*
X8695109Y-11627226D01*
X8694466Y-11625529D01*
X8693902Y-11623787D01*
X8693420Y-11622003D01*
X8693021Y-11620178D01*
X8692708Y-11618314D01*
X8692481Y-11616413D01*
X8692344Y-11614477D01*
X8692298Y-11612509D01*
X8692298Y-10636197D01*
X8692344Y-10634228D01*
X8692481Y-10632292D01*
X8692708Y-10630392D01*
X8693021Y-10628528D01*
X8693420Y-10626703D01*
X8693902Y-10624918D01*
X8694466Y-10623177D01*
X8695109Y-10621479D01*
X8695830Y-10619829D01*
X8696626Y-10618226D01*
X8697495Y-10616674D01*
X8698437Y-10615175D01*
X8699448Y-10613730D01*
X8700527Y-10612340D01*
X8701672Y-10611009D01*
X8702881Y-10609738D01*
X8704152Y-10608530D01*
X8705483Y-10607385D01*
X8706872Y-10606306D01*
X8708317Y-10605294D01*
X8709817Y-10604353D01*
X8711369Y-10603483D01*
X8712971Y-10602687D01*
X8714622Y-10601966D01*
X8716319Y-10601323D01*
X8718061Y-10600760D01*
X8719845Y-10600277D01*
X8721670Y-10599879D01*
X8723534Y-10599565D01*
X8725435Y-10599339D01*
X8727371Y-10599201D01*
X8729339Y-10599155D01*
X9848527Y-10599155D01*
X9848527Y-10485384D01*
X9848573Y-10483416D01*
X9848710Y-10481480D01*
X9848937Y-10479580D01*
X9849250Y-10477716D01*
X9849649Y-10475890D01*
X9850131Y-10474106D01*
X9850695Y-10472364D01*
X9851338Y-10470667D01*
X9852058Y-10469016D01*
X9852855Y-10467414D01*
X9853724Y-10465862D01*
X9854666Y-10464362D01*
X9855677Y-10462917D01*
X9856756Y-10461528D01*
X9857901Y-10460197D01*
X9859110Y-10458926D01*
X9860381Y-10457717D01*
X9861712Y-10456572D01*
X9863101Y-10455493D01*
X9864546Y-10454482D01*
X9866046Y-10453540D01*
X9867598Y-10452671D01*
X9869200Y-10451874D01*
X9870851Y-10451154D01*
X9872548Y-10450511D01*
X9874290Y-10449947D01*
X9876074Y-10449465D01*
X9877899Y-10449066D01*
X9879763Y-10448752D01*
X9881664Y-10448526D01*
X9883600Y-10448389D01*
X9885568Y-10448343D01*
X10335360Y-10448343D01*
X10337329Y-10448389D01*
X21669370Y-7739057D02*
X21671251Y-7739200D01*
X21673105Y-7739436D01*
X21674929Y-7739761D01*
X21676721Y-7740175D01*
X21678479Y-7740674D01*
X21680200Y-7741257D01*
X21681882Y-7741920D01*
X21683523Y-7742662D01*
X21685120Y-7743480D01*
X21686671Y-7744371D01*
X21688174Y-7745335D01*
X21689627Y-7746368D01*
X21691026Y-7747467D01*
X21692370Y-7748632D01*
X21693656Y-7749858D01*
X21694883Y-7751144D01*
X21696047Y-7752489D01*
X21697147Y-7753888D01*
X21698180Y-7755340D01*
X21699143Y-7756843D01*
X21700035Y-7758394D01*
X21700853Y-7759991D01*
X21701595Y-7761632D01*
X21702258Y-7763314D01*
X21702841Y-7765035D01*
X21703340Y-7766793D01*
X21703753Y-7768585D01*
X21704079Y-7770409D01*
X21704315Y-7772263D01*
X21704458Y-7774144D01*
X21704506Y-7776051D01*
X21704506Y-8752363D01*
X21704458Y-8754269D01*
X21704315Y-8756150D01*
X21704079Y-8758004D01*
X21703753Y-8759828D01*
X21703340Y-8761620D01*
X21702841Y-8763378D01*
X21702258Y-8765099D01*
X21701595Y-8766781D01*
X21700853Y-8768422D01*
X21700035Y-8770019D01*
X21699143Y-8771570D01*
X21698180Y-8773073D01*
X21697147Y-8774526D01*
X21696047Y-8775925D01*
X21694883Y-8777269D01*
X21693656Y-8778555D01*
X21692370Y-8779782D01*
X21691026Y-8780946D01*
X21689627Y-8782046D01*
X21688174Y-8783079D01*
X21686671Y-8784042D01*
X21685120Y-8784934D01*
X21683523Y-8785752D01*
X21681882Y-8786494D01*
X21680200Y-8787157D01*
X21678479Y-8787739D01*
X21676721Y-8788239D01*
X21674929Y-8788652D01*
X21673105Y-8788978D01*
X21671251Y-8789213D01*
X21669370Y-8789357D01*
X21667464Y-8789405D01*
X20691151Y-8789405D01*
X20689245Y-8789357D01*
X20687364Y-8789213D01*
X20685510Y-8788978D01*
X20683686Y-8788652D01*
X20681894Y-8788239D01*
X20680136Y-8787739D01*
X20678415Y-8787157D01*
X20676733Y-8786494D01*
X20675092Y-8785752D01*
X20673495Y-8784934D01*
X20671944Y-8784042D01*
X20670441Y-8783079D01*
X20668989Y-8782046D01*
X20667589Y-8780946D01*
X20666245Y-8779782D01*
X20664959Y-8778555D01*
X20663732Y-8777269D01*
X20662568Y-8775925D01*
X20661468Y-8774526D01*
X20660436Y-8773073D01*
X20659472Y-8771570D01*
X20658580Y-8770019D01*
X20657762Y-8768422D01*
X20657020Y-8766781D01*
X20656357Y-8765099D01*
X20655775Y-8763378D01*
X20655275Y-8761620D01*
X20654862Y-8759828D01*
X20654536Y-8758004D01*
X20654300Y-8756150D01*
X20654157Y-8754269D01*
X20654109Y-8752363D01*
X20654109Y-7776051D01*
X20654157Y-7774144D01*
X20654300Y-7772263D01*
X20654536Y-7770409D01*
X20654862Y-7768585D01*
X20655275Y-7766793D01*
X20655775Y-7765035D01*
X20656357Y-7763314D01*
X20657020Y-7761632D01*
X20657762Y-7759991D01*
X20658580Y-7758394D01*
X20659472Y-7756843D01*
X20660436Y-7755340D01*
X20661468Y-7753888D01*
X20662568Y-7752489D01*
X20663732Y-7751144D01*
X20664959Y-7749858D01*
X20666245Y-7748632D01*
X20667589Y-7747467D01*
X20668989Y-7746368D01*
X20670441Y-7745335D01*
X20671944Y-7744371D01*
X20673495Y-7743480D01*
X20675092Y-7742662D01*
X20676733Y-7741920D01*
X20678415Y-7741257D01*
X20680136Y-7740674D01*
X20681894Y-7740175D01*
X20683686Y-7739761D01*
X20685510Y-7739436D01*
X20687364Y-7739200D01*
X20689245Y-7739057D01*
X20691151Y-7739009D01*
X21667464Y-7739009D01*
X21669370Y-7739057D01*
X5953121Y-6310307D02*
X5955002Y-6310450D01*
X5956856Y-6310686D01*
X5958680Y-6311012D01*
X5960472Y-6311425D01*
X5962230Y-6311924D01*
X5963951Y-6312507D01*
X5965633Y-6313170D01*
X5967274Y-6313912D01*
X5968871Y-6314730D01*
X5970422Y-6315622D01*
X5971925Y-6316585D01*
X5973378Y-6317618D01*
X5974777Y-6318717D01*
X5976121Y-6319882D01*
X5977407Y-6321108D01*
X5978634Y-6322395D01*
X5979798Y-6323739D01*
X5980898Y-6325138D01*
X5981930Y-6326590D01*
X5982894Y-6328093D01*
X5983786Y-6329644D01*
X5984604Y-6331242D01*
X5985346Y-6332882D01*
X5986009Y-6334564D01*
X5986591Y-6336286D01*
X5987090Y-6338043D01*
X5987504Y-6339835D01*
X5987830Y-6341660D01*
X5988065Y-6343513D01*
X5988208Y-6345394D01*
X5988257Y-6347301D01*
X5988257Y-7323613D01*
X5988208Y-7325519D01*
X5988065Y-7327400D01*
X5987830Y-7329254D01*
X5987504Y-7331078D01*
X5987090Y-7332870D01*
X5986591Y-7334628D01*
X5986009Y-7336349D01*
X5985346Y-7338031D01*
X5984604Y-7339672D01*
X5983786Y-7341269D01*
X5982894Y-7342821D01*
X5981930Y-7344324D01*
X5980898Y-7345776D01*
X5979798Y-7347175D01*
X5978634Y-7348519D01*
X5977407Y-7349806D01*
X5976121Y-7351032D01*
X5974777Y-7352196D01*
X5973378Y-7353296D01*
X5971925Y-7354329D01*
X5970422Y-7355292D01*
X5968871Y-7356184D01*
X5967274Y-7357002D01*
X5965633Y-7357744D01*
X5963951Y-7358407D01*
X5962230Y-7358989D01*
X5960472Y-7359489D01*
X5958680Y-7359902D01*
X5956856Y-7360228D01*
X5955002Y-7360464D01*
X5953121Y-7360607D01*
X5951215Y-7360655D01*
X4974903Y-7360655D01*
X4972996Y-7360607D01*
X4971115Y-7360464D01*
X4969261Y-7360228D01*
X4967437Y-7359902D01*
X4965645Y-7359489D01*
X4963887Y-7358989D01*
X4962166Y-7358407D01*
X4960484Y-7357744D01*
X4958843Y-7357002D01*
X4957246Y-7356184D01*
X4955695Y-7355292D01*
X4954192Y-7354329D01*
X4952740Y-7353296D01*
X4951341Y-7352196D01*
X4949996Y-7351032D01*
X4948710Y-7349806D01*
X4947484Y-7348519D01*
X4946319Y-7347175D01*
X4945220Y-7345776D01*
X4944187Y-7344324D01*
X4943223Y-7342821D01*
X4942331Y-7341269D01*
X4941513Y-7339672D01*
X4940772Y-7338031D01*
X4940108Y-7336349D01*
X4939526Y-7334628D01*
X4939027Y-7332870D01*
X4938613Y-7331078D01*
X4938288Y-7329254D01*
X4938052Y-7327400D01*
X4937909Y-7325519D01*
X4937861Y-7323613D01*
X4937861Y-6347301D01*
X4937909Y-6345394D01*
X4938052Y-6343513D01*
X4938288Y-6341660D01*
X4938613Y-6339835D01*
X4939027Y-6338043D01*
X4939526Y-6336286D01*
X4940108Y-6334564D01*
X4940772Y-6332882D01*
X4941513Y-6331242D01*
X4942331Y-6329644D01*
X4943223Y-6328093D01*
X4944187Y-6326590D01*
X4945220Y-6325138D01*
X4946319Y-6323739D01*
X4947484Y-6322395D01*
X4948710Y-6321108D01*
X4949996Y-6319882D01*
X4951341Y-6318717D01*
X4952740Y-6317618D01*
X4954192Y-6316585D01*
X4955695Y-6315622D01*
X4957246Y-6314730D01*
X4958843Y-6313912D01*
X4960484Y-6313170D01*
X4962166Y-6312507D01*
X4963887Y-6311924D01*
X4965645Y-6311425D01*
X4967437Y-6311012D01*
X4969261Y-6310686D01*
X4971115Y-6310450D01*
X4972996Y-6310307D01*
X4974903Y-6310259D01*
X5951215Y-6310259D01*
X5953121Y-6310307D01*
X24526869Y-6310307D02*
X24528751Y-6310450D01*
X24530604Y-6310686D01*
X24532429Y-6311012D01*
X24534221Y-6311425D01*
X24535978Y-6311924D01*
X24537700Y-6312507D01*
X24539382Y-6313170D01*
X24541022Y-6313912D01*
X24542620Y-6314730D01*
X24544171Y-6315622D01*
X24545674Y-6316585D01*
X24547126Y-6317618D01*
X24548525Y-6318717D01*
X24549870Y-6319882D01*
X24551156Y-6321108D01*
X24552383Y-6322395D01*
X24553547Y-6323739D01*
X24554646Y-6325138D01*
X24555679Y-6326590D01*
X24556643Y-6328093D01*
X24557535Y-6329644D01*
X24558353Y-6331242D01*
X24559095Y-6332882D01*
X24559758Y-6334564D01*
X24560340Y-6336286D01*
X24560839Y-6338043D01*
X24561253Y-6339835D01*
X24561579Y-6341660D01*
X24561814Y-6343513D01*
X24561957Y-6345394D01*
X24562006Y-6347301D01*
X24562006Y-7323613D01*
X24561957Y-7325519D01*
X24561814Y-7327400D01*
X24561579Y-7329254D01*
X24561253Y-7331078D01*
X24560839Y-7332870D01*
X24560340Y-7334628D01*
X24559758Y-7336349D01*
X24559095Y-7338031D01*
X24558353Y-7339672D01*
X24557535Y-7341269D01*
X24556643Y-7342821D01*
X24555679Y-7344324D01*
X24554646Y-7345776D01*
X24553547Y-7347175D01*
X24552383Y-7348519D01*
X24551156Y-7349806D01*
X24549870Y-7351032D01*
X24548525Y-7352196D01*
X24547126Y-7353296D01*
X24545674Y-7354329D01*
X24544171Y-7355292D01*
X24542620Y-7356184D01*
X24541022Y-7357002D01*
X24539382Y-7357744D01*
X24537700Y-7358407D01*
X24535978Y-7358989D01*
X24534221Y-7359489D01*
X24532429Y-7359902D01*
X24530604Y-7360228D01*
X24528751Y-7360464D01*
X24526869Y-7360607D01*
X24524963Y-7360655D01*
X23548651Y-7360655D01*
X23546745Y-7360607D01*
X23544864Y-7360464D01*
X23543010Y-7360228D01*
X23541186Y-7359902D01*
X23539394Y-7359489D01*
X23537636Y-7358989D01*
X23535915Y-7358407D01*
X23534233Y-7357744D01*
X23532592Y-7357002D01*
X23530995Y-7356184D01*
X23529443Y-7355292D01*
X23527941Y-7354329D01*
X23526488Y-7353296D01*
X23525089Y-7352196D01*
X23523745Y-7351032D01*
X23522458Y-7349806D01*
X23521232Y-7348519D01*
X23520068Y-7347175D01*
X23518968Y-7345776D01*
X23517935Y-7344324D01*
X23516972Y-7342821D01*
X23516080Y-7341269D01*
X23515262Y-7339672D01*
X23514520Y-7338031D01*
X23513857Y-7336349D01*
X23513274Y-7334628D01*
X23512775Y-7332870D01*
X23512361Y-7331078D01*
X23512036Y-7329254D01*
X23511800Y-7327400D01*
X23511657Y-7325519D01*
X23511609Y-7323613D01*
X23511609Y-6347301D01*
X23511657Y-6345394D01*
X23511800Y-6343513D01*
X23512036Y-6341660D01*
X23512361Y-6339835D01*
X23512775Y-6338043D01*
X23513274Y-6336286D01*
X23513857Y-6334564D01*
X23514520Y-6332882D01*
X23515262Y-6331242D01*
X23516080Y-6329644D01*
X23516972Y-6328093D01*
X23517935Y-6326590D01*
X23518968Y-6325138D01*
X23520068Y-6323739D01*
X23521232Y-6322395D01*
X23522458Y-6321108D01*
X23523745Y-6319882D01*
X23525089Y-6318717D01*
X23526488Y-6317618D01*
X23527941Y-6316585D01*
X23529443Y-6315622D01*
X23530995Y-6314730D01*
X23532592Y-6313912D01*
X23534233Y-6313170D01*
X23535915Y-6312507D01*
X23537636Y-6311924D01*
X23539394Y-6311425D01*
X23541186Y-6311012D01*
X23543010Y-6310686D01*
X23544864Y-6310450D01*
X23546745Y-6310307D01*
X23548651Y-6310259D01*
X24524963Y-6310259D01*
X24526869Y-6310307D01*
X15689849Y-10445743D02*
X15691785Y-10445880D01*
X15693685Y-10446107D01*
X15695549Y-10446420D01*
X15697374Y-10446819D01*
X15699159Y-10447301D01*
X15700901Y-10447865D01*
X15702598Y-10448508D01*
X15704249Y-10449228D01*
X15705851Y-10450025D01*
X15707403Y-10450894D01*
X15708902Y-10451836D01*
X15710348Y-10452847D01*
X15711737Y-10453926D01*
X15713068Y-10455071D01*
X15714339Y-10456280D01*
X15715548Y-10457551D01*
X15716693Y-10458882D01*
X15717772Y-10460271D01*
X15718783Y-10461716D01*
X15719724Y-10463216D01*
X15720594Y-10464768D01*
X15721390Y-10466370D01*
X15722111Y-10468021D01*
X15722754Y-10469718D01*
X15723318Y-10471460D01*
X15723800Y-10473244D01*
X15724199Y-10475070D01*
X15724512Y-10476933D01*
X15724739Y-10478834D01*
X15724876Y-10480770D01*
X15724922Y-10482738D01*
X15724922Y-10596509D01*
X15915423Y-10596509D01*
X15915423Y-10482738D01*
X15915469Y-10480770D01*
X15915606Y-10478834D01*
X15915833Y-10476933D01*
X15916146Y-10475069D01*
X15916545Y-10473244D01*
X15917027Y-10471460D01*
X15917591Y-10469718D01*
X15918234Y-10468021D01*
X15918955Y-10466370D01*
X15919751Y-10464768D01*
X15920620Y-10463216D01*
X15921562Y-10461716D01*
X15922573Y-10460271D01*
X15923652Y-10458882D01*
X15924797Y-10457551D01*
X15926006Y-10456280D01*
X15927277Y-10455071D01*
X15928608Y-10453926D01*
X15929997Y-10452847D01*
X15931443Y-10451836D01*
X15932942Y-10450894D01*
X15934494Y-10450025D01*
X15936096Y-10449228D01*
X15937747Y-10448508D01*
X15939444Y-10447865D01*
X15941186Y-10447301D01*
X15942970Y-10446819D01*
X15944796Y-10446420D01*
X15946659Y-10446107D01*
X15948560Y-10445880D01*
X15950496Y-10445743D01*
X15952464Y-10445697D01*
X16402255Y-10445697D01*
X16404224Y-10445743D01*
X16406159Y-10445880D01*
X16408060Y-10446107D01*
X16409924Y-10446420D01*
X16411749Y-10446819D01*
X16413534Y-10447301D01*
X16415276Y-10447865D01*
X16416973Y-10448508D01*
X16418624Y-10449228D01*
X16420226Y-10450025D01*
X16421778Y-10450894D01*
X16423277Y-10451836D01*
X16424723Y-10452847D01*
X16426112Y-10453926D01*
X16427443Y-10455071D01*
X16428714Y-10456280D01*
X16429923Y-10457551D01*
X16431068Y-10458882D01*
X16432147Y-10460271D01*
X16433158Y-10461716D01*
X16434100Y-10463216D01*
X16434969Y-10464768D01*
X16435766Y-10466370D01*
X16436486Y-10468021D01*
X16437129Y-10469718D01*
X16437693Y-10471460D01*
X16438175Y-10473244D01*
X16438574Y-10475070D01*
X16438888Y-10476933D01*
X16439114Y-10478834D01*
X16439251Y-10480770D01*
X16439297Y-10482738D01*
X16439297Y-10596509D01*
X18807318Y-10596509D01*
X18809287Y-10596555D01*
X18811222Y-10596693D01*
X18813123Y-10596919D01*
X18814987Y-10597233D01*
X18816812Y-10597632D01*
X18818597Y-10598114D01*
X18820339Y-10598677D01*
X18822036Y-10599320D01*
X18823687Y-10600041D01*
X18825289Y-10600837D01*
X18826841Y-10601707D01*
X18828340Y-10602648D01*
X18829786Y-10603660D01*
X18831175Y-10604739D01*
X18832506Y-10605884D01*
X18833777Y-10607093D01*
X18834986Y-10608364D01*
X18836131Y-10609695D01*
X18837210Y-10611084D01*
X18838221Y-10612529D01*
X18839163Y-10614029D01*
X18840032Y-10615580D01*
X18840829Y-10617183D01*
X18841549Y-10618833D01*
X18842192Y-10620531D01*
X18842756Y-10622272D01*
X18843238Y-10624057D01*
X18843637Y-10625882D01*
X18843951Y-10627746D01*
X18844177Y-10629647D01*
X18844314Y-10631582D01*
X18844360Y-10633551D01*
X18844360Y-11609863D01*
X18844314Y-11611831D01*
X18844177Y-11613767D01*
X18843951Y-11615668D01*
X18843637Y-11617532D01*
X18843238Y-11619357D01*
X18842756Y-11621141D01*
X18842192Y-11622883D01*
X18841549Y-11624580D01*
X18840829Y-11626231D01*
X18840033Y-11627833D01*
X18839163Y-11629385D01*
X18838222Y-11630885D01*
X18837210Y-11632330D01*
X18836131Y-11633719D01*
X18834986Y-11635050D01*
X18833777Y-11636321D01*
X18832507Y-11637530D01*
X18831176Y-11638675D01*
X18829786Y-11639754D01*
X18828341Y-11640765D01*
X18826842Y-11641707D01*
X18825290Y-11642576D01*
X18823687Y-11643373D01*
X18822036Y-11644093D01*
X18820339Y-11644736D01*
X18818597Y-11645300D01*
X18816813Y-11645782D01*
X18814987Y-11646181D01*
X18813123Y-11646494D01*
X18811223Y-11646721D01*
X18809287Y-11646858D01*
X18807318Y-11646904D01*
X16402255Y-11646904D01*
X16400287Y-11646858D01*
X16398351Y-11646721D01*
X16396451Y-11646494D01*
X16394587Y-11646181D01*
X16392762Y-11645782D01*
X16390977Y-11645300D01*
X16389236Y-11644736D01*
X16387538Y-11644093D01*
X16385888Y-11643373D01*
X16384285Y-11642576D01*
X16382734Y-11641707D01*
X16381234Y-11640765D01*
X16379789Y-11639754D01*
X16378400Y-11638675D01*
X16377069Y-11637530D01*
X16375798Y-11636321D01*
X16374589Y-11635050D01*
X16373444Y-11633719D01*
X16372365Y-11632330D01*
X16371354Y-11630885D01*
X16370412Y-11629385D01*
X16369542Y-11627833D01*
X16368746Y-11626231D01*
X16368026Y-11624580D01*
X16367383Y-11622883D01*
X16366819Y-11621141D01*
X16366337Y-11619357D01*
X16365938Y-11617531D01*
X16365624Y-11615668D01*
X16365398Y-11613767D01*
X16365261Y-11611831D01*
X16365214Y-11609863D01*
X16365214Y-11572821D01*
X15989506Y-11572821D01*
X15989506Y-11609863D01*
X15989460Y-11611831D01*
X15989322Y-11613767D01*
X15989096Y-11615668D01*
X15988782Y-11617532D01*
X15988383Y-11619357D01*
X15987901Y-11621141D01*
X15987338Y-11622883D01*
X15986694Y-11624580D01*
X15985974Y-11626231D01*
X15985178Y-11627833D01*
X15984308Y-11629385D01*
X15983366Y-11630885D01*
X15982355Y-11632330D01*
X15981276Y-11633719D01*
X15980131Y-11635050D01*
X15978922Y-11636321D01*
X15977651Y-11637530D01*
X15976320Y-11638675D01*
X15974931Y-11639754D01*
X15973486Y-11640765D01*
X15971986Y-11641707D01*
X15970434Y-11642576D01*
X15968832Y-11643373D01*
X15967181Y-11644093D01*
X15965484Y-11644736D01*
X15963742Y-11645300D01*
X15961958Y-11645782D01*
X15960133Y-11646181D01*
X15958269Y-11646494D01*
X15956368Y-11646721D01*
X15954433Y-11646858D01*
X15952464Y-11646904D01*
X14976152Y-11646904D01*
X14974183Y-11646858D01*
X14972248Y-11646721D01*
X14970347Y-11646494D01*
X14968483Y-11646181D01*
X14966658Y-11645782D01*
X14964874Y-11645300D01*
X14963132Y-11644736D01*
X14961435Y-11644093D01*
X14959784Y-11643373D01*
X14958182Y-11642576D01*
X14956630Y-11641707D01*
X14955130Y-11640765D01*
X14953685Y-11639754D01*
X14952296Y-11638675D01*
X14950965Y-11637530D01*
X14949694Y-11636321D01*
X14948485Y-11635050D01*
X14947340Y-11633719D01*
X14946261Y-11632330D01*
X14945250Y-11630885D01*
X14944308Y-11629385D01*
X14943438Y-11627833D01*
X14942642Y-11626231D01*
X14941922Y-11624580D01*
X14941279Y-11622883D01*
X14940715Y-11621141D01*
X14940233Y-11619357D01*
X14939834Y-11617531D01*
X14939520Y-11615668D01*
X14939294Y-11613767D01*
X14939157Y-11611831D01*
X14939111Y-11609863D01*
X14939111Y-10633551D01*
X14939157Y-10631582D01*
X14939294Y-10629647D01*
X14939520Y-10627746D01*
X14939834Y-10625882D01*
X14940233Y-10624057D01*
X14940715Y-10622272D01*
X14941279Y-10620531D01*
X14941922Y-10618833D01*
X14942642Y-10617183D01*
X14943438Y-10615580D01*
X14944308Y-10614028D01*
X14945250Y-10612529D01*
X14946261Y-10611083D01*
X14947340Y-10609694D01*
X14948485Y-10608363D01*
X14949694Y-10607092D01*
X14950965Y-10605884D01*
X14952296Y-10604739D01*
X14953685Y-10603660D01*
X14955130Y-10602648D01*
X14956630Y-10601707D01*
X14958182Y-10600837D01*
X14959784Y-10600041D01*
X14961435Y-10599320D01*
X14963132Y-10598677D01*
X14964874Y-10598114D01*
X14966658Y-10597632D01*
X14968483Y-10597233D01*
X14970347Y-10596919D01*
X14972248Y-10596693D01*
X14974183Y-10596555D01*
X14976152Y-10596509D01*
X15201047Y-10596509D01*
X15201047Y-10482738D01*
X15201094Y-10480770D01*
X15201231Y-10478834D01*
X15201457Y-10476933D01*
X15201771Y-10475069D01*
X15202170Y-10473244D01*
X15202652Y-10471460D01*
X15203216Y-10469718D01*
X15203859Y-10468021D01*
X15204579Y-10466370D01*
X15205375Y-10464768D01*
X15206245Y-10463216D01*
X15207187Y-10461716D01*
X15208198Y-10460271D01*
X15209277Y-10458882D01*
X15210422Y-10457551D01*
X15211631Y-10456280D01*
X15212902Y-10455071D01*
X15214233Y-10453926D01*
X15215622Y-10452847D01*
X15217067Y-10451836D01*
X15218567Y-10450894D01*
X15220119Y-10450025D01*
X15221721Y-10449228D01*
X15223372Y-10448508D01*
X15225069Y-10447865D01*
X15226811Y-10447301D01*
X15228595Y-10446819D01*
X15230420Y-10446420D01*
X15232284Y-10446107D01*
X15234185Y-10445880D01*
X15236120Y-10445743D01*
X15238089Y-10445697D01*
X15687881Y-10445697D01*
X15689849Y-10445743D01*
X20055731Y-9167806D02*
X20057936Y-9167943D01*
X20062276Y-9168483D01*
X20066500Y-9169364D01*
X20070581Y-9170571D01*
X20074491Y-9172087D01*
X20078203Y-9173898D01*
X20081691Y-9175989D01*
X20083342Y-9177134D01*
X20084926Y-9178343D01*
X20086441Y-9179614D01*
X20087883Y-9180945D01*
X20089248Y-9182334D01*
X20090533Y-9183779D01*
X20091735Y-9185279D01*
X20092850Y-9186830D01*
X20093875Y-9188433D01*
X20094807Y-9190083D01*
X20095642Y-9191781D01*
X20096376Y-9193522D01*
X20097007Y-9195307D01*
X20097530Y-9197132D01*
X20097944Y-9198996D01*
X20098243Y-9200897D01*
X20098425Y-9202832D01*
X20098486Y-9204801D01*
X20098486Y-10181113D01*
X20098432Y-10183082D01*
X20098272Y-10185017D01*
X20098007Y-10186918D01*
X20097639Y-10188782D01*
X20097170Y-10190607D01*
X20096603Y-10192391D01*
X20095938Y-10194133D01*
X20095179Y-10195830D01*
X20094327Y-10197481D01*
X20093383Y-10199084D01*
X20092351Y-10200635D01*
X20091231Y-10202135D01*
X20090026Y-10203580D01*
X20088737Y-10204969D01*
X20087368Y-10206300D01*
X20085918Y-10207571D01*
X20084392Y-10208780D01*
X20082789Y-10209925D01*
X20081113Y-10211004D01*
X20079366Y-10212015D01*
X20077548Y-10212957D01*
X20075663Y-10213827D01*
X20073712Y-10214623D01*
X20071697Y-10215343D01*
X20069620Y-10215986D01*
X20067483Y-10216550D01*
X20065287Y-10217032D01*
X20063036Y-10217431D01*
X20060730Y-10217745D01*
X20058372Y-10217971D01*
X20055963Y-10218108D01*
X20053507Y-10218155D01*
X18913153Y-10218155D01*
X18910929Y-10218108D01*
X18908724Y-10217971D01*
X18904383Y-10217431D01*
X18900160Y-10216550D01*
X18896079Y-10215343D01*
X18892169Y-10213827D01*
X18888457Y-10212015D01*
X18884969Y-10209925D01*
X18883318Y-10208780D01*
X18881733Y-10207571D01*
X18880218Y-10206300D01*
X18878777Y-10204969D01*
X18877412Y-10203580D01*
X18876126Y-10202135D01*
X18874924Y-10200635D01*
X18873809Y-10199083D01*
X18872784Y-10197481D01*
X18871853Y-10195830D01*
X18871018Y-10194133D01*
X18870284Y-10192391D01*
X18869653Y-10190607D01*
X18869129Y-10188782D01*
X18868716Y-10186918D01*
X18868417Y-10185017D01*
X18868235Y-10183082D01*
X18868173Y-10181113D01*
X18868173Y-9204801D01*
X18868227Y-9202832D01*
X18868388Y-9200897D01*
X18868653Y-9198996D01*
X18869021Y-9197132D01*
X18869489Y-9195307D01*
X18870057Y-9193522D01*
X18870721Y-9191781D01*
X18871481Y-9190083D01*
X18872333Y-9188433D01*
X18873276Y-9186830D01*
X18874309Y-9185278D01*
X18875429Y-9183779D01*
X18876634Y-9182333D01*
X18877922Y-9180944D01*
X18879292Y-9179613D01*
X18880741Y-9178342D01*
X18882268Y-9177134D01*
X18883870Y-9175989D01*
X18885546Y-9174910D01*
X18887294Y-9173898D01*
X18889111Y-9172957D01*
X18890997Y-9172087D01*
X18892948Y-9171291D01*
X18894963Y-9170570D01*
X18897040Y-9169927D01*
X18899177Y-9169364D01*
X18901372Y-9168882D01*
X18903624Y-9168483D01*
X18905930Y-9168169D01*
X18908288Y-9167943D01*
X18910696Y-9167806D01*
X18913153Y-9167759D01*
X20053507Y-9167759D01*
X20055731Y-9167806D01*
X13909204Y-10445742D02*
X13911140Y-10445880D01*
X13913040Y-10446106D01*
X13914904Y-10446420D01*
X13916729Y-10446819D01*
X13918514Y-10447301D01*
X13920256Y-10447864D01*
X13921953Y-10448507D01*
X13923604Y-10449228D01*
X13925206Y-10450024D01*
X13926758Y-10450894D01*
X13928257Y-10451835D01*
X13929703Y-10452847D01*
X13931092Y-10453926D01*
X13932423Y-10455071D01*
X13933694Y-10456280D01*
X13934903Y-10457550D01*
X13936048Y-10458881D01*
X13937127Y-10460271D01*
X13938138Y-10461716D01*
X13939079Y-10463215D01*
X13939949Y-10464767D01*
X13940745Y-10466370D01*
X13941466Y-10468020D01*
X13942109Y-10469718D01*
X13942673Y-10471459D01*
X13943155Y-10473244D01*
X13943554Y-10475069D01*
X13943867Y-10476933D01*
X13944094Y-10478834D01*
X13944231Y-10480769D01*
X13944277Y-10482738D01*
X13944277Y-10596509D01*
X13946923Y-10593862D01*
X14526360Y-10593862D01*
X14528329Y-10593908D01*
X14530264Y-10594046D01*
X14532165Y-10594272D01*
X14534029Y-10594586D01*
X14535854Y-10594985D01*
X14537638Y-10595467D01*
X14539380Y-10596030D01*
X14541077Y-10596673D01*
X14542728Y-10597394D01*
X14544330Y-10598190D01*
X14545882Y-10599060D01*
X14547382Y-10600001D01*
X14548827Y-10601013D01*
X14550216Y-10602092D01*
X14551547Y-10603237D01*
X14552818Y-10604445D01*
X14554027Y-10605716D01*
X14555172Y-10607047D01*
X14556251Y-10608436D01*
X14557263Y-10609882D01*
X14558204Y-10611381D01*
X14559074Y-10612933D01*
X14559870Y-10614536D01*
X14560591Y-10616186D01*
X14561234Y-10617884D01*
X14561797Y-10619625D01*
X14562279Y-10621410D01*
X14562678Y-10623235D01*
X14562992Y-10625099D01*
X14563218Y-10627000D01*
X14563356Y-10628935D01*
X14563402Y-10630904D01*
X14563402Y-11607217D01*
X14563356Y-11609185D01*
X14563218Y-11611121D01*
X14562992Y-11613021D01*
X14562678Y-11614885D01*
X14562279Y-11616710D01*
X14561797Y-11618495D01*
X14561234Y-11620237D01*
X14560591Y-11621934D01*
X14559870Y-11623585D01*
X14559074Y-11625187D01*
X14558204Y-11626739D01*
X14557263Y-11628238D01*
X14556251Y-11629684D01*
X14555172Y-11631073D01*
X14554027Y-11632404D01*
X14552818Y-11633675D01*
X14551547Y-11634884D01*
X14550216Y-11636029D01*
X14548827Y-11637108D01*
X14547382Y-11638119D01*
X14545882Y-11639060D01*
X14544330Y-11639930D01*
X14542728Y-11640726D01*
X14541077Y-11641447D01*
X14539380Y-11642090D01*
X14537638Y-11642653D01*
X14535854Y-11643136D01*
X14534029Y-11643535D01*
X14532165Y-11643848D01*
X14530264Y-11644075D01*
X14528329Y-11644212D01*
X14526360Y-11644258D01*
X13550048Y-11644258D01*
X13548079Y-11644212D01*
X13546144Y-11644075D01*
X13544243Y-11643848D01*
X13542379Y-11643535D01*
X13540554Y-11643136D01*
X13538770Y-11642654D01*
X13537028Y-11642090D01*
X13535331Y-11641447D01*
X13533680Y-11640726D01*
X13532078Y-11639930D01*
X13530526Y-11639060D01*
X13529026Y-11638119D01*
X13527581Y-11637108D01*
X13526192Y-11636029D01*
X13524861Y-11634884D01*
X13523590Y-11633675D01*
X13522381Y-11632404D01*
X13521236Y-11631073D01*
X13520157Y-11629684D01*
X13519146Y-11628238D01*
X13518204Y-11626739D01*
X13517334Y-11625187D01*
X13516538Y-11623585D01*
X13515818Y-11621934D01*
X13515175Y-11620237D01*
X13514611Y-11618495D01*
X13514129Y-11616710D01*
X13513730Y-11614885D01*
X13513416Y-11613021D01*
X13513190Y-11611121D01*
X13513053Y-11609185D01*
X13513007Y-11607217D01*
X13513007Y-11570175D01*
X13457444Y-11570175D01*
X13455475Y-11570129D01*
X13453540Y-11569992D01*
X13451639Y-11569765D01*
X13449775Y-11569452D01*
X13447950Y-11569053D01*
X13446166Y-11568571D01*
X13444424Y-11568007D01*
X13442727Y-11567364D01*
X13441076Y-11566643D01*
X13439474Y-11565847D01*
X13437922Y-11564977D01*
X13436422Y-11564036D01*
X13434977Y-11563025D01*
X13433588Y-11561946D01*
X13432257Y-11560801D01*
X13430986Y-11559592D01*
X13429777Y-11558321D01*
X13428632Y-11556990D01*
X13427553Y-11555601D01*
X13426542Y-11554155D01*
X13425600Y-11552656D01*
X13424730Y-11551104D01*
X13423934Y-11549502D01*
X13423214Y-11547851D01*
X13422571Y-11546154D01*
X13422007Y-11544412D01*
X13421525Y-11542627D01*
X13421126Y-11540802D01*
X13420812Y-11538938D01*
X13420586Y-11537037D01*
X13420449Y-11535102D01*
X13420402Y-11533133D01*
X13420402Y-10482738D01*
X13420449Y-10480769D01*
X13420586Y-10478834D01*
X13420812Y-10476933D01*
X13421126Y-10475069D01*
X13421525Y-10473244D01*
X13422007Y-10471460D01*
X13422571Y-10469718D01*
X13423214Y-10468021D01*
X13423934Y-10466370D01*
X13424730Y-10464768D01*
X13425600Y-10463216D01*
X13426542Y-10461716D01*
X13427553Y-10460271D01*
X13428632Y-10458882D01*
X13429777Y-10457551D01*
X13430986Y-10456280D01*
X13432257Y-10455071D01*
X13433588Y-10453926D01*
X13434977Y-10452847D01*
X13436422Y-10451836D01*
X13437922Y-10450894D01*
X13439474Y-10450024D01*
X13441076Y-10449228D01*
X13442727Y-10448508D01*
X13444424Y-10447864D01*
X13446166Y-10447301D01*
X13447950Y-10446819D01*
X13449775Y-10446420D01*
X13451639Y-10446106D01*
X13453540Y-10445880D01*
X13455475Y-10445742D01*
X13457444Y-10445696D01*
X13907236Y-10445696D01*
X13909204Y-10445742D01*
X26312807Y-6310307D02*
X26314688Y-6310450D01*
X26316542Y-6310686D01*
X26318366Y-6311012D01*
X26320158Y-6311425D01*
X26321916Y-6311924D01*
X26323637Y-6312507D01*
X26325319Y-6313170D01*
X26326960Y-6313912D01*
X26328557Y-6314730D01*
X26330108Y-6315622D01*
X26331611Y-6316585D01*
X26333064Y-6317618D01*
X26334463Y-6318717D01*
X26335807Y-6319882D01*
X26337093Y-6321108D01*
X26338320Y-6322395D01*
X26339484Y-6323739D01*
X26340584Y-6325138D01*
X26341617Y-6326590D01*
X26342580Y-6328093D01*
X26343472Y-6329644D01*
X26344290Y-6331242D01*
X26345032Y-6332882D01*
X26345695Y-6334564D01*
X26346278Y-6336286D01*
X26346777Y-6338043D01*
X26347190Y-6339835D01*
X26347516Y-6341660D01*
X26347752Y-6343513D01*
X26347895Y-6345394D01*
X26347943Y-6347301D01*
X26347943Y-7323613D01*
X26347895Y-7325519D01*
X26347752Y-7327400D01*
X26347516Y-7329254D01*
X26347190Y-7331078D01*
X26346777Y-7332870D01*
X26346278Y-7334628D01*
X26345695Y-7336349D01*
X26345032Y-7338031D01*
X26344290Y-7339672D01*
X26343472Y-7341269D01*
X26342580Y-7342821D01*
X26341617Y-7344324D01*
X26340584Y-7345776D01*
X26339484Y-7347175D01*
X26338320Y-7348519D01*
X26337093Y-7349806D01*
X26335807Y-7351032D01*
X26334463Y-7352196D01*
X26333064Y-7353296D01*
X26331611Y-7354329D01*
X26330108Y-7355292D01*
X26328557Y-7356184D01*
X26326960Y-7357002D01*
X26325319Y-7357744D01*
X26323637Y-7358407D01*
X26321916Y-7358989D01*
X26320158Y-7359489D01*
X26318366Y-7359902D01*
X26316542Y-7360228D01*
X26314688Y-7360464D01*
X26312807Y-7360607D01*
X26310901Y-7360655D01*
X25334589Y-7360655D01*
X25332682Y-7360607D01*
X25330801Y-7360464D01*
X25328947Y-7360228D01*
X25327123Y-7359902D01*
X25325331Y-7359489D01*
X25323573Y-7358989D01*
X25321852Y-7358407D01*
X25320170Y-7357744D01*
X25318529Y-7357002D01*
X25316932Y-7356184D01*
X25315381Y-7355292D01*
X25313878Y-7354329D01*
X25312426Y-7353296D01*
X25311026Y-7352196D01*
X25309682Y-7351032D01*
X25308396Y-7349806D01*
X25307169Y-7348519D01*
X25306005Y-7347175D01*
X25304905Y-7345776D01*
X25303873Y-7344324D01*
X25302909Y-7342821D01*
X25302017Y-7341269D01*
X25301199Y-7339672D01*
X25300457Y-7338031D01*
X25299794Y-7336349D01*
X25299212Y-7334628D01*
X25298713Y-7332870D01*
X25298299Y-7331078D01*
X25297973Y-7329254D01*
X25297738Y-7327400D01*
X25297595Y-7325519D01*
X25297546Y-7323613D01*
X25297546Y-6347301D01*
X25297595Y-6345394D01*
X25297738Y-6343513D01*
X25297973Y-6341660D01*
X25298299Y-6339835D01*
X25298713Y-6338043D01*
X25299212Y-6336286D01*
X25299794Y-6334564D01*
X25300457Y-6332882D01*
X25301199Y-6331242D01*
X25302017Y-6329644D01*
X25302909Y-6328093D01*
X25303873Y-6326590D01*
X25304905Y-6325138D01*
X25306005Y-6323739D01*
X25307169Y-6322395D01*
X25308396Y-6321108D01*
X25309682Y-6319882D01*
X25311026Y-6318717D01*
X25312426Y-6317618D01*
X25313878Y-6316585D01*
X25315381Y-6315622D01*
X25316932Y-6314730D01*
X25318529Y-6313912D01*
X25320170Y-6313170D01*
X25321852Y-6312507D01*
X25323573Y-6311924D01*
X25325331Y-6311425D01*
X25327123Y-6311012D01*
X25328947Y-6310686D01*
X25330801Y-6310450D01*
X25332682Y-6310307D01*
X25334589Y-6310259D01*
X26310901Y-6310259D01*
X26312807Y-6310307D01*
X23098119Y-7739057D02*
X23100000Y-7739200D01*
X23101854Y-7739436D01*
X23103678Y-7739761D01*
X23105470Y-7740175D01*
X23107228Y-7740674D01*
X23108949Y-7741257D01*
X23110631Y-7741920D01*
X23112272Y-7742662D01*
X23113869Y-7743480D01*
X23115420Y-7744371D01*
X23116923Y-7745335D01*
X23118375Y-7746368D01*
X23119775Y-7747467D01*
X23121119Y-7748632D01*
X23122405Y-7749858D01*
X23123632Y-7751144D01*
X23124796Y-7752489D01*
X23125896Y-7753888D01*
X23126929Y-7755340D01*
X23127892Y-7756843D01*
X23128784Y-7758394D01*
X23129602Y-7759991D01*
X23130344Y-7761632D01*
X23131007Y-7763314D01*
X23131590Y-7765035D01*
X23132089Y-7766793D01*
X23132502Y-7768585D01*
X23132828Y-7770409D01*
X23133064Y-7772263D01*
X23133207Y-7774144D01*
X23133255Y-7776051D01*
X23133255Y-8752363D01*
X23133207Y-8754269D01*
X23133064Y-8756150D01*
X23132828Y-8758004D01*
X23132502Y-8759828D01*
X23132089Y-8761620D01*
X23131590Y-8763378D01*
X23131007Y-8765099D01*
X23130344Y-8766781D01*
X23129602Y-8768422D01*
X23128784Y-8770019D01*
X23127892Y-8771570D01*
X23126929Y-8773073D01*
X23125896Y-8774526D01*
X23124796Y-8775925D01*
X23123632Y-8777269D01*
X23122405Y-8778555D01*
X23121119Y-8779782D01*
X23119775Y-8780946D01*
X23118375Y-8782046D01*
X23116923Y-8783079D01*
X23115420Y-8784042D01*
X23113869Y-8784934D01*
X23112272Y-8785752D01*
X23110631Y-8786494D01*
X23108949Y-8787157D01*
X23107228Y-8787739D01*
X23105470Y-8788239D01*
X23103678Y-8788652D01*
X23101854Y-8788978D01*
X23100000Y-8789213D01*
X23098119Y-8789357D01*
X23096213Y-8789405D01*
X22119902Y-8789405D01*
X22117996Y-8789357D01*
X22116115Y-8789213D01*
X22114261Y-8788978D01*
X22112437Y-8788652D01*
X22110645Y-8788239D01*
X22108887Y-8787739D01*
X22107166Y-8787157D01*
X22105484Y-8786494D01*
X22103843Y-8785752D01*
X22102246Y-8784934D01*
X22100695Y-8784042D01*
X22099192Y-8783079D01*
X22097739Y-8782046D01*
X22096340Y-8780946D01*
X22094996Y-8779782D01*
X22093709Y-8778555D01*
X22092483Y-8777269D01*
X22091319Y-8775925D01*
X22090219Y-8774526D01*
X22089186Y-8773073D01*
X22088223Y-8771570D01*
X22087331Y-8770019D01*
X22086513Y-8768422D01*
X22085771Y-8766781D01*
X22085108Y-8765099D01*
X22084525Y-8763378D01*
X22084026Y-8761620D01*
X22083612Y-8759828D01*
X22083287Y-8758004D01*
X22083051Y-8756150D01*
X22082908Y-8754269D01*
X22082860Y-8752363D01*
X22082860Y-7776051D01*
X22082908Y-7774144D01*
X22083051Y-7772263D01*
X22083287Y-7770409D01*
X22083612Y-7768585D01*
X22084026Y-7766793D01*
X22084525Y-7765035D01*
X22085108Y-7763314D01*
X22085771Y-7761632D01*
X22086513Y-7759991D01*
X22087331Y-7758394D01*
X22088223Y-7756843D01*
X22089186Y-7755340D01*
X22090219Y-7753888D01*
X22091319Y-7752489D01*
X22092483Y-7751144D01*
X22093709Y-7749858D01*
X22094996Y-7748632D01*
X22096340Y-7747467D01*
X22097739Y-7746368D01*
X22099192Y-7745335D01*
X22100695Y-7744371D01*
X22102246Y-7743480D01*
X22103843Y-7742662D01*
X22105484Y-7741920D01*
X22107166Y-7741257D01*
X22108887Y-7740674D01*
X22110645Y-7740175D01*
X22112437Y-7739761D01*
X22114261Y-7739436D01*
X22116115Y-7739200D01*
X22117996Y-7739057D01*
X22119902Y-7739009D01*
X23096213Y-7739009D01*
X23098119Y-7739057D01*
X4701642Y-10596557D02*
X4703523Y-10596700D01*
X4705377Y-10596936D01*
X4707201Y-10597261D01*
X4708993Y-10597675D01*
X4710751Y-10598174D01*
X4712472Y-10598756D01*
X4714154Y-10599420D01*
X4715795Y-10600162D01*
X4717392Y-10600980D01*
X4718943Y-10601871D01*
X4720446Y-10602835D01*
X4721898Y-10603868D01*
X4723298Y-10604967D01*
X4724642Y-10606132D01*
X4725928Y-10607358D01*
X4727155Y-10608644D01*
X4728319Y-10609988D01*
X4729419Y-10611388D01*
X4730451Y-10612840D01*
X4731415Y-10614343D01*
X4732307Y-10615894D01*
X4733125Y-10617491D01*
X4733867Y-10619132D01*
X4734530Y-10620814D01*
X4735112Y-10622535D01*
X4735611Y-10624293D01*
X4736025Y-10626085D01*
X4736351Y-10627909D01*
X4736586Y-10629763D01*
X4736729Y-10631644D01*
X4736778Y-10633550D01*
X4736778Y-11609863D01*
X4736729Y-11611769D01*
X4736586Y-11613650D01*
X4736351Y-11615504D01*
X4736025Y-11617328D01*
X4735611Y-11619120D01*
X4735112Y-11620878D01*
X4734530Y-11622599D01*
X4733867Y-11624281D01*
X4733125Y-11625922D01*
X4732307Y-11627519D01*
X4731415Y-11629070D01*
X4730451Y-11630573D01*
X4729419Y-11632025D01*
X4728319Y-11633425D01*
X4727155Y-11634769D01*
X4725928Y-11636055D01*
X4724642Y-11637282D01*
X4723298Y-11638446D01*
X4721898Y-11639545D01*
X4720446Y-11640578D01*
X4718943Y-11641542D01*
X4717392Y-11642434D01*
X4715795Y-11643252D01*
X4714154Y-11643993D01*
X4712472Y-11644657D01*
X4710751Y-11645239D01*
X4708993Y-11645738D01*
X4707201Y-11646152D01*
X4705377Y-11646478D01*
X4703523Y-11646713D01*
X4701642Y-11646856D01*
X4699736Y-11646904D01*
X3546152Y-11646904D01*
X3544246Y-11646856D01*
X3542365Y-11646713D01*
X3540511Y-11646478D01*
X3538687Y-11646152D01*
X3536895Y-11645738D01*
X3535137Y-11645239D01*
X3533416Y-11644657D01*
X3531734Y-11643993D01*
X3530093Y-11643252D01*
X3528496Y-11642434D01*
X3526945Y-11641542D01*
X3525442Y-11640578D01*
X3523990Y-11639545D01*
X3522591Y-11638446D01*
X3521246Y-11637282D01*
X3519960Y-11636055D01*
X3518734Y-11634769D01*
X3517569Y-11633425D01*
X3516470Y-11632025D01*
X3515437Y-11630573D01*
X3514473Y-11629070D01*
X3513582Y-11627519D01*
X3512764Y-11625922D01*
X3512022Y-11624281D01*
X3511358Y-11622599D01*
X3510776Y-11620878D01*
X3510277Y-11619120D01*
X3509863Y-11617328D01*
X3509538Y-11615504D01*
X3509302Y-11613650D01*
X3509159Y-11611769D01*
X3509111Y-11609863D01*
X3509111Y-10633550D01*
X3509159Y-10631644D01*
X3509302Y-10629763D01*
X3509538Y-10627909D01*
X3509863Y-10626085D01*
X3510277Y-10624293D01*
X3510776Y-10622535D01*
X3511358Y-10620814D01*
X3512022Y-10619132D01*
X3512764Y-10617491D01*
X3513582Y-10615894D01*
X3514473Y-10614343D01*
X3515437Y-10612840D01*
X3516470Y-10611388D01*
X3517569Y-10609988D01*
X3518734Y-10608644D01*
X3519960Y-10607358D01*
X3521246Y-10606132D01*
X3522591Y-10604967D01*
X3523990Y-10603868D01*
X3525442Y-10602835D01*
X3526945Y-10601871D01*
X3528496Y-10600980D01*
X3530093Y-10600162D01*
X3531734Y-10599420D01*
X3533416Y-10598756D01*
X3535137Y-10598174D01*
X3536895Y-10597675D01*
X3538687Y-10597261D01*
X3540511Y-10596936D01*
X3542365Y-10596700D01*
X3544246Y-10596557D01*
X3546152Y-10596509D01*
X4699736Y-10596509D01*
X4701642Y-10596557D01*
D11*
X13097433Y-11903747D02*
X13105092Y-11904329D01*
X13112640Y-11905288D01*
X13120066Y-11906615D01*
X13127363Y-11908299D01*
X13134519Y-11910331D01*
X13141527Y-11912702D01*
X13148376Y-11915402D01*
X13155056Y-11918422D01*
X13161559Y-11921753D01*
X13167874Y-11925384D01*
X13173993Y-11929307D01*
X13179906Y-11933512D01*
X13185603Y-11937989D01*
X13191076Y-11942729D01*
X13196313Y-11947723D01*
X13201307Y-11952960D01*
X13206047Y-11958432D01*
X13210524Y-11964130D01*
X13214729Y-11970042D01*
X13218652Y-11976161D01*
X13222283Y-11982477D01*
X13225614Y-11988980D01*
X13228634Y-11995660D01*
X13231334Y-12002509D01*
X13233705Y-12009516D01*
X13235737Y-12016673D01*
X13237421Y-12023969D01*
X13238748Y-12031396D01*
X13239707Y-12038943D01*
X13240289Y-12046602D01*
X13240485Y-12054363D01*
X13240485Y-12070238D01*
X13240289Y-12077999D01*
X13239707Y-12085658D01*
X13238748Y-12093205D01*
X13237421Y-12100632D01*
X13235737Y-12107929D01*
X13233705Y-12115085D01*
X13231334Y-12122093D01*
X13228634Y-12128941D01*
X13225614Y-12135622D01*
X13222283Y-12142124D01*
X13218652Y-12148440D01*
X13214729Y-12154559D01*
X13210524Y-12160472D01*
X13206047Y-12166169D01*
X13201307Y-12171641D01*
X13196313Y-12176879D01*
X13191076Y-12181872D01*
X13185603Y-12186612D01*
X13179906Y-12191090D01*
X13173993Y-12195294D01*
X13167874Y-12199217D01*
X13161559Y-12202848D01*
X13155056Y-12206179D01*
X13148376Y-12209199D01*
X13141527Y-12211899D01*
X13134519Y-12214270D01*
X13127363Y-12216303D01*
X13120066Y-12217987D01*
X13112640Y-12219313D01*
X13105092Y-12220272D01*
X13097433Y-12220854D01*
X13089672Y-12221051D01*
X12978548Y-12221051D01*
X12970787Y-12220854D01*
X12963128Y-12220272D01*
X12955580Y-12219313D01*
X12948154Y-12217987D01*
X12940857Y-12216303D01*
X12933701Y-12214270D01*
X12926693Y-12211899D01*
X12919844Y-12209199D01*
X12913164Y-12206179D01*
X12906661Y-12202848D01*
X12900346Y-12199217D01*
X12894227Y-12195294D01*
X12888314Y-12191090D01*
X12882617Y-12186612D01*
X12877145Y-12181872D01*
X12871907Y-12176879D01*
X12866913Y-12171641D01*
X12862173Y-12166169D01*
X12857696Y-12160472D01*
X12853491Y-12154559D01*
X12849569Y-12148440D01*
X12845937Y-12142124D01*
X12842607Y-12135622D01*
X12839587Y-12128941D01*
X12836886Y-12122093D01*
X12834515Y-12115085D01*
X12832483Y-12107929D01*
X12830799Y-12100632D01*
X12829473Y-12093205D01*
X12828514Y-12085658D01*
X12827931Y-12077999D01*
X12827735Y-12070238D01*
X12827735Y-12054363D01*
X12827931Y-12046602D01*
X12828514Y-12038943D01*
X12829473Y-12031396D01*
X12830799Y-12023969D01*
X12832483Y-12016673D01*
X12834515Y-12009516D01*
X12836886Y-12002509D01*
X12839587Y-11995660D01*
X12842607Y-11988980D01*
X12845937Y-11982477D01*
X12849569Y-11976161D01*
X12853491Y-11970042D01*
X12857696Y-11964130D01*
X12862173Y-11958432D01*
X12866913Y-11952960D01*
X12871907Y-11947723D01*
X12877145Y-11942729D01*
X12882617Y-11937989D01*
X12888314Y-11933512D01*
X12894227Y-11929307D01*
X12900346Y-11925384D01*
X12906661Y-11921753D01*
X12913164Y-11918422D01*
X12919844Y-11915402D01*
X12926693Y-11912702D01*
X12933701Y-11910331D01*
X12940857Y-11908299D01*
X12948154Y-11906615D01*
X12955580Y-11905288D01*
X12963128Y-11904329D01*
X12970787Y-11903747D01*
X12978548Y-11903551D01*
X13089672Y-11903551D01*
X13097433Y-11903747D01*
D10*
X20240619Y-7739057D02*
X20242500Y-7739200D01*
X20244354Y-7739436D01*
X20246178Y-7739761D01*
X20247970Y-7740175D01*
X20249728Y-7740674D01*
X20251449Y-7741257D01*
X20253131Y-7741920D01*
X20254772Y-7742662D01*
X20256369Y-7743480D01*
X20257921Y-7744371D01*
X20259424Y-7745335D01*
X20260876Y-7746368D01*
X20262275Y-7747467D01*
X20263619Y-7748632D01*
X20264906Y-7749858D01*
X20266132Y-7751144D01*
X20267297Y-7752489D01*
X20268396Y-7753888D01*
X20269429Y-7755340D01*
X20270393Y-7756843D01*
X20271284Y-7758394D01*
X20272103Y-7759991D01*
X20272844Y-7761632D01*
X20273508Y-7763314D01*
X20274090Y-7765035D01*
X20274589Y-7766793D01*
X20275003Y-7768585D01*
X20275329Y-7770409D01*
X20275564Y-7772263D01*
X20275707Y-7774144D01*
X20275755Y-7776051D01*
X20275755Y-8752363D01*
X20275707Y-8754269D01*
X20275564Y-8756150D01*
X20275329Y-8758004D01*
X20275003Y-8759828D01*
X20274589Y-8761620D01*
X20274090Y-8763378D01*
X20273508Y-8765099D01*
X20272844Y-8766781D01*
X20272103Y-8768422D01*
X20271284Y-8770019D01*
X20270393Y-8771570D01*
X20269429Y-8773073D01*
X20268396Y-8774526D01*
X20267297Y-8775925D01*
X20266132Y-8777269D01*
X20264906Y-8778555D01*
X20263619Y-8779782D01*
X20262275Y-8780946D01*
X20260876Y-8782046D01*
X20259424Y-8783079D01*
X20257921Y-8784042D01*
X20256369Y-8784934D01*
X20254772Y-8785752D01*
X20253131Y-8786494D01*
X20251449Y-8787157D01*
X20249728Y-8787739D01*
X20247970Y-8788239D01*
X20246178Y-8788652D01*
X20244354Y-8788978D01*
X20242500Y-8789213D01*
X20240619Y-8789357D01*
X20238713Y-8789405D01*
X4974903Y-8789405D01*
X4972996Y-8789357D01*
X4971115Y-8789213D01*
X4969261Y-8788978D01*
X4967437Y-8788652D01*
X4965645Y-8788239D01*
X4963887Y-8787739D01*
X4962166Y-8787157D01*
X4960484Y-8786494D01*
X4958843Y-8785752D01*
X4957246Y-8784934D01*
X4955695Y-8784042D01*
X4954192Y-8783079D01*
X4952740Y-8782046D01*
X4951341Y-8780946D01*
X4949996Y-8779782D01*
X4948710Y-8778555D01*
X4947484Y-8777269D01*
X4946319Y-8775925D01*
X4945220Y-8774526D01*
X4944187Y-8773073D01*
X4943223Y-8771570D01*
X4942331Y-8770019D01*
X4941513Y-8768422D01*
X4940772Y-8766781D01*
X4940108Y-8765099D01*
X4939526Y-8763378D01*
X4939027Y-8761620D01*
X4938613Y-8759828D01*
X4938288Y-8758004D01*
X4938052Y-8756150D01*
X4937909Y-8754269D01*
X4937861Y-8752363D01*
X4937861Y-7776051D01*
X4937909Y-7774144D01*
X4938052Y-7772263D01*
X4938288Y-7770409D01*
X4938613Y-7768585D01*
X4939027Y-7766793D01*
X4939526Y-7765035D01*
X4940108Y-7763314D01*
X4940772Y-7761632D01*
X4941513Y-7759991D01*
X4942331Y-7758394D01*
X4943223Y-7756843D01*
X4944187Y-7755340D01*
X4945220Y-7753888D01*
X4946319Y-7752489D01*
X4947484Y-7751144D01*
X4948710Y-7749858D01*
X4949996Y-7748632D01*
X4951341Y-7747467D01*
X4952740Y-7746368D01*
X4954192Y-7745335D01*
X4955695Y-7744371D01*
X4957246Y-7743480D01*
X4958843Y-7742662D01*
X4960484Y-7741920D01*
X4962166Y-7741257D01*
X4963887Y-7740674D01*
X4965645Y-7740175D01*
X4967437Y-7739761D01*
X4969261Y-7739436D01*
X4971115Y-7739200D01*
X4972996Y-7739057D01*
X4974903Y-7739009D01*
X20238713Y-7739009D01*
X20240619Y-7739057D01*
D11*
X13120838Y-5583047D02*
X13135938Y-5584210D01*
X13150829Y-5586126D01*
X13165492Y-5588773D01*
X13179906Y-5592134D01*
X13194053Y-5596189D01*
X13207914Y-5600918D01*
X13221468Y-5606302D01*
X13234696Y-5612322D01*
X13247580Y-5618958D01*
X13260099Y-5626190D01*
X13272235Y-5634001D01*
X13283967Y-5642369D01*
X13295277Y-5651276D01*
X13306145Y-5660702D01*
X13316552Y-5670629D01*
X13326479Y-5681036D01*
X13335905Y-5691904D01*
X13344812Y-5703214D01*
X13353181Y-5714947D01*
X13360991Y-5727082D01*
X13368224Y-5739601D01*
X13374860Y-5752485D01*
X13380879Y-5765713D01*
X13386263Y-5779268D01*
X13390992Y-5793128D01*
X13395047Y-5807275D01*
X13398408Y-5821689D01*
X13401056Y-5836352D01*
X13402971Y-5851243D01*
X13404134Y-5866344D01*
X13404526Y-5881634D01*
X13404726Y-5889283D01*
X13405319Y-5896844D01*
X13406295Y-5904308D01*
X13407643Y-5911663D01*
X13409353Y-5918900D01*
X13411416Y-5926009D01*
X13413820Y-5932980D01*
X13416557Y-5939801D01*
X13419615Y-5946464D01*
X13422985Y-5952957D01*
X13426656Y-5959272D01*
X13430618Y-5965396D01*
X13434861Y-5971322D01*
X13439375Y-5977037D01*
X13444150Y-5982533D01*
X13449175Y-5987798D01*
X13454440Y-5992823D01*
X13459936Y-5997598D01*
X13465651Y-6002112D01*
X13471577Y-6006355D01*
X13477702Y-6010317D01*
X13484016Y-6013988D01*
X13490509Y-6017358D01*
X13497172Y-6020416D01*
X13503994Y-6023153D01*
X13510964Y-6025557D01*
X13518073Y-6027620D01*
X13525310Y-6029330D01*
X13532665Y-6030678D01*
X13540129Y-6031654D01*
X13547690Y-6032247D01*
X13555339Y-6032447D01*
X14783005Y-6032447D01*
X14785833Y-6032335D01*
X14788390Y-6032054D01*
X14792844Y-6031289D01*
X14794820Y-6030961D01*
X14796679Y-6030772D01*
X14797577Y-6030754D01*
X14798460Y-6030801D01*
X14799334Y-6030920D01*
X14800203Y-6031124D01*
X14801072Y-6031420D01*
X14801946Y-6031819D01*
X14802829Y-6032330D01*
X14803727Y-6032963D01*
X14804645Y-6033728D01*
X14805586Y-6034635D01*
X14806557Y-6035693D01*
X14807562Y-6036911D01*
X14808605Y-6038300D01*
X14809692Y-6039870D01*
X14812016Y-6043588D01*
X14814573Y-6048143D01*
X14817401Y-6053613D01*
X14820683Y-6059440D01*
X14824558Y-6065003D01*
X14828999Y-6070287D01*
X14833979Y-6075276D01*
X14839470Y-6079955D01*
X14845446Y-6084309D01*
X14851879Y-6088322D01*
X14858742Y-6091978D01*
X14866009Y-6095262D01*
X14873651Y-6098158D01*
X14881642Y-6100652D01*
X14889955Y-6102726D01*
X14898562Y-6104367D01*
X14907437Y-6105558D01*
X14916552Y-6106284D01*
X14925880Y-6106530D01*
X14930577Y-6106468D01*
X14935238Y-6106284D01*
X14939858Y-6105980D01*
X14944432Y-6105558D01*
X14948956Y-6105020D01*
X14953425Y-6104367D01*
X14957834Y-6103602D01*
X14962178Y-6102726D01*
X14966452Y-6101742D01*
X14970652Y-6100652D01*
X14974772Y-6099456D01*
X14978807Y-6098158D01*
X14982754Y-6096759D01*
X14986607Y-6095262D01*
X14990360Y-6093667D01*
X14994011Y-6091978D01*
X14997552Y-6090195D01*
X15000980Y-6088322D01*
X15004290Y-6086359D01*
X15007477Y-6084309D01*
X15010537Y-6082174D01*
X15013463Y-6079955D01*
X15016252Y-6077655D01*
X15018898Y-6075276D01*
X15021397Y-6072819D01*
X15023744Y-6070287D01*
X15025934Y-6067680D01*
X15027962Y-6065003D01*
X15029824Y-6062255D01*
X15031514Y-6059440D01*
X15033027Y-6056558D01*
X15034360Y-6053613D01*
X15035443Y-6051195D01*
X15036706Y-6048905D01*
X15038138Y-6046747D01*
X15039734Y-6044725D01*
X15041484Y-6042842D01*
X15043382Y-6041102D01*
X15045419Y-6039510D01*
X15047588Y-6038069D01*
X15049882Y-6036783D01*
X15052291Y-6035656D01*
X15054809Y-6034691D01*
X15057428Y-6033893D01*
X15060139Y-6033266D01*
X15062936Y-6032813D01*
X15065811Y-6032539D01*
X15068755Y-6032447D01*
X19886818Y-6032447D01*
X19889042Y-6032393D01*
X19891247Y-6032232D01*
X19893430Y-6031967D01*
X19895588Y-6031599D01*
X19897716Y-6031130D01*
X19899812Y-6030563D01*
X19901871Y-6029899D01*
X19903892Y-6029139D01*
X19905870Y-6028287D01*
X19907802Y-6027343D01*
X19909685Y-6026311D01*
X19911515Y-6025191D01*
X19913288Y-6023986D01*
X19915002Y-6022698D01*
X19916653Y-6021328D01*
X19918238Y-6019879D01*
X19919753Y-6018352D01*
X19921194Y-6016750D01*
X19922559Y-6015074D01*
X19923845Y-6013326D01*
X19925047Y-6011509D01*
X19926162Y-6009624D01*
X19927187Y-6007673D01*
X19928118Y-6005657D01*
X19928953Y-6003580D01*
X19929687Y-6001443D01*
X19930318Y-5999248D01*
X19930842Y-5996996D01*
X19931255Y-5994691D01*
X19931554Y-5992333D01*
X19931736Y-5989924D01*
X19931798Y-5987467D01*
X19931798Y-5818134D01*
X19931852Y-5815910D01*
X19932012Y-5813705D01*
X19932277Y-5811522D01*
X19932645Y-5809365D01*
X19933114Y-5807236D01*
X19933681Y-5805141D01*
X19934346Y-5803081D01*
X19935105Y-5801060D01*
X19935957Y-5799082D01*
X19936901Y-5797150D01*
X19937933Y-5795268D01*
X19939053Y-5793438D01*
X19940258Y-5791664D01*
X19941547Y-5789950D01*
X19942916Y-5788299D01*
X19944366Y-5786715D01*
X19945892Y-5785200D01*
X19947495Y-5783758D01*
X19949170Y-5782393D01*
X19950918Y-5781108D01*
X19952735Y-5779906D01*
X19954621Y-5778791D01*
X19956572Y-5777766D01*
X19958587Y-5776834D01*
X19960664Y-5776000D01*
X19962801Y-5775265D01*
X19964996Y-5774634D01*
X19967247Y-5774111D01*
X19969553Y-5773698D01*
X19971911Y-5773398D01*
X19974319Y-5773216D01*
X19976776Y-5773155D01*
X24704881Y-5773155D01*
X24709311Y-5773374D01*
X24713651Y-5774044D01*
X24717875Y-5775178D01*
X24721955Y-5776793D01*
X24723933Y-5777785D01*
X24725865Y-5778904D01*
X24727748Y-5780150D01*
X24729578Y-5781526D01*
X24731351Y-5783034D01*
X24733065Y-5784676D01*
X24734716Y-5786453D01*
X24736301Y-5788368D01*
X24737816Y-5790423D01*
X24739258Y-5792619D01*
X24740623Y-5794958D01*
X24741908Y-5797443D01*
X24743110Y-5800075D01*
X24744225Y-5802856D01*
X24745250Y-5805788D01*
X24746182Y-5808874D01*
X24747016Y-5812114D01*
X24747751Y-5815511D01*
X24748905Y-5822785D01*
X24749618Y-5830709D01*
X24749861Y-5839301D01*
X24749861Y-6027155D01*
X24750114Y-6036788D01*
X24750865Y-6046329D01*
X24752098Y-6055766D01*
X24753799Y-6065085D01*
X24755953Y-6074272D01*
X24758546Y-6083314D01*
X24761564Y-6092197D01*
X24764992Y-6100907D01*
X24768815Y-6109432D01*
X24773018Y-6117757D01*
X24777588Y-6125868D01*
X24782510Y-6133753D01*
X24787769Y-6141398D01*
X24793350Y-6148788D01*
X24799240Y-6155912D01*
X24805423Y-6162754D01*
X24811885Y-6169302D01*
X24818612Y-6175541D01*
X24825589Y-6181459D01*
X24832801Y-6187042D01*
X24840234Y-6192276D01*
X24847874Y-6197147D01*
X24855705Y-6201643D01*
X24863714Y-6205749D01*
X24871885Y-6209452D01*
X24880205Y-6212738D01*
X24888659Y-6215594D01*
X24897231Y-6218006D01*
X24905909Y-6219961D01*
X24914676Y-6221445D01*
X24923519Y-6222445D01*
X24932423Y-6222947D01*
X24941305Y-6222987D01*
X24950085Y-6222618D01*
X24958755Y-6221848D01*
X24967305Y-6220688D01*
X24975728Y-6219146D01*
X24984014Y-6217232D01*
X24992154Y-6214954D01*
X25000141Y-6212322D01*
X25007965Y-6209345D01*
X25015617Y-6206032D01*
X25023089Y-6202393D01*
X25030372Y-6198436D01*
X25037457Y-6194172D01*
X25044336Y-6189608D01*
X25051000Y-6184755D01*
X25057440Y-6179621D01*
X25063647Y-6174216D01*
X25069614Y-6168549D01*
X25075330Y-6162629D01*
X25080787Y-6156465D01*
X25085977Y-6150066D01*
X25090891Y-6143443D01*
X25095520Y-6136603D01*
X25099856Y-6129557D01*
X25103889Y-6122313D01*
X25107611Y-6114880D01*
X25111013Y-6107268D01*
X25114087Y-6099486D01*
X25116824Y-6091544D01*
X25119214Y-6083449D01*
X25121250Y-6075212D01*
X25122923Y-6066842D01*
X25123210Y-6065122D01*
X25123572Y-6063434D01*
X25124008Y-6061779D01*
X25124515Y-6060161D01*
X25125093Y-6058579D01*
X25125738Y-6057035D01*
X25126449Y-6055531D01*
X25127223Y-6054068D01*
X25128060Y-6052648D01*
X25128957Y-6051272D01*
X25129912Y-6049941D01*
X25130924Y-6048657D01*
X25131989Y-6047422D01*
X25133107Y-6046237D01*
X25134275Y-6045103D01*
X25135492Y-6044022D01*
X25136755Y-6042995D01*
X25138063Y-6042024D01*
X25139413Y-6041110D01*
X25140804Y-6040255D01*
X25142234Y-6039460D01*
X25143700Y-6038726D01*
X25145202Y-6038055D01*
X25146736Y-6037449D01*
X25148302Y-6036908D01*
X25149896Y-6036435D01*
X25151518Y-6036031D01*
X25153165Y-6035697D01*
X25154835Y-6035435D01*
X25156526Y-6035245D01*
X25158237Y-6035131D01*
X25159965Y-6035092D01*
X25789674Y-6035092D01*
X25792502Y-6034981D01*
X25795059Y-6034700D01*
X25799513Y-6033935D01*
X25801488Y-6033607D01*
X25803347Y-6033418D01*
X25804245Y-6033400D01*
X25805129Y-6033446D01*
X25806003Y-6033566D01*
X25806872Y-6033769D01*
X25807741Y-6034066D01*
X25808615Y-6034464D01*
X25809498Y-6034976D01*
X25810396Y-6035609D01*
X25811314Y-6036374D01*
X25812255Y-6037281D01*
X25813226Y-6038339D01*
X25814230Y-6039557D01*
X25815274Y-6040946D01*
X25816361Y-6042516D01*
X25818685Y-6046234D01*
X25821241Y-6050789D01*
X25824069Y-6056259D01*
X25827351Y-6062085D01*
X25831226Y-6067648D01*
X25835667Y-6072932D01*
X25840647Y-6077922D01*
X25846138Y-6082601D01*
X25852114Y-6086955D01*
X25858547Y-6090967D01*
X25865411Y-6094624D01*
X25872677Y-6097908D01*
X25880319Y-6100804D01*
X25888311Y-6103297D01*
X25896623Y-6105372D01*
X25905231Y-6107013D01*
X25914105Y-6108204D01*
X25923220Y-6108930D01*
X25932548Y-6109176D01*
X25937245Y-6109114D01*
X25941906Y-6108930D01*
X25946526Y-6108626D01*
X25951100Y-6108204D01*
X25955624Y-6107666D01*
X25960093Y-6107013D01*
X25964502Y-6106248D01*
X25968845Y-6105372D01*
X25973119Y-6104388D01*
X25977319Y-6103297D01*
X25981439Y-6102102D01*
X25985475Y-6100804D01*
X25989421Y-6099405D01*
X25993274Y-6097908D01*
X25997028Y-6096313D01*
X26000678Y-6094624D01*
X26004219Y-6092841D01*
X26007647Y-6090967D01*
X26010957Y-6089005D01*
X26014144Y-6086955D01*
X26017203Y-6084820D01*
X26020130Y-6082601D01*
X26022918Y-6080301D01*
X26025565Y-6077922D01*
X26028064Y-6075465D01*
X26030411Y-6072932D01*
X26032601Y-6070326D01*
X26034629Y-6067648D01*
X26036490Y-6064901D01*
X26038180Y-6062085D01*
X26039694Y-6059204D01*
X26041026Y-6056259D01*
X26042110Y-6053841D01*
X26043372Y-6051551D01*
X26044805Y-6049393D01*
X26046401Y-6047371D01*
X26048151Y-6045488D01*
X26050049Y-6043748D01*
X26052086Y-6042156D01*
X26054256Y-6040715D01*
X26056549Y-6039429D01*
X26058958Y-6038301D01*
X26061476Y-6037337D01*
X26064095Y-6036539D01*
X26066807Y-6035912D01*
X26069604Y-6035459D01*
X26072478Y-6035185D01*
X26075423Y-6035092D01*
X26160089Y-6035092D01*
X26162058Y-6035139D01*
X26163994Y-6035276D01*
X26165894Y-6035502D01*
X26167758Y-6035816D01*
X26169584Y-6036215D01*
X26171368Y-6036697D01*
X26173110Y-6037260D01*
X26174807Y-6037904D01*
X26176458Y-6038624D01*
X26178060Y-6039420D01*
X26179612Y-6040290D01*
X26181112Y-6041232D01*
X26182557Y-6042243D01*
X26183946Y-6043322D01*
X26185277Y-6044467D01*
X26186548Y-6045676D01*
X26187757Y-6046947D01*
X26188902Y-6048278D01*
X26189981Y-6049667D01*
X26190992Y-6051112D01*
X26191934Y-6052612D01*
X26192804Y-6054164D01*
X26193600Y-6055766D01*
X26194320Y-6057417D01*
X26194963Y-6059114D01*
X26195527Y-6060856D01*
X26196009Y-6062640D01*
X26196408Y-6064465D01*
X26196721Y-6066329D01*
X26196948Y-6068230D01*
X26197085Y-6070165D01*
X26197131Y-6072134D01*
X26197285Y-6078047D01*
X26197740Y-6083876D01*
X26198490Y-6089614D01*
X26199524Y-6095254D01*
X26200835Y-6100789D01*
X26202416Y-6106213D01*
X26204257Y-6111519D01*
X26206350Y-6116700D01*
X26208688Y-6121749D01*
X26211262Y-6126659D01*
X26214063Y-6131424D01*
X26217084Y-6136037D01*
X26220316Y-6140491D01*
X26223751Y-6144779D01*
X26227380Y-6148895D01*
X26231197Y-6152832D01*
X26235191Y-6156582D01*
X26239356Y-6160140D01*
X26243682Y-6163498D01*
X26248162Y-6166650D01*
X26252787Y-6169589D01*
X26257550Y-6172307D01*
X26262441Y-6174799D01*
X26267453Y-6177058D01*
X26272577Y-6179076D01*
X26277806Y-6180847D01*
X26283130Y-6182364D01*
X26288542Y-6183621D01*
X26294034Y-6184610D01*
X26299596Y-6185325D01*
X26305222Y-6185759D01*
X26310902Y-6185905D01*
X26572839Y-6185905D01*
X26576544Y-6185997D01*
X26580212Y-6186272D01*
X26583838Y-6186724D01*
X26587417Y-6187352D01*
X26590944Y-6188149D01*
X26594414Y-6189114D01*
X26597820Y-6190241D01*
X26601158Y-6191527D01*
X26604423Y-6192968D01*
X26607608Y-6194561D01*
X26610710Y-6196300D01*
X26613721Y-6198183D01*
X26616638Y-6200206D01*
X26619454Y-6202364D01*
X26622165Y-6204654D01*
X26624765Y-6207071D01*
X26627248Y-6209613D01*
X26629610Y-6212275D01*
X26631845Y-6215054D01*
X26633948Y-6217944D01*
X26635913Y-6220943D01*
X26637735Y-6224047D01*
X26639409Y-6227252D01*
X26640929Y-6230553D01*
X26642291Y-6233948D01*
X26643488Y-6237431D01*
X26644516Y-6241000D01*
X26645368Y-6244651D01*
X26646041Y-6248378D01*
X26646528Y-6252180D01*
X26646824Y-6256051D01*
X26646924Y-6259988D01*
X26646924Y-11847988D01*
X26646831Y-11851692D01*
X26646557Y-11855360D01*
X26646104Y-11858986D01*
X26645477Y-11862566D01*
X26644679Y-11866093D01*
X26643715Y-11869562D01*
X26642587Y-11872968D01*
X26641301Y-11876307D01*
X26639860Y-11879571D01*
X26638268Y-11882756D01*
X26636528Y-11885858D01*
X26634645Y-11888869D01*
X26632623Y-11891786D01*
X26630465Y-11894602D01*
X26628175Y-11897313D01*
X26625757Y-11899912D01*
X26623215Y-11902396D01*
X26620553Y-11904758D01*
X26617775Y-11906993D01*
X26614884Y-11909095D01*
X26611885Y-11911060D01*
X26608781Y-11912883D01*
X26605576Y-11914557D01*
X26602275Y-11916077D01*
X26598880Y-11917438D01*
X26595396Y-11918636D01*
X26591827Y-11919663D01*
X26588177Y-11920516D01*
X26584449Y-11921188D01*
X26580648Y-11921675D01*
X26576776Y-11921972D01*
X26572839Y-11922071D01*
X26078068Y-11922071D01*
X26075241Y-11922182D01*
X26072684Y-11922464D01*
X26068230Y-11923229D01*
X26066255Y-11923557D01*
X26064395Y-11923746D01*
X26063497Y-11923763D01*
X26062614Y-11923717D01*
X26061740Y-11923597D01*
X26060871Y-11923394D01*
X26060002Y-11923098D01*
X26059128Y-11922699D01*
X26058245Y-11922188D01*
X26057347Y-11921554D01*
X26056429Y-11920789D01*
X26055488Y-11919883D01*
X26054517Y-11918825D01*
X26053512Y-11917606D01*
X26052469Y-11916217D01*
X26051382Y-11914648D01*
X26049058Y-11910930D01*
X26046501Y-11906374D01*
X26043674Y-11900904D01*
X26040391Y-11895078D01*
X26036516Y-11889515D01*
X26032075Y-11884231D01*
X26027096Y-11879242D01*
X26021604Y-11874562D01*
X26015628Y-11870209D01*
X26009195Y-11866196D01*
X26002332Y-11862540D01*
X25995066Y-11859256D01*
X25987423Y-11856359D01*
X25979432Y-11853866D01*
X25971119Y-11851791D01*
X25962512Y-11850150D01*
X25953637Y-11848959D01*
X25944522Y-11848233D01*
X25935194Y-11847988D01*
X25930498Y-11848049D01*
X25925837Y-11848233D01*
X25921218Y-11848537D01*
X25916643Y-11848959D01*
X25912119Y-11849498D01*
X25907650Y-11850150D01*
X25903242Y-11850916D01*
X25898898Y-11851791D01*
X25894624Y-11852775D01*
X25890425Y-11853866D01*
X25886305Y-11855061D01*
X25882269Y-11856359D01*
X25878322Y-11857758D01*
X25874470Y-11859256D01*
X25870716Y-11860850D01*
X25867066Y-11862540D01*
X25863524Y-11864322D01*
X25860096Y-11866196D01*
X25856786Y-11868159D01*
X25853599Y-11870209D01*
X25850540Y-11872344D01*
X25847613Y-11874562D01*
X25844825Y-11876862D01*
X25842178Y-11879242D01*
X25839679Y-11881699D01*
X25837332Y-11884231D01*
X25835142Y-11886837D01*
X25833114Y-11889515D01*
X25831253Y-11892263D01*
X25829563Y-11895078D01*
X25828049Y-11897959D01*
X25826717Y-11900904D01*
X25825633Y-11903322D01*
X25824370Y-11905612D01*
X25822938Y-11907770D01*
X25821342Y-11909793D01*
X25819592Y-11911676D01*
X25817694Y-11913415D01*
X25815656Y-11915008D01*
X25813487Y-11916449D01*
X25811194Y-11917735D01*
X25808785Y-11918862D01*
X25806267Y-11919827D01*
X25803648Y-11920624D01*
X25800936Y-11921252D01*
X25798139Y-11921705D01*
X25795264Y-11921979D01*
X25792320Y-11922071D01*
X25464236Y-11922071D01*
X25462268Y-11922118D01*
X25460332Y-11922255D01*
X25458431Y-11922481D01*
X25456567Y-11922795D01*
X25454742Y-11923194D01*
X25452958Y-11923676D01*
X25451216Y-11924239D01*
X25449519Y-11924883D01*
X25447868Y-11925603D01*
X25446266Y-11926399D01*
X25444714Y-11927269D01*
X25443214Y-11928210D01*
X25441769Y-11929222D01*
X25440380Y-11930301D01*
X25439049Y-11931446D01*
X25437778Y-11932655D01*
X25436569Y-11933925D01*
X25435424Y-11935256D01*
X25434345Y-11936646D01*
X25433333Y-11938091D01*
X25432392Y-11939590D01*
X25431522Y-11941142D01*
X25430726Y-11942745D01*
X25430005Y-11944395D01*
X25429362Y-11946093D01*
X25428799Y-11947834D01*
X25428317Y-11949619D01*
X25427918Y-11951444D01*
X25427604Y-11953308D01*
X25427378Y-11955209D01*
X25427240Y-11957144D01*
X25427194Y-11959113D01*
X25427194Y-12146967D01*
X25427148Y-12148935D01*
X25427011Y-12150871D01*
X25426784Y-12152772D01*
X25426471Y-12154636D01*
X25426072Y-12156461D01*
X25425590Y-12158245D01*
X25425026Y-12159987D01*
X25424383Y-12161684D01*
X25423662Y-12163335D01*
X25422866Y-12164937D01*
X25421996Y-12166489D01*
X25421055Y-12167989D01*
X25420044Y-12169434D01*
X25418965Y-12170823D01*
X25417820Y-12172154D01*
X25416611Y-12173425D01*
X25415340Y-12174634D01*
X25414009Y-12175779D01*
X25412620Y-12176858D01*
X25411174Y-12177869D01*
X25409675Y-12178811D01*
X25408123Y-12179680D01*
X25406520Y-12180477D01*
X25404870Y-12181197D01*
X25403172Y-12181840D01*
X25401430Y-12182404D01*
X25399646Y-12182886D01*
X25397821Y-12183285D01*
X25395957Y-12183598D01*
X25394056Y-12183825D01*
X25392120Y-12183962D01*
X25390152Y-12184008D01*
X20627652Y-12184008D01*
X20625683Y-12183962D01*
X20623748Y-12183825D01*
X20621847Y-12183599D01*
X20619983Y-12183285D01*
X20618158Y-12182886D01*
X20616373Y-12182404D01*
X20614632Y-12181840D01*
X20612934Y-12181197D01*
X20611284Y-12180477D01*
X20609681Y-12179681D01*
X20608129Y-12178811D01*
X20606630Y-12177869D01*
X20605184Y-12176858D01*
X20603795Y-12175779D01*
X20602464Y-12174634D01*
X20601193Y-12173425D01*
X20599984Y-12172154D01*
X20598839Y-12170823D01*
X20597760Y-12169434D01*
X20596749Y-12167989D01*
X20595808Y-12166489D01*
X20594938Y-12164937D01*
X20594142Y-12163335D01*
X20593421Y-12161684D01*
X20592778Y-12159987D01*
X20592214Y-12158245D01*
X20591732Y-12156461D01*
X20591333Y-12154636D01*
X20591020Y-12152772D01*
X20590793Y-12150871D01*
X20590656Y-12148935D01*
X20590610Y-12146967D01*
X20590610Y-11959113D01*
X20590564Y-11957144D01*
X20590426Y-11955209D01*
X20590200Y-11953308D01*
X20589886Y-11951444D01*
X20589487Y-11949619D01*
X20589005Y-11947835D01*
X20588442Y-11946093D01*
X20587799Y-11944395D01*
X20587078Y-11942745D01*
X20586282Y-11941142D01*
X20585412Y-11939591D01*
X20584471Y-11938091D01*
X20583459Y-11936646D01*
X20582380Y-11935257D01*
X20581235Y-11933926D01*
X20580026Y-11932655D01*
X20578755Y-11931446D01*
X20577424Y-11930301D01*
X20576035Y-11929222D01*
X20574590Y-11928211D01*
X20573090Y-11927269D01*
X20571538Y-11926399D01*
X20569936Y-11925603D01*
X20568285Y-11924883D01*
X20566588Y-11924240D01*
X20564846Y-11923676D01*
X20563062Y-11923194D01*
X20561236Y-11922795D01*
X20559372Y-11922481D01*
X20557472Y-11922255D01*
X20555536Y-11922118D01*
X20553568Y-11922071D01*
X15071401Y-11922071D01*
X15068573Y-11922182D01*
X15066017Y-11922464D01*
X15061562Y-11923229D01*
X15059587Y-11923557D01*
X15057728Y-11923746D01*
X15056830Y-11923763D01*
X15055946Y-11923717D01*
X15055073Y-11923597D01*
X15054204Y-11923394D01*
X15053335Y-11923098D01*
X15052461Y-11922699D01*
X15051577Y-11922188D01*
X15050679Y-11921554D01*
X15049762Y-11920789D01*
X15048820Y-11919883D01*
X15047850Y-11918825D01*
X15046845Y-11917606D01*
X15045802Y-11916217D01*
X15044715Y-11914648D01*
X15042390Y-11910930D01*
X15039834Y-11906374D01*
X15037006Y-11900904D01*
X15033723Y-11895078D01*
X15029848Y-11889515D01*
X15025407Y-11884231D01*
X15020428Y-11879242D01*
X15014936Y-11874562D01*
X15008961Y-11870209D01*
X15002528Y-11866196D01*
X14995664Y-11862540D01*
X14988398Y-11859256D01*
X14980756Y-11856359D01*
X14972764Y-11853866D01*
X14964452Y-11851791D01*
X14955844Y-11850150D01*
X14946970Y-11848959D01*
X14937854Y-11848233D01*
X14928526Y-11847988D01*
X14923830Y-11848049D01*
X14919169Y-11848233D01*
X14914549Y-11848537D01*
X14909974Y-11848959D01*
X14905450Y-11849498D01*
X14900981Y-11850150D01*
X14896573Y-11850916D01*
X14892229Y-11851791D01*
X14887955Y-11852775D01*
X14883755Y-11853866D01*
X14879635Y-11855061D01*
X14875599Y-11856359D01*
X14871653Y-11857758D01*
X14867800Y-11859256D01*
X14864046Y-11860850D01*
X14860396Y-11862540D01*
X14856854Y-11864322D01*
X14853426Y-11866196D01*
X14850116Y-11868159D01*
X14846929Y-11870209D01*
X14843870Y-11872344D01*
X14840944Y-11874562D01*
X14838155Y-11876862D01*
X14835509Y-11879242D01*
X14833010Y-11881699D01*
X14830663Y-11884231D01*
X14828473Y-11886837D01*
X14826445Y-11889515D01*
X14824583Y-11892263D01*
X14822893Y-11895078D01*
X14821379Y-11897959D01*
X14820047Y-11900904D01*
X14818963Y-11903322D01*
X14817701Y-11905612D01*
X14816268Y-11907770D01*
X14814673Y-11909793D01*
X14812922Y-11911676D01*
X14811025Y-11913415D01*
X14808987Y-11915008D01*
X14806818Y-11916449D01*
X14804525Y-11917735D01*
X14802116Y-11918862D01*
X14799598Y-11919827D01*
X14796979Y-11920624D01*
X14794267Y-11921252D01*
X14791470Y-11921705D01*
X14788596Y-11921979D01*
X14785651Y-11922071D01*
X14788297Y-11919425D01*
X13560631Y-11919425D01*
X13552982Y-11919625D01*
X13545420Y-11920217D01*
X13537957Y-11921193D01*
X13530602Y-11922541D01*
X13523364Y-11924251D01*
X13516256Y-11926314D01*
X13509285Y-11928718D01*
X13502464Y-11931455D01*
X13495801Y-11934513D01*
X13489308Y-11937883D01*
X13482993Y-11941554D01*
X13476869Y-11945516D01*
X13470943Y-11949759D01*
X13465228Y-11954273D01*
X13459732Y-11959048D01*
X13454467Y-11964073D01*
X13449442Y-11969338D01*
X13444667Y-11974834D01*
X13440153Y-11980549D01*
X13435910Y-11986475D01*
X13431947Y-11992600D01*
X13428276Y-11998914D01*
X13424907Y-12005407D01*
X13421849Y-12012070D01*
X13419112Y-12018892D01*
X13416707Y-12025862D01*
X13414645Y-12032971D01*
X13412934Y-12040208D01*
X13411586Y-12047563D01*
X13410611Y-12055027D01*
X13410018Y-12062588D01*
X13409818Y-12070237D01*
X13409426Y-12085528D01*
X13408263Y-12100628D01*
X13406348Y-12115519D01*
X13403700Y-12130182D01*
X13400339Y-12144597D01*
X13396284Y-12158744D01*
X13391555Y-12172604D01*
X13386171Y-12186158D01*
X13380152Y-12199386D01*
X13373516Y-12212270D01*
X13366283Y-12224789D01*
X13358473Y-12236925D01*
X13350104Y-12248657D01*
X13341197Y-12259967D01*
X13331771Y-12270836D01*
X13321845Y-12281243D01*
X13311438Y-12291169D01*
X13300570Y-12300595D01*
X13289260Y-12309502D01*
X13277527Y-12317871D01*
X13265392Y-12325681D01*
X13252872Y-12332914D01*
X13239989Y-12339550D01*
X13226760Y-12345569D01*
X13213206Y-12350953D01*
X13199346Y-12355682D01*
X13185199Y-12359737D01*
X13170784Y-12363098D01*
X13156122Y-12365746D01*
X13141231Y-12367661D01*
X13126130Y-12368824D01*
X13110840Y-12369216D01*
X12960026Y-12369216D01*
X12944736Y-12368824D01*
X12929636Y-12367661D01*
X12914744Y-12365746D01*
X12900082Y-12363098D01*
X12885668Y-12359737D01*
X12871521Y-12355682D01*
X12857660Y-12350953D01*
X12844106Y-12345569D01*
X12830878Y-12339550D01*
X12817994Y-12332914D01*
X12805475Y-12325681D01*
X12793339Y-12317871D01*
X12781607Y-12309502D01*
X12770297Y-12300595D01*
X12759429Y-12291169D01*
X12749022Y-12281243D01*
X12739095Y-12270836D01*
X12729669Y-12259967D01*
X12720762Y-12248657D01*
X12712394Y-12236925D01*
X12704583Y-12224789D01*
X12697351Y-12212270D01*
X12690715Y-12199386D01*
X12684695Y-12186158D01*
X12679311Y-12172604D01*
X12674582Y-12158744D01*
X12670527Y-12144597D01*
X12667167Y-12130182D01*
X12664519Y-12115519D01*
X12662604Y-12100628D01*
X12661440Y-12085528D01*
X12661048Y-12070237D01*
X12660848Y-12062588D01*
X12660255Y-12055027D01*
X12659280Y-12047564D01*
X12657932Y-12040208D01*
X12656222Y-12032971D01*
X12654159Y-12025862D01*
X12651754Y-12018892D01*
X12649018Y-12012070D01*
X12645960Y-12005408D01*
X12642590Y-11998914D01*
X12638919Y-11992600D01*
X12634957Y-11986475D01*
X12630713Y-11980550D01*
X12626199Y-11974834D01*
X12621425Y-11969339D01*
X12616399Y-11964074D01*
X12611134Y-11959048D01*
X12605638Y-11954274D01*
X12599923Y-11949760D01*
X12593998Y-11945517D01*
X12587873Y-11941554D01*
X12581558Y-11937883D01*
X12575065Y-11934514D01*
X12568402Y-11931455D01*
X12561581Y-11928719D01*
X12554610Y-11926314D01*
X12547501Y-11924252D01*
X12540264Y-11922541D01*
X12532909Y-11921193D01*
X12525445Y-11920218D01*
X12517884Y-11919625D01*
X12510235Y-11919425D01*
X9359048Y-11919425D01*
X9357080Y-11919471D01*
X9355144Y-11919609D01*
X9353243Y-11919835D01*
X9351379Y-11920149D01*
X9349554Y-11920547D01*
X9347770Y-11921030D01*
X9346028Y-11921593D01*
X9344331Y-11922236D01*
X9342680Y-11922957D01*
X9341078Y-11923753D01*
X9339526Y-11924623D01*
X9338026Y-11925564D01*
X9336581Y-11926575D01*
X9335192Y-11927655D01*
X9333861Y-11928799D01*
X9332590Y-11930008D01*
X9331381Y-11931279D01*
X9330236Y-11932610D01*
X9329157Y-11933999D01*
X9328146Y-11935445D01*
X9327204Y-11936944D01*
X9326334Y-11938496D01*
X9325538Y-11940098D01*
X9324818Y-11941749D01*
X9324175Y-11943446D01*
X9323611Y-11945188D01*
X9323129Y-11946973D01*
X9322730Y-11948798D01*
X9322417Y-11950662D01*
X9322190Y-11952562D01*
X9322053Y-11954498D01*
X9322007Y-11956467D01*
X9322007Y-12144321D01*
X9321960Y-12146290D01*
X9321823Y-12148225D01*
X9321597Y-12150126D01*
X9321283Y-12151990D01*
X9320884Y-12153815D01*
X9320402Y-12155599D01*
X9319839Y-12157341D01*
X9319195Y-12159038D01*
X9318475Y-12160689D01*
X9317679Y-12162291D01*
X9316809Y-12163843D01*
X9315868Y-12165343D01*
X9314856Y-12166788D01*
X9313777Y-12168177D01*
X9312632Y-12169508D01*
X9311423Y-12170779D01*
X9310152Y-12171988D01*
X9308821Y-12173133D01*
X9307432Y-12174212D01*
X9305987Y-12175223D01*
X9304487Y-12176165D01*
X9302936Y-12177035D01*
X9301333Y-12177831D01*
X9299683Y-12178551D01*
X9297985Y-12179194D01*
X9296244Y-12179758D01*
X9294459Y-12180240D01*
X9292634Y-12180639D01*
X9290770Y-12180953D01*
X9288869Y-12181179D01*
X9286934Y-12181316D01*
X9284965Y-12181362D01*
X4522465Y-12181362D01*
X4520497Y-12181316D01*
X4518561Y-12181179D01*
X4516660Y-12180953D01*
X4514796Y-12180639D01*
X4512971Y-12180240D01*
X4511187Y-12179758D01*
X4509445Y-12179194D01*
X4507748Y-12178551D01*
X4506097Y-12177831D01*
X4504495Y-12177035D01*
X4502943Y-12176165D01*
X4501443Y-12175223D01*
X4499998Y-12174212D01*
X4498609Y-12173133D01*
X4497278Y-12171988D01*
X4496007Y-12170779D01*
X4494798Y-12169508D01*
X4493653Y-12168177D01*
X4492574Y-12166788D01*
X4491563Y-12165343D01*
X4490621Y-12163843D01*
X4489751Y-12162292D01*
X4488955Y-12160689D01*
X4488235Y-12159039D01*
X4487592Y-12157341D01*
X4487028Y-12155599D01*
X4486546Y-12153815D01*
X4486147Y-12151990D01*
X4485833Y-12150126D01*
X4485607Y-12148225D01*
X4485470Y-12146290D01*
X4485423Y-12144321D01*
X4485423Y-11956467D01*
X4485377Y-11954498D01*
X4485240Y-11952563D01*
X4485014Y-11950662D01*
X4484700Y-11948798D01*
X4484301Y-11946973D01*
X4483819Y-11945188D01*
X4483255Y-11943447D01*
X4482612Y-11941749D01*
X4481892Y-11940099D01*
X4481096Y-11938496D01*
X4480226Y-11936944D01*
X4479284Y-11935445D01*
X4478273Y-11934000D01*
X4477194Y-11932610D01*
X4476049Y-11931279D01*
X4474840Y-11930009D01*
X4473569Y-11928800D01*
X4472238Y-11927655D01*
X4470849Y-11926576D01*
X4469404Y-11925564D01*
X4467904Y-11924623D01*
X4466352Y-11923753D01*
X4464750Y-11922957D01*
X4463099Y-11922236D01*
X4461402Y-11921593D01*
X4459660Y-11921030D01*
X4457876Y-11920548D01*
X4456051Y-11920149D01*
X4454187Y-11919835D01*
X4452286Y-11919609D01*
X4450350Y-11919471D01*
X4448382Y-11919425D01*
X4064736Y-11919425D01*
X4061908Y-11919536D01*
X4059351Y-11919818D01*
X4054897Y-11920583D01*
X4052921Y-11920911D01*
X4051062Y-11921099D01*
X4050164Y-11921117D01*
X4049281Y-11921071D01*
X4048407Y-11920951D01*
X4047538Y-11920748D01*
X4046669Y-11920452D01*
X4045795Y-11920053D01*
X4044912Y-11919542D01*
X4044014Y-11918908D01*
X4043096Y-11918143D01*
X4042154Y-11917237D01*
X4041184Y-11916179D01*
X4040179Y-11914960D01*
X4039136Y-11913571D01*
X4038049Y-11912002D01*
X4035725Y-11908284D01*
X4033168Y-11903728D01*
X4030340Y-11898259D01*
X4027058Y-11892432D01*
X4023183Y-11886869D01*
X4018742Y-11881585D01*
X4013762Y-11876596D01*
X4008271Y-11871916D01*
X4002295Y-11867563D01*
X3995862Y-11863550D01*
X3988999Y-11859894D01*
X3981732Y-11856610D01*
X3974090Y-11853713D01*
X3966099Y-11851220D01*
X3957786Y-11849145D01*
X3949179Y-11847504D01*
X3940304Y-11846313D01*
X3931189Y-11845587D01*
X3921861Y-11845342D01*
X3917164Y-11845404D01*
X3912504Y-11845587D01*
X3907883Y-11845891D01*
X3903309Y-11846313D01*
X3898785Y-11846852D01*
X3894316Y-11847504D01*
X3889907Y-11848270D01*
X3885563Y-11849145D01*
X3881289Y-11850129D01*
X3877090Y-11851220D01*
X3872970Y-11852415D01*
X3868934Y-11853713D01*
X3864987Y-11855112D01*
X3861135Y-11856610D01*
X3857381Y-11858204D01*
X3853731Y-11859894D01*
X3850189Y-11861676D01*
X3846761Y-11863550D01*
X3843451Y-11865513D01*
X3840264Y-11867563D01*
X3837205Y-11869698D01*
X3834278Y-11871916D01*
X3831490Y-11874216D01*
X3828843Y-11876596D01*
X3826344Y-11879053D01*
X3823997Y-11881585D01*
X3821807Y-11884191D01*
X3819779Y-11886869D01*
X3817918Y-11889617D01*
X3816228Y-11892432D01*
X3814714Y-11895313D01*
X3813382Y-11898259D01*
X3812298Y-11900676D01*
X3811036Y-11902966D01*
X3809603Y-11905124D01*
X3808007Y-11907147D01*
X3806257Y-11909030D01*
X3804359Y-11910769D01*
X3802322Y-11912362D01*
X3800152Y-11913803D01*
X3797859Y-11915089D01*
X3795450Y-11916216D01*
X3792932Y-11917180D01*
X3790313Y-11917978D01*
X3787602Y-11918605D01*
X3784805Y-11919058D01*
X3781930Y-11919333D01*
X3778986Y-11919425D01*
X3284215Y-11919425D01*
X3280511Y-11919333D01*
X3276843Y-11919058D01*
X3273216Y-11918605D01*
X3269637Y-11917978D01*
X3266110Y-11917180D01*
X3262641Y-11916216D01*
X3259234Y-11915089D01*
X3255896Y-11913803D01*
X3252632Y-11912362D01*
X3249446Y-11910769D01*
X3246345Y-11909030D01*
X3243334Y-11907147D01*
X3240417Y-11905124D01*
X3237601Y-11902966D01*
X3234890Y-11900676D01*
X3232291Y-11898259D01*
X3229807Y-11895717D01*
X3227445Y-11893055D01*
X3225210Y-11890277D01*
X3223108Y-11887386D01*
X3221143Y-11884387D01*
X3219320Y-11881283D01*
X3217646Y-11878078D01*
X3216126Y-11874777D01*
X3214765Y-11871382D01*
X3213567Y-11867899D01*
X3212540Y-11864330D01*
X3211687Y-11860679D01*
X3211015Y-11856952D01*
X3210528Y-11853150D01*
X3210232Y-11849279D01*
X3210132Y-11845342D01*
X3210132Y-6106530D01*
X3210224Y-6102826D01*
X3210499Y-6099158D01*
X3210951Y-6095531D01*
X3211579Y-6091952D01*
X3212376Y-6088425D01*
X3213341Y-6084956D01*
X3214468Y-6081549D01*
X3215754Y-6078211D01*
X3217195Y-6074947D01*
X3218787Y-6071761D01*
X3220527Y-6068660D01*
X3222410Y-6065649D01*
X3224432Y-6062732D01*
X3226591Y-6059916D01*
X3228880Y-6057205D01*
X3231298Y-6054605D01*
X3233840Y-6052122D01*
X3236502Y-6049760D01*
X3239280Y-6047525D01*
X3242171Y-6045422D01*
X3245170Y-6043457D01*
X3248274Y-6041635D01*
X3251479Y-6039961D01*
X3254780Y-6038441D01*
X3258175Y-6037080D01*
X3261658Y-6035882D01*
X3265227Y-6034855D01*
X3268877Y-6034002D01*
X3272605Y-6033329D01*
X3276407Y-6032843D01*
X3280278Y-6032546D01*
X3284215Y-6032447D01*
X3659923Y-6032447D01*
X3661892Y-6032493D01*
X3663827Y-6032630D01*
X3665728Y-6032856D01*
X3667592Y-6033170D01*
X3669417Y-6033569D01*
X3671202Y-6034051D01*
X3672944Y-6034615D01*
X3674641Y-6035258D01*
X3676292Y-6035978D01*
X3677894Y-6036774D01*
X3679446Y-6037644D01*
X3680945Y-6038586D01*
X3682391Y-6039597D01*
X3683780Y-6040676D01*
X3685111Y-6041821D01*
X3686382Y-6043030D01*
X3687591Y-6044301D01*
X3688736Y-6045632D01*
X3689815Y-6047021D01*
X3690826Y-6048466D01*
X3691767Y-6049966D01*
X3692637Y-6051518D01*
X3693433Y-6053120D01*
X3694154Y-6054771D01*
X3694797Y-6056468D01*
X3695360Y-6058210D01*
X3695843Y-6059994D01*
X3696241Y-6061819D01*
X3696555Y-6063683D01*
X3696782Y-6065584D01*
X3696919Y-6067520D01*
X3697011Y-6071457D01*
X3697148Y-6073392D01*
X3697375Y-6075293D01*
X3697688Y-6077157D01*
X3698087Y-6078982D01*
X3698570Y-6080767D01*
X3699133Y-6082508D01*
X3699776Y-6084206D01*
X3700497Y-6085856D01*
X3701293Y-6087459D01*
X3702163Y-6089011D01*
X3703104Y-6090510D01*
X3704115Y-6091955D01*
X3705194Y-6093345D01*
X3706339Y-6094676D01*
X3707548Y-6095947D01*
X3708819Y-6097155D01*
X3710150Y-6098300D01*
X3711539Y-6099379D01*
X3712985Y-6100391D01*
X3714484Y-6101332D01*
X3716036Y-6102202D01*
X3717638Y-6102998D01*
X3719289Y-6103719D01*
X3720986Y-6104362D01*
X3722728Y-6104925D01*
X3724513Y-6105407D01*
X3726338Y-6105806D01*
X3728202Y-6106120D01*
X3730102Y-6106346D01*
X3732038Y-6106484D01*
X3734007Y-6106530D01*
X4710320Y-6106530D01*
X4712288Y-6106576D01*
X4714224Y-6106713D01*
X4716124Y-6106940D01*
X4717988Y-6107253D01*
X4719814Y-6107652D01*
X4721598Y-6108134D01*
X4723340Y-6108698D01*
X4725037Y-6109341D01*
X4726688Y-6110062D01*
X4728290Y-6110858D01*
X4729842Y-6111728D01*
X4731342Y-6112669D01*
X4732787Y-6113680D01*
X4734176Y-6114759D01*
X4735507Y-6115904D01*
X4736778Y-6117113D01*
X4737987Y-6118384D01*
X4739132Y-6119715D01*
X4740211Y-6121104D01*
X4741222Y-6122550D01*
X4742164Y-6124049D01*
X4743033Y-6125601D01*
X4743830Y-6127203D01*
X4744550Y-6128854D01*
X4745193Y-6130551D01*
X4745757Y-6132293D01*
X4746239Y-6134078D01*
X4746638Y-6135903D01*
X4746951Y-6137767D01*
X4747178Y-6139667D01*
X4747315Y-6141603D01*
X4747361Y-6143572D01*
X4747407Y-6145540D01*
X4747545Y-6147476D01*
X4747771Y-6149376D01*
X4748085Y-6151240D01*
X4748484Y-6153065D01*
X4748966Y-6154850D01*
X4749529Y-6156592D01*
X4750173Y-6158289D01*
X4750893Y-6159940D01*
X4751689Y-6161542D01*
X4752559Y-6163094D01*
X4753500Y-6164593D01*
X4754512Y-6166039D01*
X4755591Y-6167428D01*
X4756736Y-6168759D01*
X4757945Y-6170030D01*
X4759216Y-6171239D01*
X4760547Y-6172384D01*
X4761936Y-6173463D01*
X4763381Y-6174474D01*
X4764881Y-6175415D01*
X4766433Y-6176285D01*
X4768035Y-6177081D01*
X4769686Y-6177802D01*
X4771383Y-6178445D01*
X4773125Y-6179009D01*
X4774909Y-6179491D01*
X4776734Y-6179890D01*
X4778598Y-6180203D01*
X4780499Y-6180430D01*
X4782434Y-6180567D01*
X4784403Y-6180613D01*
X5459090Y-6180613D01*
X5461059Y-6180567D01*
X5462995Y-6180430D01*
X5464895Y-6180203D01*
X5466759Y-6179890D01*
X5468584Y-6179491D01*
X5470369Y-6179009D01*
X5472111Y-6178445D01*
X5473808Y-6177802D01*
X5475459Y-6177081D01*
X5477061Y-6176285D01*
X5478613Y-6175415D01*
X5480112Y-6174474D01*
X5481558Y-6173463D01*
X5482947Y-6172384D01*
X5484278Y-6171239D01*
X5485549Y-6170030D01*
X5486758Y-6168759D01*
X5487903Y-6167428D01*
X5488982Y-6166039D01*
X5489993Y-6164593D01*
X5490934Y-6163094D01*
X5491804Y-6161542D01*
X5492600Y-6159940D01*
X5493321Y-6158289D01*
X5493964Y-6156592D01*
X5494528Y-6154850D01*
X5495010Y-6153065D01*
X5495409Y-6151240D01*
X5495722Y-6149376D01*
X5495949Y-6147476D01*
X5496086Y-6145540D01*
X5496132Y-6143572D01*
X5496178Y-6141603D01*
X5496316Y-6139667D01*
X5496542Y-6137767D01*
X5496856Y-6135903D01*
X5497254Y-6134078D01*
X5497737Y-6132293D01*
X5498300Y-6130551D01*
X5498943Y-6128854D01*
X5499664Y-6127203D01*
X5500460Y-6125601D01*
X5501330Y-6124049D01*
X5502271Y-6122550D01*
X5503283Y-6121104D01*
X5504362Y-6119715D01*
X5505507Y-6118384D01*
X5506715Y-6117113D01*
X5507986Y-6115904D01*
X5509317Y-6114759D01*
X5510707Y-6113680D01*
X5512152Y-6112669D01*
X5513651Y-6111728D01*
X5515203Y-6110858D01*
X5516806Y-6110062D01*
X5518456Y-6109341D01*
X5520154Y-6108698D01*
X5521895Y-6108134D01*
X5523680Y-6107652D01*
X5525505Y-6107253D01*
X5527369Y-6106940D01*
X5529270Y-6106713D01*
X5531205Y-6106576D01*
X5533174Y-6106530D01*
X7557236Y-6106530D01*
X7559205Y-6106484D01*
X7561140Y-6106346D01*
X7563041Y-6106120D01*
X7564905Y-6105806D01*
X7566730Y-6105407D01*
X7568514Y-6104925D01*
X7570256Y-6104362D01*
X7571953Y-6103719D01*
X7573604Y-6102998D01*
X7575206Y-6102202D01*
X7576758Y-6101332D01*
X7578258Y-6100391D01*
X7579703Y-6099379D01*
X7581092Y-6098300D01*
X7582423Y-6097155D01*
X7583694Y-6095947D01*
X7584903Y-6094676D01*
X7586048Y-6093345D01*
X7587127Y-6091955D01*
X7588138Y-6090510D01*
X7589080Y-6089011D01*
X7589950Y-6087459D01*
X7590746Y-6085856D01*
X7591466Y-6084206D01*
X7592109Y-6082508D01*
X7592673Y-6080767D01*
X7593155Y-6078982D01*
X7593554Y-6077157D01*
X7593868Y-6075293D01*
X7594094Y-6073392D01*
X7594231Y-6071457D01*
X7594278Y-6069488D01*
X7594278Y-5807551D01*
X7594324Y-5805582D01*
X7594461Y-5803647D01*
X7594687Y-5801746D01*
X7595001Y-5799882D01*
X7595400Y-5798057D01*
X7595882Y-5796272D01*
X7596446Y-5794530D01*
X7597089Y-5792833D01*
X7597809Y-5791183D01*
X7598605Y-5789580D01*
X7599475Y-5788028D01*
X7600417Y-5786529D01*
X7601428Y-5785083D01*
X7602507Y-5783694D01*
X7603652Y-5782363D01*
X7604861Y-5781092D01*
X7606132Y-5779883D01*
X7607463Y-5778739D01*
X7608852Y-5777659D01*
X7610297Y-5776648D01*
X7611797Y-5775707D01*
X7613349Y-5774837D01*
X7614951Y-5774041D01*
X7616602Y-5773320D01*
X7618299Y-5772677D01*
X7620041Y-5772114D01*
X7621825Y-5771631D01*
X7623650Y-5771233D01*
X7625514Y-5770919D01*
X7627415Y-5770692D01*
X7629350Y-5770555D01*
X7631319Y-5770509D01*
X12319736Y-5770509D01*
X12321704Y-5770555D01*
X12323640Y-5770692D01*
X12325540Y-5770919D01*
X12327404Y-5771233D01*
X12329229Y-5771631D01*
X12331014Y-5772114D01*
X12332756Y-5772677D01*
X12334453Y-5773320D01*
X12336104Y-5774041D01*
X12337706Y-5774837D01*
X12339258Y-5775707D01*
X12340757Y-5776648D01*
X12342203Y-5777659D01*
X12343592Y-5778739D01*
X12344923Y-5779883D01*
X12346194Y-5781092D01*
X12347403Y-5782363D01*
X12348548Y-5783694D01*
X12349627Y-5785083D01*
X12350638Y-5786529D01*
X12351579Y-5788028D01*
X12352449Y-5789580D01*
X12353245Y-5791183D01*
X12353966Y-5792833D01*
X12354609Y-5794530D01*
X12355173Y-5796272D01*
X12355655Y-5798057D01*
X12356054Y-5799882D01*
X12356367Y-5801746D01*
X12356594Y-5803647D01*
X12356731Y-5805582D01*
X12356777Y-5807551D01*
X12356777Y-5995405D01*
X12356823Y-5997373D01*
X12356961Y-5999309D01*
X12357187Y-6001210D01*
X12357501Y-6003074D01*
X12357899Y-6004899D01*
X12358382Y-6006683D01*
X12358945Y-6008425D01*
X12359588Y-6010122D01*
X12360309Y-6011773D01*
X12361105Y-6013375D01*
X12361975Y-6014927D01*
X12362916Y-6016427D01*
X12363928Y-6017872D01*
X12365007Y-6019261D01*
X12366152Y-6020592D01*
X12367361Y-6021863D01*
X12368631Y-6023072D01*
X12369962Y-6024217D01*
X12371352Y-6025296D01*
X12372797Y-6026307D01*
X12374296Y-6027249D01*
X12375848Y-6028119D01*
X12377451Y-6028915D01*
X12379101Y-6029635D01*
X12380799Y-6030278D01*
X12382540Y-6030842D01*
X12384325Y-6031324D01*
X12386150Y-6031723D01*
X12388014Y-6032037D01*
X12389915Y-6032263D01*
X12391850Y-6032400D01*
X12393819Y-6032447D01*
X12467902Y-6032447D01*
X12469870Y-6032400D01*
X12471806Y-6032263D01*
X12473706Y-6032037D01*
X12475570Y-6031723D01*
X12477395Y-6031324D01*
X12479180Y-6030842D01*
X12480922Y-6030278D01*
X12482619Y-6029635D01*
X12484270Y-6028915D01*
X12485872Y-6028119D01*
X12487424Y-6027249D01*
X12488923Y-6026307D01*
X12490369Y-6025296D01*
X12491758Y-6024217D01*
X12493089Y-6023072D01*
X12494360Y-6021863D01*
X12495569Y-6020592D01*
X12496713Y-6019261D01*
X12497793Y-6017872D01*
X12498804Y-6016427D01*
X12499745Y-6014927D01*
X12500615Y-6013375D01*
X12501411Y-6011773D01*
X12502132Y-6010122D01*
X12502775Y-6008425D01*
X12503338Y-6006683D01*
X12503821Y-6004899D01*
X12504220Y-6003074D01*
X12504533Y-6001210D01*
X12504760Y-5999309D01*
X12504897Y-5997373D01*
X12504943Y-5995405D01*
X12504943Y-5807551D01*
X12504989Y-5805582D01*
X12505126Y-5803647D01*
X12505353Y-5801746D01*
X12505666Y-5799882D01*
X12506065Y-5798057D01*
X12506548Y-5796272D01*
X12507111Y-5794531D01*
X12507754Y-5792833D01*
X12508475Y-5791183D01*
X12509271Y-5789580D01*
X12510141Y-5788028D01*
X12511082Y-5786529D01*
X12512093Y-5785083D01*
X12513173Y-5783694D01*
X12514318Y-5782363D01*
X12515526Y-5781092D01*
X12516797Y-5779883D01*
X12518128Y-5778739D01*
X12519517Y-5777659D01*
X12520963Y-5776648D01*
X12522462Y-5775707D01*
X12524014Y-5774837D01*
X12525617Y-5774041D01*
X12527267Y-5773320D01*
X12528964Y-5772677D01*
X12530706Y-5772114D01*
X12532491Y-5771631D01*
X12534316Y-5771233D01*
X12536180Y-5770919D01*
X12538080Y-5770693D01*
X12540016Y-5770555D01*
X12541985Y-5770509D01*
X12650464Y-5770509D01*
X12651816Y-5770726D01*
X12652914Y-5771347D01*
X12653780Y-5772325D01*
X12654438Y-5773615D01*
X12654911Y-5775170D01*
X12655225Y-5776945D01*
X12655466Y-5780968D01*
X12654763Y-5796637D01*
X12655120Y-5798606D01*
X12655509Y-5799046D01*
X12656070Y-5799060D01*
X12656827Y-5798604D01*
X12657803Y-5797631D01*
X12660509Y-5793949D01*
X12664378Y-5787648D01*
X12669599Y-5778359D01*
X12676363Y-5765713D01*
X12684859Y-5749342D01*
X12694896Y-5731338D01*
X12706114Y-5714073D01*
X12718456Y-5697607D01*
X12731865Y-5681998D01*
X12746280Y-5667303D01*
X12761646Y-5653581D01*
X12777903Y-5640890D01*
X12794993Y-5629288D01*
X12812858Y-5618833D01*
X12831440Y-5609583D01*
X12850681Y-5601598D01*
X12870523Y-5594933D01*
X12890907Y-5589649D01*
X12911776Y-5585802D01*
X12933071Y-5583451D01*
X12954735Y-5582655D01*
X13105547Y-5582655D01*
X13120838Y-5583047D01*
D10*
X21227578Y-10445743D02*
X21229513Y-10445880D01*
X21231414Y-10446107D01*
X21233278Y-10446420D01*
X21235103Y-10446819D01*
X21236888Y-10447301D01*
X21238630Y-10447865D01*
X21240327Y-10448508D01*
X21241978Y-10449228D01*
X21243580Y-10450025D01*
X21245132Y-10450894D01*
X21246632Y-10451836D01*
X21248077Y-10452847D01*
X21249466Y-10453926D01*
X21250797Y-10455071D01*
X21252068Y-10456280D01*
X21253277Y-10457551D01*
X21254422Y-10458882D01*
X21255501Y-10460271D01*
X21256512Y-10461716D01*
X21257454Y-10463216D01*
X21258323Y-10464768D01*
X21259120Y-10466370D01*
X21259840Y-10468021D01*
X21260483Y-10469718D01*
X21261047Y-10471460D01*
X21261529Y-10473244D01*
X21261928Y-10475069D01*
X21262241Y-10476933D01*
X21262468Y-10478834D01*
X21262605Y-10480770D01*
X21262651Y-10482738D01*
X21262651Y-10596509D01*
X22527359Y-10596509D01*
X22527359Y-10482738D01*
X22527405Y-10480770D01*
X22527542Y-10478834D01*
X22527769Y-10476933D01*
X22528082Y-10475070D01*
X22528481Y-10473244D01*
X22528964Y-10471460D01*
X22529527Y-10469718D01*
X22530170Y-10468021D01*
X22530891Y-10466370D01*
X22531687Y-10464768D01*
X22532557Y-10463216D01*
X22533498Y-10461716D01*
X22534509Y-10460271D01*
X22535589Y-10458882D01*
X22536734Y-10457551D01*
X22537942Y-10456280D01*
X22539213Y-10455071D01*
X22540544Y-10453926D01*
X22541934Y-10452847D01*
X22543379Y-10451836D01*
X22544878Y-10450894D01*
X22546430Y-10450025D01*
X22548033Y-10449228D01*
X22549684Y-10448508D01*
X22551381Y-10447865D01*
X22553123Y-10447301D01*
X22554907Y-10446819D01*
X22556732Y-10446420D01*
X22558596Y-10446107D01*
X22560497Y-10445880D01*
X22562433Y-10445743D01*
X22564401Y-10445697D01*
X23014192Y-10445697D01*
X23016161Y-10445743D01*
X23018097Y-10445880D01*
X23019997Y-10446107D01*
X23021861Y-10446420D01*
X23023687Y-10446819D01*
X23025471Y-10447301D01*
X23027213Y-10447865D01*
X23028910Y-10448508D01*
X23030561Y-10449228D01*
X23032164Y-10450025D01*
X23033716Y-10450894D01*
X23035215Y-10451836D01*
X23036660Y-10452847D01*
X23038050Y-10453926D01*
X23039381Y-10455071D01*
X23040651Y-10456280D01*
X23041860Y-10457551D01*
X23043005Y-10458882D01*
X23044084Y-10460271D01*
X23045096Y-10461716D01*
X23046037Y-10463216D01*
X23046907Y-10464768D01*
X23047703Y-10466370D01*
X23048423Y-10468021D01*
X23049066Y-10469718D01*
X23049630Y-10471460D01*
X23050112Y-10473244D01*
X23050511Y-10475069D01*
X23050825Y-10476933D01*
X23051051Y-10478834D01*
X23051188Y-10480770D01*
X23051234Y-10482738D01*
X23051234Y-10596509D01*
X23096214Y-10596509D01*
X23098183Y-10596555D01*
X23100119Y-10596693D01*
X23102020Y-10596919D01*
X23103884Y-10597233D01*
X23105709Y-10597632D01*
X23107493Y-10598114D01*
X23109235Y-10598677D01*
X23110933Y-10599320D01*
X23112583Y-10600041D01*
X23114186Y-10600837D01*
X23115738Y-10601707D01*
X23117237Y-10602648D01*
X23118683Y-10603660D01*
X23120072Y-10604739D01*
X23121403Y-10605884D01*
X23122674Y-10607092D01*
X23123882Y-10608363D01*
X23125027Y-10609694D01*
X23126106Y-10611083D01*
X23127118Y-10612529D01*
X23128059Y-10614028D01*
X23128929Y-10615580D01*
X23129725Y-10617183D01*
X23130445Y-10618833D01*
X23131088Y-10620531D01*
X23131652Y-10622272D01*
X23132134Y-10624057D01*
X23132533Y-10625882D01*
X23132847Y-10627746D01*
X23133073Y-10629647D01*
X23133210Y-10631582D01*
X23133256Y-10633551D01*
X23133256Y-11609863D01*
X23133210Y-11611831D01*
X23133073Y-11613767D01*
X23132847Y-11615668D01*
X23132533Y-11617531D01*
X23132134Y-11619357D01*
X23131652Y-11621141D01*
X23131088Y-11622883D01*
X23130445Y-11624580D01*
X23129725Y-11626231D01*
X23128928Y-11627833D01*
X23128059Y-11629385D01*
X23127117Y-11630885D01*
X23126106Y-11632330D01*
X23125027Y-11633719D01*
X23123882Y-11635050D01*
X23122673Y-11636321D01*
X23121402Y-11637530D01*
X23120071Y-11638675D01*
X23118682Y-11639754D01*
X23117237Y-11640765D01*
X23115737Y-11641707D01*
X23114185Y-11642576D01*
X23112583Y-11643373D01*
X23110932Y-11644093D01*
X23109235Y-11644736D01*
X23107493Y-11645300D01*
X23105708Y-11645782D01*
X23103883Y-11646181D01*
X23102019Y-11646494D01*
X23100118Y-11646721D01*
X23098183Y-11646858D01*
X23096214Y-11646904D01*
X20691151Y-11646904D01*
X20689183Y-11646858D01*
X20687247Y-11646721D01*
X20685346Y-11646494D01*
X20683482Y-11646181D01*
X20681657Y-11645782D01*
X20679872Y-11645300D01*
X20678130Y-11644736D01*
X20676433Y-11644093D01*
X20674782Y-11643373D01*
X20673180Y-11642576D01*
X20671628Y-11641707D01*
X20670128Y-11640765D01*
X20668683Y-11639754D01*
X20667294Y-11638675D01*
X20665963Y-11637530D01*
X20664692Y-11636321D01*
X20663483Y-11635050D01*
X20662338Y-11633719D01*
X20661259Y-11632330D01*
X20660248Y-11630885D01*
X20659307Y-11629385D01*
X20658437Y-11627833D01*
X20657641Y-11626231D01*
X20656920Y-11624580D01*
X20656277Y-11622883D01*
X20655714Y-11621141D01*
X20655231Y-11619357D01*
X20654833Y-11617532D01*
X20654519Y-11615668D01*
X20654293Y-11613767D01*
X20654155Y-11611831D01*
X20654109Y-11609863D01*
X20654109Y-10633550D01*
X20654155Y-10631582D01*
X20654293Y-10629646D01*
X20654519Y-10627746D01*
X20654833Y-10625882D01*
X20655232Y-10624057D01*
X20655714Y-10622272D01*
X20656278Y-10620530D01*
X20656921Y-10618833D01*
X20657641Y-10617182D01*
X20658438Y-10615580D01*
X20659307Y-10614028D01*
X20660249Y-10612529D01*
X20661260Y-10611083D01*
X20662339Y-10609694D01*
X20663484Y-10608363D01*
X20664693Y-10607092D01*
X20665964Y-10605883D01*
X20667295Y-10604738D01*
X20668684Y-10603659D01*
X20670130Y-10602648D01*
X20671629Y-10601707D01*
X20673181Y-10600837D01*
X20674784Y-10600041D01*
X20676434Y-10599320D01*
X20678132Y-10598677D01*
X20679873Y-10598113D01*
X20681658Y-10597631D01*
X20683483Y-10597232D01*
X20685347Y-10596919D01*
X20687248Y-10596692D01*
X20689183Y-10596555D01*
X20691151Y-10596509D01*
X20736131Y-10596509D01*
X20738774Y-10596509D01*
X20738774Y-10482738D01*
X20738820Y-10480770D01*
X20738958Y-10478834D01*
X20739184Y-10476933D01*
X20739498Y-10475070D01*
X20739897Y-10473244D01*
X20740379Y-10471460D01*
X20740942Y-10469718D01*
X20741586Y-10468021D01*
X20742306Y-10466370D01*
X20743102Y-10464768D01*
X20743972Y-10463216D01*
X20744914Y-10461716D01*
X20745925Y-10460271D01*
X20747004Y-10458882D01*
X20748149Y-10457551D01*
X20749358Y-10456280D01*
X20750629Y-10455071D01*
X20751960Y-10453926D01*
X20753349Y-10452847D01*
X20754795Y-10451836D01*
X20756294Y-10450894D01*
X20757846Y-10450025D01*
X20759449Y-10449228D01*
X20761099Y-10448508D01*
X20762797Y-10447865D01*
X20764538Y-10447301D01*
X20766323Y-10446819D01*
X20768148Y-10446420D01*
X20770012Y-10446107D01*
X20771912Y-10445880D01*
X20773848Y-10445743D01*
X20775816Y-10445697D01*
X21225609Y-10445697D01*
X21227578Y-10445743D01*
X24526869Y-10596557D02*
X24528751Y-10596700D01*
X24530604Y-10596936D01*
X24532429Y-10597261D01*
X24534221Y-10597675D01*
X24535978Y-10598174D01*
X24537700Y-10598756D01*
X24539382Y-10599420D01*
X24541022Y-10600162D01*
X24542620Y-10600980D01*
X24544171Y-10601871D01*
X24545674Y-10602835D01*
X24547126Y-10603868D01*
X24548525Y-10604967D01*
X24549870Y-10606132D01*
X24551156Y-10607358D01*
X24552383Y-10608644D01*
X24553547Y-10609988D01*
X24554646Y-10611388D01*
X24555679Y-10612840D01*
X24556643Y-10614343D01*
X24557535Y-10615894D01*
X24558353Y-10617491D01*
X24559095Y-10619132D01*
X24559758Y-10620814D01*
X24560340Y-10622535D01*
X24560839Y-10624293D01*
X24561253Y-10626085D01*
X24561579Y-10627909D01*
X24561814Y-10629763D01*
X24561957Y-10631644D01*
X24562006Y-10633550D01*
X24562006Y-11609863D01*
X24561957Y-11611769D01*
X24561814Y-11613650D01*
X24561579Y-11615504D01*
X24561253Y-11617328D01*
X24560839Y-11619120D01*
X24560340Y-11620878D01*
X24559758Y-11622599D01*
X24559095Y-11624281D01*
X24558353Y-11625922D01*
X24557535Y-11627519D01*
X24556643Y-11629070D01*
X24555679Y-11630573D01*
X24554646Y-11632025D01*
X24553547Y-11633425D01*
X24552383Y-11634769D01*
X24551156Y-11636055D01*
X24549870Y-11637282D01*
X24548525Y-11638446D01*
X24547126Y-11639545D01*
X24545674Y-11640578D01*
X24544171Y-11641542D01*
X24542620Y-11642434D01*
X24541022Y-11643252D01*
X24539382Y-11643993D01*
X24537700Y-11644657D01*
X24535978Y-11645239D01*
X24534221Y-11645738D01*
X24532429Y-11646152D01*
X24530604Y-11646478D01*
X24528751Y-11646713D01*
X24526869Y-11646856D01*
X24524963Y-11646904D01*
X23548651Y-11646904D01*
X23546745Y-11646856D01*
X23544864Y-11646713D01*
X23543010Y-11646478D01*
X23541186Y-11646152D01*
X23539394Y-11645738D01*
X23537636Y-11645239D01*
X23535915Y-11644657D01*
X23534233Y-11643993D01*
X23532592Y-11643252D01*
X23530995Y-11642434D01*
X23529443Y-11641542D01*
X23527941Y-11640578D01*
X23526488Y-11639545D01*
X23525089Y-11638446D01*
X23523745Y-11637282D01*
X23522458Y-11636055D01*
X23521232Y-11634769D01*
X23520068Y-11633425D01*
X23518968Y-11632025D01*
X23517935Y-11630573D01*
X23516972Y-11629070D01*
X23516080Y-11627519D01*
X23515262Y-11625922D01*
X23514520Y-11624281D01*
X23513857Y-11622599D01*
X23513274Y-11620878D01*
X23512775Y-11619120D01*
X23512361Y-11617328D01*
X23512036Y-11615504D01*
X23511800Y-11613650D01*
X23511657Y-11611769D01*
X23511609Y-11609863D01*
X23511609Y-10633550D01*
X23511657Y-10631644D01*
X23511800Y-10629763D01*
X23512036Y-10627909D01*
X23512361Y-10626085D01*
X23512775Y-10624293D01*
X23513274Y-10622535D01*
X23513857Y-10620814D01*
X23514520Y-10619132D01*
X23515262Y-10617491D01*
X23516080Y-10615894D01*
X23516972Y-10614343D01*
X23517935Y-10612840D01*
X23518968Y-10611388D01*
X23520068Y-10609988D01*
X23521232Y-10608644D01*
X23522458Y-10607358D01*
X23523745Y-10606132D01*
X23525089Y-10604967D01*
X23526488Y-10603868D01*
X23527941Y-10602835D01*
X23529443Y-10601871D01*
X23530995Y-10600980D01*
X23532592Y-10600162D01*
X23534233Y-10599420D01*
X23535915Y-10598756D01*
X23537636Y-10598174D01*
X23539394Y-10597675D01*
X23541186Y-10597261D01*
X23543010Y-10596936D01*
X23544864Y-10596700D01*
X23546745Y-10596557D01*
X23548651Y-10596509D01*
X24524963Y-10596509D01*
X24526869Y-10596557D01*
X26312807Y-8096245D02*
X26314688Y-8096388D01*
X26316542Y-8096623D01*
X26318366Y-8096949D01*
X26320158Y-8097362D01*
X26321916Y-8097862D01*
X26323637Y-8098444D01*
X26325319Y-8099107D01*
X26326960Y-8099849D01*
X26328557Y-8100667D01*
X26330108Y-8101559D01*
X26331611Y-8102522D01*
X26333064Y-8103555D01*
X26334463Y-8104655D01*
X26335807Y-8105819D01*
X26337093Y-8107046D01*
X26338320Y-8108332D01*
X26339484Y-8109676D01*
X26340584Y-8111075D01*
X26341617Y-8112528D01*
X26342580Y-8114030D01*
X26343472Y-8115582D01*
X26344290Y-8117179D01*
X26345032Y-8118820D01*
X26345695Y-8120502D01*
X26346278Y-8122223D01*
X26346777Y-8123981D01*
X26347190Y-8125773D01*
X26347516Y-8127597D01*
X26347752Y-8129451D01*
X26347895Y-8131332D01*
X26347943Y-8133238D01*
X26347943Y-9109551D01*
X26347895Y-9111457D01*
X26347752Y-9113338D01*
X26347516Y-9115192D01*
X26347190Y-9117016D01*
X26346777Y-9118808D01*
X26346278Y-9120566D01*
X26345695Y-9122287D01*
X26345032Y-9123969D01*
X26344290Y-9125610D01*
X26343472Y-9127207D01*
X26342580Y-9128758D01*
X26341617Y-9130261D01*
X26340584Y-9131713D01*
X26339484Y-9133112D01*
X26338320Y-9134456D01*
X26337093Y-9135743D01*
X26335807Y-9136969D01*
X26334463Y-9138134D01*
X26333064Y-9139233D01*
X26331611Y-9140266D01*
X26330108Y-9141229D01*
X26328557Y-9142121D01*
X26326960Y-9142939D01*
X26325319Y-9143681D01*
X26323637Y-9144344D01*
X26321916Y-9144927D01*
X26320158Y-9145426D01*
X26318366Y-9145839D01*
X26316542Y-9146165D01*
X26314688Y-9146401D01*
X26312807Y-9146544D01*
X26310901Y-9146592D01*
X25334589Y-9146592D01*
X25332682Y-9146544D01*
X25330801Y-9146401D01*
X25328947Y-9146165D01*
X25327123Y-9145839D01*
X25325331Y-9145426D01*
X25323573Y-9144927D01*
X25321852Y-9144344D01*
X25320170Y-9143681D01*
X25318529Y-9142939D01*
X25316932Y-9142121D01*
X25315381Y-9141229D01*
X25313878Y-9140266D01*
X25312426Y-9139233D01*
X25311026Y-9138134D01*
X25309682Y-9136969D01*
X25308396Y-9135743D01*
X25307169Y-9134456D01*
X25306005Y-9133112D01*
X25304905Y-9131713D01*
X25303873Y-9130261D01*
X25302909Y-9128758D01*
X25302017Y-9127207D01*
X25301199Y-9125610D01*
X25300457Y-9123969D01*
X25299794Y-9122287D01*
X25299212Y-9120566D01*
X25298713Y-9118808D01*
X25298299Y-9117016D01*
X25297973Y-9115192D01*
X25297738Y-9113338D01*
X25297595Y-9111457D01*
X25297546Y-9109551D01*
X25297546Y-8133238D01*
X25297595Y-8131332D01*
X25297738Y-8129451D01*
X25297973Y-8127597D01*
X25298299Y-8125773D01*
X25298713Y-8123981D01*
X25299212Y-8122223D01*
X25299794Y-8120502D01*
X25300457Y-8118820D01*
X25301199Y-8117179D01*
X25302017Y-8115582D01*
X25302909Y-8114030D01*
X25303873Y-8112528D01*
X25304905Y-8111075D01*
X25306005Y-8109676D01*
X25307169Y-8108332D01*
X25308396Y-8107046D01*
X25309682Y-8105819D01*
X25311026Y-8104655D01*
X25312426Y-8103555D01*
X25313878Y-8102522D01*
X25315381Y-8101559D01*
X25316932Y-8100667D01*
X25318529Y-8099849D01*
X25320170Y-8099107D01*
X25321852Y-8098444D01*
X25323573Y-8097862D01*
X25325331Y-8097362D01*
X25327123Y-8096949D01*
X25328947Y-8096623D01*
X25330801Y-8096388D01*
X25332682Y-8096245D01*
X25334589Y-8096196D01*
X26310901Y-8096196D01*
X26312807Y-8096245D01*
X14525621Y-6310307D02*
X14527502Y-6310450D01*
X14529356Y-6310686D01*
X14531180Y-6311012D01*
X14532972Y-6311425D01*
X14534730Y-6311924D01*
X14536451Y-6312507D01*
X14538133Y-6313170D01*
X14539774Y-6313912D01*
X14541371Y-6314730D01*
X14542923Y-6315622D01*
X14544425Y-6316585D01*
X14545878Y-6317618D01*
X14547277Y-6318717D01*
X14548621Y-6319882D01*
X14549907Y-6321108D01*
X14551134Y-6322395D01*
X14552298Y-6323739D01*
X14553398Y-6325138D01*
X14554431Y-6326590D01*
X14555394Y-6328093D01*
X14556286Y-6329644D01*
X14557104Y-6331242D01*
X14557846Y-6332882D01*
X14558509Y-6334564D01*
X14559091Y-6336286D01*
X14559590Y-6338043D01*
X14560004Y-6339835D01*
X14560330Y-6341660D01*
X14560565Y-6343513D01*
X14560708Y-6345394D01*
X14560757Y-6347301D01*
X14560757Y-7323613D01*
X14560708Y-7325519D01*
X14560565Y-7327400D01*
X14560330Y-7329254D01*
X14560004Y-7331078D01*
X14559590Y-7332870D01*
X14559091Y-7334628D01*
X14558509Y-7336349D01*
X14557846Y-7338031D01*
X14557104Y-7339672D01*
X14556286Y-7341269D01*
X14555394Y-7342821D01*
X14554431Y-7344324D01*
X14553398Y-7345776D01*
X14552298Y-7347175D01*
X14551134Y-7348519D01*
X14549907Y-7349806D01*
X14548621Y-7351032D01*
X14547277Y-7352196D01*
X14545878Y-7353296D01*
X14544425Y-7354329D01*
X14542923Y-7355292D01*
X14541371Y-7356184D01*
X14539774Y-7357002D01*
X14538133Y-7357744D01*
X14536451Y-7358407D01*
X14534730Y-7358989D01*
X14532972Y-7359489D01*
X14531180Y-7359902D01*
X14529356Y-7360228D01*
X14527502Y-7360464D01*
X14525621Y-7360607D01*
X14523715Y-7360655D01*
X13547402Y-7360655D01*
X13545496Y-7360607D01*
X13543615Y-7360464D01*
X13541761Y-7360228D01*
X13539937Y-7359902D01*
X13538145Y-7359489D01*
X13536387Y-7358989D01*
X13534666Y-7358407D01*
X13532984Y-7357744D01*
X13531343Y-7357002D01*
X13529746Y-7356184D01*
X13528195Y-7355292D01*
X13526692Y-7354329D01*
X13525240Y-7353296D01*
X13523840Y-7352196D01*
X13522496Y-7351032D01*
X13521210Y-7349806D01*
X13519983Y-7348519D01*
X13518819Y-7347175D01*
X13517719Y-7345776D01*
X13516687Y-7344324D01*
X13515723Y-7342821D01*
X13514831Y-7341269D01*
X13514013Y-7339672D01*
X13513272Y-7338031D01*
X13512608Y-7336349D01*
X13512026Y-7334628D01*
X13511527Y-7332870D01*
X13511113Y-7331078D01*
X13510787Y-7329254D01*
X13510552Y-7327400D01*
X13510409Y-7325519D01*
X13510361Y-7323613D01*
X13510361Y-6347301D01*
X13510409Y-6345394D01*
X13510552Y-6343513D01*
X13510787Y-6341660D01*
X13511113Y-6339835D01*
X13511527Y-6338043D01*
X13512026Y-6336286D01*
X13512608Y-6334564D01*
X13513272Y-6332882D01*
X13514013Y-6331242D01*
X13514831Y-6329644D01*
X13515723Y-6328093D01*
X13516687Y-6326590D01*
X13517719Y-6325138D01*
X13518819Y-6323739D01*
X13519983Y-6322395D01*
X13521210Y-6321108D01*
X13522496Y-6319882D01*
X13523840Y-6318717D01*
X13525240Y-6317618D01*
X13526692Y-6316585D01*
X13528195Y-6315622D01*
X13529746Y-6314730D01*
X13531343Y-6313912D01*
X13532984Y-6313170D01*
X13534666Y-6312507D01*
X13536387Y-6311924D01*
X13538145Y-6311425D01*
X13539937Y-6311012D01*
X13541761Y-6310686D01*
X13543615Y-6310450D01*
X13545496Y-6310307D01*
X13547402Y-6310259D01*
X14523715Y-6310259D01*
X14525621Y-6310307D01*
X4696668Y-7739055D02*
X4698873Y-7739192D01*
X4703214Y-7739732D01*
X4707438Y-7740613D01*
X4711518Y-7741820D01*
X4715428Y-7743337D01*
X4719140Y-7745148D01*
X4722628Y-7747238D01*
X4724279Y-7748383D01*
X4725863Y-7749592D01*
X4727378Y-7750863D01*
X4728820Y-7752194D01*
X4730185Y-7753583D01*
X4731470Y-7755028D01*
X4732672Y-7756528D01*
X4733787Y-7758080D01*
X4734812Y-7759682D01*
X4735744Y-7761333D01*
X4736579Y-7763030D01*
X4737313Y-7764772D01*
X4737944Y-7766557D01*
X4738467Y-7768382D01*
X4738880Y-7770246D01*
X4739180Y-7772146D01*
X4739362Y-7774082D01*
X4739423Y-7776051D01*
X4739423Y-8752363D01*
X4739369Y-8754332D01*
X4739209Y-8756267D01*
X4738944Y-8758168D01*
X4738576Y-8760032D01*
X4738107Y-8761857D01*
X4737540Y-8763641D01*
X4736875Y-8765383D01*
X4736116Y-8767081D01*
X4735264Y-8768731D01*
X4734320Y-8770334D01*
X4733288Y-8771886D01*
X4732168Y-8773385D01*
X4730963Y-8774830D01*
X4729675Y-8776220D01*
X4728305Y-8777551D01*
X4726856Y-8778821D01*
X4725329Y-8780030D01*
X4723727Y-8781175D01*
X4722051Y-8782254D01*
X4720303Y-8783266D01*
X4718486Y-8784207D01*
X4716600Y-8785077D01*
X4714649Y-8785873D01*
X4712634Y-8786594D01*
X4710557Y-8787237D01*
X4708420Y-8787800D01*
X4706225Y-8788282D01*
X4703973Y-8788681D01*
X4701668Y-8788995D01*
X4699309Y-8789221D01*
X4696901Y-8789359D01*
X4694444Y-8789405D01*
X3554090Y-8789405D01*
X3551866Y-8789359D01*
X3549661Y-8789221D01*
X3545320Y-8788681D01*
X3541097Y-8787800D01*
X3537016Y-8786594D01*
X3533106Y-8785077D01*
X3529394Y-8783266D01*
X3525906Y-8781175D01*
X3524255Y-8780030D01*
X3522671Y-8778821D01*
X3521156Y-8777551D01*
X3519714Y-8776220D01*
X3518349Y-8774830D01*
X3517064Y-8773385D01*
X3515862Y-8771886D01*
X3514747Y-8770334D01*
X3513722Y-8768731D01*
X3512790Y-8767081D01*
X3511956Y-8765383D01*
X3511221Y-8763641D01*
X3510590Y-8761857D01*
X3510067Y-8760032D01*
X3509654Y-8758168D01*
X3509354Y-8756267D01*
X3509172Y-8754332D01*
X3509111Y-8752363D01*
X3509111Y-7776051D01*
X3509165Y-7774082D01*
X3509325Y-7772146D01*
X3509590Y-7770246D01*
X3509958Y-7768382D01*
X3510427Y-7766557D01*
X3510994Y-7764772D01*
X3511659Y-7763030D01*
X3512418Y-7761333D01*
X3513270Y-7759682D01*
X3514214Y-7758080D01*
X3515246Y-7756528D01*
X3516366Y-7755028D01*
X3517571Y-7753583D01*
X3518860Y-7752194D01*
X3520229Y-7750863D01*
X3521679Y-7749592D01*
X3523205Y-7748383D01*
X3524808Y-7747238D01*
X3526483Y-7746159D01*
X3528231Y-7745148D01*
X3530048Y-7744206D01*
X3531934Y-7743337D01*
X3533885Y-7742541D01*
X3535900Y-7741820D01*
X3537977Y-7741177D01*
X3540114Y-7740613D01*
X3542309Y-7740131D01*
X3544561Y-7739732D01*
X3546867Y-7739419D01*
X3549225Y-7739192D01*
X3551633Y-7739055D01*
X3554090Y-7739009D01*
X4694444Y-7739009D01*
X4696668Y-7739055D01*
X13096871Y-6310307D02*
X13098753Y-6310450D01*
X13100606Y-6310686D01*
X13102430Y-6311012D01*
X13104223Y-6311425D01*
X13105980Y-6311924D01*
X13107701Y-6312507D01*
X13109384Y-6313170D01*
X13111024Y-6313912D01*
X13112621Y-6314730D01*
X13114173Y-6315622D01*
X13115676Y-6316585D01*
X13117128Y-6317618D01*
X13118527Y-6318717D01*
X13119871Y-6319882D01*
X13121158Y-6321108D01*
X13122384Y-6322395D01*
X13123548Y-6323739D01*
X13124648Y-6325138D01*
X13125681Y-6326590D01*
X13126644Y-6328093D01*
X13127536Y-6329644D01*
X13128354Y-6331242D01*
X13129096Y-6332882D01*
X13129759Y-6334564D01*
X13130341Y-6336286D01*
X13130841Y-6338043D01*
X13131254Y-6339835D01*
X13131580Y-6341660D01*
X13131816Y-6343513D01*
X13131959Y-6345394D01*
X13132007Y-6347301D01*
X13132007Y-7323613D01*
X13131959Y-7325519D01*
X13131816Y-7327400D01*
X13131580Y-7329254D01*
X13131254Y-7331078D01*
X13130841Y-7332870D01*
X13130341Y-7334628D01*
X13129759Y-7336349D01*
X13129096Y-7338031D01*
X13128354Y-7339672D01*
X13127536Y-7341269D01*
X13126644Y-7342821D01*
X13125681Y-7344324D01*
X13124648Y-7345776D01*
X13123548Y-7347175D01*
X13122384Y-7348519D01*
X13121158Y-7349806D01*
X13119871Y-7351032D01*
X13118527Y-7352196D01*
X13117128Y-7353296D01*
X13115676Y-7354329D01*
X13114173Y-7355292D01*
X13112621Y-7356184D01*
X13111024Y-7357002D01*
X13109384Y-7357744D01*
X13107701Y-7358407D01*
X13105980Y-7358989D01*
X13104223Y-7359489D01*
X13102430Y-7359902D01*
X13100606Y-7360228D01*
X13098753Y-7360464D01*
X13096871Y-7360607D01*
X13094965Y-7360655D01*
X12118652Y-7360655D01*
X12116746Y-7360607D01*
X12114865Y-7360464D01*
X12113011Y-7360228D01*
X12111187Y-7359902D01*
X12109395Y-7359489D01*
X12107637Y-7358989D01*
X12105916Y-7358407D01*
X12104234Y-7357744D01*
X12102593Y-7357002D01*
X12100996Y-7356184D01*
X12099445Y-7355292D01*
X12097942Y-7354329D01*
X12096490Y-7353296D01*
X12095090Y-7352196D01*
X12093746Y-7351032D01*
X12092460Y-7349806D01*
X12091234Y-7348519D01*
X12090069Y-7347175D01*
X12088970Y-7345776D01*
X12087937Y-7344324D01*
X12086973Y-7342821D01*
X12086082Y-7341269D01*
X12085263Y-7339672D01*
X12084522Y-7338031D01*
X12083858Y-7336349D01*
X12083276Y-7334628D01*
X12082777Y-7332870D01*
X12082363Y-7331078D01*
X12082038Y-7329254D01*
X12081802Y-7327400D01*
X12081659Y-7325519D01*
X12081611Y-7323613D01*
X12081611Y-6347301D01*
X12081659Y-6345394D01*
X12081802Y-6343513D01*
X12082038Y-6341660D01*
X12082363Y-6339835D01*
X12082777Y-6338043D01*
X12083276Y-6336286D01*
X12083858Y-6334564D01*
X12084522Y-6332882D01*
X12085263Y-6331242D01*
X12086082Y-6329644D01*
X12086973Y-6328093D01*
X12087937Y-6326590D01*
X12088970Y-6325138D01*
X12090069Y-6323739D01*
X12091234Y-6322395D01*
X12092460Y-6321108D01*
X12093746Y-6319882D01*
X12095090Y-6318717D01*
X12096490Y-6317618D01*
X12097942Y-6316585D01*
X12099445Y-6315622D01*
X12100996Y-6314730D01*
X12102593Y-6313912D01*
X12104234Y-6313170D01*
X12105916Y-6312507D01*
X12107637Y-6311924D01*
X12109395Y-6311425D01*
X12111187Y-6311012D01*
X12113011Y-6310686D01*
X12114865Y-6310450D01*
X12116746Y-6310307D01*
X12118652Y-6310259D01*
X13094965Y-6310259D01*
X13096871Y-6310307D01*
X7834371Y-10448389D02*
X7836306Y-10448526D01*
X7838207Y-10448752D01*
X7840071Y-10449066D01*
X7841896Y-10449465D01*
X7843681Y-10449947D01*
X7845422Y-10450511D01*
X7847120Y-10451154D01*
X7848770Y-10451874D01*
X7850373Y-10452670D01*
X7851924Y-10453540D01*
X7853424Y-10454482D01*
X7854869Y-10455493D01*
X7856259Y-10456572D01*
X7857590Y-10457717D01*
X7858860Y-10458926D01*
X7860069Y-10460197D01*
X7861214Y-10461528D01*
X7862293Y-10462917D01*
X7863305Y-10464362D01*
X7864246Y-10465862D01*
X7865116Y-10467414D01*
X7865912Y-10469016D01*
X7866633Y-10470667D01*
X7867276Y-10472364D01*
X7867839Y-10474106D01*
X7868321Y-10475890D01*
X7868720Y-10477716D01*
X7869034Y-10479579D01*
X7869260Y-10481480D01*
X7869398Y-10483416D01*
X7869444Y-10485384D01*
X7869444Y-11535780D01*
X7869398Y-11537748D01*
X7869260Y-11539684D01*
X7869034Y-11541585D01*
X7868720Y-11543449D01*
X7868321Y-11545274D01*
X7867839Y-11547058D01*
X7867276Y-11548800D01*
X7866633Y-11550497D01*
X7865912Y-11552148D01*
X7865116Y-11553750D01*
X7864246Y-11555302D01*
X7863305Y-11556802D01*
X7862293Y-11558247D01*
X7861214Y-11559636D01*
X7860069Y-11560967D01*
X7858861Y-11562238D01*
X7857590Y-11563447D01*
X7856259Y-11564592D01*
X7854870Y-11565671D01*
X7853424Y-11566682D01*
X7851925Y-11567624D01*
X7850373Y-11568493D01*
X7848770Y-11569290D01*
X7847120Y-11570010D01*
X7845423Y-11570653D01*
X7843681Y-11571217D01*
X7841896Y-11571699D01*
X7840071Y-11572098D01*
X7838207Y-11572412D01*
X7836306Y-11572638D01*
X7834371Y-11572775D01*
X7832402Y-11572821D01*
X7417007Y-11572821D01*
X7419652Y-11575467D01*
X7419652Y-11612509D01*
X7419606Y-11614477D01*
X7419469Y-11616413D01*
X7419242Y-11618314D01*
X7418929Y-11620177D01*
X7418530Y-11622003D01*
X7418048Y-11623787D01*
X7417484Y-11625529D01*
X7416841Y-11627226D01*
X7416120Y-11628877D01*
X7415324Y-11630479D01*
X7414454Y-11632031D01*
X7413513Y-11633531D01*
X7412502Y-11634976D01*
X7411423Y-11636365D01*
X7410278Y-11637696D01*
X7409069Y-11638967D01*
X7407798Y-11640176D01*
X7406467Y-11641321D01*
X7405078Y-11642400D01*
X7403633Y-11643411D01*
X7402133Y-11644353D01*
X7400581Y-11645222D01*
X7398979Y-11646018D01*
X7397328Y-11646739D01*
X7395631Y-11647382D01*
X7393889Y-11647946D01*
X7392105Y-11648428D01*
X7390279Y-11648827D01*
X7388415Y-11649140D01*
X7386515Y-11649367D01*
X7384579Y-11649504D01*
X7382611Y-11649550D01*
X4977548Y-11649550D01*
X4975580Y-11649504D01*
X4973644Y-11649367D01*
X4971744Y-11649140D01*
X4969880Y-11648827D01*
X4968054Y-11648428D01*
X4966270Y-11647946D01*
X4964528Y-11647382D01*
X4962831Y-11646739D01*
X4961180Y-11646019D01*
X4959578Y-11645222D01*
X4958026Y-11644353D01*
X4956526Y-11643411D01*
X4955081Y-11642400D01*
X4953692Y-11641321D01*
X4952361Y-11640176D01*
X4951090Y-11638967D01*
X4949881Y-11637696D01*
X4948736Y-11636365D01*
X4947657Y-11634976D01*
X4946646Y-11633531D01*
X4945704Y-11632031D01*
X4944835Y-11630479D01*
X4944039Y-11628877D01*
X4943318Y-11627226D01*
X4942675Y-11625529D01*
X4942111Y-11623787D01*
X4941629Y-11622003D01*
X4941230Y-11620178D01*
X4940917Y-11618314D01*
X4940690Y-11616413D01*
X4940553Y-11614477D01*
X4940507Y-11612509D01*
X4940507Y-10636197D01*
X4940553Y-10634228D01*
X4940690Y-10632292D01*
X4940917Y-10630392D01*
X4941230Y-10628528D01*
X4941629Y-10626703D01*
X4942111Y-10624918D01*
X4942675Y-10623177D01*
X4943318Y-10621479D01*
X4944039Y-10619829D01*
X4944835Y-10618226D01*
X4945704Y-10616674D01*
X4946646Y-10615175D01*
X4947657Y-10613730D01*
X4948736Y-10612340D01*
X4949881Y-10611009D01*
X4951090Y-10609738D01*
X4952361Y-10608530D01*
X4953692Y-10607385D01*
X4955081Y-10606306D01*
X4956526Y-10605294D01*
X4958026Y-10604353D01*
X4959578Y-10603483D01*
X4961180Y-10602687D01*
X4962831Y-10601966D01*
X4964528Y-10601323D01*
X4966270Y-10600760D01*
X4968054Y-10600277D01*
X4969880Y-10599879D01*
X4971744Y-10599565D01*
X4973644Y-10599339D01*
X4975580Y-10599201D01*
X4977548Y-10599155D01*
X7345569Y-10599155D01*
X7345569Y-10485384D01*
X7345615Y-10483416D01*
X7345753Y-10481480D01*
X7345979Y-10479580D01*
X7346293Y-10477716D01*
X7346692Y-10475890D01*
X7347174Y-10474106D01*
X7347737Y-10472364D01*
X7348380Y-10470667D01*
X7349101Y-10469016D01*
X7349897Y-10467414D01*
X7350767Y-10465862D01*
X7351708Y-10464362D01*
X7352720Y-10462917D01*
X7353799Y-10461528D01*
X7354944Y-10460197D01*
X7356152Y-10458926D01*
X7357423Y-10457717D01*
X7358754Y-10456572D01*
X7360143Y-10455493D01*
X7361589Y-10454482D01*
X7363088Y-10453540D01*
X7364640Y-10452671D01*
X7366243Y-10451874D01*
X7367893Y-10451154D01*
X7369590Y-10450511D01*
X7371332Y-10449947D01*
X7373117Y-10449465D01*
X7374942Y-10449066D01*
X7376806Y-10448752D01*
X7378706Y-10448526D01*
X7380642Y-10448389D01*
X7382611Y-10448343D01*
X7832402Y-10448343D01*
X7834371Y-10448389D01*
X23098119Y-9167807D02*
X23100000Y-9167950D01*
X23101854Y-9168186D01*
X23103678Y-9168512D01*
X23105470Y-9168925D01*
X23107228Y-9169424D01*
X23108949Y-9170007D01*
X23110631Y-9170670D01*
X23112272Y-9171412D01*
X23113869Y-9172230D01*
X23115420Y-9173122D01*
X23116923Y-9174085D01*
X23118375Y-9175118D01*
X23119775Y-9176217D01*
X23121119Y-9177382D01*
X23122405Y-9178608D01*
X23123632Y-9179895D01*
X23124796Y-9181239D01*
X23125896Y-9182638D01*
X23126929Y-9184090D01*
X23127892Y-9185593D01*
X23128784Y-9187144D01*
X23129602Y-9188741D01*
X23130344Y-9190382D01*
X23131007Y-9192064D01*
X23131590Y-9193785D01*
X23132089Y-9195543D01*
X23132502Y-9197335D01*
X23132828Y-9199159D01*
X23133064Y-9201013D01*
X23133207Y-9202894D01*
X23133255Y-9204800D01*
X23133255Y-10181113D01*
X23133207Y-10183019D01*
X23133064Y-10184900D01*
X23132828Y-10186754D01*
X23132502Y-10188578D01*
X23132089Y-10190370D01*
X23131590Y-10192128D01*
X23131007Y-10193849D01*
X23130344Y-10195531D01*
X23129602Y-10197172D01*
X23128784Y-10198769D01*
X23127892Y-10200320D01*
X23126929Y-10201823D01*
X23125896Y-10203276D01*
X23124796Y-10204675D01*
X23123632Y-10206019D01*
X23122405Y-10207305D01*
X23121119Y-10208532D01*
X23119775Y-10209696D01*
X23118375Y-10210796D01*
X23116923Y-10211828D01*
X23115420Y-10212792D01*
X23113869Y-10213684D01*
X23112272Y-10214502D01*
X23110631Y-10215244D01*
X23108949Y-10215907D01*
X23107228Y-10216489D01*
X23105470Y-10216988D01*
X23103678Y-10217402D01*
X23101854Y-10217728D01*
X23100000Y-10217963D01*
X23098119Y-10218106D01*
X23096213Y-10218155D01*
X22119902Y-10218155D01*
X22117996Y-10218106D01*
X22116115Y-10217963D01*
X22114261Y-10217728D01*
X22112437Y-10217402D01*
X22110645Y-10216988D01*
X22108887Y-10216489D01*
X22107166Y-10215907D01*
X22105484Y-10215244D01*
X22103843Y-10214502D01*
X22102246Y-10213684D01*
X22100695Y-10212792D01*
X22099192Y-10211828D01*
X22097739Y-10210796D01*
X22096340Y-10209696D01*
X22094996Y-10208532D01*
X22093709Y-10207305D01*
X22092483Y-10206019D01*
X22091319Y-10204675D01*
X22090219Y-10203276D01*
X22089186Y-10201823D01*
X22088223Y-10200320D01*
X22087331Y-10198769D01*
X22086513Y-10197172D01*
X22085771Y-10195531D01*
X22085108Y-10193849D01*
X22084525Y-10192128D01*
X22084026Y-10190370D01*
X22083612Y-10188578D01*
X22083287Y-10186754D01*
X22083051Y-10184900D01*
X22082908Y-10183019D01*
X22082860Y-10181113D01*
X22082860Y-9204800D01*
X22082908Y-9202894D01*
X22083051Y-9201013D01*
X22083287Y-9199159D01*
X22083612Y-9197335D01*
X22084026Y-9195543D01*
X22084525Y-9193785D01*
X22085108Y-9192064D01*
X22085771Y-9190382D01*
X22086513Y-9188741D01*
X22087331Y-9187144D01*
X22088223Y-9185593D01*
X22089186Y-9184090D01*
X22090219Y-9182638D01*
X22091319Y-9181239D01*
X22092483Y-9179895D01*
X22093709Y-9178608D01*
X22094996Y-9177382D01*
X22096340Y-9176217D01*
X22097739Y-9175118D01*
X22099192Y-9174085D01*
X22100695Y-9173122D01*
X22102246Y-9172230D01*
X22103843Y-9171412D01*
X22105484Y-9170670D01*
X22107166Y-9170007D01*
X22108887Y-9169424D01*
X22110645Y-9168925D01*
X22112437Y-9168512D01*
X22114261Y-9168186D01*
X22116115Y-9167950D01*
X22117996Y-9167807D01*
X22119902Y-9167759D01*
X23096213Y-9167759D01*
X23098119Y-9167807D01*
X21669370Y-9167807D02*
X21671251Y-9167950D01*
X21673105Y-9168186D01*
X21674929Y-9168512D01*
X21676721Y-9168925D01*
X21678479Y-9169424D01*
X21680200Y-9170007D01*
X21681882Y-9170670D01*
X21683523Y-9171412D01*
X21685120Y-9172230D01*
X21686671Y-9173122D01*
X21688174Y-9174085D01*
X21689627Y-9175118D01*
X21691026Y-9176217D01*
X21692370Y-9177382D01*
X21693656Y-9178608D01*
X21694883Y-9179895D01*
X21696047Y-9181239D01*
X21697147Y-9182638D01*
X21698180Y-9184090D01*
X21699143Y-9185593D01*
X21700035Y-9187144D01*
X21700853Y-9188741D01*
X21701595Y-9190382D01*
X21702258Y-9192064D01*
X21702841Y-9193785D01*
X21703340Y-9195543D01*
X21703753Y-9197335D01*
X21704079Y-9199159D01*
X21704315Y-9201013D01*
X21704458Y-9202894D01*
X21704506Y-9204800D01*
X21704506Y-10181113D01*
X21704458Y-10183019D01*
X21704315Y-10184900D01*
X21704079Y-10186754D01*
X21703753Y-10188578D01*
X21703340Y-10190370D01*
X21702841Y-10192128D01*
X21702258Y-10193849D01*
X21701595Y-10195531D01*
X21700853Y-10197172D01*
X21700035Y-10198769D01*
X21699143Y-10200320D01*
X21698180Y-10201823D01*
X21697147Y-10203276D01*
X21696047Y-10204675D01*
X21694883Y-10206019D01*
X21693656Y-10207305D01*
X21692370Y-10208532D01*
X21691026Y-10209696D01*
X21689627Y-10210796D01*
X21688174Y-10211828D01*
X21686671Y-10212792D01*
X21685120Y-10213684D01*
X21683523Y-10214502D01*
X21681882Y-10215244D01*
X21680200Y-10215907D01*
X21678479Y-10216489D01*
X21676721Y-10216988D01*
X21674929Y-10217402D01*
X21673105Y-10217728D01*
X21671251Y-10217963D01*
X21669370Y-10218106D01*
X21667464Y-10218155D01*
X20691151Y-10218155D01*
X20689245Y-10218106D01*
X20687364Y-10217963D01*
X20685510Y-10217728D01*
X20683686Y-10217402D01*
X20681894Y-10216988D01*
X20680136Y-10216489D01*
X20678415Y-10215907D01*
X20676733Y-10215244D01*
X20675092Y-10214502D01*
X20673495Y-10213684D01*
X20671944Y-10212792D01*
X20670441Y-10211828D01*
X20668989Y-10210796D01*
X20667589Y-10209696D01*
X20666245Y-10208532D01*
X20664959Y-10207305D01*
X20663732Y-10206019D01*
X20662568Y-10204675D01*
X20661468Y-10203276D01*
X20660436Y-10201823D01*
X20659472Y-10200320D01*
X20658580Y-10198769D01*
X20657762Y-10197172D01*
X20657020Y-10195531D01*
X20656357Y-10193849D01*
X20655775Y-10192128D01*
X20655275Y-10190370D01*
X20654862Y-10188578D01*
X20654536Y-10186754D01*
X20654300Y-10184900D01*
X20654157Y-10183019D01*
X20654109Y-10181113D01*
X20654109Y-9204800D01*
X20654157Y-9202894D01*
X20654300Y-9201013D01*
X20654536Y-9199159D01*
X20654862Y-9197335D01*
X20655275Y-9195543D01*
X20655775Y-9193785D01*
X20656357Y-9192064D01*
X20657020Y-9190382D01*
X20657762Y-9188741D01*
X20658580Y-9187144D01*
X20659472Y-9185593D01*
X20660436Y-9184090D01*
X20661468Y-9182638D01*
X20662568Y-9181239D01*
X20663732Y-9179895D01*
X20664959Y-9178608D01*
X20666245Y-9177382D01*
X20667589Y-9176217D01*
X20668989Y-9175118D01*
X20670441Y-9174085D01*
X20671944Y-9173122D01*
X20673495Y-9172230D01*
X20675092Y-9171412D01*
X20676733Y-9170670D01*
X20678415Y-9170007D01*
X20680136Y-9169424D01*
X20681894Y-9168925D01*
X20683686Y-9168512D01*
X20685510Y-9168186D01*
X20687364Y-9167950D01*
X20689245Y-9167807D01*
X20691151Y-9167759D01*
X21667464Y-9167759D01*
X21669370Y-9167807D01*
X8810621Y-6310307D02*
X8812502Y-6310450D01*
X8814356Y-6310686D01*
X8816180Y-6311012D01*
X8817972Y-6311425D01*
X8819730Y-6311924D01*
X8821451Y-6312507D01*
X8823133Y-6313170D01*
X8824774Y-6313912D01*
X8826371Y-6314730D01*
X8827922Y-6315622D01*
X8829425Y-6316585D01*
X8830878Y-6317618D01*
X8832277Y-6318717D01*
X8833621Y-6319882D01*
X8834907Y-6321108D01*
X8836134Y-6322395D01*
X8837298Y-6323739D01*
X8838398Y-6325138D01*
X8839430Y-6326590D01*
X8840394Y-6328093D01*
X8841286Y-6329644D01*
X8842104Y-6331242D01*
X8842846Y-6332882D01*
X8843509Y-6334564D01*
X8844091Y-6336286D01*
X8844590Y-6338043D01*
X8845004Y-6339835D01*
X8845330Y-6341660D01*
X8845565Y-6343513D01*
X8845708Y-6345394D01*
X8845757Y-6347301D01*
X8845757Y-7323613D01*
X8845708Y-7325519D01*
X8845565Y-7327400D01*
X8845330Y-7329254D01*
X8845004Y-7331078D01*
X8844590Y-7332870D01*
X8844091Y-7334628D01*
X8843509Y-7336349D01*
X8842846Y-7338031D01*
X8842104Y-7339672D01*
X8841286Y-7341269D01*
X8840394Y-7342821D01*
X8839430Y-7344324D01*
X8838398Y-7345776D01*
X8837298Y-7347175D01*
X8836134Y-7348519D01*
X8834907Y-7349806D01*
X8833621Y-7351032D01*
X8832277Y-7352196D01*
X8830878Y-7353296D01*
X8829425Y-7354329D01*
X8827922Y-7355292D01*
X8826371Y-7356184D01*
X8824774Y-7357002D01*
X8823133Y-7357744D01*
X8821451Y-7358407D01*
X8819730Y-7358989D01*
X8817972Y-7359489D01*
X8816180Y-7359902D01*
X8814356Y-7360228D01*
X8812502Y-7360464D01*
X8810621Y-7360607D01*
X8808715Y-7360655D01*
X7832402Y-7360655D01*
X7830496Y-7360607D01*
X7828615Y-7360464D01*
X7826761Y-7360228D01*
X7824937Y-7359902D01*
X7823145Y-7359489D01*
X7821387Y-7358989D01*
X7819666Y-7358407D01*
X7817984Y-7357744D01*
X7816343Y-7357002D01*
X7814746Y-7356184D01*
X7813195Y-7355292D01*
X7811692Y-7354329D01*
X7810240Y-7353296D01*
X7808841Y-7352196D01*
X7807496Y-7351032D01*
X7806210Y-7349806D01*
X7804984Y-7348519D01*
X7803819Y-7347175D01*
X7802720Y-7345776D01*
X7801687Y-7344324D01*
X7800723Y-7342821D01*
X7799832Y-7341269D01*
X7799014Y-7339672D01*
X7798272Y-7338031D01*
X7797609Y-7336349D01*
X7797026Y-7334628D01*
X7796527Y-7332870D01*
X7796113Y-7331078D01*
X7795788Y-7329254D01*
X7795552Y-7327400D01*
X7795409Y-7325519D01*
X7795361Y-7323613D01*
X7795361Y-6347301D01*
X7795409Y-6345394D01*
X7795552Y-6343513D01*
X7795788Y-6341660D01*
X7796113Y-6339835D01*
X7796527Y-6338043D01*
X7797026Y-6336286D01*
X7797609Y-6334564D01*
X7798272Y-6332882D01*
X7799014Y-6331242D01*
X7799832Y-6329644D01*
X7800723Y-6328093D01*
X7801687Y-6326590D01*
X7802720Y-6325138D01*
X7803819Y-6323739D01*
X7804984Y-6322395D01*
X7806210Y-6321108D01*
X7807496Y-6319882D01*
X7808841Y-6318717D01*
X7810240Y-6317618D01*
X7811692Y-6316585D01*
X7813195Y-6315622D01*
X7814746Y-6314730D01*
X7816343Y-6313912D01*
X7817984Y-6313170D01*
X7819666Y-6312507D01*
X7821387Y-6311924D01*
X7823145Y-6311425D01*
X7824937Y-6311012D01*
X7826761Y-6310686D01*
X7828615Y-6310450D01*
X7830496Y-6310307D01*
X7832402Y-6310259D01*
X8808715Y-6310259D01*
X8810621Y-6310307D01*
X11668122Y-6310307D02*
X11670003Y-6310450D01*
X11671857Y-6310686D01*
X11673681Y-6311012D01*
X11675473Y-6311425D01*
X11677230Y-6311924D01*
X11678952Y-6312507D01*
X11680634Y-6313170D01*
X11682274Y-6313912D01*
X11683872Y-6314730D01*
X11685423Y-6315622D01*
X11686926Y-6316585D01*
X11688378Y-6317618D01*
X11689777Y-6318717D01*
X11691121Y-6319882D01*
X11692408Y-6321108D01*
X11693634Y-6322395D01*
X11694798Y-6323739D01*
X11695898Y-6325138D01*
X11696931Y-6326590D01*
X11697894Y-6328093D01*
X11698786Y-6329644D01*
X11699604Y-6331242D01*
X11700346Y-6332882D01*
X11701009Y-6334564D01*
X11701592Y-6336286D01*
X11702091Y-6338043D01*
X11702504Y-6339835D01*
X11702830Y-6341660D01*
X11703066Y-6343513D01*
X11703209Y-6345394D01*
X11703257Y-6347301D01*
X11703257Y-7323613D01*
X11703209Y-7325519D01*
X11703066Y-7327400D01*
X11702830Y-7329254D01*
X11702504Y-7331078D01*
X11702091Y-7332870D01*
X11701592Y-7334628D01*
X11701009Y-7336349D01*
X11700346Y-7338031D01*
X11699604Y-7339672D01*
X11698786Y-7341269D01*
X11697894Y-7342821D01*
X11696931Y-7344324D01*
X11695898Y-7345776D01*
X11694798Y-7347175D01*
X11693634Y-7348519D01*
X11692408Y-7349806D01*
X11691121Y-7351032D01*
X11689777Y-7352196D01*
X11688378Y-7353296D01*
X11686926Y-7354329D01*
X11685423Y-7355292D01*
X11683872Y-7356184D01*
X11682274Y-7357002D01*
X11680634Y-7357744D01*
X11678952Y-7358407D01*
X11677230Y-7358989D01*
X11675473Y-7359489D01*
X11673681Y-7359902D01*
X11671857Y-7360228D01*
X11670003Y-7360464D01*
X11668122Y-7360607D01*
X11666215Y-7360655D01*
X10689903Y-7360655D01*
X10687996Y-7360607D01*
X10686115Y-7360464D01*
X10684261Y-7360228D01*
X10682437Y-7359902D01*
X10680645Y-7359489D01*
X10678888Y-7358989D01*
X10677166Y-7358407D01*
X10675484Y-7357744D01*
X10673844Y-7357002D01*
X10672246Y-7356184D01*
X10670695Y-7355292D01*
X10669192Y-7354329D01*
X10667740Y-7353296D01*
X10666341Y-7352196D01*
X10664997Y-7351032D01*
X10663710Y-7349806D01*
X10662484Y-7348519D01*
X10661320Y-7347175D01*
X10660220Y-7345776D01*
X10659187Y-7344324D01*
X10658224Y-7342821D01*
X10657332Y-7341269D01*
X10656514Y-7339672D01*
X10655772Y-7338031D01*
X10655109Y-7336349D01*
X10654526Y-7334628D01*
X10654027Y-7332870D01*
X10653614Y-7331078D01*
X10653288Y-7329254D01*
X10653052Y-7327400D01*
X10652909Y-7325519D01*
X10652861Y-7323613D01*
X10652861Y-6347301D01*
X10652909Y-6345394D01*
X10653052Y-6343513D01*
X10653288Y-6341660D01*
X10653614Y-6339835D01*
X10654027Y-6338043D01*
X10654526Y-6336286D01*
X10655109Y-6334564D01*
X10655772Y-6332882D01*
X10656514Y-6331242D01*
X10657332Y-6329644D01*
X10658224Y-6328093D01*
X10659187Y-6326590D01*
X10660220Y-6325138D01*
X10661320Y-6323739D01*
X10662484Y-6322395D01*
X10663710Y-6321108D01*
X10664997Y-6319882D01*
X10666341Y-6318717D01*
X10667740Y-6317618D01*
X10669192Y-6316585D01*
X10670695Y-6315622D01*
X10672246Y-6314730D01*
X10673844Y-6313912D01*
X10675484Y-6313170D01*
X10677166Y-6312507D01*
X10678888Y-6311924D01*
X10680645Y-6311425D01*
X10682437Y-6311012D01*
X10684261Y-6310686D01*
X10686115Y-6310450D01*
X10687996Y-6310307D01*
X10689903Y-6310259D01*
X11666215Y-6310259D01*
X11668122Y-6310307D01*
D11*
X24950026Y-7498482D02*
X24959566Y-7499208D01*
X24968967Y-7500402D01*
X24978218Y-7502054D01*
X24987307Y-7504152D01*
X24996221Y-7506683D01*
X25004949Y-7509637D01*
X25013480Y-7513000D01*
X25021801Y-7516762D01*
X25029901Y-7520911D01*
X25037768Y-7525434D01*
X25045389Y-7530321D01*
X25052754Y-7535558D01*
X25059851Y-7541135D01*
X25066667Y-7547039D01*
X25073191Y-7553259D01*
X25079411Y-7559783D01*
X25085315Y-7566599D01*
X25090892Y-7573696D01*
X25096130Y-7581061D01*
X25101016Y-7588683D01*
X25105539Y-7596550D01*
X25109688Y-7604650D01*
X25113449Y-7612971D01*
X25116813Y-7621502D01*
X25119766Y-7630230D01*
X25122298Y-7639144D01*
X25124395Y-7648233D01*
X25126047Y-7657484D01*
X25127242Y-7666885D01*
X25127967Y-7676425D01*
X25128212Y-7686092D01*
X25127967Y-7695759D01*
X25127242Y-7705299D01*
X25126047Y-7714700D01*
X25124395Y-7723951D01*
X25122298Y-7733040D01*
X25119766Y-7741954D01*
X25116813Y-7750683D01*
X25113449Y-7759213D01*
X25109688Y-7767535D01*
X25105539Y-7775635D01*
X25101016Y-7783501D01*
X25096130Y-7791123D01*
X25090892Y-7798488D01*
X25085315Y-7805585D01*
X25079411Y-7812401D01*
X25073191Y-7818925D01*
X25066667Y-7825145D01*
X25059851Y-7831050D01*
X25052754Y-7836626D01*
X25045389Y-7841864D01*
X25037768Y-7846750D01*
X25029901Y-7851273D01*
X25021801Y-7855422D01*
X25013480Y-7859184D01*
X25004949Y-7862547D01*
X24996221Y-7865501D01*
X24987307Y-7868032D01*
X24978218Y-7870130D01*
X24968967Y-7871782D01*
X24959566Y-7872976D01*
X24950026Y-7873702D01*
X24940359Y-7873946D01*
X24930692Y-7873702D01*
X24921152Y-7872976D01*
X24911751Y-7871782D01*
X24902500Y-7870130D01*
X24893412Y-7868032D01*
X24884497Y-7865501D01*
X24875769Y-7862547D01*
X24867238Y-7859184D01*
X24858917Y-7855422D01*
X24850817Y-7851273D01*
X24842950Y-7846750D01*
X24835328Y-7841864D01*
X24827963Y-7836626D01*
X24820867Y-7831050D01*
X24814051Y-7825145D01*
X24807527Y-7818925D01*
X24801306Y-7812401D01*
X24795402Y-7805585D01*
X24789825Y-7798488D01*
X24784588Y-7791123D01*
X24779702Y-7783501D01*
X24775178Y-7775635D01*
X24771030Y-7767535D01*
X24767268Y-7759213D01*
X24763904Y-7750683D01*
X24760951Y-7741954D01*
X24758420Y-7733040D01*
X24756322Y-7723951D01*
X24754670Y-7714700D01*
X24753475Y-7705299D01*
X24752750Y-7695759D01*
X24752505Y-7686092D01*
X24752750Y-7676425D01*
X24753475Y-7666885D01*
X24754670Y-7657484D01*
X24756322Y-7648233D01*
X24758420Y-7639144D01*
X24760951Y-7630230D01*
X24763904Y-7621502D01*
X24767268Y-7612971D01*
X24771030Y-7604650D01*
X24775178Y-7596550D01*
X24779702Y-7588683D01*
X24784588Y-7581061D01*
X24789825Y-7573696D01*
X24795402Y-7566599D01*
X24801306Y-7559783D01*
X24807527Y-7553259D01*
X24814051Y-7547039D01*
X24820867Y-7541135D01*
X24827963Y-7535558D01*
X24835328Y-7530321D01*
X24842950Y-7525434D01*
X24850817Y-7520911D01*
X24858917Y-7516762D01*
X24867238Y-7513000D01*
X24875769Y-7509637D01*
X24884497Y-7506683D01*
X24893412Y-7504152D01*
X24902500Y-7502054D01*
X24911751Y-7500402D01*
X24921152Y-7499208D01*
X24930692Y-7498482D01*
X24940359Y-7498238D01*
X24950026Y-7498482D01*
D10*
X24526869Y-9167807D02*
X24528751Y-9167950D01*
X24530604Y-9168186D01*
X24532429Y-9168512D01*
X24534221Y-9168925D01*
X24535978Y-9169424D01*
X24537700Y-9170007D01*
X24539382Y-9170670D01*
X24541022Y-9171412D01*
X24542620Y-9172230D01*
X24544171Y-9173122D01*
X24545674Y-9174085D01*
X24547126Y-9175118D01*
X24548525Y-9176217D01*
X24549870Y-9177382D01*
X24551156Y-9178608D01*
X24552383Y-9179895D01*
X24553547Y-9181239D01*
X24554646Y-9182638D01*
X24555679Y-9184090D01*
X24556643Y-9185593D01*
X24557535Y-9187144D01*
X24558353Y-9188741D01*
X24559095Y-9190382D01*
X24559758Y-9192064D01*
X24560340Y-9193785D01*
X24560839Y-9195543D01*
X24561253Y-9197335D01*
X24561579Y-9199159D01*
X24561814Y-9201013D01*
X24561957Y-9202894D01*
X24562006Y-9204800D01*
X24562006Y-10181113D01*
X24561957Y-10183019D01*
X24561814Y-10184900D01*
X24561579Y-10186754D01*
X24561253Y-10188578D01*
X24560839Y-10190370D01*
X24560340Y-10192128D01*
X24559758Y-10193849D01*
X24559095Y-10195531D01*
X24558353Y-10197172D01*
X24557535Y-10198769D01*
X24556643Y-10200320D01*
X24555679Y-10201823D01*
X24554646Y-10203276D01*
X24553547Y-10204675D01*
X24552383Y-10206019D01*
X24551156Y-10207305D01*
X24549870Y-10208532D01*
X24548525Y-10209696D01*
X24547126Y-10210796D01*
X24545674Y-10211828D01*
X24544171Y-10212792D01*
X24542620Y-10213684D01*
X24541022Y-10214502D01*
X24539382Y-10215244D01*
X24537700Y-10215907D01*
X24535978Y-10216489D01*
X24534221Y-10216988D01*
X24532429Y-10217402D01*
X24530604Y-10217728D01*
X24528751Y-10217963D01*
X24526869Y-10218106D01*
X24524963Y-10218155D01*
X23548651Y-10218155D01*
X23546745Y-10218106D01*
X23544864Y-10217963D01*
X23543010Y-10217728D01*
X23541186Y-10217402D01*
X23539394Y-10216988D01*
X23537636Y-10216489D01*
X23535915Y-10215907D01*
X23534233Y-10215244D01*
X23532592Y-10214502D01*
X23530995Y-10213684D01*
X23529443Y-10212792D01*
X23527941Y-10211828D01*
X23526488Y-10210796D01*
X23525089Y-10209696D01*
X23523745Y-10208532D01*
X23522458Y-10207305D01*
X23521232Y-10206019D01*
X23520068Y-10204675D01*
X23518968Y-10203276D01*
X23517935Y-10201823D01*
X23516972Y-10200320D01*
X23516080Y-10198769D01*
X23515262Y-10197172D01*
X23514520Y-10195531D01*
X23513857Y-10193849D01*
X23513274Y-10192128D01*
X23512775Y-10190370D01*
X23512361Y-10188578D01*
X23512036Y-10186754D01*
X23511800Y-10184900D01*
X23511657Y-10183019D01*
X23511609Y-10181113D01*
X23511609Y-9204800D01*
X23511657Y-9202894D01*
X23511800Y-9201013D01*
X23512036Y-9199159D01*
X23512361Y-9197335D01*
X23512775Y-9195543D01*
X23513274Y-9193785D01*
X23513857Y-9192064D01*
X23514520Y-9190382D01*
X23515262Y-9188741D01*
X23516080Y-9187144D01*
X23516972Y-9185593D01*
X23517935Y-9184090D01*
X23518968Y-9182638D01*
X23520068Y-9181239D01*
X23521232Y-9179895D01*
X23522458Y-9178608D01*
X23523745Y-9177382D01*
X23525089Y-9176217D01*
X23526488Y-9175118D01*
X23527941Y-9174085D01*
X23529443Y-9173122D01*
X23530995Y-9172230D01*
X23532592Y-9171412D01*
X23534233Y-9170670D01*
X23535915Y-9170007D01*
X23537636Y-9169424D01*
X23539394Y-9168925D01*
X23541186Y-9168512D01*
X23543010Y-9168186D01*
X23544864Y-9167950D01*
X23546745Y-9167807D01*
X23548651Y-9167759D01*
X24524963Y-9167759D01*
X24526869Y-9167807D01*
X24526869Y-7739057D02*
X24528751Y-7739200D01*
X24530604Y-7739436D01*
X24532429Y-7739761D01*
X24534221Y-7740175D01*
X24535978Y-7740674D01*
X24537700Y-7741257D01*
X24539382Y-7741920D01*
X24541022Y-7742662D01*
X24542620Y-7743480D01*
X24544171Y-7744371D01*
X24545674Y-7745335D01*
X24547126Y-7746368D01*
X24548525Y-7747467D01*
X24549870Y-7748632D01*
X24551156Y-7749858D01*
X24552383Y-7751144D01*
X24553547Y-7752489D01*
X24554646Y-7753888D01*
X24555679Y-7755340D01*
X24556643Y-7756843D01*
X24557535Y-7758394D01*
X24558353Y-7759991D01*
X24559095Y-7761632D01*
X24559758Y-7763314D01*
X24560340Y-7765035D01*
X24560839Y-7766793D01*
X24561253Y-7768585D01*
X24561579Y-7770409D01*
X24561814Y-7772263D01*
X24561957Y-7774144D01*
X24562006Y-7776051D01*
X24562006Y-8752363D01*
X24561957Y-8754269D01*
X24561814Y-8756150D01*
X24561579Y-8758004D01*
X24561253Y-8759828D01*
X24560839Y-8761620D01*
X24560340Y-8763378D01*
X24559758Y-8765099D01*
X24559095Y-8766781D01*
X24558353Y-8768422D01*
X24557535Y-8770019D01*
X24556643Y-8771570D01*
X24555679Y-8773073D01*
X24554646Y-8774526D01*
X24553547Y-8775925D01*
X24552383Y-8777269D01*
X24551156Y-8778555D01*
X24549870Y-8779782D01*
X24548525Y-8780946D01*
X24547126Y-8782046D01*
X24545674Y-8783079D01*
X24544171Y-8784042D01*
X24542620Y-8784934D01*
X24541022Y-8785752D01*
X24539382Y-8786494D01*
X24537700Y-8787157D01*
X24535978Y-8787739D01*
X24534221Y-8788239D01*
X24532429Y-8788652D01*
X24530604Y-8788978D01*
X24528751Y-8789213D01*
X24526869Y-8789357D01*
X24524963Y-8789405D01*
X23548651Y-8789405D01*
X23546745Y-8789357D01*
X23544864Y-8789213D01*
X23543010Y-8788978D01*
X23541186Y-8788652D01*
X23539394Y-8788239D01*
X23537636Y-8787739D01*
X23535915Y-8787157D01*
X23534233Y-8786494D01*
X23532592Y-8785752D01*
X23530995Y-8784934D01*
X23529443Y-8784042D01*
X23527941Y-8783079D01*
X23526488Y-8782046D01*
X23525089Y-8780946D01*
X23523745Y-8779782D01*
X23522458Y-8778555D01*
X23521232Y-8777269D01*
X23520068Y-8775925D01*
X23518968Y-8774526D01*
X23517935Y-8773073D01*
X23516972Y-8771570D01*
X23516080Y-8770019D01*
X23515262Y-8768422D01*
X23514520Y-8766781D01*
X23513857Y-8765099D01*
X23513274Y-8763378D01*
X23512775Y-8761620D01*
X23512361Y-8759828D01*
X23512036Y-8758004D01*
X23511800Y-8756150D01*
X23511657Y-8754269D01*
X23511609Y-8752363D01*
X23511609Y-7776051D01*
X23511657Y-7774144D01*
X23511800Y-7772263D01*
X23512036Y-7770409D01*
X23512361Y-7768585D01*
X23512775Y-7766793D01*
X23513274Y-7765035D01*
X23513857Y-7763314D01*
X23514520Y-7761632D01*
X23515262Y-7759991D01*
X23516080Y-7758394D01*
X23516972Y-7756843D01*
X23517935Y-7755340D01*
X23518968Y-7753888D01*
X23520068Y-7752489D01*
X23521232Y-7751144D01*
X23522458Y-7749858D01*
X23523745Y-7748632D01*
X23525089Y-7747467D01*
X23526488Y-7746368D01*
X23527941Y-7745335D01*
X23529443Y-7744371D01*
X23530995Y-7743480D01*
X23532592Y-7742662D01*
X23534233Y-7741920D01*
X23535915Y-7741257D01*
X23537636Y-7740674D01*
X23539394Y-7740175D01*
X23541186Y-7739761D01*
X23543010Y-7739436D01*
X23544864Y-7739200D01*
X23546745Y-7739057D01*
X23548651Y-7739009D01*
X24524963Y-7739009D01*
X24526869Y-7739057D01*
X4524371Y-6310307D02*
X4526252Y-6310450D01*
X4528106Y-6310686D01*
X4529930Y-6311012D01*
X4531722Y-6311425D01*
X4533480Y-6311924D01*
X4535201Y-6312507D01*
X4536883Y-6313170D01*
X4538524Y-6313912D01*
X4540121Y-6314730D01*
X4541673Y-6315622D01*
X4543175Y-6316585D01*
X4544628Y-6317618D01*
X4546027Y-6318717D01*
X4547371Y-6319882D01*
X4548657Y-6321108D01*
X4549884Y-6322395D01*
X4551048Y-6323739D01*
X4552148Y-6325138D01*
X4553181Y-6326590D01*
X4554144Y-6328093D01*
X4555036Y-6329644D01*
X4555854Y-6331242D01*
X4556596Y-6332882D01*
X4557259Y-6334564D01*
X4557841Y-6336286D01*
X4558341Y-6338043D01*
X4558754Y-6339835D01*
X4559080Y-6341660D01*
X4559315Y-6343513D01*
X4559459Y-6345394D01*
X4559507Y-6347301D01*
X4559507Y-7323613D01*
X4559459Y-7325519D01*
X4559315Y-7327400D01*
X4559080Y-7329254D01*
X4558754Y-7331078D01*
X4558341Y-7332870D01*
X4557841Y-7334628D01*
X4557259Y-7336349D01*
X4556596Y-7338031D01*
X4555854Y-7339672D01*
X4555036Y-7341269D01*
X4554144Y-7342821D01*
X4553181Y-7344324D01*
X4552148Y-7345776D01*
X4551048Y-7347175D01*
X4549884Y-7348519D01*
X4548657Y-7349806D01*
X4547371Y-7351032D01*
X4546027Y-7352196D01*
X4544628Y-7353296D01*
X4543175Y-7354329D01*
X4541673Y-7355292D01*
X4540121Y-7356184D01*
X4538524Y-7357002D01*
X4536883Y-7357744D01*
X4535201Y-7358407D01*
X4533480Y-7358989D01*
X4531722Y-7359489D01*
X4529930Y-7359902D01*
X4528106Y-7360228D01*
X4526252Y-7360464D01*
X4524371Y-7360607D01*
X4522465Y-7360655D01*
X3546152Y-7360655D01*
X3544246Y-7360607D01*
X3542365Y-7360464D01*
X3540511Y-7360228D01*
X3538687Y-7359902D01*
X3536895Y-7359489D01*
X3535137Y-7358989D01*
X3533416Y-7358407D01*
X3531734Y-7357744D01*
X3530093Y-7357002D01*
X3528496Y-7356184D01*
X3526945Y-7355292D01*
X3525442Y-7354329D01*
X3523990Y-7353296D01*
X3522591Y-7352196D01*
X3521246Y-7351032D01*
X3519960Y-7349806D01*
X3518734Y-7348519D01*
X3517569Y-7347175D01*
X3516470Y-7345776D01*
X3515437Y-7344324D01*
X3514473Y-7342821D01*
X3513582Y-7341269D01*
X3512764Y-7339672D01*
X3512022Y-7338031D01*
X3511358Y-7336349D01*
X3510776Y-7334628D01*
X3510277Y-7332870D01*
X3509863Y-7331078D01*
X3509538Y-7329254D01*
X3509302Y-7327400D01*
X3509159Y-7325519D01*
X3509111Y-7323613D01*
X3509111Y-6347301D01*
X3509159Y-6345394D01*
X3509302Y-6343513D01*
X3509538Y-6341660D01*
X3509863Y-6339835D01*
X3510277Y-6338043D01*
X3510776Y-6336286D01*
X3511358Y-6334564D01*
X3512022Y-6332882D01*
X3512764Y-6331242D01*
X3513582Y-6329644D01*
X3514473Y-6328093D01*
X3515437Y-6326590D01*
X3516470Y-6325138D01*
X3517569Y-6323739D01*
X3518734Y-6322395D01*
X3519960Y-6321108D01*
X3521246Y-6319882D01*
X3522591Y-6318717D01*
X3523990Y-6317618D01*
X3525442Y-6316585D01*
X3526945Y-6315622D01*
X3528496Y-6314730D01*
X3530093Y-6313912D01*
X3531734Y-6313170D01*
X3533416Y-6312507D01*
X3535137Y-6311924D01*
X3536895Y-6311425D01*
X3538687Y-6311012D01*
X3540511Y-6310686D01*
X3542365Y-6310450D01*
X3544246Y-6310307D01*
X3546152Y-6310259D01*
X4522465Y-6310259D01*
X4524371Y-6310307D01*
D12*
X3462971Y-12688638D02*
X3462971Y-12488638D01*
X3462971Y-12488638D02*
X3510590Y-12488638D01*
X3510590Y-12488638D02*
X3539162Y-12498161D01*
X3539162Y-12498161D02*
X3558209Y-12517209D01*
X3558209Y-12517209D02*
X3567733Y-12536257D01*
X3567733Y-12536257D02*
X3577257Y-12574352D01*
X3577257Y-12574352D02*
X3577257Y-12602923D01*
X3577257Y-12602923D02*
X3567733Y-12641019D01*
X3567733Y-12641019D02*
X3558209Y-12660066D01*
X3558209Y-12660066D02*
X3539162Y-12679114D01*
X3539162Y-12679114D02*
X3510590Y-12688638D01*
X3510590Y-12688638D02*
X3462971Y-12688638D01*
X3662971Y-12688638D02*
X3662971Y-12555304D01*
X3662971Y-12593400D02*
X3672495Y-12574352D01*
X3672495Y-12574352D02*
X3682019Y-12564828D01*
X3682019Y-12564828D02*
X3701066Y-12555304D01*
X3701066Y-12555304D02*
X3720114Y-12555304D01*
X3786781Y-12688638D02*
X3786781Y-12555304D01*
X3786781Y-12488638D02*
X3777257Y-12498161D01*
X3777257Y-12498161D02*
X3786781Y-12507685D01*
X3786781Y-12507685D02*
X3796304Y-12498161D01*
X3796304Y-12498161D02*
X3786781Y-12488638D01*
X3786781Y-12488638D02*
X3786781Y-12507685D01*
X3910590Y-12688638D02*
X3891542Y-12679114D01*
X3891542Y-12679114D02*
X3882019Y-12660066D01*
X3882019Y-12660066D02*
X3882019Y-12488638D01*
X4015352Y-12688638D02*
X3996304Y-12679114D01*
X3996304Y-12679114D02*
X3986781Y-12660066D01*
X3986781Y-12660066D02*
X3986781Y-12488638D01*
X4243924Y-12688638D02*
X4243924Y-12488638D01*
X4243924Y-12488638D02*
X4310590Y-12631495D01*
X4310590Y-12631495D02*
X4377257Y-12488638D01*
X4377257Y-12488638D02*
X4377257Y-12688638D01*
X4558209Y-12688638D02*
X4558209Y-12583876D01*
X4558209Y-12583876D02*
X4548685Y-12564828D01*
X4548685Y-12564828D02*
X4529638Y-12555304D01*
X4529638Y-12555304D02*
X4491543Y-12555304D01*
X4491543Y-12555304D02*
X4472495Y-12564828D01*
X4558209Y-12679114D02*
X4539162Y-12688638D01*
X4539162Y-12688638D02*
X4491543Y-12688638D01*
X4491543Y-12688638D02*
X4472495Y-12679114D01*
X4472495Y-12679114D02*
X4462971Y-12660066D01*
X4462971Y-12660066D02*
X4462971Y-12641019D01*
X4462971Y-12641019D02*
X4472495Y-12621971D01*
X4472495Y-12621971D02*
X4491543Y-12612447D01*
X4491543Y-12612447D02*
X4539162Y-12612447D01*
X4539162Y-12612447D02*
X4558209Y-12602923D01*
X4653447Y-12555304D02*
X4653447Y-12755304D01*
X4653447Y-12564828D02*
X4672495Y-12555304D01*
X4672495Y-12555304D02*
X4710590Y-12555304D01*
X4710590Y-12555304D02*
X4729638Y-12564828D01*
X4729638Y-12564828D02*
X4739162Y-12574352D01*
X4739162Y-12574352D02*
X4748685Y-12593400D01*
X4748685Y-12593400D02*
X4748685Y-12650542D01*
X4748685Y-12650542D02*
X4739162Y-12669590D01*
X4739162Y-12669590D02*
X4729638Y-12679114D01*
X4729638Y-12679114D02*
X4710590Y-12688638D01*
X4710590Y-12688638D02*
X4672495Y-12688638D01*
X4672495Y-12688638D02*
X4653447Y-12679114D01*
X4834400Y-12669590D02*
X4843924Y-12679114D01*
X4843924Y-12679114D02*
X4834400Y-12688638D01*
X4834400Y-12688638D02*
X4824876Y-12679114D01*
X4824876Y-12679114D02*
X4834400Y-12669590D01*
X4834400Y-12669590D02*
X4834400Y-12688638D01*
X4834400Y-12564828D02*
X4843924Y-12574352D01*
X4843924Y-12574352D02*
X4834400Y-12583876D01*
X4834400Y-12583876D02*
X4824876Y-12574352D01*
X4824876Y-12574352D02*
X4834400Y-12564828D01*
X4834400Y-12564828D02*
X4834400Y-12583876D01*
M02*
