<?xml version="1.0" encoding="UTF-8"?>
<svg xmlns="http://www.w3.org/2000/svg" version="1.1" viewBox="0 0 886.4 257.1">
  <defs>
    <style>
      .cls-1 {
        stroke-width: .6px;
      }

      .cls-1, .cls-2 {
        fill: none;
        stroke: #000;
        stroke-linecap: round;
        stroke-linejoin: round;
      }

      .cls-2 {
        stroke-width: .7px;
      }
    </style>
  </defs>
  <!-- Generator: Adobe Illustrator 28.7.1, SVG Export Plug-In . SVG Version: 1.2.0 Build 142)  -->
  <g>
    <g id="Layer_1">
      <g id="SPLINE">
        <rect class="cls-2" x="11.6" y="27.7" width="39.7" height="39.7" rx="1.4" ry="1.4"/>
      </g>
      <g id="SPLINE-2" data-name="SPLINE">
        <rect class="cls-2" x="65.6" y="27.7" width="39.7" height="39.7" rx="1.4" ry="1.4"/>
      </g>
      <g id="SPLINE-3" data-name="SPLINE">
        <rect class="cls-2" x="119.6" y="27.7" width="39.7" height="39.7" rx="1.4" ry="1.4"/>
      </g>
      <g id="SPLINE-4" data-name="SPLINE">
        <rect class="cls-2" x="173.6" y="27.7" width="39.7" height="39.7" rx="1.4" ry="1.4"/>
      </g>
      <g id="SPLINE-5" data-name="SPLINE">
        <rect class="cls-2" x="227.6" y="27.7" width="39.7" height="39.7" rx="1.4" ry="1.4"/>
      </g>
      <g id="SPLINE-6" data-name="SPLINE">
        <rect class="cls-2" x="281.6" y="27.7" width="39.7" height="39.7" rx="1.4" ry="1.4"/>
      </g>
      <g id="SPLINE-7" data-name="SPLINE">
        <rect class="cls-2" x="335.6" y="27.7" width="39.7" height="39.7" rx="1.4" ry="1.4"/>
      </g>
      <g id="SPLINE-8" data-name="SPLINE">
        <rect class="cls-2" x="389.6" y="27.7" width="39.7" height="39.7" rx="1.4" ry="1.4"/>
      </g>
      <g id="SPLINE-9" data-name="SPLINE">
        <rect class="cls-2" x="443.6" y="27.7" width="39.7" height="39.7" rx="1.4" ry="1.4"/>
      </g>
      <g id="SPLINE-10" data-name="SPLINE">
        <rect class="cls-2" x="497.6" y="27.7" width="39.7" height="39.7" rx="1.4" ry="1.4"/>
      </g>
      <g id="SPLINE-11" data-name="SPLINE">
        <rect class="cls-2" x="659.6" y="27.7" width="39.7" height="39.7" rx="1.4" ry="1.4"/>
      </g>
      <g id="SPLINE-12" data-name="SPLINE">
        <rect class="cls-2" x="713.6" y="27.7" width="39.7" height="39.7" rx="1.4" ry="1.4"/>
      </g>
      <g id="SPLINE-13" data-name="SPLINE">
        <rect class="cls-2" x="767.6" y="27.7" width="39.7" height="39.7" rx="1.4" ry="1.4"/>
      </g>
      <g id="SPLINE-14" data-name="SPLINE">
        <rect class="cls-2" x="835.1" y="27.7" width="39.7" height="39.7" rx="1.4" ry="1.4"/>
      </g>
      <g id="SPLINE-15" data-name="SPLINE">
        <path class="cls-2" d="M662.7,189.7h-1.7c-.8,0-1.4.6-1.4,1.4v36.9c0,.8.6,1.4,1.4,1.4h90.9c.8,0,1.4-.6,1.4-1.4v-36.9c0-.8-.6-1.4-1.4-1.4h-1.7v-4.3c0-.8-.6-1.4-1.4-1.4h-17c-.8,0-1.4.6-1.4,1.4v4.3h-47.8v-4.3c0-.8-.6-1.4-1.4-1.4h-17c-.8,0-1.4.6-1.4,1.4,0,0,0,4.3,0,4.3Z"/>
      </g>
      <g id="SPLINE-16" data-name="SPLINE">
        <rect class="cls-2" x="767.6" y="189.7" width="39.7" height="39.7" rx="1.4" ry="1.4"/>
      </g>
      <g id="SPLINE-17" data-name="SPLINE">
        <rect class="cls-2" x="821.6" y="189.7" width="39.7" height="39.7" rx="1.4" ry="1.4"/>
      </g>
      <g id="SPLINE-18" data-name="SPLINE">
        <rect class="cls-2" x="835.1" y="95.2" width="39.7" height="39.7" rx="1.4" ry="1.4"/>
      </g>
      <g id="SPLINE-19" data-name="SPLINE">
        <rect class="cls-2" x="659.6" y="81.7" width="39.7" height="39.7" rx="1.4" ry="1.4"/>
      </g>
      <g id="SPLINE-20" data-name="SPLINE">
        <rect class="cls-2" x="713.6" y="81.7" width="39.7" height="39.7" rx="1.4" ry="1.4"/>
      </g>
      <g id="SPLINE-21" data-name="SPLINE">
        <rect class="cls-2" x="767.6" y="81.7" width="39.7" height="39.7" rx="1.4" ry="1.4"/>
      </g>
      <g id="SPLINE-22" data-name="SPLINE">
        <rect class="cls-2" x="659.6" y="135.7" width="39.7" height="39.7" rx="1.4" ry="1.4"/>
      </g>
      <g id="SPLINE-23" data-name="SPLINE">
        <rect class="cls-2" x="713.6" y="135.7" width="39.7" height="39.7" rx="1.4" ry="1.4"/>
      </g>
      <g id="SPLINE-24" data-name="SPLINE">
        <rect class="cls-2" x="767.6" y="135.7" width="39.7" height="39.7" rx="1.4" ry="1.4"/>
      </g>
      <g id="SPLINE-25" data-name="SPLINE">
        <rect class="cls-1" x="363.8" y="239.1" width="15.6" height="12" rx="5.7" ry="5.7"/>
      </g>
      <g id="SPLINE-26" data-name="SPLINE">
        <rect class="cls-1" x="363.8" y="6" width="15.6" height="12" rx="5.7" ry="5.7"/>
      </g>
      <g id="CIRCLE">
        <circle class="cls-1" cx="821.6" cy="79.7" r="7.1"/>
      </g>
      <g id="CIRCLE-2" data-name="CIRCLE">
        <circle class="cls-1" cx="854.9" cy="152.6" r="7.1"/>
      </g>
      <g id="SPLINE-27" data-name="SPLINE">
        <path class="cls-1" d="M437.8,239.8c.6,0,1.1-.3,1.3-.8.5-1.2,2.2-2,4.1-2s3.5.8,4.1,2,.7.8,1.3.8h207.2c.8,0,1.4.6,1.4,1.4v7.1c0,.8.6,1.4,1.4,1.4h180c.8,0,1.4-.6,1.4-1.4v-7.1c0-.8.6-1.4,1.4-1.4h12.4c.6,0,1.1-.3,1.3-.8.5-1.2,2.2-2,4.1-2s3.5.8,4.1,2,.7.8,1.3.8h18.7c1.6,0,2.8-1.3,2.8-2.8V25.8c0-1.6-1.3-2.8-2.8-2.8h-9.9c-2.3,0-4.3-1.9-4.3-4.3h0c0-.8-.6-1.4-1.4-1.4h-3.2c-.6,0-1.1.3-1.3.8-.5,1.2-2.2,2-4.1,2s-3.5-.8-4.1-2-.7-.8-1.3-.8h-23.8c-.7,0-1.3.5-1.4,1.2-.6,3.4-3.6,6-7.2,5.9s-6.9-3.5-6.9-7.4c0-3.1,0-7.1,0-7.1,0-1.8-.8-2.5-1.7-2.5h-178.7c-1,0-1.7.8-1.7,1.7v6.4c0,1-.8,1.7-1.7,1.7h-182.1c-.6,0-1.1.3-1.3.8-.5,1.2-2.2,2-4.1,2s-3.5-.8-4.1-2-.7-.8-1.3-.8c-7.1,0-46.4,0-46.4,0-3.1,0-5.7-2.6-5.7-5.7h0c0-6.2-5.1-11.3-11.3-11.3h-5.7c-4.4,0-8.3,2.6-10.2,6.3s-.7.8-1.3.8h-4.1c-.8,0-1.4.6-1.4,1.4v7.1c0,.8-.6,1.4-1.4,1.4h-2.8c-.8,0-1.4-.6-1.4-1.4v-7.1c0-.8-.6-1.4-1.4-1.4h-177.2c-.8,0-1.4.6-1.4,1.4v9.9s0,0,0,0c0,.8-.6,1.4-1.4,1.4h-76.5c-.8,0-1.4.6-1.4,1.4h0c0,.8-.6,1.4-1.4,1.4h-25.5c-.8,0-1.4-.6-1.4-1.4h0c0-.8-.6-1.4-1.4-1.4H20.1c-.8,0-1.4-.6-1.4-1.4h0c0-.8-.6-1.4-1.4-1.4H3.1c-1.6,0-2.8,1.3-2.8,2.8v216.9c0,1.6,1.3,2.8,2.8,2.8h18.7c.6,0,1.1-.3,1.3-.8.5-1.2,2.2-2,4.1-2s3.5.8,4.1,2,.7.8,1.3.8h14.5c.8,0,1.4.6,1.4,1.4v7.1c0,.8.6,1.4,1.4,1.4h180c.8,0,1.4-.6,1.4-1.4v-7.1c0-.8.6-1.4,1.4-1.4h119.1c3.1,0,5.7,2.6,5.7,5.7h0c0,6.2,5.1,11.3,11.3,11.3h5.7c6.2,0,11.3-5.1,11.3-11.3h0c0-3.1,2.6-5.7,5.7-5.7h46.4Z"/>
      </g>
      <g id="SPLINE-28" data-name="SPLINE">
        <path class="cls-2" d="M56.4,121.4H13.3c-.9,0-1.7-.6-1.7-1.4v-36.9c0-.8.7-1.4,1.7-1.4h43.1c.9,0,1.7.6,1.7,1.4v36.9c0,.8-.7,1.4-1.7,1.4Z"/>
      </g>
      <g id="SPLINE-29" data-name="SPLINE">
        <path class="cls-2" d="M554.7,71.6c0,.8.6,1.4,1.4,1.4h17c.8,0,1.4-.6,1.4-1.4v-4.3s47.8,0,47.8,0v4.3c0,.8.6,1.4,1.4,1.4h17c.8,0,1.4-.6,1.4-1.4v-4.3s1.7,0,1.7,0c.8,0,1.4-.6,1.4-1.4V29.1c0-.8-.6-1.4-1.4-1.4h-90.9c-.8,0-1.4.6-1.4,1.4v36.9c0,.8.6,1.4,1.4,1.4h1.7s0,4.3,0,4.3Z"/>
      </g>
      <g id="SPLINE-30" data-name="SPLINE">
        <rect class="cls-2" x="65.6" y="81.7" width="579.7" height="39.7" rx="1.4" ry="1.4"/>
      </g>
      <g id="SPLINE-31" data-name="SPLINE">
        <path class="cls-2" d="M69.9,175.4H26.8c-.9,0-1.7-.6-1.7-1.4v-36.9c0-.8.7-1.4,1.7-1.4h43.1c.9,0,1.7.6,1.7,1.4v36.9c0,.8-.7,1.4-1.7,1.4Z"/>
      </g>
      <g id="SPLINE-32" data-name="SPLINE">
        <path class="cls-2" d="M636.9,175.4h-43.1c-.9,0-1.7-.6-1.7-1.4v-36.9c0-.8.7-1.4,1.7-1.4h43.1c.9,0,1.7.6,1.7,1.4v36.9c0,.8-.7,1.4-1.7,1.4Z"/>
      </g>
      <rect class="cls-2" x="92.6" y="135.7" width="485.2" height="39.7" rx="1.4" ry="1.4"/>
      <rect class="cls-2" x="11.6" y="189.7" width="46.4" height="39.7" rx="1.4" ry="1.4"/>
      <rect class="cls-2" x="598.9" y="189.7" width="46.4" height="39.7" rx="1.4" ry="1.4"/>
      <rect class="cls-2" x="183.4" y="184" width="19.8" height="42.5" rx="1.4" ry="1.4"/>
      <path class="cls-2" d="M159.3,226.6h15.7c.8,0,1.4-.6,1.4-1.4v-39.7c0-.8-.6-1.4-1.4-1.4h-17c-.8,0-1.4.6-1.4,1.4,0,0,0,4.3,0,4.3h-89.5c-.8,0-1.4.6-1.4,1.4v36.9c0,.8.6,1.4,1.4,1.4h90.9c.8,0,1.4-.6,1.4-1.4,0,0,0-1.4,0-1.4Z"/>
      <path class="cls-2" d="M267.3,226.6h2.3c.8,0,1.4-.6,1.4-1.4v-39.7c0-.8-.6-1.4-1.4-1.4h-17c-.8,0-1.4.6-1.4,1.4,0,0,0,4.3,0,4.3h-42.3c-.8,0-1.4.6-1.4,1.4v36.9c0,.8.6,1.4,1.4,1.4h57.1c.8,0,1.4-.6,1.4-1.4,0,0,0-1.4,0-1.4Z"/>
      <path class="cls-2" d="M318.4,189.7h-7.1s0-4.3,0-4.3c0-.8-.6-1.4-1.4-1.4h-17c-.8,0-1.4.6-1.4,1.4v39.7c0,.8.6,1.4,1.4,1.4h15.7s0,1.4,0,1.4c0,.8.6,1.4,1.4,1.4h70.6c.8,0,1.4-.6,1.4-1.4v-36.9c0-.8-.6-1.4-1.4-1.4h-15.3s0-4.3,0-4.3c0-.8-.6-1.4-1.4-1.4h-17c-.8,0-1.4.6-1.4,1.4,0,0,0,4.3,0,4.3,0,0-7.2,0-7.2,0v-4.3c0-.8-.6-1.4-1.4-1.4h-17c-.8,0-1.4.6-1.4,1.4,0,0,0,4.3,0,4.3Z"/>
      <path class="cls-2" d="M406,189.7v-4.3c0-.8-.6-1.4-1.4-1.4h-17c-.8,0-1.4.6-1.4,1.4v39.7c0,.8.6,1.4,1.4,1.4,0,0,2.1,0,2.1,0v1.4c0,.8.6,1.4,1.4,1.4h36.9c.8,0,1.4-.6,1.4-1.4v-36.9c0-.8-.6-1.4-1.4-1.4,0,0-21.9,0-21.9,0Z"/>
      <path class="cls-2" d="M483.3,226.6v1.4c0,.8-.6,1.4-1.4,1.4h-36.9c-.8,0-1.4-.6-1.4-1.4v-36.9c0-.8.6-1.4,1.4-1.4h8.5s0-4.3,0-4.3c0-.8.6-1.4,1.4-1.4h17c.8,0,1.4.6,1.4,1.4v4.3s7.2,0,7.2,0c0,0,0-4.3,0-4.3,0-.8.6-1.4,1.4-1.4h17c.8,0,1.4.6,1.4,1.4,0,0,0,4.3,0,4.3h89.5c.8,0,1.4.6,1.4,1.4v36.9c0,.8-.6,1.4-1.4,1.4h-90.9c-.8,0-1.4-.6-1.4-1.4,0,0,0-1.4,0-1.4,0,0-14.3,0-14.3,0Z"/>
    </g>
  </g>
</svg>