%TF.GenerationSoftware,KiCad,Pcbnew,8.0.5*%
%TF.CreationDate,2024-09-17T11:40:20-04:00*%
%TF.ProjectId,Limousine,4c696d6f-7573-4696-9e65-2e6b69636164,rev?*%
%TF.SameCoordinates,Original*%
%TF.FileFunction,Legend,Bot*%
%TF.FilePolarity,Positive*%
%FSLAX46Y46*%
G04 Gerber Fmt 4.6, Leading zero omitted, Abs format (unit mm)*
G04 Created by KiCad (PCBNEW 8.0.5) date 2024-09-17 11:40:20*
%MOMM*%
%LPD*%
G01*
G04 APERTURE LIST*
G04 Aperture macros list*
%AMRoundRect*
0 Rectangle with rounded corners*
0 $1 Rounding radius*
0 $2 $3 $4 $5 $6 $7 $8 $9 X,Y pos of 4 corners*
0 Add a 4 corners polygon primitive as box body*
4,1,4,$2,$3,$4,$5,$6,$7,$8,$9,$2,$3,0*
0 Add four circle primitives for the rounded corners*
1,1,$1+$1,$2,$3*
1,1,$1+$1,$4,$5*
1,1,$1+$1,$6,$7*
1,1,$1+$1,$8,$9*
0 Add four rect primitives between the rounded corners*
20,1,$1+$1,$2,$3,$4,$5,0*
20,1,$1+$1,$4,$5,$6,$7,0*
20,1,$1+$1,$6,$7,$8,$9,0*
20,1,$1+$1,$8,$9,$2,$3,0*%
%AMRotRect*
0 Rectangle, with rotation*
0 The origin of the aperture is its center*
0 $1 length*
0 $2 width*
0 $3 Rotation angle, in degrees counterclockwise*
0 Add horizontal line*
21,1,$1,$2,0,0,$3*%
%AMOutline4P*
0 Free polygon, 4 corners , with rotation*
0 The origin of the aperture is its center*
0 number of corners: always 4*
0 $1 to $8 corner X, Y*
0 $9 Rotation angle, in degrees counterclockwise*
0 create outline with 4 corners*
4,1,4,$1,$2,$3,$4,$5,$6,$7,$8,$1,$2,$9*%
%AMOutline5P*
0 Free polygon, 5 corners , with rotation*
0 The origin of the aperture is its center*
0 number of corners: always 5*
0 $1 to $10 corner X, Y*
0 $11 Rotation angle, in degrees counterclockwise*
0 create outline with 5 corners*
4,1,5,$1,$2,$3,$4,$5,$6,$7,$8,$9,$10,$1,$2,$11*%
%AMOutline6P*
0 Free polygon, 6 corners , with rotation*
0 The origin of the aperture is its center*
0 number of corners: always 6*
0 $1 to $12 corner X, Y*
0 $13 Rotation angle, in degrees counterclockwise*
0 create outline with 6 corners*
4,1,6,$1,$2,$3,$4,$5,$6,$7,$8,$9,$10,$11,$12,$1,$2,$13*%
%AMOutline7P*
0 Free polygon, 7 corners , with rotation*
0 The origin of the aperture is its center*
0 number of corners: always 7*
0 $1 to $14 corner X, Y*
0 $15 Rotation angle, in degrees counterclockwise*
0 create outline with 7 corners*
4,1,7,$1,$2,$3,$4,$5,$6,$7,$8,$9,$10,$11,$12,$13,$14,$1,$2,$15*%
%AMOutline8P*
0 Free polygon, 8 corners , with rotation*
0 The origin of the aperture is its center*
0 number of corners: always 8*
0 $1 to $16 corner X, Y*
0 $17 Rotation angle, in degrees counterclockwise*
0 create outline with 8 corners*
4,1,8,$1,$2,$3,$4,$5,$6,$7,$8,$9,$10,$11,$12,$13,$14,$15,$16,$1,$2,$17*%
G04 Aperture macros list end*
%ADD10C,0.300000*%
%ADD11C,0.100000*%
%ADD12C,0.150000*%
%ADD13C,0.120000*%
%ADD14C,2.000000*%
%ADD15RoundRect,0.500000X0.500000X-0.500000X0.500000X0.500000X-0.500000X0.500000X-0.500000X-0.500000X0*%
%ADD16C,1.750000*%
%ADD17C,3.987800*%
%ADD18C,2.300000*%
%ADD19C,3.048000*%
%ADD20RoundRect,0.140000X0.170000X-0.140000X0.170000X0.140000X-0.170000X0.140000X-0.170000X-0.140000X0*%
%ADD21RoundRect,0.250000X1.025000X1.000000X-1.025000X1.000000X-1.025000X-1.000000X1.025000X-1.000000X0*%
%ADD22RoundRect,0.225000X0.375000X-0.225000X0.375000X0.225000X-0.375000X0.225000X-0.375000X-0.225000X0*%
%ADD23RoundRect,0.250000X-1.025000X-1.000000X1.025000X-1.000000X1.025000X1.000000X-1.025000X1.000000X0*%
%ADD24RoundRect,0.150000X-0.150000X0.475000X-0.150000X-0.475000X0.150000X-0.475000X0.150000X0.475000X0*%
%ADD25RoundRect,0.225000X0.225000X0.375000X-0.225000X0.375000X-0.225000X-0.375000X0.225000X-0.375000X0*%
%ADD26RoundRect,0.225000X-0.375000X0.225000X-0.375000X-0.225000X0.375000X-0.225000X0.375000X0.225000X0*%
%ADD27RoundRect,0.140000X-0.170000X0.140000X-0.170000X-0.140000X0.170000X-0.140000X0.170000X0.140000X0*%
%ADD28RoundRect,0.135000X-0.135000X-0.185000X0.135000X-0.185000X0.135000X0.185000X-0.135000X0.185000X0*%
%ADD29RoundRect,0.135000X-0.185000X0.135000X-0.185000X-0.135000X0.185000X-0.135000X0.185000X0.135000X0*%
%ADD30RoundRect,0.140000X0.021213X-0.219203X0.219203X-0.021213X-0.021213X0.219203X-0.219203X0.021213X0*%
%ADD31RoundRect,0.140000X-0.140000X-0.170000X0.140000X-0.170000X0.140000X0.170000X-0.140000X0.170000X0*%
%ADD32Outline5P,-1.275000X1.250000X0.275000X1.250000X1.275000X0.250000X1.275000X-1.250000X-1.275000X-1.250000X0.000000*%
%ADD33R,1.700000X1.000000*%
%ADD34RoundRect,0.050000X0.387500X0.050000X-0.387500X0.050000X-0.387500X-0.050000X0.387500X-0.050000X0*%
%ADD35RoundRect,0.050000X0.050000X0.387500X-0.050000X0.387500X-0.050000X-0.387500X0.050000X-0.387500X0*%
%ADD36R,3.200000X3.200000*%
%ADD37RoundRect,0.150000X-0.512500X-0.150000X0.512500X-0.150000X0.512500X0.150000X-0.512500X0.150000X0*%
%ADD38RoundRect,0.150000X-0.150000X-0.625000X0.150000X-0.625000X0.150000X0.625000X-0.150000X0.625000X0*%
%ADD39RoundRect,0.250000X-0.350000X-0.650000X0.350000X-0.650000X0.350000X0.650000X-0.350000X0.650000X0*%
%ADD40RoundRect,0.140000X-0.021213X0.219203X-0.219203X0.021213X0.021213X-0.219203X0.219203X-0.021213X0*%
%ADD41RoundRect,0.230000X-1.045000X-0.920000X1.045000X-0.920000X1.045000X0.920000X-1.045000X0.920000X0*%
%ADD42RoundRect,0.225000X0.250000X-0.225000X0.250000X0.225000X-0.250000X0.225000X-0.250000X-0.225000X0*%
%ADD43RotRect,1.400000X1.200000X45.000000*%
%ADD44Outline4P,-1.275000X1.250000X1.275000X1.250000X1.275000X-1.250000X-1.275000X-1.250000X0.000000*%
%ADD45Outline5P,-1.275000X1.250000X0.275000X1.250000X1.275000X0.250000X1.275000X-1.250000X-1.275000X-1.250000X180.000000*%
%ADD46RoundRect,0.150000X0.150000X-0.650000X0.150000X0.650000X-0.150000X0.650000X-0.150000X-0.650000X0*%
%ADD47RoundRect,0.140000X0.219203X0.021213X0.021213X0.219203X-0.219203X-0.021213X-0.021213X-0.219203X0*%
%ADD48RoundRect,0.230000X1.045000X0.920000X-1.045000X0.920000X-1.045000X-0.920000X1.045000X-0.920000X0*%
%ADD49R,1.700000X1.700000*%
%ADD50O,1.700000X1.700000*%
%ADD51RoundRect,0.135000X0.035355X-0.226274X0.226274X-0.035355X-0.035355X0.226274X-0.226274X0.035355X0*%
G04 APERTURE END LIST*
D10*
X308987987Y-32310960D02*
X309702273Y-32310960D01*
X309702273Y-32310960D02*
X309702273Y-30810960D01*
X308487987Y-32310960D02*
X308487987Y-31310960D01*
X308487987Y-30810960D02*
X308559415Y-30882389D01*
X308559415Y-30882389D02*
X308487987Y-30953817D01*
X308487987Y-30953817D02*
X308416558Y-30882389D01*
X308416558Y-30882389D02*
X308487987Y-30810960D01*
X308487987Y-30810960D02*
X308487987Y-30953817D01*
X307773701Y-32310960D02*
X307773701Y-31310960D01*
X307773701Y-31453817D02*
X307702272Y-31382389D01*
X307702272Y-31382389D02*
X307559415Y-31310960D01*
X307559415Y-31310960D02*
X307345129Y-31310960D01*
X307345129Y-31310960D02*
X307202272Y-31382389D01*
X307202272Y-31382389D02*
X307130844Y-31525246D01*
X307130844Y-31525246D02*
X307130844Y-32310960D01*
X307130844Y-31525246D02*
X307059415Y-31382389D01*
X307059415Y-31382389D02*
X306916558Y-31310960D01*
X306916558Y-31310960D02*
X306702272Y-31310960D01*
X306702272Y-31310960D02*
X306559415Y-31382389D01*
X306559415Y-31382389D02*
X306487986Y-31525246D01*
X306487986Y-31525246D02*
X306487986Y-32310960D01*
X305559415Y-32310960D02*
X305702272Y-32239532D01*
X305702272Y-32239532D02*
X305773701Y-32168103D01*
X305773701Y-32168103D02*
X305845129Y-32025246D01*
X305845129Y-32025246D02*
X305845129Y-31596674D01*
X305845129Y-31596674D02*
X305773701Y-31453817D01*
X305773701Y-31453817D02*
X305702272Y-31382389D01*
X305702272Y-31382389D02*
X305559415Y-31310960D01*
X305559415Y-31310960D02*
X305345129Y-31310960D01*
X305345129Y-31310960D02*
X305202272Y-31382389D01*
X305202272Y-31382389D02*
X305130844Y-31453817D01*
X305130844Y-31453817D02*
X305059415Y-31596674D01*
X305059415Y-31596674D02*
X305059415Y-32025246D01*
X305059415Y-32025246D02*
X305130844Y-32168103D01*
X305130844Y-32168103D02*
X305202272Y-32239532D01*
X305202272Y-32239532D02*
X305345129Y-32310960D01*
X305345129Y-32310960D02*
X305559415Y-32310960D01*
X303773701Y-31310960D02*
X303773701Y-32310960D01*
X304416558Y-31310960D02*
X304416558Y-32096674D01*
X304416558Y-32096674D02*
X304345129Y-32239532D01*
X304345129Y-32239532D02*
X304202272Y-32310960D01*
X304202272Y-32310960D02*
X303987986Y-32310960D01*
X303987986Y-32310960D02*
X303845129Y-32239532D01*
X303845129Y-32239532D02*
X303773701Y-32168103D01*
X303130843Y-32239532D02*
X302987986Y-32310960D01*
X302987986Y-32310960D02*
X302702272Y-32310960D01*
X302702272Y-32310960D02*
X302559415Y-32239532D01*
X302559415Y-32239532D02*
X302487986Y-32096674D01*
X302487986Y-32096674D02*
X302487986Y-32025246D01*
X302487986Y-32025246D02*
X302559415Y-31882389D01*
X302559415Y-31882389D02*
X302702272Y-31810960D01*
X302702272Y-31810960D02*
X302916558Y-31810960D01*
X302916558Y-31810960D02*
X303059415Y-31739532D01*
X303059415Y-31739532D02*
X303130843Y-31596674D01*
X303130843Y-31596674D02*
X303130843Y-31525246D01*
X303130843Y-31525246D02*
X303059415Y-31382389D01*
X303059415Y-31382389D02*
X302916558Y-31310960D01*
X302916558Y-31310960D02*
X302702272Y-31310960D01*
X302702272Y-31310960D02*
X302559415Y-31382389D01*
X301845129Y-32310960D02*
X301845129Y-31310960D01*
X301845129Y-30810960D02*
X301916557Y-30882389D01*
X301916557Y-30882389D02*
X301845129Y-30953817D01*
X301845129Y-30953817D02*
X301773700Y-30882389D01*
X301773700Y-30882389D02*
X301845129Y-30810960D01*
X301845129Y-30810960D02*
X301845129Y-30953817D01*
X301130843Y-31310960D02*
X301130843Y-32310960D01*
X301130843Y-31453817D02*
X301059414Y-31382389D01*
X301059414Y-31382389D02*
X300916557Y-31310960D01*
X300916557Y-31310960D02*
X300702271Y-31310960D01*
X300702271Y-31310960D02*
X300559414Y-31382389D01*
X300559414Y-31382389D02*
X300487986Y-31525246D01*
X300487986Y-31525246D02*
X300487986Y-32310960D01*
X299202271Y-32239532D02*
X299345128Y-32310960D01*
X299345128Y-32310960D02*
X299630843Y-32310960D01*
X299630843Y-32310960D02*
X299773700Y-32239532D01*
X299773700Y-32239532D02*
X299845128Y-32096674D01*
X299845128Y-32096674D02*
X299845128Y-31525246D01*
X299845128Y-31525246D02*
X299773700Y-31382389D01*
X299773700Y-31382389D02*
X299630843Y-31310960D01*
X299630843Y-31310960D02*
X299345128Y-31310960D01*
X299345128Y-31310960D02*
X299202271Y-31382389D01*
X299202271Y-31382389D02*
X299130843Y-31525246D01*
X299130843Y-31525246D02*
X299130843Y-31668103D01*
X299130843Y-31668103D02*
X299845128Y-31810960D01*
X297345129Y-32310960D02*
X297345129Y-31310960D01*
X297345129Y-30810960D02*
X297416557Y-30882389D01*
X297416557Y-30882389D02*
X297345129Y-30953817D01*
X297345129Y-30953817D02*
X297273700Y-30882389D01*
X297273700Y-30882389D02*
X297345129Y-30810960D01*
X297345129Y-30810960D02*
X297345129Y-30953817D01*
X296702271Y-32239532D02*
X296559414Y-32310960D01*
X296559414Y-32310960D02*
X296273700Y-32310960D01*
X296273700Y-32310960D02*
X296130843Y-32239532D01*
X296130843Y-32239532D02*
X296059414Y-32096674D01*
X296059414Y-32096674D02*
X296059414Y-32025246D01*
X296059414Y-32025246D02*
X296130843Y-31882389D01*
X296130843Y-31882389D02*
X296273700Y-31810960D01*
X296273700Y-31810960D02*
X296487986Y-31810960D01*
X296487986Y-31810960D02*
X296630843Y-31739532D01*
X296630843Y-31739532D02*
X296702271Y-31596674D01*
X296702271Y-31596674D02*
X296702271Y-31525246D01*
X296702271Y-31525246D02*
X296630843Y-31382389D01*
X296630843Y-31382389D02*
X296487986Y-31310960D01*
X296487986Y-31310960D02*
X296273700Y-31310960D01*
X296273700Y-31310960D02*
X296130843Y-31382389D01*
X293630843Y-32310960D02*
X293630843Y-31525246D01*
X293630843Y-31525246D02*
X293702271Y-31382389D01*
X293702271Y-31382389D02*
X293845128Y-31310960D01*
X293845128Y-31310960D02*
X294130843Y-31310960D01*
X294130843Y-31310960D02*
X294273700Y-31382389D01*
X293630843Y-32239532D02*
X293773700Y-32310960D01*
X293773700Y-32310960D02*
X294130843Y-32310960D01*
X294130843Y-32310960D02*
X294273700Y-32239532D01*
X294273700Y-32239532D02*
X294345128Y-32096674D01*
X294345128Y-32096674D02*
X294345128Y-31953817D01*
X294345128Y-31953817D02*
X294273700Y-31810960D01*
X294273700Y-31810960D02*
X294130843Y-31739532D01*
X294130843Y-31739532D02*
X293773700Y-31739532D01*
X293773700Y-31739532D02*
X293630843Y-31668103D01*
X291130843Y-32310960D02*
X291130843Y-30810960D01*
X291130843Y-32239532D02*
X291273700Y-32310960D01*
X291273700Y-32310960D02*
X291559414Y-32310960D01*
X291559414Y-32310960D02*
X291702271Y-32239532D01*
X291702271Y-32239532D02*
X291773700Y-32168103D01*
X291773700Y-32168103D02*
X291845128Y-32025246D01*
X291845128Y-32025246D02*
X291845128Y-31596674D01*
X291845128Y-31596674D02*
X291773700Y-31453817D01*
X291773700Y-31453817D02*
X291702271Y-31382389D01*
X291702271Y-31382389D02*
X291559414Y-31310960D01*
X291559414Y-31310960D02*
X291273700Y-31310960D01*
X291273700Y-31310960D02*
X291130843Y-31382389D01*
X290416557Y-32310960D02*
X290416557Y-31310960D01*
X290416557Y-31596674D02*
X290345128Y-31453817D01*
X290345128Y-31453817D02*
X290273700Y-31382389D01*
X290273700Y-31382389D02*
X290130842Y-31310960D01*
X290130842Y-31310960D02*
X289987985Y-31310960D01*
X289273700Y-32310960D02*
X289416557Y-32239532D01*
X289416557Y-32239532D02*
X289487986Y-32168103D01*
X289487986Y-32168103D02*
X289559414Y-32025246D01*
X289559414Y-32025246D02*
X289559414Y-31596674D01*
X289559414Y-31596674D02*
X289487986Y-31453817D01*
X289487986Y-31453817D02*
X289416557Y-31382389D01*
X289416557Y-31382389D02*
X289273700Y-31310960D01*
X289273700Y-31310960D02*
X289059414Y-31310960D01*
X289059414Y-31310960D02*
X288916557Y-31382389D01*
X288916557Y-31382389D02*
X288845129Y-31453817D01*
X288845129Y-31453817D02*
X288773700Y-31596674D01*
X288773700Y-31596674D02*
X288773700Y-32025246D01*
X288773700Y-32025246D02*
X288845129Y-32168103D01*
X288845129Y-32168103D02*
X288916557Y-32239532D01*
X288916557Y-32239532D02*
X289059414Y-32310960D01*
X289059414Y-32310960D02*
X289273700Y-32310960D01*
X288130843Y-31310960D02*
X288130843Y-32810960D01*
X288130843Y-31382389D02*
X287987986Y-31310960D01*
X287987986Y-31310960D02*
X287702271Y-31310960D01*
X287702271Y-31310960D02*
X287559414Y-31382389D01*
X287559414Y-31382389D02*
X287487986Y-31453817D01*
X287487986Y-31453817D02*
X287416557Y-31596674D01*
X287416557Y-31596674D02*
X287416557Y-32025246D01*
X287416557Y-32025246D02*
X287487986Y-32168103D01*
X287487986Y-32168103D02*
X287559414Y-32239532D01*
X287559414Y-32239532D02*
X287702271Y-32310960D01*
X287702271Y-32310960D02*
X287987986Y-32310960D01*
X287987986Y-32310960D02*
X288130843Y-32239532D01*
X286773700Y-31739532D02*
X285630843Y-31739532D01*
X284916557Y-32310960D02*
X284916557Y-31310960D01*
X284916557Y-30810960D02*
X284987985Y-30882389D01*
X284987985Y-30882389D02*
X284916557Y-30953817D01*
X284916557Y-30953817D02*
X284845128Y-30882389D01*
X284845128Y-30882389D02*
X284916557Y-30810960D01*
X284916557Y-30810960D02*
X284916557Y-30953817D01*
X284202271Y-31310960D02*
X284202271Y-32310960D01*
X284202271Y-31453817D02*
X284130842Y-31382389D01*
X284130842Y-31382389D02*
X283987985Y-31310960D01*
X283987985Y-31310960D02*
X283773699Y-31310960D01*
X283773699Y-31310960D02*
X283630842Y-31382389D01*
X283630842Y-31382389D02*
X283559414Y-31525246D01*
X283559414Y-31525246D02*
X283559414Y-32310960D01*
X281702271Y-32310960D02*
X281702271Y-31310960D01*
X281702271Y-31596674D02*
X281630842Y-31453817D01*
X281630842Y-31453817D02*
X281559414Y-31382389D01*
X281559414Y-31382389D02*
X281416556Y-31310960D01*
X281416556Y-31310960D02*
X281273699Y-31310960D01*
X280202271Y-32239532D02*
X280345128Y-32310960D01*
X280345128Y-32310960D02*
X280630843Y-32310960D01*
X280630843Y-32310960D02*
X280773700Y-32239532D01*
X280773700Y-32239532D02*
X280845128Y-32096674D01*
X280845128Y-32096674D02*
X280845128Y-31525246D01*
X280845128Y-31525246D02*
X280773700Y-31382389D01*
X280773700Y-31382389D02*
X280630843Y-31310960D01*
X280630843Y-31310960D02*
X280345128Y-31310960D01*
X280345128Y-31310960D02*
X280202271Y-31382389D01*
X280202271Y-31382389D02*
X280130843Y-31525246D01*
X280130843Y-31525246D02*
X280130843Y-31668103D01*
X280130843Y-31668103D02*
X280845128Y-31810960D01*
X279487986Y-31310960D02*
X279487986Y-32810960D01*
X279487986Y-31382389D02*
X279345129Y-31310960D01*
X279345129Y-31310960D02*
X279059414Y-31310960D01*
X279059414Y-31310960D02*
X278916557Y-31382389D01*
X278916557Y-31382389D02*
X278845129Y-31453817D01*
X278845129Y-31453817D02*
X278773700Y-31596674D01*
X278773700Y-31596674D02*
X278773700Y-32025246D01*
X278773700Y-32025246D02*
X278845129Y-32168103D01*
X278845129Y-32168103D02*
X278916557Y-32239532D01*
X278916557Y-32239532D02*
X279059414Y-32310960D01*
X279059414Y-32310960D02*
X279345129Y-32310960D01*
X279345129Y-32310960D02*
X279487986Y-32239532D01*
X277916557Y-32310960D02*
X278059414Y-32239532D01*
X278059414Y-32239532D02*
X278130843Y-32096674D01*
X278130843Y-32096674D02*
X278130843Y-30810960D01*
X276702272Y-32310960D02*
X276702272Y-31525246D01*
X276702272Y-31525246D02*
X276773700Y-31382389D01*
X276773700Y-31382389D02*
X276916557Y-31310960D01*
X276916557Y-31310960D02*
X277202272Y-31310960D01*
X277202272Y-31310960D02*
X277345129Y-31382389D01*
X276702272Y-32239532D02*
X276845129Y-32310960D01*
X276845129Y-32310960D02*
X277202272Y-32310960D01*
X277202272Y-32310960D02*
X277345129Y-32239532D01*
X277345129Y-32239532D02*
X277416557Y-32096674D01*
X277416557Y-32096674D02*
X277416557Y-31953817D01*
X277416557Y-31953817D02*
X277345129Y-31810960D01*
X277345129Y-31810960D02*
X277202272Y-31739532D01*
X277202272Y-31739532D02*
X276845129Y-31739532D01*
X276845129Y-31739532D02*
X276702272Y-31668103D01*
X275345129Y-32239532D02*
X275487986Y-32310960D01*
X275487986Y-32310960D02*
X275773700Y-32310960D01*
X275773700Y-32310960D02*
X275916557Y-32239532D01*
X275916557Y-32239532D02*
X275987986Y-32168103D01*
X275987986Y-32168103D02*
X276059414Y-32025246D01*
X276059414Y-32025246D02*
X276059414Y-31596674D01*
X276059414Y-31596674D02*
X275987986Y-31453817D01*
X275987986Y-31453817D02*
X275916557Y-31382389D01*
X275916557Y-31382389D02*
X275773700Y-31310960D01*
X275773700Y-31310960D02*
X275487986Y-31310960D01*
X275487986Y-31310960D02*
X275345129Y-31382389D01*
X274130843Y-32239532D02*
X274273700Y-32310960D01*
X274273700Y-32310960D02*
X274559415Y-32310960D01*
X274559415Y-32310960D02*
X274702272Y-32239532D01*
X274702272Y-32239532D02*
X274773700Y-32096674D01*
X274773700Y-32096674D02*
X274773700Y-31525246D01*
X274773700Y-31525246D02*
X274702272Y-31382389D01*
X274702272Y-31382389D02*
X274559415Y-31310960D01*
X274559415Y-31310960D02*
X274273700Y-31310960D01*
X274273700Y-31310960D02*
X274130843Y-31382389D01*
X274130843Y-31382389D02*
X274059415Y-31525246D01*
X274059415Y-31525246D02*
X274059415Y-31668103D01*
X274059415Y-31668103D02*
X274773700Y-31810960D01*
X273416558Y-32310960D02*
X273416558Y-31310960D01*
X273416558Y-31453817D02*
X273345129Y-31382389D01*
X273345129Y-31382389D02*
X273202272Y-31310960D01*
X273202272Y-31310960D02*
X272987986Y-31310960D01*
X272987986Y-31310960D02*
X272845129Y-31382389D01*
X272845129Y-31382389D02*
X272773701Y-31525246D01*
X272773701Y-31525246D02*
X272773701Y-32310960D01*
X272773701Y-31525246D02*
X272702272Y-31382389D01*
X272702272Y-31382389D02*
X272559415Y-31310960D01*
X272559415Y-31310960D02*
X272345129Y-31310960D01*
X272345129Y-31310960D02*
X272202272Y-31382389D01*
X272202272Y-31382389D02*
X272130843Y-31525246D01*
X272130843Y-31525246D02*
X272130843Y-32310960D01*
X270845129Y-32239532D02*
X270987986Y-32310960D01*
X270987986Y-32310960D02*
X271273701Y-32310960D01*
X271273701Y-32310960D02*
X271416558Y-32239532D01*
X271416558Y-32239532D02*
X271487986Y-32096674D01*
X271487986Y-32096674D02*
X271487986Y-31525246D01*
X271487986Y-31525246D02*
X271416558Y-31382389D01*
X271416558Y-31382389D02*
X271273701Y-31310960D01*
X271273701Y-31310960D02*
X270987986Y-31310960D01*
X270987986Y-31310960D02*
X270845129Y-31382389D01*
X270845129Y-31382389D02*
X270773701Y-31525246D01*
X270773701Y-31525246D02*
X270773701Y-31668103D01*
X270773701Y-31668103D02*
X271487986Y-31810960D01*
X270130844Y-31310960D02*
X270130844Y-32310960D01*
X270130844Y-31453817D02*
X270059415Y-31382389D01*
X270059415Y-31382389D02*
X269916558Y-31310960D01*
X269916558Y-31310960D02*
X269702272Y-31310960D01*
X269702272Y-31310960D02*
X269559415Y-31382389D01*
X269559415Y-31382389D02*
X269487987Y-31525246D01*
X269487987Y-31525246D02*
X269487987Y-32310960D01*
X268987986Y-31310960D02*
X268416558Y-31310960D01*
X268773701Y-30810960D02*
X268773701Y-32096674D01*
X268773701Y-32096674D02*
X268702272Y-32239532D01*
X268702272Y-32239532D02*
X268559415Y-32310960D01*
X268559415Y-32310960D02*
X268416558Y-32310960D01*
X266773701Y-32310960D02*
X266773701Y-30810960D01*
X266773701Y-30810960D02*
X266202272Y-30810960D01*
X266202272Y-30810960D02*
X266059415Y-30882389D01*
X266059415Y-30882389D02*
X265987986Y-30953817D01*
X265987986Y-30953817D02*
X265916558Y-31096674D01*
X265916558Y-31096674D02*
X265916558Y-31310960D01*
X265916558Y-31310960D02*
X265987986Y-31453817D01*
X265987986Y-31453817D02*
X266059415Y-31525246D01*
X266059415Y-31525246D02*
X266202272Y-31596674D01*
X266202272Y-31596674D02*
X266773701Y-31596674D01*
X264416558Y-32168103D02*
X264487986Y-32239532D01*
X264487986Y-32239532D02*
X264702272Y-32310960D01*
X264702272Y-32310960D02*
X264845129Y-32310960D01*
X264845129Y-32310960D02*
X265059415Y-32239532D01*
X265059415Y-32239532D02*
X265202272Y-32096674D01*
X265202272Y-32096674D02*
X265273701Y-31953817D01*
X265273701Y-31953817D02*
X265345129Y-31668103D01*
X265345129Y-31668103D02*
X265345129Y-31453817D01*
X265345129Y-31453817D02*
X265273701Y-31168103D01*
X265273701Y-31168103D02*
X265202272Y-31025246D01*
X265202272Y-31025246D02*
X265059415Y-30882389D01*
X265059415Y-30882389D02*
X264845129Y-30810960D01*
X264845129Y-30810960D02*
X264702272Y-30810960D01*
X264702272Y-30810960D02*
X264487986Y-30882389D01*
X264487986Y-30882389D02*
X264416558Y-30953817D01*
X263273701Y-31525246D02*
X263059415Y-31596674D01*
X263059415Y-31596674D02*
X262987986Y-31668103D01*
X262987986Y-31668103D02*
X262916558Y-31810960D01*
X262916558Y-31810960D02*
X262916558Y-32025246D01*
X262916558Y-32025246D02*
X262987986Y-32168103D01*
X262987986Y-32168103D02*
X263059415Y-32239532D01*
X263059415Y-32239532D02*
X263202272Y-32310960D01*
X263202272Y-32310960D02*
X263773701Y-32310960D01*
X263773701Y-32310960D02*
X263773701Y-30810960D01*
X263773701Y-30810960D02*
X263273701Y-30810960D01*
X263273701Y-30810960D02*
X263130844Y-30882389D01*
X263130844Y-30882389D02*
X263059415Y-30953817D01*
X263059415Y-30953817D02*
X262987986Y-31096674D01*
X262987986Y-31096674D02*
X262987986Y-31239532D01*
X262987986Y-31239532D02*
X263059415Y-31382389D01*
X263059415Y-31382389D02*
X263130844Y-31453817D01*
X263130844Y-31453817D02*
X263273701Y-31525246D01*
X263273701Y-31525246D02*
X263773701Y-31525246D01*
X261345129Y-31310960D02*
X260773701Y-31310960D01*
X261130844Y-32310960D02*
X261130844Y-31025246D01*
X261130844Y-31025246D02*
X261059415Y-30882389D01*
X261059415Y-30882389D02*
X260916558Y-30810960D01*
X260916558Y-30810960D02*
X260773701Y-30810960D01*
X260059415Y-32310960D02*
X260202272Y-32239532D01*
X260202272Y-32239532D02*
X260273701Y-32168103D01*
X260273701Y-32168103D02*
X260345129Y-32025246D01*
X260345129Y-32025246D02*
X260345129Y-31596674D01*
X260345129Y-31596674D02*
X260273701Y-31453817D01*
X260273701Y-31453817D02*
X260202272Y-31382389D01*
X260202272Y-31382389D02*
X260059415Y-31310960D01*
X260059415Y-31310960D02*
X259845129Y-31310960D01*
X259845129Y-31310960D02*
X259702272Y-31382389D01*
X259702272Y-31382389D02*
X259630844Y-31453817D01*
X259630844Y-31453817D02*
X259559415Y-31596674D01*
X259559415Y-31596674D02*
X259559415Y-32025246D01*
X259559415Y-32025246D02*
X259630844Y-32168103D01*
X259630844Y-32168103D02*
X259702272Y-32239532D01*
X259702272Y-32239532D02*
X259845129Y-32310960D01*
X259845129Y-32310960D02*
X260059415Y-32310960D01*
X258916558Y-32310960D02*
X258916558Y-31310960D01*
X258916558Y-31596674D02*
X258845129Y-31453817D01*
X258845129Y-31453817D02*
X258773701Y-31382389D01*
X258773701Y-31382389D02*
X258630843Y-31310960D01*
X258630843Y-31310960D02*
X258487986Y-31310960D01*
X256845130Y-32310960D02*
X256845130Y-30810960D01*
X255987987Y-32310960D02*
X256630844Y-31453817D01*
X255987987Y-30810960D02*
X256845130Y-31668103D01*
X254773701Y-32239532D02*
X254916558Y-32310960D01*
X254916558Y-32310960D02*
X255202273Y-32310960D01*
X255202273Y-32310960D02*
X255345130Y-32239532D01*
X255345130Y-32239532D02*
X255416558Y-32096674D01*
X255416558Y-32096674D02*
X255416558Y-31525246D01*
X255416558Y-31525246D02*
X255345130Y-31382389D01*
X255345130Y-31382389D02*
X255202273Y-31310960D01*
X255202273Y-31310960D02*
X254916558Y-31310960D01*
X254916558Y-31310960D02*
X254773701Y-31382389D01*
X254773701Y-31382389D02*
X254702273Y-31525246D01*
X254702273Y-31525246D02*
X254702273Y-31668103D01*
X254702273Y-31668103D02*
X255416558Y-31810960D01*
X254202273Y-31310960D02*
X253845130Y-32310960D01*
X253487987Y-31310960D02*
X253845130Y-32310960D01*
X253845130Y-32310960D02*
X253987987Y-32668103D01*
X253987987Y-32668103D02*
X254059416Y-32739532D01*
X254059416Y-32739532D02*
X254202273Y-32810960D01*
X252273702Y-32239532D02*
X252416559Y-32310960D01*
X252416559Y-32310960D02*
X252702273Y-32310960D01*
X252702273Y-32310960D02*
X252845130Y-32239532D01*
X252845130Y-32239532D02*
X252916559Y-32168103D01*
X252916559Y-32168103D02*
X252987987Y-32025246D01*
X252987987Y-32025246D02*
X252987987Y-31596674D01*
X252987987Y-31596674D02*
X252916559Y-31453817D01*
X252916559Y-31453817D02*
X252845130Y-31382389D01*
X252845130Y-31382389D02*
X252702273Y-31310960D01*
X252702273Y-31310960D02*
X252416559Y-31310960D01*
X252416559Y-31310960D02*
X252273702Y-31382389D01*
X251630845Y-32310960D02*
X251630845Y-30810960D01*
X250987988Y-32310960D02*
X250987988Y-31525246D01*
X250987988Y-31525246D02*
X251059416Y-31382389D01*
X251059416Y-31382389D02*
X251202273Y-31310960D01*
X251202273Y-31310960D02*
X251416559Y-31310960D01*
X251416559Y-31310960D02*
X251559416Y-31382389D01*
X251559416Y-31382389D02*
X251630845Y-31453817D01*
X250273702Y-32310960D02*
X250273702Y-31310960D01*
X250273702Y-31596674D02*
X250202273Y-31453817D01*
X250202273Y-31453817D02*
X250130845Y-31382389D01*
X250130845Y-31382389D02*
X249987987Y-31310960D01*
X249987987Y-31310960D02*
X249845130Y-31310960D01*
X249130845Y-32310960D02*
X249273702Y-32239532D01*
X249273702Y-32239532D02*
X249345131Y-32168103D01*
X249345131Y-32168103D02*
X249416559Y-32025246D01*
X249416559Y-32025246D02*
X249416559Y-31596674D01*
X249416559Y-31596674D02*
X249345131Y-31453817D01*
X249345131Y-31453817D02*
X249273702Y-31382389D01*
X249273702Y-31382389D02*
X249130845Y-31310960D01*
X249130845Y-31310960D02*
X248916559Y-31310960D01*
X248916559Y-31310960D02*
X248773702Y-31382389D01*
X248773702Y-31382389D02*
X248702274Y-31453817D01*
X248702274Y-31453817D02*
X248630845Y-31596674D01*
X248630845Y-31596674D02*
X248630845Y-32025246D01*
X248630845Y-32025246D02*
X248702274Y-32168103D01*
X248702274Y-32168103D02*
X248773702Y-32239532D01*
X248773702Y-32239532D02*
X248916559Y-32310960D01*
X248916559Y-32310960D02*
X249130845Y-32310960D01*
X247987988Y-31310960D02*
X247987988Y-32310960D01*
X247987988Y-31453817D02*
X247916559Y-31382389D01*
X247916559Y-31382389D02*
X247773702Y-31310960D01*
X247773702Y-31310960D02*
X247559416Y-31310960D01*
X247559416Y-31310960D02*
X247416559Y-31382389D01*
X247416559Y-31382389D02*
X247345131Y-31525246D01*
X247345131Y-31525246D02*
X247345131Y-32310960D01*
X244487988Y-32453817D02*
X244630845Y-32382389D01*
X244630845Y-32382389D02*
X244773702Y-32239532D01*
X244773702Y-32239532D02*
X244987988Y-32025246D01*
X244987988Y-32025246D02*
X245130845Y-31953817D01*
X245130845Y-31953817D02*
X245273702Y-31953817D01*
X245202273Y-32310960D02*
X245345131Y-32239532D01*
X245345131Y-32239532D02*
X245487988Y-32096674D01*
X245487988Y-32096674D02*
X245559416Y-31810960D01*
X245559416Y-31810960D02*
X245559416Y-31310960D01*
X245559416Y-31310960D02*
X245487988Y-31025246D01*
X245487988Y-31025246D02*
X245345131Y-30882389D01*
X245345131Y-30882389D02*
X245202273Y-30810960D01*
X245202273Y-30810960D02*
X244916559Y-30810960D01*
X244916559Y-30810960D02*
X244773702Y-30882389D01*
X244773702Y-30882389D02*
X244630845Y-31025246D01*
X244630845Y-31025246D02*
X244559416Y-31310960D01*
X244559416Y-31310960D02*
X244559416Y-31810960D01*
X244559416Y-31810960D02*
X244630845Y-32096674D01*
X244630845Y-32096674D02*
X244773702Y-32239532D01*
X244773702Y-32239532D02*
X244916559Y-32310960D01*
X244916559Y-32310960D02*
X245202273Y-32310960D01*
X243845130Y-32310960D02*
X243559416Y-32310960D01*
X243559416Y-32310960D02*
X243416559Y-32239532D01*
X243416559Y-32239532D02*
X243345130Y-32168103D01*
X243345130Y-32168103D02*
X243202273Y-31953817D01*
X243202273Y-31953817D02*
X243130844Y-31668103D01*
X243130844Y-31668103D02*
X243130844Y-31096674D01*
X243130844Y-31096674D02*
X243202273Y-30953817D01*
X243202273Y-30953817D02*
X243273702Y-30882389D01*
X243273702Y-30882389D02*
X243416559Y-30810960D01*
X243416559Y-30810960D02*
X243702273Y-30810960D01*
X243702273Y-30810960D02*
X243845130Y-30882389D01*
X243845130Y-30882389D02*
X243916559Y-30953817D01*
X243916559Y-30953817D02*
X243987987Y-31096674D01*
X243987987Y-31096674D02*
X243987987Y-31453817D01*
X243987987Y-31453817D02*
X243916559Y-31596674D01*
X243916559Y-31596674D02*
X243845130Y-31668103D01*
X243845130Y-31668103D02*
X243702273Y-31739532D01*
X243702273Y-31739532D02*
X243416559Y-31739532D01*
X243416559Y-31739532D02*
X243273702Y-31668103D01*
X243273702Y-31668103D02*
X243202273Y-31596674D01*
X243202273Y-31596674D02*
X243130844Y-31453817D01*
X309702273Y-34725876D02*
X309702273Y-33225876D01*
X309702273Y-33225876D02*
X309130844Y-33225876D01*
X309130844Y-33225876D02*
X308987987Y-33297305D01*
X308987987Y-33297305D02*
X308916558Y-33368733D01*
X308916558Y-33368733D02*
X308845130Y-33511590D01*
X308845130Y-33511590D02*
X308845130Y-33725876D01*
X308845130Y-33725876D02*
X308916558Y-33868733D01*
X308916558Y-33868733D02*
X308987987Y-33940162D01*
X308987987Y-33940162D02*
X309130844Y-34011590D01*
X309130844Y-34011590D02*
X309702273Y-34011590D01*
X307345130Y-34583019D02*
X307416558Y-34654448D01*
X307416558Y-34654448D02*
X307630844Y-34725876D01*
X307630844Y-34725876D02*
X307773701Y-34725876D01*
X307773701Y-34725876D02*
X307987987Y-34654448D01*
X307987987Y-34654448D02*
X308130844Y-34511590D01*
X308130844Y-34511590D02*
X308202273Y-34368733D01*
X308202273Y-34368733D02*
X308273701Y-34083019D01*
X308273701Y-34083019D02*
X308273701Y-33868733D01*
X308273701Y-33868733D02*
X308202273Y-33583019D01*
X308202273Y-33583019D02*
X308130844Y-33440162D01*
X308130844Y-33440162D02*
X307987987Y-33297305D01*
X307987987Y-33297305D02*
X307773701Y-33225876D01*
X307773701Y-33225876D02*
X307630844Y-33225876D01*
X307630844Y-33225876D02*
X307416558Y-33297305D01*
X307416558Y-33297305D02*
X307345130Y-33368733D01*
X306202273Y-33940162D02*
X305987987Y-34011590D01*
X305987987Y-34011590D02*
X305916558Y-34083019D01*
X305916558Y-34083019D02*
X305845130Y-34225876D01*
X305845130Y-34225876D02*
X305845130Y-34440162D01*
X305845130Y-34440162D02*
X305916558Y-34583019D01*
X305916558Y-34583019D02*
X305987987Y-34654448D01*
X305987987Y-34654448D02*
X306130844Y-34725876D01*
X306130844Y-34725876D02*
X306702273Y-34725876D01*
X306702273Y-34725876D02*
X306702273Y-33225876D01*
X306702273Y-33225876D02*
X306202273Y-33225876D01*
X306202273Y-33225876D02*
X306059416Y-33297305D01*
X306059416Y-33297305D02*
X305987987Y-33368733D01*
X305987987Y-33368733D02*
X305916558Y-33511590D01*
X305916558Y-33511590D02*
X305916558Y-33654448D01*
X305916558Y-33654448D02*
X305987987Y-33797305D01*
X305987987Y-33797305D02*
X306059416Y-33868733D01*
X306059416Y-33868733D02*
X306202273Y-33940162D01*
X306202273Y-33940162D02*
X306702273Y-33940162D01*
X304059416Y-34725876D02*
X304059416Y-33225876D01*
X304059416Y-33797305D02*
X303916559Y-33725876D01*
X303916559Y-33725876D02*
X303630844Y-33725876D01*
X303630844Y-33725876D02*
X303487987Y-33797305D01*
X303487987Y-33797305D02*
X303416559Y-33868733D01*
X303416559Y-33868733D02*
X303345130Y-34011590D01*
X303345130Y-34011590D02*
X303345130Y-34440162D01*
X303345130Y-34440162D02*
X303416559Y-34583019D01*
X303416559Y-34583019D02*
X303487987Y-34654448D01*
X303487987Y-34654448D02*
X303630844Y-34725876D01*
X303630844Y-34725876D02*
X303916559Y-34725876D01*
X303916559Y-34725876D02*
X304059416Y-34654448D01*
X302845130Y-33725876D02*
X302487987Y-34725876D01*
X302130844Y-33725876D02*
X302487987Y-34725876D01*
X302487987Y-34725876D02*
X302630844Y-35083019D01*
X302630844Y-35083019D02*
X302702273Y-35154448D01*
X302702273Y-35154448D02*
X302845130Y-35225876D01*
X300416559Y-34725876D02*
X300416559Y-33225876D01*
X300416559Y-33797305D02*
X300273702Y-33725876D01*
X300273702Y-33725876D02*
X299987987Y-33725876D01*
X299987987Y-33725876D02*
X299845130Y-33797305D01*
X299845130Y-33797305D02*
X299773702Y-33868733D01*
X299773702Y-33868733D02*
X299702273Y-34011590D01*
X299702273Y-34011590D02*
X299702273Y-34440162D01*
X299702273Y-34440162D02*
X299773702Y-34583019D01*
X299773702Y-34583019D02*
X299845130Y-34654448D01*
X299845130Y-34654448D02*
X299987987Y-34725876D01*
X299987987Y-34725876D02*
X300273702Y-34725876D01*
X300273702Y-34725876D02*
X300416559Y-34654448D01*
X298416559Y-34725876D02*
X298416559Y-33940162D01*
X298416559Y-33940162D02*
X298487987Y-33797305D01*
X298487987Y-33797305D02*
X298630844Y-33725876D01*
X298630844Y-33725876D02*
X298916559Y-33725876D01*
X298916559Y-33725876D02*
X299059416Y-33797305D01*
X298416559Y-34654448D02*
X298559416Y-34725876D01*
X298559416Y-34725876D02*
X298916559Y-34725876D01*
X298916559Y-34725876D02*
X299059416Y-34654448D01*
X299059416Y-34654448D02*
X299130844Y-34511590D01*
X299130844Y-34511590D02*
X299130844Y-34368733D01*
X299130844Y-34368733D02*
X299059416Y-34225876D01*
X299059416Y-34225876D02*
X298916559Y-34154448D01*
X298916559Y-34154448D02*
X298559416Y-34154448D01*
X298559416Y-34154448D02*
X298416559Y-34083019D01*
X297059416Y-34654448D02*
X297202273Y-34725876D01*
X297202273Y-34725876D02*
X297487987Y-34725876D01*
X297487987Y-34725876D02*
X297630844Y-34654448D01*
X297630844Y-34654448D02*
X297702273Y-34583019D01*
X297702273Y-34583019D02*
X297773701Y-34440162D01*
X297773701Y-34440162D02*
X297773701Y-34011590D01*
X297773701Y-34011590D02*
X297702273Y-33868733D01*
X297702273Y-33868733D02*
X297630844Y-33797305D01*
X297630844Y-33797305D02*
X297487987Y-33725876D01*
X297487987Y-33725876D02*
X297202273Y-33725876D01*
X297202273Y-33725876D02*
X297059416Y-33797305D01*
X296202273Y-34725876D02*
X296345130Y-34654448D01*
X296345130Y-34654448D02*
X296416559Y-34583019D01*
X296416559Y-34583019D02*
X296487987Y-34440162D01*
X296487987Y-34440162D02*
X296487987Y-34011590D01*
X296487987Y-34011590D02*
X296416559Y-33868733D01*
X296416559Y-33868733D02*
X296345130Y-33797305D01*
X296345130Y-33797305D02*
X296202273Y-33725876D01*
X296202273Y-33725876D02*
X295987987Y-33725876D01*
X295987987Y-33725876D02*
X295845130Y-33797305D01*
X295845130Y-33797305D02*
X295773702Y-33868733D01*
X295773702Y-33868733D02*
X295702273Y-34011590D01*
X295702273Y-34011590D02*
X295702273Y-34440162D01*
X295702273Y-34440162D02*
X295773702Y-34583019D01*
X295773702Y-34583019D02*
X295845130Y-34654448D01*
X295845130Y-34654448D02*
X295987987Y-34725876D01*
X295987987Y-34725876D02*
X296202273Y-34725876D01*
X295059416Y-33725876D02*
X295059416Y-34725876D01*
X295059416Y-33868733D02*
X294987987Y-33797305D01*
X294987987Y-33797305D02*
X294845130Y-33725876D01*
X294845130Y-33725876D02*
X294630844Y-33725876D01*
X294630844Y-33725876D02*
X294487987Y-33797305D01*
X294487987Y-33797305D02*
X294416559Y-33940162D01*
X294416559Y-33940162D02*
X294416559Y-34725876D01*
X293773701Y-34654448D02*
X293630844Y-34725876D01*
X293630844Y-34725876D02*
X293345130Y-34725876D01*
X293345130Y-34725876D02*
X293202273Y-34654448D01*
X293202273Y-34654448D02*
X293130844Y-34511590D01*
X293130844Y-34511590D02*
X293130844Y-34440162D01*
X293130844Y-34440162D02*
X293202273Y-34297305D01*
X293202273Y-34297305D02*
X293345130Y-34225876D01*
X293345130Y-34225876D02*
X293559416Y-34225876D01*
X293559416Y-34225876D02*
X293702273Y-34154448D01*
X293702273Y-34154448D02*
X293773701Y-34011590D01*
X293773701Y-34011590D02*
X293773701Y-33940162D01*
X293773701Y-33940162D02*
X293702273Y-33797305D01*
X293702273Y-33797305D02*
X293559416Y-33725876D01*
X293559416Y-33725876D02*
X293345130Y-33725876D01*
X293345130Y-33725876D02*
X293202273Y-33797305D01*
X292487987Y-33725876D02*
X292487987Y-35225876D01*
X292487987Y-33797305D02*
X292345130Y-33725876D01*
X292345130Y-33725876D02*
X292059415Y-33725876D01*
X292059415Y-33725876D02*
X291916558Y-33797305D01*
X291916558Y-33797305D02*
X291845130Y-33868733D01*
X291845130Y-33868733D02*
X291773701Y-34011590D01*
X291773701Y-34011590D02*
X291773701Y-34440162D01*
X291773701Y-34440162D02*
X291845130Y-34583019D01*
X291845130Y-34583019D02*
X291916558Y-34654448D01*
X291916558Y-34654448D02*
X292059415Y-34725876D01*
X292059415Y-34725876D02*
X292345130Y-34725876D01*
X292345130Y-34725876D02*
X292487987Y-34654448D01*
X290916558Y-34725876D02*
X291059415Y-34654448D01*
X291059415Y-34654448D02*
X291130844Y-34583019D01*
X291130844Y-34583019D02*
X291202272Y-34440162D01*
X291202272Y-34440162D02*
X291202272Y-34011590D01*
X291202272Y-34011590D02*
X291130844Y-33868733D01*
X291130844Y-33868733D02*
X291059415Y-33797305D01*
X291059415Y-33797305D02*
X290916558Y-33725876D01*
X290916558Y-33725876D02*
X290702272Y-33725876D01*
X290702272Y-33725876D02*
X290559415Y-33797305D01*
X290559415Y-33797305D02*
X290487987Y-33868733D01*
X290487987Y-33868733D02*
X290416558Y-34011590D01*
X290416558Y-34011590D02*
X290416558Y-34440162D01*
X290416558Y-34440162D02*
X290487987Y-34583019D01*
X290487987Y-34583019D02*
X290559415Y-34654448D01*
X290559415Y-34654448D02*
X290702272Y-34725876D01*
X290702272Y-34725876D02*
X290916558Y-34725876D01*
X289559415Y-34725876D02*
X289702272Y-34654448D01*
X289702272Y-34654448D02*
X289773701Y-34583019D01*
X289773701Y-34583019D02*
X289845129Y-34440162D01*
X289845129Y-34440162D02*
X289845129Y-34011590D01*
X289845129Y-34011590D02*
X289773701Y-33868733D01*
X289773701Y-33868733D02*
X289702272Y-33797305D01*
X289702272Y-33797305D02*
X289559415Y-33725876D01*
X289559415Y-33725876D02*
X289345129Y-33725876D01*
X289345129Y-33725876D02*
X289202272Y-33797305D01*
X289202272Y-33797305D02*
X289130844Y-33868733D01*
X289130844Y-33868733D02*
X289059415Y-34011590D01*
X289059415Y-34011590D02*
X289059415Y-34440162D01*
X289059415Y-34440162D02*
X289130844Y-34583019D01*
X289130844Y-34583019D02*
X289202272Y-34654448D01*
X289202272Y-34654448D02*
X289345129Y-34725876D01*
X289345129Y-34725876D02*
X289559415Y-34725876D01*
X288416558Y-33725876D02*
X288416558Y-34725876D01*
X288416558Y-33868733D02*
X288345129Y-33797305D01*
X288345129Y-33797305D02*
X288202272Y-33725876D01*
X288202272Y-33725876D02*
X287987986Y-33725876D01*
X287987986Y-33725876D02*
X287845129Y-33797305D01*
X287845129Y-33797305D02*
X287773701Y-33940162D01*
X287773701Y-33940162D02*
X287773701Y-34725876D01*
X285916558Y-34725876D02*
X285916558Y-33725876D01*
X285916558Y-33225876D02*
X285987986Y-33297305D01*
X285987986Y-33297305D02*
X285916558Y-33368733D01*
X285916558Y-33368733D02*
X285845129Y-33297305D01*
X285845129Y-33297305D02*
X285916558Y-33225876D01*
X285916558Y-33225876D02*
X285916558Y-33368733D01*
X285202272Y-33725876D02*
X285202272Y-34725876D01*
X285202272Y-33868733D02*
X285130843Y-33797305D01*
X285130843Y-33797305D02*
X284987986Y-33725876D01*
X284987986Y-33725876D02*
X284773700Y-33725876D01*
X284773700Y-33725876D02*
X284630843Y-33797305D01*
X284630843Y-33797305D02*
X284559415Y-33940162D01*
X284559415Y-33940162D02*
X284559415Y-34725876D01*
X282059415Y-34654448D02*
X282202272Y-34725876D01*
X282202272Y-34725876D02*
X282487986Y-34725876D01*
X282487986Y-34725876D02*
X282630843Y-34654448D01*
X282630843Y-34654448D02*
X282702272Y-34583019D01*
X282702272Y-34583019D02*
X282773700Y-34440162D01*
X282773700Y-34440162D02*
X282773700Y-34011590D01*
X282773700Y-34011590D02*
X282702272Y-33868733D01*
X282702272Y-33868733D02*
X282630843Y-33797305D01*
X282630843Y-33797305D02*
X282487986Y-33725876D01*
X282487986Y-33725876D02*
X282202272Y-33725876D01*
X282202272Y-33725876D02*
X282059415Y-33797305D01*
X281202272Y-34725876D02*
X281345129Y-34654448D01*
X281345129Y-34654448D02*
X281416558Y-34583019D01*
X281416558Y-34583019D02*
X281487986Y-34440162D01*
X281487986Y-34440162D02*
X281487986Y-34011590D01*
X281487986Y-34011590D02*
X281416558Y-33868733D01*
X281416558Y-33868733D02*
X281345129Y-33797305D01*
X281345129Y-33797305D02*
X281202272Y-33725876D01*
X281202272Y-33725876D02*
X280987986Y-33725876D01*
X280987986Y-33725876D02*
X280845129Y-33797305D01*
X280845129Y-33797305D02*
X280773701Y-33868733D01*
X280773701Y-33868733D02*
X280702272Y-34011590D01*
X280702272Y-34011590D02*
X280702272Y-34440162D01*
X280702272Y-34440162D02*
X280773701Y-34583019D01*
X280773701Y-34583019D02*
X280845129Y-34654448D01*
X280845129Y-34654448D02*
X280987986Y-34725876D01*
X280987986Y-34725876D02*
X281202272Y-34725876D01*
X279845129Y-34725876D02*
X279987986Y-34654448D01*
X279987986Y-34654448D02*
X280059415Y-34511590D01*
X280059415Y-34511590D02*
X280059415Y-33225876D01*
X279059415Y-34725876D02*
X279202272Y-34654448D01*
X279202272Y-34654448D02*
X279273701Y-34511590D01*
X279273701Y-34511590D02*
X279273701Y-33225876D01*
X277845130Y-34725876D02*
X277845130Y-33940162D01*
X277845130Y-33940162D02*
X277916558Y-33797305D01*
X277916558Y-33797305D02*
X278059415Y-33725876D01*
X278059415Y-33725876D02*
X278345130Y-33725876D01*
X278345130Y-33725876D02*
X278487987Y-33797305D01*
X277845130Y-34654448D02*
X277987987Y-34725876D01*
X277987987Y-34725876D02*
X278345130Y-34725876D01*
X278345130Y-34725876D02*
X278487987Y-34654448D01*
X278487987Y-34654448D02*
X278559415Y-34511590D01*
X278559415Y-34511590D02*
X278559415Y-34368733D01*
X278559415Y-34368733D02*
X278487987Y-34225876D01*
X278487987Y-34225876D02*
X278345130Y-34154448D01*
X278345130Y-34154448D02*
X277987987Y-34154448D01*
X277987987Y-34154448D02*
X277845130Y-34083019D01*
X277130844Y-34725876D02*
X277130844Y-33225876D01*
X277130844Y-33797305D02*
X276987987Y-33725876D01*
X276987987Y-33725876D02*
X276702272Y-33725876D01*
X276702272Y-33725876D02*
X276559415Y-33797305D01*
X276559415Y-33797305D02*
X276487987Y-33868733D01*
X276487987Y-33868733D02*
X276416558Y-34011590D01*
X276416558Y-34011590D02*
X276416558Y-34440162D01*
X276416558Y-34440162D02*
X276487987Y-34583019D01*
X276487987Y-34583019D02*
X276559415Y-34654448D01*
X276559415Y-34654448D02*
X276702272Y-34725876D01*
X276702272Y-34725876D02*
X276987987Y-34725876D01*
X276987987Y-34725876D02*
X277130844Y-34654448D01*
X275559415Y-34725876D02*
X275702272Y-34654448D01*
X275702272Y-34654448D02*
X275773701Y-34583019D01*
X275773701Y-34583019D02*
X275845129Y-34440162D01*
X275845129Y-34440162D02*
X275845129Y-34011590D01*
X275845129Y-34011590D02*
X275773701Y-33868733D01*
X275773701Y-33868733D02*
X275702272Y-33797305D01*
X275702272Y-33797305D02*
X275559415Y-33725876D01*
X275559415Y-33725876D02*
X275345129Y-33725876D01*
X275345129Y-33725876D02*
X275202272Y-33797305D01*
X275202272Y-33797305D02*
X275130844Y-33868733D01*
X275130844Y-33868733D02*
X275059415Y-34011590D01*
X275059415Y-34011590D02*
X275059415Y-34440162D01*
X275059415Y-34440162D02*
X275130844Y-34583019D01*
X275130844Y-34583019D02*
X275202272Y-34654448D01*
X275202272Y-34654448D02*
X275345129Y-34725876D01*
X275345129Y-34725876D02*
X275559415Y-34725876D01*
X274416558Y-34725876D02*
X274416558Y-33725876D01*
X274416558Y-34011590D02*
X274345129Y-33868733D01*
X274345129Y-33868733D02*
X274273701Y-33797305D01*
X274273701Y-33797305D02*
X274130843Y-33725876D01*
X274130843Y-33725876D02*
X273987986Y-33725876D01*
X272845130Y-34725876D02*
X272845130Y-33940162D01*
X272845130Y-33940162D02*
X272916558Y-33797305D01*
X272916558Y-33797305D02*
X273059415Y-33725876D01*
X273059415Y-33725876D02*
X273345130Y-33725876D01*
X273345130Y-33725876D02*
X273487987Y-33797305D01*
X272845130Y-34654448D02*
X272987987Y-34725876D01*
X272987987Y-34725876D02*
X273345130Y-34725876D01*
X273345130Y-34725876D02*
X273487987Y-34654448D01*
X273487987Y-34654448D02*
X273559415Y-34511590D01*
X273559415Y-34511590D02*
X273559415Y-34368733D01*
X273559415Y-34368733D02*
X273487987Y-34225876D01*
X273487987Y-34225876D02*
X273345130Y-34154448D01*
X273345130Y-34154448D02*
X272987987Y-34154448D01*
X272987987Y-34154448D02*
X272845130Y-34083019D01*
X272345129Y-33725876D02*
X271773701Y-33725876D01*
X272130844Y-33225876D02*
X272130844Y-34511590D01*
X272130844Y-34511590D02*
X272059415Y-34654448D01*
X272059415Y-34654448D02*
X271916558Y-34725876D01*
X271916558Y-34725876D02*
X271773701Y-34725876D01*
X271273701Y-34725876D02*
X271273701Y-33725876D01*
X271273701Y-33225876D02*
X271345129Y-33297305D01*
X271345129Y-33297305D02*
X271273701Y-33368733D01*
X271273701Y-33368733D02*
X271202272Y-33297305D01*
X271202272Y-33297305D02*
X271273701Y-33225876D01*
X271273701Y-33225876D02*
X271273701Y-33368733D01*
X270345129Y-34725876D02*
X270487986Y-34654448D01*
X270487986Y-34654448D02*
X270559415Y-34583019D01*
X270559415Y-34583019D02*
X270630843Y-34440162D01*
X270630843Y-34440162D02*
X270630843Y-34011590D01*
X270630843Y-34011590D02*
X270559415Y-33868733D01*
X270559415Y-33868733D02*
X270487986Y-33797305D01*
X270487986Y-33797305D02*
X270345129Y-33725876D01*
X270345129Y-33725876D02*
X270130843Y-33725876D01*
X270130843Y-33725876D02*
X269987986Y-33797305D01*
X269987986Y-33797305D02*
X269916558Y-33868733D01*
X269916558Y-33868733D02*
X269845129Y-34011590D01*
X269845129Y-34011590D02*
X269845129Y-34440162D01*
X269845129Y-34440162D02*
X269916558Y-34583019D01*
X269916558Y-34583019D02*
X269987986Y-34654448D01*
X269987986Y-34654448D02*
X270130843Y-34725876D01*
X270130843Y-34725876D02*
X270345129Y-34725876D01*
X269202272Y-33725876D02*
X269202272Y-34725876D01*
X269202272Y-33868733D02*
X269130843Y-33797305D01*
X269130843Y-33797305D02*
X268987986Y-33725876D01*
X268987986Y-33725876D02*
X268773700Y-33725876D01*
X268773700Y-33725876D02*
X268630843Y-33797305D01*
X268630843Y-33797305D02*
X268559415Y-33940162D01*
X268559415Y-33940162D02*
X268559415Y-34725876D01*
X266845129Y-33725876D02*
X266559415Y-34725876D01*
X266559415Y-34725876D02*
X266273700Y-34011590D01*
X266273700Y-34011590D02*
X265987986Y-34725876D01*
X265987986Y-34725876D02*
X265702272Y-33725876D01*
X265130843Y-34725876D02*
X265130843Y-33725876D01*
X265130843Y-33225876D02*
X265202271Y-33297305D01*
X265202271Y-33297305D02*
X265130843Y-33368733D01*
X265130843Y-33368733D02*
X265059414Y-33297305D01*
X265059414Y-33297305D02*
X265130843Y-33225876D01*
X265130843Y-33225876D02*
X265130843Y-33368733D01*
X264630842Y-33725876D02*
X264059414Y-33725876D01*
X264416557Y-33225876D02*
X264416557Y-34511590D01*
X264416557Y-34511590D02*
X264345128Y-34654448D01*
X264345128Y-34654448D02*
X264202271Y-34725876D01*
X264202271Y-34725876D02*
X264059414Y-34725876D01*
X263559414Y-34725876D02*
X263559414Y-33225876D01*
X262916557Y-34725876D02*
X262916557Y-33940162D01*
X262916557Y-33940162D02*
X262987985Y-33797305D01*
X262987985Y-33797305D02*
X263130842Y-33725876D01*
X263130842Y-33725876D02*
X263345128Y-33725876D01*
X263345128Y-33725876D02*
X263487985Y-33797305D01*
X263487985Y-33797305D02*
X263559414Y-33868733D01*
X261202271Y-34725876D02*
X260416557Y-33725876D01*
X261202271Y-33725876D02*
X260416557Y-34725876D01*
X259630842Y-34725876D02*
X259773699Y-34654448D01*
X259773699Y-34654448D02*
X259845128Y-34583019D01*
X259845128Y-34583019D02*
X259916556Y-34440162D01*
X259916556Y-34440162D02*
X259916556Y-34011590D01*
X259916556Y-34011590D02*
X259845128Y-33868733D01*
X259845128Y-33868733D02*
X259773699Y-33797305D01*
X259773699Y-33797305D02*
X259630842Y-33725876D01*
X259630842Y-33725876D02*
X259416556Y-33725876D01*
X259416556Y-33725876D02*
X259273699Y-33797305D01*
X259273699Y-33797305D02*
X259202271Y-33868733D01*
X259202271Y-33868733D02*
X259130842Y-34011590D01*
X259130842Y-34011590D02*
X259130842Y-34440162D01*
X259130842Y-34440162D02*
X259202271Y-34583019D01*
X259202271Y-34583019D02*
X259273699Y-34654448D01*
X259273699Y-34654448D02*
X259416556Y-34725876D01*
X259416556Y-34725876D02*
X259630842Y-34725876D01*
X258487985Y-34725876D02*
X258487985Y-33725876D01*
X258487985Y-33868733D02*
X258416556Y-33797305D01*
X258416556Y-33797305D02*
X258273699Y-33725876D01*
X258273699Y-33725876D02*
X258059413Y-33725876D01*
X258059413Y-33725876D02*
X257916556Y-33797305D01*
X257916556Y-33797305D02*
X257845128Y-33940162D01*
X257845128Y-33940162D02*
X257845128Y-34725876D01*
X257845128Y-33940162D02*
X257773699Y-33797305D01*
X257773699Y-33797305D02*
X257630842Y-33725876D01*
X257630842Y-33725876D02*
X257416556Y-33725876D01*
X257416556Y-33725876D02*
X257273699Y-33797305D01*
X257273699Y-33797305D02*
X257202270Y-33940162D01*
X257202270Y-33940162D02*
X257202270Y-34725876D01*
X256487985Y-34725876D02*
X256487985Y-33725876D01*
X256487985Y-33868733D02*
X256416556Y-33797305D01*
X256416556Y-33797305D02*
X256273699Y-33725876D01*
X256273699Y-33725876D02*
X256059413Y-33725876D01*
X256059413Y-33725876D02*
X255916556Y-33797305D01*
X255916556Y-33797305D02*
X255845128Y-33940162D01*
X255845128Y-33940162D02*
X255845128Y-34725876D01*
X255845128Y-33940162D02*
X255773699Y-33797305D01*
X255773699Y-33797305D02*
X255630842Y-33725876D01*
X255630842Y-33725876D02*
X255416556Y-33725876D01*
X255416556Y-33725876D02*
X255273699Y-33797305D01*
X255273699Y-33797305D02*
X255202270Y-33940162D01*
X255202270Y-33940162D02*
X255202270Y-34725876D01*
D11*
X293296105Y-89459075D02*
X293296105Y-90173360D01*
X293296105Y-90173360D02*
X293343724Y-90316217D01*
X293343724Y-90316217D02*
X293438962Y-90411456D01*
X293438962Y-90411456D02*
X293581819Y-90459075D01*
X293581819Y-90459075D02*
X293677057Y-90459075D01*
X292343724Y-90459075D02*
X292819914Y-90459075D01*
X292819914Y-90459075D02*
X292819914Y-89459075D01*
X291438962Y-90363836D02*
X291486581Y-90411456D01*
X291486581Y-90411456D02*
X291629438Y-90459075D01*
X291629438Y-90459075D02*
X291724676Y-90459075D01*
X291724676Y-90459075D02*
X291867533Y-90411456D01*
X291867533Y-90411456D02*
X291962771Y-90316217D01*
X291962771Y-90316217D02*
X292010390Y-90220979D01*
X292010390Y-90220979D02*
X292058009Y-90030503D01*
X292058009Y-90030503D02*
X292058009Y-89887646D01*
X292058009Y-89887646D02*
X292010390Y-89697170D01*
X292010390Y-89697170D02*
X291962771Y-89601932D01*
X291962771Y-89601932D02*
X291867533Y-89506694D01*
X291867533Y-89506694D02*
X291724676Y-89459075D01*
X291724676Y-89459075D02*
X291629438Y-89459075D01*
X291629438Y-89459075D02*
X291486581Y-89506694D01*
X291486581Y-89506694D02*
X291438962Y-89554313D01*
X290724676Y-89459075D02*
X290724676Y-90173360D01*
X290724676Y-90173360D02*
X290772295Y-90316217D01*
X290772295Y-90316217D02*
X290867533Y-90411456D01*
X290867533Y-90411456D02*
X291010390Y-90459075D01*
X291010390Y-90459075D02*
X291105628Y-90459075D01*
X289772295Y-90459075D02*
X290248485Y-90459075D01*
X290248485Y-90459075D02*
X290248485Y-89459075D01*
X288867533Y-90363836D02*
X288915152Y-90411456D01*
X288915152Y-90411456D02*
X289058009Y-90459075D01*
X289058009Y-90459075D02*
X289153247Y-90459075D01*
X289153247Y-90459075D02*
X289296104Y-90411456D01*
X289296104Y-90411456D02*
X289391342Y-90316217D01*
X289391342Y-90316217D02*
X289438961Y-90220979D01*
X289438961Y-90220979D02*
X289486580Y-90030503D01*
X289486580Y-90030503D02*
X289486580Y-89887646D01*
X289486580Y-89887646D02*
X289438961Y-89697170D01*
X289438961Y-89697170D02*
X289391342Y-89601932D01*
X289391342Y-89601932D02*
X289296104Y-89506694D01*
X289296104Y-89506694D02*
X289153247Y-89459075D01*
X289153247Y-89459075D02*
X289058009Y-89459075D01*
X289058009Y-89459075D02*
X288915152Y-89506694D01*
X288915152Y-89506694D02*
X288867533Y-89554313D01*
X288153247Y-89459075D02*
X288153247Y-90173360D01*
X288153247Y-90173360D02*
X288200866Y-90316217D01*
X288200866Y-90316217D02*
X288296104Y-90411456D01*
X288296104Y-90411456D02*
X288438961Y-90459075D01*
X288438961Y-90459075D02*
X288534199Y-90459075D01*
X287200866Y-90459075D02*
X287677056Y-90459075D01*
X287677056Y-90459075D02*
X287677056Y-89459075D01*
X286296104Y-90363836D02*
X286343723Y-90411456D01*
X286343723Y-90411456D02*
X286486580Y-90459075D01*
X286486580Y-90459075D02*
X286581818Y-90459075D01*
X286581818Y-90459075D02*
X286724675Y-90411456D01*
X286724675Y-90411456D02*
X286819913Y-90316217D01*
X286819913Y-90316217D02*
X286867532Y-90220979D01*
X286867532Y-90220979D02*
X286915151Y-90030503D01*
X286915151Y-90030503D02*
X286915151Y-89887646D01*
X286915151Y-89887646D02*
X286867532Y-89697170D01*
X286867532Y-89697170D02*
X286819913Y-89601932D01*
X286819913Y-89601932D02*
X286724675Y-89506694D01*
X286724675Y-89506694D02*
X286581818Y-89459075D01*
X286581818Y-89459075D02*
X286486580Y-89459075D01*
X286486580Y-89459075D02*
X286343723Y-89506694D01*
X286343723Y-89506694D02*
X286296104Y-89554313D01*
X285581818Y-89459075D02*
X285581818Y-90173360D01*
X285581818Y-90173360D02*
X285629437Y-90316217D01*
X285629437Y-90316217D02*
X285724675Y-90411456D01*
X285724675Y-90411456D02*
X285867532Y-90459075D01*
X285867532Y-90459075D02*
X285962770Y-90459075D01*
X284629437Y-90459075D02*
X285105627Y-90459075D01*
X285105627Y-90459075D02*
X285105627Y-89459075D01*
X283724675Y-90363836D02*
X283772294Y-90411456D01*
X283772294Y-90411456D02*
X283915151Y-90459075D01*
X283915151Y-90459075D02*
X284010389Y-90459075D01*
X284010389Y-90459075D02*
X284153246Y-90411456D01*
X284153246Y-90411456D02*
X284248484Y-90316217D01*
X284248484Y-90316217D02*
X284296103Y-90220979D01*
X284296103Y-90220979D02*
X284343722Y-90030503D01*
X284343722Y-90030503D02*
X284343722Y-89887646D01*
X284343722Y-89887646D02*
X284296103Y-89697170D01*
X284296103Y-89697170D02*
X284248484Y-89601932D01*
X284248484Y-89601932D02*
X284153246Y-89506694D01*
X284153246Y-89506694D02*
X284010389Y-89459075D01*
X284010389Y-89459075D02*
X283915151Y-89459075D01*
X283915151Y-89459075D02*
X283772294Y-89506694D01*
X283772294Y-89506694D02*
X283724675Y-89554313D01*
D12*
X236199240Y-62204843D02*
X236199240Y-61204843D01*
X236199240Y-61204843D02*
X235865907Y-61919128D01*
X235865907Y-61919128D02*
X235532574Y-61204843D01*
X235532574Y-61204843D02*
X235532574Y-62204843D01*
X235151621Y-61204843D02*
X234484955Y-62204843D01*
X234484955Y-61204843D02*
X235151621Y-62204843D01*
X233675431Y-61538176D02*
X233675431Y-62204843D01*
X233913526Y-61157224D02*
X234151621Y-61871509D01*
X234151621Y-61871509D02*
X233532574Y-61871509D01*
X232723050Y-61538176D02*
X232723050Y-62204843D01*
X232961145Y-61157224D02*
X233199240Y-61871509D01*
X233199240Y-61871509D02*
X232580193Y-61871509D01*
X50461904Y-43154819D02*
X50461904Y-42154819D01*
X50461904Y-42154819D02*
X50128571Y-42869104D01*
X50128571Y-42869104D02*
X49795238Y-42154819D01*
X49795238Y-42154819D02*
X49795238Y-43154819D01*
X49414285Y-42154819D02*
X48747619Y-43154819D01*
X48747619Y-42154819D02*
X49414285Y-43154819D01*
X48461904Y-42154819D02*
X47795238Y-42154819D01*
X47795238Y-42154819D02*
X48223809Y-43154819D01*
X47223809Y-42154819D02*
X47128571Y-42154819D01*
X47128571Y-42154819D02*
X47033333Y-42202438D01*
X47033333Y-42202438D02*
X46985714Y-42250057D01*
X46985714Y-42250057D02*
X46938095Y-42345295D01*
X46938095Y-42345295D02*
X46890476Y-42535771D01*
X46890476Y-42535771D02*
X46890476Y-42773866D01*
X46890476Y-42773866D02*
X46938095Y-42964342D01*
X46938095Y-42964342D02*
X46985714Y-43059580D01*
X46985714Y-43059580D02*
X47033333Y-43107200D01*
X47033333Y-43107200D02*
X47128571Y-43154819D01*
X47128571Y-43154819D02*
X47223809Y-43154819D01*
X47223809Y-43154819D02*
X47319047Y-43107200D01*
X47319047Y-43107200D02*
X47366666Y-43059580D01*
X47366666Y-43059580D02*
X47414285Y-42964342D01*
X47414285Y-42964342D02*
X47461904Y-42773866D01*
X47461904Y-42773866D02*
X47461904Y-42535771D01*
X47461904Y-42535771D02*
X47414285Y-42345295D01*
X47414285Y-42345295D02*
X47366666Y-42250057D01*
X47366666Y-42250057D02*
X47319047Y-42202438D01*
X47319047Y-42202438D02*
X47223809Y-42154819D01*
X293661792Y-69430851D02*
X293995125Y-68954660D01*
X294233220Y-69430851D02*
X294233220Y-68430851D01*
X294233220Y-68430851D02*
X293852268Y-68430851D01*
X293852268Y-68430851D02*
X293757030Y-68478470D01*
X293757030Y-68478470D02*
X293709411Y-68526089D01*
X293709411Y-68526089D02*
X293661792Y-68621327D01*
X293661792Y-68621327D02*
X293661792Y-68764184D01*
X293661792Y-68764184D02*
X293709411Y-68859422D01*
X293709411Y-68859422D02*
X293757030Y-68907041D01*
X293757030Y-68907041D02*
X293852268Y-68954660D01*
X293852268Y-68954660D02*
X294233220Y-68954660D01*
X293233220Y-68907041D02*
X292899887Y-68907041D01*
X292757030Y-69430851D02*
X293233220Y-69430851D01*
X293233220Y-69430851D02*
X293233220Y-68430851D01*
X293233220Y-68430851D02*
X292757030Y-68430851D01*
X292376077Y-69383232D02*
X292233220Y-69430851D01*
X292233220Y-69430851D02*
X291995125Y-69430851D01*
X291995125Y-69430851D02*
X291899887Y-69383232D01*
X291899887Y-69383232D02*
X291852268Y-69335612D01*
X291852268Y-69335612D02*
X291804649Y-69240374D01*
X291804649Y-69240374D02*
X291804649Y-69145136D01*
X291804649Y-69145136D02*
X291852268Y-69049898D01*
X291852268Y-69049898D02*
X291899887Y-69002279D01*
X291899887Y-69002279D02*
X291995125Y-68954660D01*
X291995125Y-68954660D02*
X292185601Y-68907041D01*
X292185601Y-68907041D02*
X292280839Y-68859422D01*
X292280839Y-68859422D02*
X292328458Y-68811803D01*
X292328458Y-68811803D02*
X292376077Y-68716565D01*
X292376077Y-68716565D02*
X292376077Y-68621327D01*
X292376077Y-68621327D02*
X292328458Y-68526089D01*
X292328458Y-68526089D02*
X292280839Y-68478470D01*
X292280839Y-68478470D02*
X292185601Y-68430851D01*
X292185601Y-68430851D02*
X291947506Y-68430851D01*
X291947506Y-68430851D02*
X291804649Y-68478470D01*
X291376077Y-68907041D02*
X291042744Y-68907041D01*
X290899887Y-69430851D02*
X291376077Y-69430851D01*
X291376077Y-69430851D02*
X291376077Y-68430851D01*
X291376077Y-68430851D02*
X290899887Y-68430851D01*
X290614172Y-68430851D02*
X290042744Y-68430851D01*
X290328458Y-69430851D02*
X290328458Y-68430851D01*
X310674885Y-36177736D02*
X310722504Y-36320593D01*
X310722504Y-36320593D02*
X310770123Y-36368212D01*
X310770123Y-36368212D02*
X310865361Y-36415831D01*
X310865361Y-36415831D02*
X311008218Y-36415831D01*
X311008218Y-36415831D02*
X311103456Y-36368212D01*
X311103456Y-36368212D02*
X311151076Y-36320593D01*
X311151076Y-36320593D02*
X311198695Y-36225355D01*
X311198695Y-36225355D02*
X311198695Y-35844403D01*
X311198695Y-35844403D02*
X310198695Y-35844403D01*
X310198695Y-35844403D02*
X310198695Y-36177736D01*
X310198695Y-36177736D02*
X310246314Y-36272974D01*
X310246314Y-36272974D02*
X310293933Y-36320593D01*
X310293933Y-36320593D02*
X310389171Y-36368212D01*
X310389171Y-36368212D02*
X310484409Y-36368212D01*
X310484409Y-36368212D02*
X310579647Y-36320593D01*
X310579647Y-36320593D02*
X310627266Y-36272974D01*
X310627266Y-36272974D02*
X310674885Y-36177736D01*
X310674885Y-36177736D02*
X310674885Y-35844403D01*
X310198695Y-37034879D02*
X310198695Y-37225355D01*
X310198695Y-37225355D02*
X310246314Y-37320593D01*
X310246314Y-37320593D02*
X310341552Y-37415831D01*
X310341552Y-37415831D02*
X310532028Y-37463450D01*
X310532028Y-37463450D02*
X310865361Y-37463450D01*
X310865361Y-37463450D02*
X311055837Y-37415831D01*
X311055837Y-37415831D02*
X311151076Y-37320593D01*
X311151076Y-37320593D02*
X311198695Y-37225355D01*
X311198695Y-37225355D02*
X311198695Y-37034879D01*
X311198695Y-37034879D02*
X311151076Y-36939641D01*
X311151076Y-36939641D02*
X311055837Y-36844403D01*
X311055837Y-36844403D02*
X310865361Y-36796784D01*
X310865361Y-36796784D02*
X310532028Y-36796784D01*
X310532028Y-36796784D02*
X310341552Y-36844403D01*
X310341552Y-36844403D02*
X310246314Y-36939641D01*
X310246314Y-36939641D02*
X310198695Y-37034879D01*
X310198695Y-38082498D02*
X310198695Y-38272974D01*
X310198695Y-38272974D02*
X310246314Y-38368212D01*
X310246314Y-38368212D02*
X310341552Y-38463450D01*
X310341552Y-38463450D02*
X310532028Y-38511069D01*
X310532028Y-38511069D02*
X310865361Y-38511069D01*
X310865361Y-38511069D02*
X311055837Y-38463450D01*
X311055837Y-38463450D02*
X311151076Y-38368212D01*
X311151076Y-38368212D02*
X311198695Y-38272974D01*
X311198695Y-38272974D02*
X311198695Y-38082498D01*
X311198695Y-38082498D02*
X311151076Y-37987260D01*
X311151076Y-37987260D02*
X311055837Y-37892022D01*
X311055837Y-37892022D02*
X310865361Y-37844403D01*
X310865361Y-37844403D02*
X310532028Y-37844403D01*
X310532028Y-37844403D02*
X310341552Y-37892022D01*
X310341552Y-37892022D02*
X310246314Y-37987260D01*
X310246314Y-37987260D02*
X310198695Y-38082498D01*
X310198695Y-38796784D02*
X310198695Y-39368212D01*
X311198695Y-39082498D02*
X310198695Y-39082498D01*
X36194256Y-62204843D02*
X36194256Y-61204843D01*
X36194256Y-61204843D02*
X35860923Y-61919128D01*
X35860923Y-61919128D02*
X35527590Y-61204843D01*
X35527590Y-61204843D02*
X35527590Y-62204843D01*
X35146637Y-61204843D02*
X34479971Y-62204843D01*
X34479971Y-61204843D02*
X35146637Y-62204843D01*
X34194256Y-61204843D02*
X33575209Y-61204843D01*
X33575209Y-61204843D02*
X33908542Y-61585795D01*
X33908542Y-61585795D02*
X33765685Y-61585795D01*
X33765685Y-61585795D02*
X33670447Y-61633414D01*
X33670447Y-61633414D02*
X33622828Y-61681033D01*
X33622828Y-61681033D02*
X33575209Y-61776271D01*
X33575209Y-61776271D02*
X33575209Y-62014366D01*
X33575209Y-62014366D02*
X33622828Y-62109604D01*
X33622828Y-62109604D02*
X33670447Y-62157224D01*
X33670447Y-62157224D02*
X33765685Y-62204843D01*
X33765685Y-62204843D02*
X34051399Y-62204843D01*
X34051399Y-62204843D02*
X34146637Y-62157224D01*
X34146637Y-62157224D02*
X34194256Y-62109604D01*
X33241875Y-61204843D02*
X32622828Y-61204843D01*
X32622828Y-61204843D02*
X32956161Y-61585795D01*
X32956161Y-61585795D02*
X32813304Y-61585795D01*
X32813304Y-61585795D02*
X32718066Y-61633414D01*
X32718066Y-61633414D02*
X32670447Y-61681033D01*
X32670447Y-61681033D02*
X32622828Y-61776271D01*
X32622828Y-61776271D02*
X32622828Y-62014366D01*
X32622828Y-62014366D02*
X32670447Y-62109604D01*
X32670447Y-62109604D02*
X32718066Y-62157224D01*
X32718066Y-62157224D02*
X32813304Y-62204843D01*
X32813304Y-62204843D02*
X33099018Y-62204843D01*
X33099018Y-62204843D02*
X33194256Y-62157224D01*
X33194256Y-62157224D02*
X33241875Y-62109604D01*
X304602080Y-88102951D02*
X304554460Y-87960094D01*
X304554460Y-87960094D02*
X304554460Y-87721999D01*
X304554460Y-87721999D02*
X304602080Y-87626761D01*
X304602080Y-87626761D02*
X304649699Y-87579142D01*
X304649699Y-87579142D02*
X304744937Y-87531523D01*
X304744937Y-87531523D02*
X304840175Y-87531523D01*
X304840175Y-87531523D02*
X304935413Y-87579142D01*
X304935413Y-87579142D02*
X304983032Y-87626761D01*
X304983032Y-87626761D02*
X305030651Y-87721999D01*
X305030651Y-87721999D02*
X305078270Y-87912475D01*
X305078270Y-87912475D02*
X305125889Y-88007713D01*
X305125889Y-88007713D02*
X305173508Y-88055332D01*
X305173508Y-88055332D02*
X305268746Y-88102951D01*
X305268746Y-88102951D02*
X305363984Y-88102951D01*
X305363984Y-88102951D02*
X305459222Y-88055332D01*
X305459222Y-88055332D02*
X305506841Y-88007713D01*
X305506841Y-88007713D02*
X305554460Y-87912475D01*
X305554460Y-87912475D02*
X305554460Y-87674380D01*
X305554460Y-87674380D02*
X305506841Y-87531523D01*
X305554460Y-87198189D02*
X304554460Y-86960094D01*
X304554460Y-86960094D02*
X305268746Y-86769618D01*
X305268746Y-86769618D02*
X304554460Y-86579142D01*
X304554460Y-86579142D02*
X305554460Y-86341047D01*
X304554460Y-85960094D02*
X305554460Y-85960094D01*
X305554460Y-85960094D02*
X305554460Y-85721999D01*
X305554460Y-85721999D02*
X305506841Y-85579142D01*
X305506841Y-85579142D02*
X305411603Y-85483904D01*
X305411603Y-85483904D02*
X305316365Y-85436285D01*
X305316365Y-85436285D02*
X305125889Y-85388666D01*
X305125889Y-85388666D02*
X304983032Y-85388666D01*
X304983032Y-85388666D02*
X304792556Y-85436285D01*
X304792556Y-85436285D02*
X304697318Y-85483904D01*
X304697318Y-85483904D02*
X304602080Y-85579142D01*
X304602080Y-85579142D02*
X304554460Y-85721999D01*
X304554460Y-85721999D02*
X304554460Y-85960094D01*
X302014460Y-87483904D02*
X302490651Y-87817237D01*
X302014460Y-88055332D02*
X303014460Y-88055332D01*
X303014460Y-88055332D02*
X303014460Y-87674380D01*
X303014460Y-87674380D02*
X302966841Y-87579142D01*
X302966841Y-87579142D02*
X302919222Y-87531523D01*
X302919222Y-87531523D02*
X302823984Y-87483904D01*
X302823984Y-87483904D02*
X302681127Y-87483904D01*
X302681127Y-87483904D02*
X302585889Y-87531523D01*
X302585889Y-87531523D02*
X302538270Y-87579142D01*
X302538270Y-87579142D02*
X302490651Y-87674380D01*
X302490651Y-87674380D02*
X302490651Y-88055332D01*
X302062080Y-87102951D02*
X302014460Y-86960094D01*
X302014460Y-86960094D02*
X302014460Y-86721999D01*
X302014460Y-86721999D02*
X302062080Y-86626761D01*
X302062080Y-86626761D02*
X302109699Y-86579142D01*
X302109699Y-86579142D02*
X302204937Y-86531523D01*
X302204937Y-86531523D02*
X302300175Y-86531523D01*
X302300175Y-86531523D02*
X302395413Y-86579142D01*
X302395413Y-86579142D02*
X302443032Y-86626761D01*
X302443032Y-86626761D02*
X302490651Y-86721999D01*
X302490651Y-86721999D02*
X302538270Y-86912475D01*
X302538270Y-86912475D02*
X302585889Y-87007713D01*
X302585889Y-87007713D02*
X302633508Y-87055332D01*
X302633508Y-87055332D02*
X302728746Y-87102951D01*
X302728746Y-87102951D02*
X302823984Y-87102951D01*
X302823984Y-87102951D02*
X302919222Y-87055332D01*
X302919222Y-87055332D02*
X302966841Y-87007713D01*
X302966841Y-87007713D02*
X303014460Y-86912475D01*
X303014460Y-86912475D02*
X303014460Y-86674380D01*
X303014460Y-86674380D02*
X302966841Y-86531523D01*
X303014460Y-86245808D02*
X303014460Y-85674380D01*
X302014460Y-85960094D02*
X303014460Y-85960094D01*
X307142080Y-88102951D02*
X307094460Y-87960094D01*
X307094460Y-87960094D02*
X307094460Y-87721999D01*
X307094460Y-87721999D02*
X307142080Y-87626761D01*
X307142080Y-87626761D02*
X307189699Y-87579142D01*
X307189699Y-87579142D02*
X307284937Y-87531523D01*
X307284937Y-87531523D02*
X307380175Y-87531523D01*
X307380175Y-87531523D02*
X307475413Y-87579142D01*
X307475413Y-87579142D02*
X307523032Y-87626761D01*
X307523032Y-87626761D02*
X307570651Y-87721999D01*
X307570651Y-87721999D02*
X307618270Y-87912475D01*
X307618270Y-87912475D02*
X307665889Y-88007713D01*
X307665889Y-88007713D02*
X307713508Y-88055332D01*
X307713508Y-88055332D02*
X307808746Y-88102951D01*
X307808746Y-88102951D02*
X307903984Y-88102951D01*
X307903984Y-88102951D02*
X307999222Y-88055332D01*
X307999222Y-88055332D02*
X308046841Y-88007713D01*
X308046841Y-88007713D02*
X308094460Y-87912475D01*
X308094460Y-87912475D02*
X308094460Y-87674380D01*
X308094460Y-87674380D02*
X308046841Y-87531523D01*
X308094460Y-87198189D02*
X307094460Y-86960094D01*
X307094460Y-86960094D02*
X307808746Y-86769618D01*
X307808746Y-86769618D02*
X307094460Y-86579142D01*
X307094460Y-86579142D02*
X308094460Y-86341047D01*
X307189699Y-85388666D02*
X307142080Y-85436285D01*
X307142080Y-85436285D02*
X307094460Y-85579142D01*
X307094460Y-85579142D02*
X307094460Y-85674380D01*
X307094460Y-85674380D02*
X307142080Y-85817237D01*
X307142080Y-85817237D02*
X307237318Y-85912475D01*
X307237318Y-85912475D02*
X307332556Y-85960094D01*
X307332556Y-85960094D02*
X307523032Y-86007713D01*
X307523032Y-86007713D02*
X307665889Y-86007713D01*
X307665889Y-86007713D02*
X307856365Y-85960094D01*
X307856365Y-85960094D02*
X307951603Y-85912475D01*
X307951603Y-85912475D02*
X308046841Y-85817237D01*
X308046841Y-85817237D02*
X308094460Y-85674380D01*
X308094460Y-85674380D02*
X308094460Y-85579142D01*
X308094460Y-85579142D02*
X308046841Y-85436285D01*
X308046841Y-85436285D02*
X307999222Y-85388666D01*
X300474460Y-88150570D02*
X300474460Y-87531523D01*
X300474460Y-87531523D02*
X300093508Y-87864856D01*
X300093508Y-87864856D02*
X300093508Y-87721999D01*
X300093508Y-87721999D02*
X300045889Y-87626761D01*
X300045889Y-87626761D02*
X299998270Y-87579142D01*
X299998270Y-87579142D02*
X299903032Y-87531523D01*
X299903032Y-87531523D02*
X299664937Y-87531523D01*
X299664937Y-87531523D02*
X299569699Y-87579142D01*
X299569699Y-87579142D02*
X299522080Y-87626761D01*
X299522080Y-87626761D02*
X299474460Y-87721999D01*
X299474460Y-87721999D02*
X299474460Y-88007713D01*
X299474460Y-88007713D02*
X299522080Y-88102951D01*
X299522080Y-88102951D02*
X299569699Y-88150570D01*
X300474460Y-87245808D02*
X299474460Y-86912475D01*
X299474460Y-86912475D02*
X300474460Y-86579142D01*
X300474460Y-86341046D02*
X300474460Y-85721999D01*
X300474460Y-85721999D02*
X300093508Y-86055332D01*
X300093508Y-86055332D02*
X300093508Y-85912475D01*
X300093508Y-85912475D02*
X300045889Y-85817237D01*
X300045889Y-85817237D02*
X299998270Y-85769618D01*
X299998270Y-85769618D02*
X299903032Y-85721999D01*
X299903032Y-85721999D02*
X299664937Y-85721999D01*
X299664937Y-85721999D02*
X299569699Y-85769618D01*
X299569699Y-85769618D02*
X299522080Y-85817237D01*
X299522080Y-85817237D02*
X299474460Y-85912475D01*
X299474460Y-85912475D02*
X299474460Y-86198189D01*
X299474460Y-86198189D02*
X299522080Y-86293427D01*
X299522080Y-86293427D02*
X299569699Y-86341046D01*
X297886841Y-87531523D02*
X297934460Y-87626761D01*
X297934460Y-87626761D02*
X297934460Y-87769618D01*
X297934460Y-87769618D02*
X297886841Y-87912475D01*
X297886841Y-87912475D02*
X297791603Y-88007713D01*
X297791603Y-88007713D02*
X297696365Y-88055332D01*
X297696365Y-88055332D02*
X297505889Y-88102951D01*
X297505889Y-88102951D02*
X297363032Y-88102951D01*
X297363032Y-88102951D02*
X297172556Y-88055332D01*
X297172556Y-88055332D02*
X297077318Y-88007713D01*
X297077318Y-88007713D02*
X296982080Y-87912475D01*
X296982080Y-87912475D02*
X296934460Y-87769618D01*
X296934460Y-87769618D02*
X296934460Y-87674380D01*
X296934460Y-87674380D02*
X296982080Y-87531523D01*
X296982080Y-87531523D02*
X297029699Y-87483904D01*
X297029699Y-87483904D02*
X297363032Y-87483904D01*
X297363032Y-87483904D02*
X297363032Y-87674380D01*
X296934460Y-87055332D02*
X297934460Y-87055332D01*
X297934460Y-87055332D02*
X296934460Y-86483904D01*
X296934460Y-86483904D02*
X297934460Y-86483904D01*
X296934460Y-86007713D02*
X297934460Y-86007713D01*
X297934460Y-86007713D02*
X297934460Y-85769618D01*
X297934460Y-85769618D02*
X297886841Y-85626761D01*
X297886841Y-85626761D02*
X297791603Y-85531523D01*
X297791603Y-85531523D02*
X297696365Y-85483904D01*
X297696365Y-85483904D02*
X297505889Y-85436285D01*
X297505889Y-85436285D02*
X297363032Y-85436285D01*
X297363032Y-85436285D02*
X297172556Y-85483904D01*
X297172556Y-85483904D02*
X297077318Y-85531523D01*
X297077318Y-85531523D02*
X296982080Y-85626761D01*
X296982080Y-85626761D02*
X296934460Y-85769618D01*
X296934460Y-85769618D02*
X296934460Y-86007713D01*
D13*
%TO.C,C2*%
X33969672Y-29671525D02*
X33969672Y-29887197D01*
X34689672Y-29671525D02*
X34689672Y-29887197D01*
D12*
%TO.C,MX9*%
X171714824Y-20649780D02*
X171714824Y-21449780D01*
X171714824Y-24539780D02*
X171714824Y-24299780D01*
X177600000Y-22699780D02*
X182164824Y-22699780D01*
X179614824Y-18649780D02*
X173714824Y-18649780D01*
X182664824Y-18649780D02*
X181114824Y-18649780D01*
X182664824Y-18879780D02*
X182664824Y-18649780D01*
X182664824Y-22199780D02*
X182664824Y-21729780D01*
X171714824Y-20649780D02*
G75*
G02*
X173714824Y-18649780I2000005J-5D01*
G01*
X175305678Y-24539780D02*
G75*
G02*
X177600000Y-22699780I2293456J-509332D01*
G01*
X182664824Y-22199780D02*
G75*
G02*
X182164824Y-22699780I-500001J1D01*
G01*
D13*
%TO.C,D6*%
X122731928Y-24543750D02*
X122731928Y-28553750D01*
X122731928Y-28553750D02*
X124731928Y-28553750D01*
X124731928Y-24543750D02*
X124731928Y-28553750D01*
%TO.C,D56*%
X179899450Y-81693750D02*
X179899450Y-85703750D01*
X179899450Y-85703750D02*
X181899450Y-85703750D01*
X181899450Y-81693750D02*
X181899450Y-85703750D01*
D12*
%TO.C,MX51*%
X46728896Y-85750228D02*
X46728896Y-86220227D01*
X46728896Y-89070228D02*
X46728896Y-89300228D01*
X46728896Y-89300228D02*
X48278896Y-89300228D01*
X49778896Y-89300228D02*
X55678896Y-89300228D01*
X51793719Y-85250228D02*
X47228896Y-85250228D01*
X57678896Y-83410228D02*
X57678896Y-83650228D01*
X57678896Y-87300228D02*
X57678896Y-86500228D01*
X46728896Y-85750228D02*
G75*
G02*
X47228896Y-85250228I500001J-1D01*
G01*
X54088042Y-83410227D02*
G75*
G02*
X51793719Y-85250228I-2293456J509330D01*
G01*
X57678896Y-87300228D02*
G75*
G02*
X55678896Y-89300228I-2000005J5D01*
G01*
D13*
%TO.C,U2*%
X57177464Y-33122640D02*
X57787464Y-33122640D01*
X57177464Y-36022640D02*
X57177464Y-33122640D01*
X60297464Y-34422640D02*
X60297465Y-35222640D01*
X60297464Y-36022640D02*
X60297465Y-35222640D01*
%TO.C,D43*%
X218436880Y-68155488D02*
X222446880Y-68155488D01*
X218436880Y-70155488D02*
X222446880Y-70155488D01*
X222446880Y-70155488D02*
X222446880Y-68155488D01*
D12*
%TO.C,MX20*%
X76464824Y-39699780D02*
X76464824Y-40499780D01*
X76464824Y-43589780D02*
X76464824Y-43349780D01*
X82350000Y-41749780D02*
X86914824Y-41749780D01*
X84364824Y-37699780D02*
X78464824Y-37699780D01*
X87414824Y-37699780D02*
X85864824Y-37699780D01*
X87414824Y-37929780D02*
X87414824Y-37699780D01*
X87414824Y-41249780D02*
X87414824Y-40779780D01*
X76464824Y-39699780D02*
G75*
G02*
X78464824Y-37699780I2000005J-5D01*
G01*
X80055678Y-43589780D02*
G75*
G02*
X82350000Y-41749780I2293456J-509332D01*
G01*
X87414824Y-41249780D02*
G75*
G02*
X86914824Y-41749780I-500001J1D01*
G01*
%TO.C,MX90*%
X227703760Y-66700244D02*
X227703760Y-67170243D01*
X227703760Y-70020244D02*
X227703760Y-70250244D01*
X227703760Y-70250244D02*
X229253760Y-70250244D01*
X230753760Y-70250244D02*
X236653760Y-70250244D01*
X232768583Y-66200244D02*
X228203760Y-66200244D01*
X238653760Y-64360244D02*
X238653760Y-64600244D01*
X238653760Y-68250244D02*
X238653760Y-67450244D01*
X227703760Y-66700244D02*
G75*
G02*
X228203760Y-66200244I500001J-1D01*
G01*
X235062906Y-64360243D02*
G75*
G02*
X232768583Y-66200244I-2293456J509330D01*
G01*
X238653760Y-68250244D02*
G75*
G02*
X236653760Y-70250244I-2000005J5D01*
G01*
D13*
%TO.C,D1*%
X27482008Y-24543750D02*
X27482008Y-28553750D01*
X27482008Y-28553750D02*
X29482008Y-28553750D01*
X29482008Y-24543750D02*
X29482008Y-28553750D01*
%TO.C,D3*%
X65581976Y-24543750D02*
X65581976Y-28553750D01*
X65581976Y-28553750D02*
X67581976Y-28553750D01*
X67581976Y-24543750D02*
X67581976Y-28553750D01*
%TO.C,D17*%
X37144512Y-48807784D02*
X41154512Y-48807784D01*
X37144512Y-50807784D02*
X41154512Y-50807784D01*
X41154512Y-50807784D02*
X41154512Y-48807784D01*
%TO.C,D11*%
X207458432Y-27843750D02*
X207458432Y-23833750D01*
X209458432Y-23833750D02*
X207458432Y-23833750D01*
X209458432Y-27843750D02*
X209458432Y-23833750D01*
%TO.C,D45*%
X256081816Y-62643750D02*
X256081816Y-66653750D01*
X256081816Y-66653750D02*
X258081816Y-66653750D01*
X258081816Y-62643750D02*
X258081816Y-66653750D01*
D12*
%TO.C,MX50*%
X38364824Y-77799780D02*
X38364824Y-78599780D01*
X38364824Y-81689780D02*
X38364824Y-81449780D01*
X44250001Y-79849780D02*
X48814824Y-79849780D01*
X46264824Y-75799780D02*
X40364824Y-75799780D01*
X49314824Y-75799780D02*
X47764824Y-75799780D01*
X49314824Y-76029780D02*
X49314824Y-75799780D01*
X49314824Y-79349780D02*
X49314824Y-78879781D01*
X38364824Y-77799780D02*
G75*
G02*
X40364824Y-75799780I2000005J-5D01*
G01*
X41955678Y-81689781D02*
G75*
G02*
X44250001Y-79849780I2293456J-509330D01*
G01*
X49314824Y-79349780D02*
G75*
G02*
X48814824Y-79849780I-500001J1D01*
G01*
%TO.C,MX36*%
X85989776Y-58749828D02*
X85989776Y-59549828D01*
X85989776Y-62639828D02*
X85989776Y-62399828D01*
X91874953Y-60799828D02*
X96439776Y-60799828D01*
X93889776Y-56749828D02*
X87989776Y-56749828D01*
X96939776Y-56749828D02*
X95389776Y-56749828D01*
X96939776Y-56979828D02*
X96939776Y-56749828D01*
X96939776Y-60299828D02*
X96939776Y-59829829D01*
X85989776Y-58749828D02*
G75*
G02*
X87989776Y-56749828I2000005J-5D01*
G01*
X89580630Y-62639829D02*
G75*
G02*
X91874953Y-60799828I2293456J-509330D01*
G01*
X96939776Y-60299828D02*
G75*
G02*
X96439776Y-60799828I-500001J1D01*
G01*
D13*
%TO.C,D62*%
X294181784Y-81693750D02*
X294181784Y-85703750D01*
X294181784Y-85703750D02*
X296181784Y-85703750D01*
X296181784Y-81693750D02*
X296181784Y-85703750D01*
%TO.C,D63*%
X313231768Y-81693750D02*
X313231768Y-85703750D01*
X313231768Y-85703750D02*
X315231768Y-85703750D01*
X315231768Y-81693750D02*
X315231768Y-85703750D01*
%TO.C,C1*%
X39873420Y-31797196D02*
X39873420Y-31581524D01*
X40593420Y-31797196D02*
X40593420Y-31581524D01*
%TO.C,MX16*%
X313369607Y-19800000D02*
X316412500Y-19800000D01*
X312369607Y-20800000D02*
G75*
G02*
X313369607Y-19800000I1000006J-6D01*
G01*
%TO.C,D27*%
X222881856Y-48807784D02*
X226891856Y-48807784D01*
X222881856Y-50807784D02*
X226891856Y-50807784D01*
X226891856Y-50807784D02*
X226891856Y-48807784D01*
%TO.C,D59*%
X244367776Y-85067192D02*
X244367776Y-89077192D01*
X244367776Y-89077192D02*
X246367776Y-89077192D01*
X246367776Y-85067192D02*
X246367776Y-89077192D01*
D12*
%TO.C,MX5*%
X95514824Y-20649780D02*
X95514824Y-21449780D01*
X95514824Y-24539780D02*
X95514824Y-24299780D01*
X101400000Y-22699780D02*
X105964824Y-22699780D01*
X103414824Y-18649780D02*
X97514824Y-18649780D01*
X106464824Y-18649780D02*
X104914824Y-18649780D01*
X106464824Y-18879780D02*
X106464824Y-18649780D01*
X106464824Y-22199780D02*
X106464824Y-21729780D01*
X95514824Y-20649780D02*
G75*
G02*
X97514824Y-18649780I2000005J-5D01*
G01*
X99105678Y-24539780D02*
G75*
G02*
X101400000Y-22699780I2293456J-509332D01*
G01*
X106464824Y-22199780D02*
G75*
G02*
X105964824Y-22699780I-500001J1D01*
G01*
D13*
%TO.C,R4*%
X323463917Y-40194184D02*
X323156635Y-40194184D01*
X323463917Y-40954184D02*
X323156635Y-40954184D01*
D12*
%TO.C,MX37*%
X105039776Y-58749828D02*
X105039776Y-59549828D01*
X105039776Y-62639828D02*
X105039776Y-62399828D01*
X110924953Y-60799828D02*
X115489776Y-60799828D01*
X112939776Y-56749828D02*
X107039776Y-56749828D01*
X115989776Y-56749828D02*
X114439776Y-56749828D01*
X115989776Y-56979828D02*
X115989776Y-56749828D01*
X115989776Y-60299828D02*
X115989776Y-59829829D01*
X105039776Y-58749828D02*
G75*
G02*
X107039776Y-56749828I2000005J-5D01*
G01*
X108630630Y-62639829D02*
G75*
G02*
X110924953Y-60799828I2293456J-509330D01*
G01*
X115989776Y-60299828D02*
G75*
G02*
X115489776Y-60799828I-500001J1D01*
G01*
D13*
%TO.C,D44*%
X239848248Y-68155488D02*
X243858248Y-68155488D01*
X239848248Y-70155488D02*
X243858248Y-70155488D01*
X243858248Y-70155488D02*
X243858248Y-68155488D01*
%TO.C,D22*%
X132394432Y-48807784D02*
X136404432Y-48807784D01*
X132394432Y-50807784D02*
X136404432Y-50807784D01*
X136404432Y-50807784D02*
X136404432Y-48807784D01*
D12*
%TO.C,MX49*%
X22916416Y-85750228D02*
X22916416Y-86220227D01*
X22916416Y-89070228D02*
X22916416Y-89300228D01*
X22916416Y-89300228D02*
X24466416Y-89300228D01*
X25966416Y-89300228D02*
X31866416Y-89300228D01*
X27981239Y-85250228D02*
X23416416Y-85250228D01*
X33866416Y-83410228D02*
X33866416Y-83650228D01*
X33866416Y-87300228D02*
X33866416Y-86500228D01*
X22916416Y-85750228D02*
G75*
G02*
X23416416Y-85250228I500001J-1D01*
G01*
X30275562Y-83410227D02*
G75*
G02*
X27981239Y-85250228I-2293456J509330D01*
G01*
X33866416Y-87300228D02*
G75*
G02*
X31866416Y-89300228I-2000005J5D01*
G01*
%TO.C,MX82*%
X72922640Y-66700244D02*
X72922640Y-67170243D01*
X72922640Y-70020244D02*
X72922640Y-70250244D01*
X72922640Y-70250244D02*
X74472640Y-70250244D01*
X75972640Y-70250244D02*
X81872640Y-70250244D01*
X77987463Y-66200244D02*
X73422640Y-66200244D01*
X83872640Y-64360244D02*
X83872640Y-64600244D01*
X83872640Y-68250244D02*
X83872640Y-67450244D01*
X72922640Y-66700244D02*
G75*
G02*
X73422640Y-66200244I500001J-1D01*
G01*
X80281786Y-64360243D02*
G75*
G02*
X77987463Y-66200244I-2293456J509330D01*
G01*
X83872640Y-68250244D02*
G75*
G02*
X81872640Y-70250244I-2000005J5D01*
G01*
%TO.C,MX44*%
X224102160Y-58749804D02*
X224102160Y-59549804D01*
X224102160Y-62639804D02*
X224102160Y-62399804D01*
X229987337Y-60799804D02*
X234552160Y-60799804D01*
X232002160Y-56749804D02*
X226102160Y-56749804D01*
X235052160Y-56749804D02*
X233502160Y-56749804D01*
X235052160Y-56979804D02*
X235052160Y-56749804D01*
X235052160Y-60299804D02*
X235052160Y-59829805D01*
X224102160Y-58749804D02*
G75*
G02*
X226102160Y-56749804I2000005J-5D01*
G01*
X227693014Y-62639805D02*
G75*
G02*
X229987337Y-60799804I2293456J-509330D01*
G01*
X235052160Y-60299804D02*
G75*
G02*
X234552160Y-60799804I-500001J1D01*
G01*
%TO.C,MX30*%
X266964824Y-39699780D02*
X266964824Y-40499780D01*
X266964824Y-43589780D02*
X266964824Y-43349780D01*
X272850000Y-41749780D02*
X277414824Y-41749780D01*
X274864824Y-37699780D02*
X268964824Y-37699780D01*
X277914824Y-37699780D02*
X276364824Y-37699780D01*
X277914824Y-37929780D02*
X277914824Y-37699780D01*
X277914824Y-41249780D02*
X277914824Y-40779780D01*
X266964824Y-39699780D02*
G75*
G02*
X268964824Y-37699780I2000005J-5D01*
G01*
X270555678Y-43589780D02*
G75*
G02*
X272850000Y-41749780I2293456J-509332D01*
G01*
X277914824Y-41249780D02*
G75*
G02*
X277414824Y-41749780I-500001J1D01*
G01*
D13*
%TO.C,R8*%
X305368572Y-52038753D02*
X305368572Y-51731471D01*
X306128572Y-52038753D02*
X306128572Y-51731471D01*
%TO.C,D13*%
X256081816Y-24543750D02*
X256081816Y-28553750D01*
X256081816Y-28553750D02*
X258081816Y-28553750D01*
X258081816Y-24543750D02*
X258081816Y-28553750D01*
D12*
%TO.C,MX52*%
X57414824Y-77799780D02*
X57414824Y-78599780D01*
X57414824Y-81689780D02*
X57414824Y-81449780D01*
X63300001Y-79849780D02*
X67864824Y-79849780D01*
X65314824Y-75799780D02*
X59414824Y-75799780D01*
X68364824Y-75799780D02*
X66814824Y-75799780D01*
X68364824Y-76029780D02*
X68364824Y-75799780D01*
X68364824Y-79349780D02*
X68364824Y-78879781D01*
X57414824Y-77799780D02*
G75*
G02*
X59414824Y-75799780I2000005J-5D01*
G01*
X61005678Y-81689781D02*
G75*
G02*
X63300001Y-79849780I2293456J-509330D01*
G01*
X68364824Y-79349780D02*
G75*
G02*
X67864824Y-79849780I-500001J1D01*
G01*
D13*
%TO.C,D15*%
X294181784Y-24543750D02*
X294181784Y-28553750D01*
X294181784Y-28553750D02*
X296181784Y-28553750D01*
X296181784Y-24543750D02*
X296181784Y-28553750D01*
%TO.C,C10*%
X309439793Y-74176158D02*
X309287290Y-74328661D01*
X309948910Y-74685275D02*
X309796407Y-74837778D01*
%TO.C,MX54*%
X127632011Y-76950000D02*
X130674904Y-76950000D01*
X126632011Y-77950000D02*
G75*
G02*
X127632011Y-76950000I1000006J-6D01*
G01*
%TO.C,D31*%
X294181784Y-43593750D02*
X294181784Y-47603750D01*
X294181784Y-47603750D02*
X296181784Y-47603750D01*
X296181784Y-43593750D02*
X296181784Y-47603750D01*
D12*
%TO.C,MX83*%
X91972624Y-66700244D02*
X91972624Y-67170243D01*
X91972624Y-70020244D02*
X91972624Y-70250244D01*
X91972624Y-70250244D02*
X93522624Y-70250244D01*
X95022624Y-70250244D02*
X100922624Y-70250244D01*
X97037447Y-66200244D02*
X92472624Y-66200244D01*
X102922624Y-64360244D02*
X102922624Y-64600244D01*
X102922624Y-68250244D02*
X102922624Y-67450244D01*
X91972624Y-66700244D02*
G75*
G02*
X92472624Y-66200244I500001J-1D01*
G01*
X99331770Y-64360243D02*
G75*
G02*
X97037447Y-66200244I-2293456J509330D01*
G01*
X102922624Y-68250244D02*
G75*
G02*
X100922624Y-70250244I-2000005J5D01*
G01*
%TO.C,MX74*%
X120547584Y-47650220D02*
X120547584Y-48120219D01*
X120547584Y-50970220D02*
X120547584Y-51200220D01*
X120547584Y-51200220D02*
X122097584Y-51200220D01*
X123597584Y-51200220D02*
X129497584Y-51200220D01*
X125612407Y-47150220D02*
X121047584Y-47150220D01*
X131497584Y-45310220D02*
X131497584Y-45550220D01*
X131497584Y-49200220D02*
X131497584Y-48400220D01*
X120547584Y-47650220D02*
G75*
G02*
X121047584Y-47150220I500001J-1D01*
G01*
X127906730Y-45310219D02*
G75*
G02*
X125612407Y-47150220I-2293456J509330D01*
G01*
X131497584Y-49200220D02*
G75*
G02*
X129497584Y-51200220I-2000005J5D01*
G01*
D13*
%TO.C,D41*%
X180336912Y-68155488D02*
X184346912Y-68155488D01*
X180336912Y-70155488D02*
X184346912Y-70155488D01*
X184346912Y-70155488D02*
X184346912Y-68155488D01*
D12*
%TO.C,MX47*%
X286014824Y-58749780D02*
X286014824Y-59549780D01*
X286014824Y-62639780D02*
X286014824Y-62399780D01*
X291900000Y-60799780D02*
X296464824Y-60799780D01*
X293914824Y-56749780D02*
X288014824Y-56749780D01*
X296964824Y-56749780D02*
X295414824Y-56749780D01*
X296964824Y-56979780D02*
X296964824Y-56749780D01*
X296964824Y-60299780D02*
X296964824Y-59829780D01*
X286014824Y-58749780D02*
G75*
G02*
X288014824Y-56749780I2000005J-5D01*
G01*
X289605678Y-62639780D02*
G75*
G02*
X291900000Y-60799780I2293456J-509332D01*
G01*
X296964824Y-60299780D02*
G75*
G02*
X296464824Y-60799780I-500001J1D01*
G01*
D13*
%TO.C,R7*%
X306559196Y-52038753D02*
X306559196Y-51731471D01*
X307319196Y-52038753D02*
X307319196Y-51731471D01*
%TO.C,D60*%
X247046680Y-85067192D02*
X247046680Y-89077192D01*
X247046680Y-89077192D02*
X249046680Y-89077192D01*
X249046680Y-85067192D02*
X249046680Y-89077192D01*
%TO.C,C7*%
X312702496Y-59710652D02*
X312486824Y-59710652D01*
X312702496Y-60430652D02*
X312486824Y-60430652D01*
D12*
%TO.C,MX73*%
X101497600Y-47650220D02*
X101497600Y-48120219D01*
X101497600Y-50970220D02*
X101497600Y-51200220D01*
X101497600Y-51200220D02*
X103047600Y-51200220D01*
X104547600Y-51200220D02*
X110447600Y-51200220D01*
X106562423Y-47150220D02*
X101997600Y-47150220D01*
X112447600Y-45310220D02*
X112447600Y-45550220D01*
X112447600Y-49200220D02*
X112447600Y-48400220D01*
X101497600Y-47650220D02*
G75*
G02*
X101997600Y-47150220I500001J-1D01*
G01*
X108856746Y-45310219D02*
G75*
G02*
X106562423Y-47150220I-2293456J509330D01*
G01*
X112447600Y-49200220D02*
G75*
G02*
X110447600Y-51200220I-2000005J5D01*
G01*
D13*
%TO.C,D29*%
X256081816Y-43593750D02*
X256081816Y-47603750D01*
X256081816Y-47603750D02*
X258081816Y-47603750D01*
X258081816Y-43593750D02*
X258081816Y-47603750D01*
%TO.C,MX1*%
X22857107Y-19800000D02*
X25900000Y-19800000D01*
X21857107Y-20800000D02*
G75*
G02*
X22857107Y-19800000I1000006J-6D01*
G01*
%TO.C,D19*%
X75244480Y-48807784D02*
X79254480Y-48807784D01*
X75244480Y-50807784D02*
X79254480Y-50807784D01*
X79254480Y-50807784D02*
X79254480Y-48807784D01*
D12*
%TO.C,MX66*%
X305064824Y-77799780D02*
X305064824Y-78599780D01*
X305064824Y-81689780D02*
X305064824Y-81449780D01*
X310950000Y-79849780D02*
X315514824Y-79849780D01*
X312964824Y-75799780D02*
X307064824Y-75799780D01*
X316014824Y-75799780D02*
X314464824Y-75799780D01*
X316014824Y-76029780D02*
X316014824Y-75799780D01*
X316014824Y-79349780D02*
X316014824Y-78879780D01*
X305064824Y-77799780D02*
G75*
G02*
X307064824Y-75799780I2000005J-5D01*
G01*
X308655678Y-81689780D02*
G75*
G02*
X310950000Y-79849780I2293456J-509332D01*
G01*
X316014824Y-79349780D02*
G75*
G02*
X315514824Y-79849780I-500001J1D01*
G01*
D13*
%TO.C,D30*%
X275131800Y-43593750D02*
X275131800Y-47603750D01*
X275131800Y-47603750D02*
X277131800Y-47603750D01*
X277131800Y-43593750D02*
X277131800Y-47603750D01*
%TO.C,C8*%
X313276456Y-67917544D02*
X313276456Y-67701872D01*
X313996456Y-67917544D02*
X313996456Y-67701872D01*
%TO.C,MX55*%
X144624037Y-88150000D02*
X141581145Y-88150000D01*
X145624037Y-87150000D02*
G75*
G02*
X144624037Y-88150000I-1000006J6D01*
G01*
%TO.C,D12*%
X235681064Y-20828120D02*
X239691064Y-20828120D01*
X235681064Y-22828120D02*
X239691064Y-22828120D01*
X239691064Y-22828120D02*
X239691064Y-20828120D01*
D12*
%TO.C,MX84*%
X111022608Y-66700244D02*
X111022608Y-67170243D01*
X111022608Y-70020244D02*
X111022608Y-70250244D01*
X111022608Y-70250244D02*
X112572608Y-70250244D01*
X114072608Y-70250244D02*
X119972608Y-70250244D01*
X116087431Y-66200244D02*
X111522608Y-66200244D01*
X121972608Y-64360244D02*
X121972608Y-64600244D01*
X121972608Y-68250244D02*
X121972608Y-67450244D01*
X111022608Y-66700244D02*
G75*
G02*
X111522608Y-66200244I500001J-1D01*
G01*
X118381754Y-64360243D02*
G75*
G02*
X116087431Y-66200244I-2293456J509330D01*
G01*
X121972608Y-68250244D02*
G75*
G02*
X119972608Y-70250244I-2000005J5D01*
G01*
D13*
%TO.C,C3*%
X304644432Y-56093288D02*
X304644432Y-56308960D01*
X305364432Y-56093288D02*
X305364432Y-56308960D01*
%TO.C,D7*%
X141781912Y-24543750D02*
X141781912Y-28553750D01*
X141781912Y-28553750D02*
X143781912Y-28553750D01*
X143781912Y-24543750D02*
X143781912Y-28553750D01*
D12*
%TO.C,MX28*%
X230085176Y-47650220D02*
X230085176Y-48120219D01*
X230085176Y-50970220D02*
X230085176Y-51200220D01*
X230085176Y-51200220D02*
X231635176Y-51200220D01*
X233135176Y-51200220D02*
X239035176Y-51200220D01*
X235149999Y-47150220D02*
X230585176Y-47150220D01*
X241035176Y-45310220D02*
X241035176Y-45550220D01*
X241035176Y-49200220D02*
X241035176Y-48400220D01*
X230085176Y-47650220D02*
G75*
G02*
X230585176Y-47150220I500001J-1D01*
G01*
X237444322Y-45310219D02*
G75*
G02*
X235149999Y-47150220I-2293456J509330D01*
G01*
X241035176Y-49200220D02*
G75*
G02*
X239035176Y-51200220I-2000005J5D01*
G01*
D13*
%TO.C,D55*%
X160849330Y-81693750D02*
X160849330Y-85703750D01*
X160849330Y-85703750D02*
X162849330Y-85703750D01*
X162849330Y-81693750D02*
X162849330Y-85703750D01*
D12*
%TO.C,MX63*%
X258659968Y-85750220D02*
X258659968Y-86220220D01*
X258659968Y-89070220D02*
X258659968Y-89300220D01*
X258659968Y-89300220D02*
X260209968Y-89300220D01*
X261709968Y-89300220D02*
X267609968Y-89300220D01*
X263724792Y-85250220D02*
X259159968Y-85250220D01*
X269609968Y-83410220D02*
X269609968Y-83650220D01*
X269609968Y-87300220D02*
X269609968Y-86500220D01*
X258659968Y-85750220D02*
G75*
G02*
X259159968Y-85250220I500001J-1D01*
G01*
X266019114Y-83410220D02*
G75*
G02*
X263724792Y-85250220I-2293456J509332D01*
G01*
X269609968Y-87300220D02*
G75*
G02*
X267609968Y-89300220I-2000005J5D01*
G01*
%TO.C,MX71*%
X63397632Y-47650220D02*
X63397632Y-48120219D01*
X63397632Y-50970220D02*
X63397632Y-51200220D01*
X63397632Y-51200220D02*
X64947632Y-51200220D01*
X66447632Y-51200220D02*
X72347632Y-51200220D01*
X68462455Y-47150220D02*
X63897632Y-47150220D01*
X74347632Y-45310220D02*
X74347632Y-45550220D01*
X74347632Y-49200220D02*
X74347632Y-48400220D01*
X63397632Y-47650220D02*
G75*
G02*
X63897632Y-47150220I500001J-1D01*
G01*
X70756778Y-45310219D02*
G75*
G02*
X68462455Y-47150220I-2293456J509330D01*
G01*
X74347632Y-49200220D02*
G75*
G02*
X72347632Y-51200220I-2000005J5D01*
G01*
D13*
%TO.C,D38*%
X123186960Y-68155488D02*
X127196960Y-68155488D01*
X123186960Y-70155488D02*
X127196960Y-70155488D01*
X127196960Y-70155488D02*
X127196960Y-68155488D01*
D12*
%TO.C,MX70*%
X38364824Y-39699780D02*
X38364824Y-40499780D01*
X38364824Y-43589780D02*
X38364824Y-43349780D01*
X44250001Y-41749780D02*
X48814824Y-41749780D01*
X46264824Y-37699780D02*
X40364824Y-37699780D01*
X49314824Y-37699780D02*
X47764824Y-37699780D01*
X49314824Y-37929780D02*
X49314824Y-37699780D01*
X49314824Y-41249780D02*
X49314824Y-40779781D01*
X38364824Y-39699780D02*
G75*
G02*
X40364824Y-37699780I2000005J-5D01*
G01*
X41955678Y-43589781D02*
G75*
G02*
X44250001Y-41749780I2293456J-509330D01*
G01*
X49314824Y-41249780D02*
G75*
G02*
X48814824Y-41749780I-500001J1D01*
G01*
D13*
%TO.C,D23*%
X151444416Y-48807784D02*
X155454416Y-48807784D01*
X151444416Y-50807784D02*
X155454416Y-50807784D01*
X155454416Y-50807784D02*
X155454416Y-48807784D01*
%TO.C,R6*%
X323463917Y-39152388D02*
X323156635Y-39152388D01*
X323463917Y-39912388D02*
X323156635Y-39912388D01*
D12*
%TO.C,MX80*%
X27678928Y-66700244D02*
X27678928Y-67170243D01*
X27678928Y-70020244D02*
X27678928Y-70250244D01*
X27678928Y-70250244D02*
X29228928Y-70250244D01*
X30728928Y-70250244D02*
X36628928Y-70250244D01*
X32743751Y-66200244D02*
X28178928Y-66200244D01*
X38628928Y-64360244D02*
X38628928Y-64600244D01*
X38628928Y-68250244D02*
X38628928Y-67450244D01*
X27678928Y-66700244D02*
G75*
G02*
X28178928Y-66200244I500001J-1D01*
G01*
X35038074Y-64360243D02*
G75*
G02*
X32743751Y-66200244I-2293456J509330D01*
G01*
X38628928Y-68250244D02*
G75*
G02*
X36628928Y-70250244I-2000005J5D01*
G01*
%TO.C,MX19*%
X57414824Y-39699780D02*
X57414824Y-40499780D01*
X57414824Y-43589780D02*
X57414824Y-43349780D01*
X63300000Y-41749780D02*
X67864824Y-41749780D01*
X65314824Y-37699780D02*
X59414824Y-37699780D01*
X68364824Y-37699780D02*
X66814824Y-37699780D01*
X68364824Y-37929780D02*
X68364824Y-37699780D01*
X68364824Y-41249780D02*
X68364824Y-40779780D01*
X57414824Y-39699780D02*
G75*
G02*
X59414824Y-37699780I2000005J-5D01*
G01*
X61005678Y-43589780D02*
G75*
G02*
X63300000Y-41749780I2293456J-509332D01*
G01*
X68364824Y-41249780D02*
G75*
G02*
X67864824Y-41749780I-500001J1D01*
G01*
D13*
%TO.C,RST1*%
X289350000Y-73721032D02*
X289350000Y-71721032D01*
X290850000Y-69971032D02*
X290400000Y-70421032D01*
X290850000Y-69971032D02*
X293350000Y-69971032D01*
X290850000Y-75471032D02*
X290400000Y-75021032D01*
X290850000Y-75471032D02*
X293350000Y-75471032D01*
X293350000Y-69971032D02*
X293800000Y-70421032D01*
X293350000Y-75471032D02*
X293800000Y-75021032D01*
X294850000Y-73721032D02*
X294850000Y-71721032D01*
%TO.C,U3*%
X303924508Y-60181352D02*
X304574508Y-60181352D01*
X303924508Y-60831352D02*
X303924508Y-60181352D01*
X303924508Y-66751352D02*
X303924508Y-67401352D01*
X303924508Y-67401352D02*
X304574508Y-67401352D01*
X310844508Y-60181352D02*
X310494508Y-60181352D01*
X311144508Y-60421352D02*
X311144508Y-60831352D01*
X311144508Y-66751352D02*
X311144508Y-67401352D01*
X311144508Y-67401352D02*
X310494508Y-67401352D01*
X311144508Y-60181352D02*
X310904508Y-59851352D01*
X311384508Y-59851352D01*
X311144508Y-60181352D01*
G36*
X311144508Y-60181352D02*
G01*
X310904508Y-59851352D01*
X311384508Y-59851352D01*
X311144508Y-60181352D01*
G37*
%TO.C,D21*%
X113344448Y-48807784D02*
X117354448Y-48807784D01*
X113344448Y-50807784D02*
X117354448Y-50807784D01*
X117354448Y-50807784D02*
X117354448Y-48807784D01*
%TO.C,D49*%
X58873400Y-86907816D02*
X62883400Y-86907816D01*
X58873400Y-88907816D02*
X62883400Y-88907816D01*
X62883400Y-88907816D02*
X62883400Y-86907816D01*
%TO.C,U1*%
X36506232Y-29649360D02*
X37306232Y-29649359D01*
X36506232Y-32769360D02*
X37306232Y-32769361D01*
X38106232Y-29649360D02*
X37306232Y-29649359D01*
X38106232Y-32769360D02*
X37306232Y-32769361D01*
X36246232Y-33049360D02*
X35766232Y-33049360D01*
X36006232Y-32719360D01*
X36246232Y-33049360D01*
G36*
X36246232Y-33049360D02*
G01*
X35766232Y-33049360D01*
X36006232Y-32719360D01*
X36246232Y-33049360D01*
G37*
D12*
%TO.C,MX69*%
X22916416Y-47650220D02*
X22916416Y-48120219D01*
X22916416Y-50970220D02*
X22916416Y-51200220D01*
X22916416Y-51200220D02*
X24466416Y-51200220D01*
X25966416Y-51200220D02*
X31866416Y-51200220D01*
X27981239Y-47150220D02*
X23416416Y-47150220D01*
X33866416Y-45310220D02*
X33866416Y-45550220D01*
X33866416Y-49200220D02*
X33866416Y-48400220D01*
X22916416Y-47650220D02*
G75*
G02*
X23416416Y-47150220I500001J-1D01*
G01*
X30275562Y-45310219D02*
G75*
G02*
X27981239Y-47150220I-2293456J509330D01*
G01*
X33866416Y-49200220D02*
G75*
G02*
X31866416Y-51200220I-2000005J5D01*
G01*
%TO.C,MX35*%
X66939792Y-58749828D02*
X66939792Y-59549828D01*
X66939792Y-62639828D02*
X66939792Y-62399828D01*
X72824969Y-60799828D02*
X77389792Y-60799828D01*
X74839792Y-56749828D02*
X68939792Y-56749828D01*
X77889792Y-56749828D02*
X76339792Y-56749828D01*
X77889792Y-56979828D02*
X77889792Y-56749828D01*
X77889792Y-60299828D02*
X77889792Y-59829829D01*
X66939792Y-58749828D02*
G75*
G02*
X68939792Y-56749828I2000005J-5D01*
G01*
X70530646Y-62639829D02*
G75*
G02*
X72824969Y-60799828I2293456J-509330D01*
G01*
X77889792Y-60299828D02*
G75*
G02*
X77389792Y-60799828I-500001J1D01*
G01*
D13*
%TO.C,D52*%
X85717128Y-82685944D02*
X85717128Y-86695944D01*
X85717128Y-86695944D02*
X87717128Y-86695944D01*
X87717128Y-82685944D02*
X87717128Y-86695944D01*
D12*
%TO.C,MX31*%
X286014824Y-39699780D02*
X286014824Y-40499780D01*
X286014824Y-43589780D02*
X286014824Y-43349780D01*
X291900000Y-41749780D02*
X296464824Y-41749780D01*
X293914824Y-37699780D02*
X288014824Y-37699780D01*
X296964824Y-37699780D02*
X295414824Y-37699780D01*
X296964824Y-37929780D02*
X296964824Y-37699780D01*
X296964824Y-41249780D02*
X296964824Y-40779780D01*
X286014824Y-39699780D02*
G75*
G02*
X288014824Y-37699780I2000005J-5D01*
G01*
X289605678Y-43589780D02*
G75*
G02*
X291900000Y-41749780I2293456J-509332D01*
G01*
X296964824Y-41249780D02*
G75*
G02*
X296464824Y-41749780I-500001J1D01*
G01*
D13*
%TO.C,D4*%
X84631960Y-24543750D02*
X84631960Y-28553750D01*
X84631960Y-28553750D02*
X86631960Y-28553750D01*
X86631960Y-24543750D02*
X86631960Y-28553750D01*
D12*
%TO.C,MX10*%
X190764824Y-20649780D02*
X190764824Y-21449780D01*
X190764824Y-24539780D02*
X190764824Y-24299780D01*
X196650000Y-22699780D02*
X201214824Y-22699780D01*
X198664824Y-18649780D02*
X192764824Y-18649780D01*
X201714824Y-18649780D02*
X200164824Y-18649780D01*
X201714824Y-18879780D02*
X201714824Y-18649780D01*
X201714824Y-22199780D02*
X201714824Y-21729780D01*
X190764824Y-20649780D02*
G75*
G02*
X192764824Y-18649780I2000005J-5D01*
G01*
X194355678Y-24539780D02*
G75*
G02*
X196650000Y-22699780I2293456J-509332D01*
G01*
X201714824Y-22199780D02*
G75*
G02*
X201214824Y-22699780I-500001J1D01*
G01*
D13*
%TO.C,D50*%
X70239016Y-82685944D02*
X70239016Y-86695944D01*
X70239016Y-86695944D02*
X72239016Y-86695944D01*
X72239016Y-82685944D02*
X72239016Y-86695944D01*
D12*
%TO.C,MX12*%
X230085176Y-28600220D02*
X230085176Y-29070219D01*
X230085176Y-31920220D02*
X230085176Y-32150220D01*
X230085176Y-32150220D02*
X231635176Y-32150220D01*
X233135176Y-32150220D02*
X239035176Y-32150220D01*
X235149999Y-28100220D02*
X230585176Y-28100220D01*
X241035176Y-26260220D02*
X241035176Y-26500220D01*
X241035176Y-30150220D02*
X241035176Y-29350220D01*
X230085176Y-28600220D02*
G75*
G02*
X230585176Y-28100220I500001J-1D01*
G01*
X237444322Y-26260219D02*
G75*
G02*
X235149999Y-28100220I-2293456J509330D01*
G01*
X241035176Y-30150220D02*
G75*
G02*
X239035176Y-32150220I-2000005J5D01*
G01*
%TO.C,MX77*%
X177697536Y-47650220D02*
X177697536Y-48120219D01*
X177697536Y-50970220D02*
X177697536Y-51200220D01*
X177697536Y-51200220D02*
X179247536Y-51200220D01*
X180747536Y-51200220D02*
X186647536Y-51200220D01*
X182762359Y-47150220D02*
X178197536Y-47150220D01*
X188647536Y-45310220D02*
X188647536Y-45550220D01*
X188647536Y-49200220D02*
X188647536Y-48400220D01*
X177697536Y-47650220D02*
G75*
G02*
X178197536Y-47150220I500001J-1D01*
G01*
X185056682Y-45310219D02*
G75*
G02*
X182762359Y-47150220I-2293456J509330D01*
G01*
X188647536Y-49200220D02*
G75*
G02*
X186647536Y-51200220I-2000005J5D01*
G01*
%TO.C,MX23*%
X133614824Y-39699780D02*
X133614824Y-40499780D01*
X133614824Y-43589780D02*
X133614824Y-43349780D01*
X139500000Y-41749780D02*
X144064824Y-41749780D01*
X141514824Y-37699780D02*
X135614824Y-37699780D01*
X144564824Y-37699780D02*
X143014824Y-37699780D01*
X144564824Y-37929780D02*
X144564824Y-37699780D01*
X144564824Y-41249780D02*
X144564824Y-40779780D01*
X133614824Y-39699780D02*
G75*
G02*
X135614824Y-37699780I2000005J-5D01*
G01*
X137205678Y-43589780D02*
G75*
G02*
X139500000Y-41749780I2293456J-509332D01*
G01*
X144564824Y-41249780D02*
G75*
G02*
X144064824Y-41749780I-500001J1D01*
G01*
%TO.C,MX17*%
X19314824Y-39699780D02*
X19314824Y-40499780D01*
X19314824Y-43589780D02*
X19314824Y-43349780D01*
X25200000Y-41749780D02*
X29764824Y-41749780D01*
X27214824Y-37699780D02*
X21314824Y-37699780D01*
X30264824Y-37699780D02*
X28714824Y-37699780D01*
X30264824Y-37929780D02*
X30264824Y-37699780D01*
X30264824Y-41249780D02*
X30264824Y-40779780D01*
X19314824Y-39699780D02*
G75*
G02*
X21314824Y-37699780I2000005J-5D01*
G01*
X22905678Y-43589780D02*
G75*
G02*
X25200000Y-41749780I2293456J-509332D01*
G01*
X30264824Y-41249780D02*
G75*
G02*
X29764824Y-41749780I-500001J1D01*
G01*
D13*
%TO.C,J1*%
X42386064Y-31424360D02*
X42386064Y-32574360D01*
X43436064Y-30434360D02*
X43436064Y-31424360D01*
X43436064Y-31424360D02*
X42386064Y-31424360D01*
X50436064Y-34544360D02*
X43556064Y-34544360D01*
X50556064Y-31424360D02*
X51606064Y-31424360D01*
X51606064Y-31424360D02*
X51606064Y-32574360D01*
D12*
%TO.C,MX24*%
X152664824Y-39699780D02*
X152664824Y-40499780D01*
X152664824Y-43589780D02*
X152664824Y-43349780D01*
X158550000Y-41749780D02*
X163114824Y-41749780D01*
X160564824Y-37699780D02*
X154664824Y-37699780D01*
X163614824Y-37699780D02*
X162064824Y-37699780D01*
X163614824Y-37929780D02*
X163614824Y-37699780D01*
X163614824Y-41249780D02*
X163614824Y-40779780D01*
X152664824Y-39699780D02*
G75*
G02*
X154664824Y-37699780I2000005J-5D01*
G01*
X156255678Y-43589780D02*
G75*
G02*
X158550000Y-41749780I2293456J-509332D01*
G01*
X163614824Y-41249780D02*
G75*
G02*
X163114824Y-41749780I-500001J1D01*
G01*
D13*
%TO.C,D35*%
X66037008Y-68155488D02*
X70047008Y-68155488D01*
X66037008Y-70155488D02*
X70047008Y-70155488D01*
X70047008Y-70155488D02*
X70047008Y-68155488D01*
D12*
%TO.C,MX75*%
X139597568Y-47650220D02*
X139597568Y-48120219D01*
X139597568Y-50970220D02*
X139597568Y-51200220D01*
X139597568Y-51200220D02*
X141147568Y-51200220D01*
X142647568Y-51200220D02*
X148547568Y-51200220D01*
X144662391Y-47150220D02*
X140097568Y-47150220D01*
X150547568Y-45310220D02*
X150547568Y-45550220D01*
X150547568Y-49200220D02*
X150547568Y-48400220D01*
X139597568Y-47650220D02*
G75*
G02*
X140097568Y-47150220I500001J-1D01*
G01*
X146956714Y-45310219D02*
G75*
G02*
X144662391Y-47150220I-2293456J509330D01*
G01*
X150547568Y-49200220D02*
G75*
G02*
X148547568Y-51200220I-2000005J5D01*
G01*
D13*
%TO.C,MX53*%
X91913291Y-76950000D02*
X94956183Y-76950000D01*
X90913291Y-77950000D02*
G75*
G02*
X91913291Y-76950000I1000006J-6D01*
G01*
%TO.C,C13*%
X306402716Y-70057160D02*
X306555219Y-69904657D01*
X306911833Y-70566277D02*
X307064336Y-70413774D01*
D12*
%TO.C,MX81*%
X53872656Y-66700244D02*
X53872656Y-67170243D01*
X53872656Y-70020244D02*
X53872656Y-70250244D01*
X53872656Y-70250244D02*
X55422656Y-70250244D01*
X56922656Y-70250244D02*
X62822656Y-70250244D01*
X58937479Y-66200244D02*
X54372656Y-66200244D01*
X64822656Y-64360244D02*
X64822656Y-64600244D01*
X64822656Y-68250244D02*
X64822656Y-67450244D01*
X53872656Y-66700244D02*
G75*
G02*
X54372656Y-66200244I500001J-1D01*
G01*
X61231802Y-64360243D02*
G75*
G02*
X58937479Y-66200244I-2293456J509330D01*
G01*
X64822656Y-68250244D02*
G75*
G02*
X62822656Y-70250244I-2000005J5D01*
G01*
%TO.C,MX85*%
X130072592Y-66700244D02*
X130072592Y-67170243D01*
X130072592Y-70020244D02*
X130072592Y-70250244D01*
X130072592Y-70250244D02*
X131622592Y-70250244D01*
X133122592Y-70250244D02*
X139022592Y-70250244D01*
X135137415Y-66200244D02*
X130572592Y-66200244D01*
X141022592Y-64360244D02*
X141022592Y-64600244D01*
X141022592Y-68250244D02*
X141022592Y-67450244D01*
X130072592Y-66700244D02*
G75*
G02*
X130572592Y-66200244I500001J-1D01*
G01*
X137431738Y-64360243D02*
G75*
G02*
X135137415Y-66200244I-2293456J509330D01*
G01*
X141022592Y-68250244D02*
G75*
G02*
X139022592Y-70250244I-2000005J5D01*
G01*
D13*
%TO.C,D32*%
X317994264Y-48356250D02*
X317994264Y-52366250D01*
X317994264Y-52366250D02*
X319994264Y-52366250D01*
X319994264Y-48356250D02*
X319994264Y-52366250D01*
D12*
%TO.C,MX27*%
X211035176Y-47650220D02*
X211035176Y-48120219D01*
X211035176Y-50970220D02*
X211035176Y-51200220D01*
X211035176Y-51200220D02*
X212585176Y-51200220D01*
X214085176Y-51200220D02*
X219985176Y-51200220D01*
X216099999Y-47150220D02*
X211535176Y-47150220D01*
X221985176Y-45310220D02*
X221985176Y-45550220D01*
X221985176Y-49200220D02*
X221985176Y-48400220D01*
X211035176Y-47650220D02*
G75*
G02*
X211535176Y-47150220I500001J-1D01*
G01*
X218394322Y-45310219D02*
G75*
G02*
X216099999Y-47150220I-2293456J509330D01*
G01*
X221985176Y-49200220D02*
G75*
G02*
X219985176Y-51200220I-2000005J5D01*
G01*
%TO.C,MX26*%
X190764824Y-39699780D02*
X190764824Y-40499780D01*
X190764824Y-43589780D02*
X190764824Y-43349780D01*
X196650000Y-41749780D02*
X201214824Y-41749780D01*
X198664824Y-37699780D02*
X192764824Y-37699780D01*
X201714824Y-37699780D02*
X200164824Y-37699780D01*
X201714824Y-37929780D02*
X201714824Y-37699780D01*
X201714824Y-41249780D02*
X201714824Y-40779780D01*
X190764824Y-39699780D02*
G75*
G02*
X192764824Y-37699780I2000005J-5D01*
G01*
X194355678Y-43589780D02*
G75*
G02*
X196650000Y-41749780I2293456J-509332D01*
G01*
X201714824Y-41249780D02*
G75*
G02*
X201214824Y-41749780I-500001J1D01*
G01*
D13*
%TO.C,D48*%
X35060920Y-86907816D02*
X39070920Y-86907816D01*
X35060920Y-88907816D02*
X39070920Y-88907816D01*
X39070920Y-88907816D02*
X39070920Y-86907816D01*
%TO.C,D26*%
X207756088Y-44909352D02*
X207756088Y-40899352D01*
X209756088Y-40899352D02*
X207756088Y-40899352D01*
X209756088Y-44909352D02*
X209756088Y-40899352D01*
D12*
%TO.C,MX13*%
X247914824Y-20649780D02*
X247914824Y-21449780D01*
X247914824Y-24539780D02*
X247914824Y-24299780D01*
X253800000Y-22699780D02*
X258364824Y-22699780D01*
X255814824Y-18649780D02*
X249914824Y-18649780D01*
X258864824Y-18649780D02*
X257314824Y-18649780D01*
X258864824Y-18879780D02*
X258864824Y-18649780D01*
X258864824Y-22199780D02*
X258864824Y-21729780D01*
X247914824Y-20649780D02*
G75*
G02*
X249914824Y-18649780I2000005J-5D01*
G01*
X251505678Y-24539780D02*
G75*
G02*
X253800000Y-22699780I2293456J-509332D01*
G01*
X258864824Y-22199780D02*
G75*
G02*
X258364824Y-22699780I-500001J1D01*
G01*
D13*
%TO.C,C5*%
X301710072Y-56060543D02*
X301710072Y-56341705D01*
X302730072Y-56060543D02*
X302730072Y-56341705D01*
%TO.C,D39*%
X142236944Y-68155488D02*
X146246944Y-68155488D01*
X142236944Y-70155488D02*
X146246944Y-70155488D01*
X146246944Y-70155488D02*
X146246944Y-68155488D01*
%TO.C,Y1*%
X305400052Y-73117347D02*
X307733505Y-75450800D01*
X308228479Y-70288920D02*
X305400052Y-73117347D01*
%TO.C,C16*%
X308067476Y-56093288D02*
X308067476Y-56308960D01*
X308787476Y-56093288D02*
X308787476Y-56308960D01*
D12*
%TO.C,MX62*%
X247914824Y-77799780D02*
X247914824Y-78599780D01*
X247914824Y-81689780D02*
X247914824Y-81449780D01*
X253800000Y-79849780D02*
X258364824Y-79849780D01*
X255814824Y-75799780D02*
X249914824Y-75799780D01*
X258864824Y-75799780D02*
X257314824Y-75799780D01*
X258864824Y-76029780D02*
X258864824Y-75799780D01*
X258864824Y-79349780D02*
X258864824Y-78879780D01*
X247914824Y-77799780D02*
G75*
G02*
X249914824Y-75799780I2000005J-5D01*
G01*
X251505678Y-81689780D02*
G75*
G02*
X253800000Y-79849780I2293456J-509332D01*
G01*
X258864824Y-79349780D02*
G75*
G02*
X258364824Y-79849780I-500001J1D01*
G01*
%TO.C,MX78*%
X196747520Y-47650220D02*
X196747520Y-48120219D01*
X196747520Y-50970220D02*
X196747520Y-51200220D01*
X196747520Y-51200220D02*
X198297520Y-51200220D01*
X199797520Y-51200220D02*
X205697520Y-51200220D01*
X201812343Y-47150220D02*
X197247520Y-47150220D01*
X207697520Y-45310220D02*
X207697520Y-45550220D01*
X207697520Y-49200220D02*
X207697520Y-48400220D01*
X196747520Y-47650220D02*
G75*
G02*
X197247520Y-47150220I500001J-1D01*
G01*
X204106666Y-45310219D02*
G75*
G02*
X201812343Y-47150220I-2293456J509330D01*
G01*
X207697520Y-49200220D02*
G75*
G02*
X205697520Y-51200220I-2000005J5D01*
G01*
%TO.C,MX4*%
X76464824Y-20649780D02*
X76464824Y-21449780D01*
X76464824Y-24539780D02*
X76464824Y-24299780D01*
X82350000Y-22699780D02*
X86914824Y-22699780D01*
X84364824Y-18649780D02*
X78464824Y-18649780D01*
X87414824Y-18649780D02*
X85864824Y-18649780D01*
X87414824Y-18879780D02*
X87414824Y-18649780D01*
X87414824Y-22199780D02*
X87414824Y-21729780D01*
X76464824Y-20649780D02*
G75*
G02*
X78464824Y-18649780I2000005J-5D01*
G01*
X80055678Y-24539780D02*
G75*
G02*
X82350000Y-22699780I2293456J-509332D01*
G01*
X87414824Y-22199780D02*
G75*
G02*
X86914824Y-22699780I-500001J1D01*
G01*
%TO.C,MX61*%
X230085176Y-85750220D02*
X230085176Y-86220219D01*
X230085176Y-89070220D02*
X230085176Y-89300220D01*
X230085176Y-89300220D02*
X231635176Y-89300220D01*
X233135176Y-89300220D02*
X239035176Y-89300220D01*
X235149999Y-85250220D02*
X230585176Y-85250220D01*
X241035176Y-83410220D02*
X241035176Y-83650220D01*
X241035176Y-87300220D02*
X241035176Y-86500220D01*
X230085176Y-85750220D02*
G75*
G02*
X230585176Y-85250220I500001J-1D01*
G01*
X237444322Y-83410219D02*
G75*
G02*
X235149999Y-85250220I-2293456J509330D01*
G01*
X241035176Y-87300220D02*
G75*
G02*
X239035176Y-89300220I-2000005J5D01*
G01*
D13*
%TO.C,D9*%
X179881880Y-24543750D02*
X179881880Y-28553750D01*
X179881880Y-28553750D02*
X181881880Y-28553750D01*
X181881880Y-24543750D02*
X181881880Y-28553750D01*
D12*
%TO.C,MX41*%
X181239776Y-58749828D02*
X181239776Y-59549828D01*
X181239776Y-62639828D02*
X181239776Y-62399828D01*
X187124953Y-60799828D02*
X191689776Y-60799828D01*
X189139776Y-56749828D02*
X183239776Y-56749828D01*
X192189776Y-56749828D02*
X190639776Y-56749828D01*
X192189776Y-56979828D02*
X192189776Y-56749828D01*
X192189776Y-60299828D02*
X192189776Y-59829829D01*
X181239776Y-58749828D02*
G75*
G02*
X183239776Y-56749828I2000005J-5D01*
G01*
X184830630Y-62639829D02*
G75*
G02*
X187124953Y-60799828I2293456J-509330D01*
G01*
X192189776Y-60299828D02*
G75*
G02*
X191689776Y-60799828I-500001J1D01*
G01*
%TO.C,MX15*%
X286014824Y-20649780D02*
X286014824Y-21449780D01*
X286014824Y-24539780D02*
X286014824Y-24299780D01*
X291900000Y-22699780D02*
X296464824Y-22699780D01*
X293914824Y-18649780D02*
X288014824Y-18649780D01*
X296964824Y-18649780D02*
X295414824Y-18649780D01*
X296964824Y-18879780D02*
X296964824Y-18649780D01*
X296964824Y-22199780D02*
X296964824Y-21729780D01*
X286014824Y-20649780D02*
G75*
G02*
X288014824Y-18649780I2000005J-5D01*
G01*
X289605678Y-24539780D02*
G75*
G02*
X291900000Y-22699780I2293456J-509332D01*
G01*
X296964824Y-22199780D02*
G75*
G02*
X296464824Y-22699780I-500001J1D01*
G01*
D13*
%TO.C,C11*%
X321759652Y-57432740D02*
X321759652Y-57648412D01*
X322479652Y-57432740D02*
X322479652Y-57648412D01*
D12*
%TO.C,MX56*%
X171714824Y-77799780D02*
X171714824Y-78599780D01*
X171714824Y-81689780D02*
X171714824Y-81449780D01*
X177600001Y-79849780D02*
X182164824Y-79849780D01*
X179614824Y-75799780D02*
X173714824Y-75799780D01*
X182664824Y-75799780D02*
X181114824Y-75799780D01*
X182664824Y-76029780D02*
X182664824Y-75799780D01*
X182664824Y-79349780D02*
X182664824Y-78879781D01*
X171714824Y-77799780D02*
G75*
G02*
X173714824Y-75799780I2000005J-5D01*
G01*
X175305678Y-81689781D02*
G75*
G02*
X177600001Y-79849780I2293456J-509330D01*
G01*
X182664824Y-79349780D02*
G75*
G02*
X182164824Y-79849780I-500001J1D01*
G01*
D13*
%TO.C,D58*%
X223179512Y-86907816D02*
X227189512Y-86907816D01*
X223179512Y-88907816D02*
X227189512Y-88907816D01*
X227189512Y-88907816D02*
X227189512Y-86907816D01*
D12*
%TO.C,MX39*%
X143139776Y-58749828D02*
X143139776Y-59549828D01*
X143139776Y-62639828D02*
X143139776Y-62399828D01*
X149024953Y-60799828D02*
X153589776Y-60799828D01*
X151039776Y-56749828D02*
X145139776Y-56749828D01*
X154089776Y-56749828D02*
X152539776Y-56749828D01*
X154089776Y-56979828D02*
X154089776Y-56749828D01*
X154089776Y-60299828D02*
X154089776Y-59829829D01*
X143139776Y-58749828D02*
G75*
G02*
X145139776Y-56749828I2000005J-5D01*
G01*
X146730630Y-62639829D02*
G75*
G02*
X149024953Y-60799828I2293456J-509330D01*
G01*
X154089776Y-60299828D02*
G75*
G02*
X153589776Y-60799828I-500001J1D01*
G01*
%TO.C,MX68*%
X219339648Y-20649772D02*
X219339648Y-21449772D01*
X219339648Y-24539772D02*
X219339648Y-24299772D01*
X225224825Y-22699772D02*
X229789648Y-22699772D01*
X227239648Y-18649772D02*
X221339648Y-18649772D01*
X230289648Y-18649772D02*
X228739648Y-18649772D01*
X230289648Y-18879772D02*
X230289648Y-18649772D01*
X230289648Y-22199772D02*
X230289648Y-21729773D01*
X219339648Y-20649772D02*
G75*
G02*
X221339648Y-18649772I2000005J-5D01*
G01*
X222930502Y-24539773D02*
G75*
G02*
X225224825Y-22699772I2293456J-509330D01*
G01*
X230289648Y-22199772D02*
G75*
G02*
X229789648Y-22699772I-500001J1D01*
G01*
D13*
%TO.C,D37*%
X104136976Y-68155488D02*
X108146976Y-68155488D01*
X104136976Y-70155488D02*
X108146976Y-70155488D01*
X108146976Y-70155488D02*
X108146976Y-68155488D01*
%TO.C,D40*%
X161286928Y-68155488D02*
X165296928Y-68155488D01*
X161286928Y-70155488D02*
X165296928Y-70155488D01*
X165296928Y-70155488D02*
X165296928Y-68155488D01*
D12*
%TO.C,MX14*%
X266964824Y-20649780D02*
X266964824Y-21449780D01*
X266964824Y-24539780D02*
X266964824Y-24299780D01*
X272850000Y-22699780D02*
X277414824Y-22699780D01*
X274864824Y-18649780D02*
X268964824Y-18649780D01*
X277914824Y-18649780D02*
X276364824Y-18649780D01*
X277914824Y-18879780D02*
X277914824Y-18649780D01*
X277914824Y-22199780D02*
X277914824Y-21729780D01*
X266964824Y-20649780D02*
G75*
G02*
X268964824Y-18649780I2000005J-5D01*
G01*
X270555678Y-24539780D02*
G75*
G02*
X272850000Y-22699780I2293456J-509332D01*
G01*
X277914824Y-22199780D02*
G75*
G02*
X277414824Y-22699780I-500001J1D01*
G01*
D13*
%TO.C,R3*%
X321529153Y-40194184D02*
X321221871Y-40194184D01*
X321529153Y-40954184D02*
X321221871Y-40954184D01*
D12*
%TO.C,MX88*%
X187222544Y-66700244D02*
X187222544Y-67170243D01*
X187222544Y-70020244D02*
X187222544Y-70250244D01*
X187222544Y-70250244D02*
X188772544Y-70250244D01*
X190272544Y-70250244D02*
X196172544Y-70250244D01*
X192287367Y-66200244D02*
X187722544Y-66200244D01*
X198172544Y-64360244D02*
X198172544Y-64600244D01*
X198172544Y-68250244D02*
X198172544Y-67450244D01*
X187222544Y-66700244D02*
G75*
G02*
X187722544Y-66200244I500001J-1D01*
G01*
X194581690Y-64360243D02*
G75*
G02*
X192287367Y-66200244I-2293456J509330D01*
G01*
X198172544Y-68250244D02*
G75*
G02*
X196172544Y-70250244I-2000005J5D01*
G01*
%TO.C,MX40*%
X162189776Y-58749828D02*
X162189776Y-59549828D01*
X162189776Y-62639828D02*
X162189776Y-62399828D01*
X168074953Y-60799828D02*
X172639776Y-60799828D01*
X170089776Y-56749828D02*
X164189776Y-56749828D01*
X173139776Y-56749828D02*
X171589776Y-56749828D01*
X173139776Y-56979828D02*
X173139776Y-56749828D01*
X173139776Y-60299828D02*
X173139776Y-59829829D01*
X162189776Y-58749828D02*
G75*
G02*
X164189776Y-56749828I2000005J-5D01*
G01*
X165780630Y-62639829D02*
G75*
G02*
X168074953Y-60799828I2293456J-509330D01*
G01*
X173139776Y-60299828D02*
G75*
G02*
X172639776Y-60799828I-500001J1D01*
G01*
%TO.C,MX11*%
X211035176Y-28600220D02*
X211035176Y-29070219D01*
X211035176Y-31920220D02*
X211035176Y-32150220D01*
X211035176Y-32150220D02*
X212585176Y-32150220D01*
X214085176Y-32150220D02*
X219985176Y-32150220D01*
X216099999Y-28100220D02*
X211535176Y-28100220D01*
X221985176Y-26260220D02*
X221985176Y-26500220D01*
X221985176Y-30150220D02*
X221985176Y-29350220D01*
X211035176Y-28600220D02*
G75*
G02*
X211535176Y-28100220I500001J-1D01*
G01*
X218394322Y-26260219D02*
G75*
G02*
X216099999Y-28100220I-2293456J509330D01*
G01*
X221985176Y-30150220D02*
G75*
G02*
X219985176Y-32150220I-2000005J5D01*
G01*
%TO.C,MX89*%
X206272528Y-66700244D02*
X206272528Y-67170243D01*
X206272528Y-70020244D02*
X206272528Y-70250244D01*
X206272528Y-70250244D02*
X207822528Y-70250244D01*
X209322528Y-70250244D02*
X215222528Y-70250244D01*
X211337351Y-66200244D02*
X206772528Y-66200244D01*
X217222528Y-64360244D02*
X217222528Y-64600244D01*
X217222528Y-68250244D02*
X217222528Y-67450244D01*
X206272528Y-66700244D02*
G75*
G02*
X206772528Y-66200244I500001J-1D01*
G01*
X213631674Y-64360243D02*
G75*
G02*
X211337351Y-66200244I-2293456J509330D01*
G01*
X217222528Y-68250244D02*
G75*
G02*
X215222528Y-70250244I-2000005J5D01*
G01*
D13*
%TO.C,U4*%
X317459888Y-60471040D02*
X317459888Y-63196040D01*
X317459888Y-65921040D02*
X317459888Y-63196040D01*
X317719888Y-60471040D02*
X317459888Y-60471040D01*
X317719888Y-65921040D02*
X317459888Y-65921040D01*
X322649888Y-60471040D02*
X322909888Y-60471040D01*
X322649888Y-65921040D02*
X322909888Y-65921040D01*
X322909888Y-60471040D02*
X322909888Y-63196040D01*
X322909888Y-65921040D02*
X322909888Y-63196040D01*
X322979888Y-66943540D02*
X322649888Y-66703540D01*
X322979888Y-66463540D01*
X322979888Y-66943540D01*
G36*
X322979888Y-66943540D02*
G01*
X322649888Y-66703540D01*
X322979888Y-66463540D01*
X322979888Y-66943540D01*
G37*
D12*
%TO.C,MX48*%
X19314824Y-77799780D02*
X19314824Y-78599780D01*
X19314824Y-81689780D02*
X19314824Y-81449780D01*
X25200001Y-79849780D02*
X29764824Y-79849780D01*
X27214824Y-75799780D02*
X21314824Y-75799780D01*
X30264824Y-75799780D02*
X28714824Y-75799780D01*
X30264824Y-76029780D02*
X30264824Y-75799780D01*
X30264824Y-79349780D02*
X30264824Y-78879781D01*
X19314824Y-77799780D02*
G75*
G02*
X21314824Y-75799780I2000005J-5D01*
G01*
X22905678Y-81689781D02*
G75*
G02*
X25200001Y-79849780I2293456J-509330D01*
G01*
X30264824Y-79349780D02*
G75*
G02*
X29764824Y-79849780I-500001J1D01*
G01*
D13*
%TO.C,D42*%
X199367032Y-68155488D02*
X203377032Y-68155488D01*
X199367032Y-70155488D02*
X203377032Y-70155488D01*
X203377032Y-70155488D02*
X203377032Y-68155488D01*
%TO.C,D14*%
X275131800Y-24543750D02*
X275131800Y-28553750D01*
X275131800Y-28553750D02*
X277131800Y-28553750D01*
X277131800Y-24543750D02*
X277131800Y-28553750D01*
D12*
%TO.C,MX21*%
X95514824Y-39699780D02*
X95514824Y-40499780D01*
X95514824Y-43589780D02*
X95514824Y-43349780D01*
X101400000Y-41749780D02*
X105964824Y-41749780D01*
X103414824Y-37699780D02*
X97514824Y-37699780D01*
X106464824Y-37699780D02*
X104914824Y-37699780D01*
X106464824Y-37929780D02*
X106464824Y-37699780D01*
X106464824Y-41249780D02*
X106464824Y-40779780D01*
X95514824Y-39699780D02*
G75*
G02*
X97514824Y-37699780I2000005J-5D01*
G01*
X99105678Y-43589780D02*
G75*
G02*
X101400000Y-41749780I2293456J-509332D01*
G01*
X106464824Y-41249780D02*
G75*
G02*
X105964824Y-41749780I-500001J1D01*
G01*
%TO.C,MX59*%
X211035176Y-85750220D02*
X211035176Y-86220219D01*
X211035176Y-89070220D02*
X211035176Y-89300220D01*
X211035176Y-89300220D02*
X212585176Y-89300220D01*
X214085176Y-89300220D02*
X219985176Y-89300220D01*
X216099999Y-85250220D02*
X211535176Y-85250220D01*
X221985176Y-83410220D02*
X221985176Y-83650220D01*
X221985176Y-87300220D02*
X221985176Y-86500220D01*
X211035176Y-85750220D02*
G75*
G02*
X211535176Y-85250220I500001J-1D01*
G01*
X218394322Y-83410219D02*
G75*
G02*
X216099999Y-85250220I-2293456J509330D01*
G01*
X221985176Y-87300220D02*
G75*
G02*
X219985176Y-89300220I-2000005J5D01*
G01*
%TO.C,MX25*%
X171714824Y-39699780D02*
X171714824Y-40499780D01*
X171714824Y-43589780D02*
X171714824Y-43349780D01*
X177600000Y-41749780D02*
X182164824Y-41749780D01*
X179614824Y-37699780D02*
X173714824Y-37699780D01*
X182664824Y-37699780D02*
X181114824Y-37699780D01*
X182664824Y-37929780D02*
X182664824Y-37699780D01*
X182664824Y-41249780D02*
X182664824Y-40779780D01*
X171714824Y-39699780D02*
G75*
G02*
X173714824Y-37699780I2000005J-5D01*
G01*
X175305678Y-43589780D02*
G75*
G02*
X177600000Y-41749780I2293456J-509332D01*
G01*
X182664824Y-41249780D02*
G75*
G02*
X182164824Y-41749780I-500001J1D01*
G01*
D13*
%TO.C,D28*%
X241931840Y-48807784D02*
X245941840Y-48807784D01*
X241931840Y-50807784D02*
X245941840Y-50807784D01*
X245941840Y-50807784D02*
X245941840Y-48807784D01*
%TO.C,D10*%
X198931864Y-24543750D02*
X198931864Y-28553750D01*
X198931864Y-28553750D02*
X200931864Y-28553750D01*
X200931864Y-24543750D02*
X200931864Y-28553750D01*
%TO.C,MX32*%
X313369607Y-43612500D02*
X316412500Y-43612500D01*
X312369607Y-44612500D02*
G75*
G02*
X313369607Y-43612500I1000006J-6D01*
G01*
%TO.C,C12*%
X305715418Y-74834103D02*
X305867921Y-74986606D01*
X306224535Y-74324986D02*
X306377038Y-74477489D01*
D12*
%TO.C,MX86*%
X149122576Y-66700244D02*
X149122576Y-67170243D01*
X149122576Y-70020244D02*
X149122576Y-70250244D01*
X149122576Y-70250244D02*
X150672576Y-70250244D01*
X152172576Y-70250244D02*
X158072576Y-70250244D01*
X154187399Y-66200244D02*
X149622576Y-66200244D01*
X160072576Y-64360244D02*
X160072576Y-64600244D01*
X160072576Y-68250244D02*
X160072576Y-67450244D01*
X149122576Y-66700244D02*
G75*
G02*
X149622576Y-66200244I500001J-1D01*
G01*
X156481722Y-64360243D02*
G75*
G02*
X154187399Y-66200244I-2293456J509330D01*
G01*
X160072576Y-68250244D02*
G75*
G02*
X158072576Y-70250244I-2000005J5D01*
G01*
D13*
%TO.C,D18*%
X56194496Y-48807784D02*
X60204496Y-48807784D01*
X56194496Y-50807784D02*
X60204496Y-50807784D01*
X60204496Y-50807784D02*
X60204496Y-48807784D01*
D12*
%TO.C,MX22*%
X114564824Y-39699780D02*
X114564824Y-40499780D01*
X114564824Y-43589780D02*
X114564824Y-43349780D01*
X120450000Y-41749780D02*
X125014824Y-41749780D01*
X122464824Y-37699780D02*
X116564824Y-37699780D01*
X125514824Y-37699780D02*
X123964824Y-37699780D01*
X125514824Y-37929780D02*
X125514824Y-37699780D01*
X125514824Y-41249780D02*
X125514824Y-40779780D01*
X114564824Y-39699780D02*
G75*
G02*
X116564824Y-37699780I2000005J-5D01*
G01*
X118155678Y-43589780D02*
G75*
G02*
X120450000Y-41749780I2293456J-509332D01*
G01*
X125514824Y-41249780D02*
G75*
G02*
X125014824Y-41749780I-500001J1D01*
G01*
D13*
%TO.C,D54*%
X121435848Y-82685944D02*
X121435848Y-86695944D01*
X121435848Y-86695944D02*
X123435848Y-86695944D01*
X123435848Y-82685944D02*
X123435848Y-86695944D01*
%TO.C,D16*%
X317994264Y-24543750D02*
X317994264Y-28553750D01*
X317994264Y-28553750D02*
X319994264Y-28553750D01*
X319994264Y-24543750D02*
X319994264Y-28553750D01*
D12*
%TO.C,MX46*%
X266964824Y-58749780D02*
X266964824Y-59549780D01*
X266964824Y-62639780D02*
X266964824Y-62399780D01*
X272850001Y-60799780D02*
X277414824Y-60799780D01*
X274864824Y-56749780D02*
X268964824Y-56749780D01*
X277914824Y-56749780D02*
X276364824Y-56749780D01*
X277914824Y-56979780D02*
X277914824Y-56749780D01*
X277914824Y-60299780D02*
X277914824Y-59829781D01*
X266964824Y-58749780D02*
G75*
G02*
X268964824Y-56749780I2000005J-5D01*
G01*
X270555678Y-62639781D02*
G75*
G02*
X272850001Y-60799780I2293456J-509330D01*
G01*
X277914824Y-60299780D02*
G75*
G02*
X277414824Y-60799780I-500001J1D01*
G01*
D13*
%TO.C,D36*%
X85067128Y-68155488D02*
X89077128Y-68155488D01*
X85067128Y-70155488D02*
X89077128Y-70155488D01*
X89077128Y-70155488D02*
X89077128Y-68155488D01*
D12*
%TO.C,MX72*%
X82447616Y-47650220D02*
X82447616Y-48120219D01*
X82447616Y-50970220D02*
X82447616Y-51200220D01*
X82447616Y-51200220D02*
X83997616Y-51200220D01*
X85497616Y-51200220D02*
X91397616Y-51200220D01*
X87512439Y-47150220D02*
X82947616Y-47150220D01*
X93397616Y-45310220D02*
X93397616Y-45550220D01*
X93397616Y-49200220D02*
X93397616Y-48400220D01*
X82447616Y-47650220D02*
G75*
G02*
X82947616Y-47150220I500001J-1D01*
G01*
X89806762Y-45310219D02*
G75*
G02*
X87512439Y-47150220I-2293456J509330D01*
G01*
X93397616Y-49200220D02*
G75*
G02*
X91397616Y-51200220I-2000005J5D01*
G01*
D13*
%TO.C,D33*%
X39843280Y-67857808D02*
X43853280Y-67857808D01*
X39843280Y-69857808D02*
X43853280Y-69857808D01*
X43853280Y-69857808D02*
X43853280Y-67857808D01*
%TO.C,D61*%
X275131800Y-81693750D02*
X275131800Y-85703750D01*
X275131800Y-85703750D02*
X277131800Y-85703750D01*
X277131800Y-81693750D02*
X277131800Y-85703750D01*
%TO.C,BOOT1*%
X313118876Y-38597624D02*
X313118876Y-36597624D01*
X314618876Y-34847624D02*
X314168876Y-35297624D01*
X314618876Y-34847624D02*
X317118876Y-34847624D01*
X314618876Y-40347624D02*
X314168876Y-39897624D01*
X314618876Y-40347624D02*
X317118876Y-40347624D01*
X317118876Y-34847624D02*
X317568876Y-35297624D01*
X317118876Y-40347624D02*
X317568876Y-39897624D01*
X318618876Y-38597624D02*
X318618876Y-36597624D01*
%TO.C,C4*%
X305210513Y-69939941D02*
X305363016Y-69787438D01*
X305719630Y-70449058D02*
X305872133Y-70296555D01*
D12*
%TO.C,MX29*%
X247914824Y-39699780D02*
X247914824Y-40499780D01*
X247914824Y-43589780D02*
X247914824Y-43349780D01*
X253800000Y-41749780D02*
X258364824Y-41749780D01*
X255814824Y-37699780D02*
X249914824Y-37699780D01*
X258864824Y-37699780D02*
X257314824Y-37699780D01*
X258864824Y-37929780D02*
X258864824Y-37699780D01*
X258864824Y-41249780D02*
X258864824Y-40779780D01*
X247914824Y-39699780D02*
G75*
G02*
X249914824Y-37699780I2000005J-5D01*
G01*
X251505678Y-43589780D02*
G75*
G02*
X253800000Y-41749780I2293456J-509332D01*
G01*
X258864824Y-41249780D02*
G75*
G02*
X258364824Y-41749780I-500001J1D01*
G01*
%TO.C,MX42*%
X200289776Y-58749828D02*
X200289776Y-59549828D01*
X200289776Y-62639828D02*
X200289776Y-62399828D01*
X206174953Y-60799828D02*
X210739776Y-60799828D01*
X208189776Y-56749828D02*
X202289776Y-56749828D01*
X211239776Y-56749828D02*
X209689776Y-56749828D01*
X211239776Y-56979828D02*
X211239776Y-56749828D01*
X211239776Y-60299828D02*
X211239776Y-59829829D01*
X200289776Y-58749828D02*
G75*
G02*
X202289776Y-56749828I2000005J-5D01*
G01*
X203880630Y-62639829D02*
G75*
G02*
X206174953Y-60799828I2293456J-509330D01*
G01*
X211239776Y-60299828D02*
G75*
G02*
X210739776Y-60799828I-500001J1D01*
G01*
%TO.C,MX33*%
X24097176Y-58749804D02*
X24097176Y-59549804D01*
X24097176Y-62639804D02*
X24097176Y-62399804D01*
X29982352Y-60799804D02*
X34547176Y-60799804D01*
X31997176Y-56749804D02*
X26097176Y-56749804D01*
X35047176Y-56749804D02*
X33497176Y-56749804D01*
X35047176Y-56979804D02*
X35047176Y-56749804D01*
X35047176Y-60299804D02*
X35047176Y-59829804D01*
X24097176Y-58749804D02*
G75*
G02*
X26097176Y-56749804I2000005J-5D01*
G01*
X27688030Y-62639804D02*
G75*
G02*
X29982352Y-60799804I2293456J-509332D01*
G01*
X35047176Y-60299804D02*
G75*
G02*
X34547176Y-60799804I-500001J1D01*
G01*
D13*
%TO.C,D2*%
X46531992Y-24543750D02*
X46531992Y-28553750D01*
X46531992Y-28553750D02*
X48531992Y-28553750D01*
X48531992Y-24543750D02*
X48531992Y-28553750D01*
D12*
%TO.C,MX34*%
X47889792Y-58749828D02*
X47889792Y-59549828D01*
X47889792Y-62639828D02*
X47889792Y-62399828D01*
X53774968Y-60799828D02*
X58339792Y-60799828D01*
X55789792Y-56749828D02*
X49889792Y-56749828D01*
X58839792Y-56749828D02*
X57289792Y-56749828D01*
X58839792Y-56979828D02*
X58839792Y-56749828D01*
X58839792Y-60299828D02*
X58839792Y-59829828D01*
X47889792Y-58749828D02*
G75*
G02*
X49889792Y-56749828I2000005J-5D01*
G01*
X51480646Y-62639828D02*
G75*
G02*
X53774968Y-60799828I2293456J-509332D01*
G01*
X58839792Y-60299828D02*
G75*
G02*
X58339792Y-60799828I-500001J1D01*
G01*
D13*
%TO.C,C14*%
X303602636Y-56093288D02*
X303602636Y-56308960D01*
X304322636Y-56093288D02*
X304322636Y-56308960D01*
%TO.C,D46*%
X275131800Y-62643750D02*
X275131800Y-66653750D01*
X275131800Y-66653750D02*
X277131800Y-66653750D01*
X277131800Y-62643750D02*
X277131800Y-66653750D01*
%TO.C,D25*%
X189544384Y-48807784D02*
X193554384Y-48807784D01*
X189544384Y-50807784D02*
X193554384Y-50807784D01*
X193554384Y-50807784D02*
X193554384Y-48807784D01*
D12*
%TO.C,MX87*%
X168172560Y-66700244D02*
X168172560Y-67170243D01*
X168172560Y-70020244D02*
X168172560Y-70250244D01*
X168172560Y-70250244D02*
X169722560Y-70250244D01*
X171222560Y-70250244D02*
X177122560Y-70250244D01*
X173237383Y-66200244D02*
X168672560Y-66200244D01*
X179122560Y-64360244D02*
X179122560Y-64600244D01*
X179122560Y-68250244D02*
X179122560Y-67450244D01*
X168172560Y-66700244D02*
G75*
G02*
X168672560Y-66200244I500001J-1D01*
G01*
X175531706Y-64360243D02*
G75*
G02*
X173237383Y-66200244I-2293456J509330D01*
G01*
X179122560Y-68250244D02*
G75*
G02*
X177122560Y-70250244I-2000005J5D01*
G01*
D13*
%TO.C,D47*%
X294181784Y-62643750D02*
X294181784Y-66653750D01*
X294181784Y-66653750D02*
X296181784Y-66653750D01*
X296181784Y-62643750D02*
X296181784Y-66653750D01*
%TO.C,J3*%
X296074280Y-88562112D02*
X297404280Y-88562112D01*
X296074280Y-89892112D02*
X296074280Y-88562112D01*
X298674280Y-91222112D02*
X298674280Y-88562112D01*
X308894280Y-88562112D02*
X298674280Y-88562112D01*
X308894280Y-91222112D02*
X298674280Y-91222112D01*
X308894280Y-91222112D02*
X308894280Y-88562112D01*
D12*
%TO.C,MX45*%
X247914824Y-58749780D02*
X247914824Y-59549780D01*
X247914824Y-62639780D02*
X247914824Y-62399780D01*
X253800001Y-60799780D02*
X258364824Y-60799780D01*
X255814824Y-56749780D02*
X249914824Y-56749780D01*
X258864824Y-56749780D02*
X257314824Y-56749780D01*
X258864824Y-56979780D02*
X258864824Y-56749780D01*
X258864824Y-60299780D02*
X258864824Y-59829781D01*
X247914824Y-58749780D02*
G75*
G02*
X249914824Y-56749780I2000005J-5D01*
G01*
X251505678Y-62639781D02*
G75*
G02*
X253800001Y-60799780I2293456J-509330D01*
G01*
X258864824Y-60299780D02*
G75*
G02*
X258364824Y-60799780I-500001J1D01*
G01*
D13*
%TO.C,D57*%
X204129528Y-86907816D02*
X208139528Y-86907816D01*
X204129528Y-88907816D02*
X208139528Y-88907816D01*
X208139528Y-88907816D02*
X208139528Y-86907816D01*
%TO.C,R5*%
X298373656Y-72618025D02*
X298373656Y-72310743D01*
X299133656Y-72618025D02*
X299133656Y-72310743D01*
D12*
%TO.C,MX65*%
X286014824Y-77799780D02*
X286014824Y-78599780D01*
X286014824Y-81689780D02*
X286014824Y-81449780D01*
X291900000Y-79849780D02*
X296464824Y-79849780D01*
X293914824Y-75799780D02*
X288014824Y-75799780D01*
X296964824Y-75799780D02*
X295414824Y-75799780D01*
X296964824Y-76029780D02*
X296964824Y-75799780D01*
X296964824Y-79349780D02*
X296964824Y-78879780D01*
X286014824Y-77799780D02*
G75*
G02*
X288014824Y-75799780I2000005J-5D01*
G01*
X289605678Y-81689780D02*
G75*
G02*
X291900000Y-79849780I2293456J-509332D01*
G01*
X296964824Y-79349780D02*
G75*
G02*
X296464824Y-79849780I-500001J1D01*
G01*
%TO.C,MX18*%
X44347648Y-47650260D02*
X44347648Y-48120259D01*
X44347648Y-50970260D02*
X44347648Y-51200260D01*
X44347648Y-51200260D02*
X45897648Y-51200260D01*
X47397648Y-51200260D02*
X53297648Y-51200260D01*
X49412471Y-47150260D02*
X44847648Y-47150260D01*
X55297648Y-45310260D02*
X55297648Y-45550260D01*
X55297648Y-49200260D02*
X55297648Y-48400260D01*
X44347648Y-47650260D02*
G75*
G02*
X44847648Y-47150260I500001J-1D01*
G01*
X51706794Y-45310259D02*
G75*
G02*
X49412471Y-47150260I-2293456J509330D01*
G01*
X55297648Y-49200260D02*
G75*
G02*
X53297648Y-51200260I-2000005J5D01*
G01*
%TO.C,MX64*%
X266964824Y-77799780D02*
X266964824Y-78599780D01*
X266964824Y-81689780D02*
X266964824Y-81449780D01*
X272850000Y-79849780D02*
X277414824Y-79849780D01*
X274864824Y-75799780D02*
X268964824Y-75799780D01*
X277914824Y-75799780D02*
X276364824Y-75799780D01*
X277914824Y-76029780D02*
X277914824Y-75799780D01*
X277914824Y-79349780D02*
X277914824Y-78879780D01*
X266964824Y-77799780D02*
G75*
G02*
X268964824Y-75799780I2000005J-5D01*
G01*
X270555678Y-81689780D02*
G75*
G02*
X272850000Y-79849780I2293456J-509332D01*
G01*
X277914824Y-79349780D02*
G75*
G02*
X277414824Y-79849780I-500001J1D01*
G01*
D13*
%TO.C,D8*%
X160831896Y-24543750D02*
X160831896Y-28553750D01*
X160831896Y-28553750D02*
X162831896Y-28553750D01*
X162831896Y-24543750D02*
X162831896Y-28553750D01*
%TO.C,C9*%
X300506438Y-62927863D02*
X300658941Y-63080366D01*
X301015555Y-62418746D02*
X301168058Y-62571249D01*
%TO.C,C15*%
X307025680Y-56093288D02*
X307025680Y-56308960D01*
X307745680Y-56093288D02*
X307745680Y-56308960D01*
%TO.C,D24*%
X170494400Y-48807784D02*
X174504400Y-48807784D01*
X170494400Y-50807784D02*
X174504400Y-50807784D01*
X174504400Y-50807784D02*
X174504400Y-48807784D01*
D12*
%TO.C,MX76*%
X158647552Y-47650220D02*
X158647552Y-48120219D01*
X158647552Y-50970220D02*
X158647552Y-51200220D01*
X158647552Y-51200220D02*
X160197552Y-51200220D01*
X161697552Y-51200220D02*
X167597552Y-51200220D01*
X163712375Y-47150220D02*
X159147552Y-47150220D01*
X169597552Y-45310220D02*
X169597552Y-45550220D01*
X169597552Y-49200220D02*
X169597552Y-48400220D01*
X158647552Y-47650220D02*
G75*
G02*
X159147552Y-47150220I500001J-1D01*
G01*
X166006698Y-45310219D02*
G75*
G02*
X163712375Y-47150220I-2293456J509330D01*
G01*
X169597552Y-49200220D02*
G75*
G02*
X167597552Y-51200220I-2000005J5D01*
G01*
D13*
%TO.C,C6*%
X301860072Y-59522596D02*
X301860072Y-59738268D01*
X302580072Y-59522596D02*
X302580072Y-59738268D01*
%TO.C,MX2*%
X41907107Y-19800000D02*
X44950000Y-19800000D01*
X40907107Y-20800000D02*
G75*
G02*
X41907107Y-19800000I1000006J-6D01*
G01*
D12*
%TO.C,MX57*%
X191985176Y-85750220D02*
X191985176Y-86220219D01*
X191985176Y-89070220D02*
X191985176Y-89300220D01*
X191985176Y-89300220D02*
X193535176Y-89300220D01*
X195035176Y-89300220D02*
X200935176Y-89300220D01*
X197049999Y-85250220D02*
X192485176Y-85250220D01*
X202935176Y-83410220D02*
X202935176Y-83650220D01*
X202935176Y-87300220D02*
X202935176Y-86500220D01*
X191985176Y-85750220D02*
G75*
G02*
X192485176Y-85250220I500001J-1D01*
G01*
X199344322Y-83410219D02*
G75*
G02*
X197049999Y-85250220I-2293456J509330D01*
G01*
X202935176Y-87300220D02*
G75*
G02*
X200935176Y-89300220I-2000005J5D01*
G01*
%TO.C,MX6*%
X114564824Y-20649780D02*
X114564824Y-21449780D01*
X114564824Y-24539780D02*
X114564824Y-24299780D01*
X120450000Y-22699780D02*
X125014824Y-22699780D01*
X122464824Y-18649780D02*
X116564824Y-18649780D01*
X125514824Y-18649780D02*
X123964824Y-18649780D01*
X125514824Y-18879780D02*
X125514824Y-18649780D01*
X125514824Y-22199780D02*
X125514824Y-21729780D01*
X114564824Y-20649780D02*
G75*
G02*
X116564824Y-18649780I2000005J-5D01*
G01*
X118155678Y-24539780D02*
G75*
G02*
X120450000Y-22699780I2293456J-509332D01*
G01*
X125514824Y-22199780D02*
G75*
G02*
X125014824Y-22699780I-500001J1D01*
G01*
D13*
%TO.C,D20*%
X94294464Y-48807784D02*
X98304464Y-48807784D01*
X94294464Y-50807784D02*
X98304464Y-50807784D01*
X98304464Y-50807784D02*
X98304464Y-48807784D01*
D12*
%TO.C,MX8*%
X152664824Y-20649780D02*
X152664824Y-21449780D01*
X152664824Y-24539780D02*
X152664824Y-24299780D01*
X158550000Y-22699780D02*
X163114824Y-22699780D01*
X160564824Y-18649780D02*
X154664824Y-18649780D01*
X163614824Y-18649780D02*
X162064824Y-18649780D01*
X163614824Y-18879780D02*
X163614824Y-18649780D01*
X163614824Y-22199780D02*
X163614824Y-21729780D01*
X152664824Y-20649780D02*
G75*
G02*
X154664824Y-18649780I2000005J-5D01*
G01*
X156255678Y-24539780D02*
G75*
G02*
X158550000Y-22699780I2293456J-509332D01*
G01*
X163614824Y-22199780D02*
G75*
G02*
X163114824Y-22699780I-500001J1D01*
G01*
%TO.C,MX38*%
X124089776Y-58749828D02*
X124089776Y-59549828D01*
X124089776Y-62639828D02*
X124089776Y-62399828D01*
X129974953Y-60799828D02*
X134539776Y-60799828D01*
X131989776Y-56749828D02*
X126089776Y-56749828D01*
X135039776Y-56749828D02*
X133489776Y-56749828D01*
X135039776Y-56979828D02*
X135039776Y-56749828D01*
X135039776Y-60299828D02*
X135039776Y-59829829D01*
X124089776Y-58749828D02*
G75*
G02*
X126089776Y-56749828I2000005J-5D01*
G01*
X127680630Y-62639829D02*
G75*
G02*
X129974953Y-60799828I2293456J-509330D01*
G01*
X135039776Y-60299828D02*
G75*
G02*
X134539776Y-60799828I-500001J1D01*
G01*
%TO.C,MX60*%
X226483392Y-77799788D02*
X226483392Y-78599788D01*
X226483392Y-81689788D02*
X226483392Y-81449788D01*
X232368569Y-79849788D02*
X236933392Y-79849788D01*
X234383392Y-75799788D02*
X228483392Y-75799788D01*
X237433392Y-75799788D02*
X235883392Y-75799788D01*
X237433392Y-76029788D02*
X237433392Y-75799788D01*
X237433392Y-79349788D02*
X237433392Y-78879789D01*
X226483392Y-77799788D02*
G75*
G02*
X228483392Y-75799788I2000005J-5D01*
G01*
X230074246Y-81689789D02*
G75*
G02*
X232368569Y-79849788I2293456J-509330D01*
G01*
X237433392Y-79349788D02*
G75*
G02*
X236933392Y-79849788I-500001J1D01*
G01*
D13*
%TO.C,R9*%
X304844372Y-72343691D02*
X304627091Y-72560972D01*
X305381773Y-72881092D02*
X305164492Y-73098373D01*
D12*
%TO.C,MX79*%
X221720896Y-39699780D02*
X221720896Y-40499780D01*
X221720896Y-43589780D02*
X221720896Y-43349780D01*
X227606073Y-41749780D02*
X232170896Y-41749780D01*
X229620896Y-37699780D02*
X223720896Y-37699780D01*
X232670896Y-37699780D02*
X231120896Y-37699780D01*
X232670896Y-37929780D02*
X232670896Y-37699780D01*
X232670896Y-41249780D02*
X232670896Y-40779781D01*
X221720896Y-39699780D02*
G75*
G02*
X223720896Y-37699780I2000005J-5D01*
G01*
X225311750Y-43589781D02*
G75*
G02*
X227606073Y-41749780I2293456J-509330D01*
G01*
X232670896Y-41249780D02*
G75*
G02*
X232170896Y-41749780I-500001J1D01*
G01*
%TO.C,MX7*%
X133614824Y-20649780D02*
X133614824Y-21449780D01*
X133614824Y-24539780D02*
X133614824Y-24299780D01*
X139500000Y-22699780D02*
X144064824Y-22699780D01*
X141514824Y-18649780D02*
X135614824Y-18649780D01*
X144564824Y-18649780D02*
X143014824Y-18649780D01*
X144564824Y-18879780D02*
X144564824Y-18649780D01*
X144564824Y-22199780D02*
X144564824Y-21729780D01*
X133614824Y-20649780D02*
G75*
G02*
X135614824Y-18649780I2000005J-5D01*
G01*
X137205678Y-24539780D02*
G75*
G02*
X139500000Y-22699780I2293456J-509332D01*
G01*
X144564824Y-22199780D02*
G75*
G02*
X144064824Y-22699780I-500001J1D01*
G01*
D13*
%TO.C,MX3*%
X60957107Y-19800000D02*
X64000000Y-19800000D01*
X59957107Y-20800000D02*
G75*
G02*
X60957107Y-19800000I1000006J-6D01*
G01*
%TO.C,D5*%
X103681944Y-24543750D02*
X103681944Y-28553750D01*
X103681944Y-28553750D02*
X105681944Y-28553750D01*
X105681944Y-24543750D02*
X105681944Y-28553750D01*
D12*
%TO.C,MX58*%
X202670912Y-77799788D02*
X202670912Y-78599788D01*
X202670912Y-81689788D02*
X202670912Y-81449788D01*
X208556089Y-79849788D02*
X213120912Y-79849788D01*
X210570912Y-75799788D02*
X204670912Y-75799788D01*
X213620912Y-75799788D02*
X212070912Y-75799788D01*
X213620912Y-76029788D02*
X213620912Y-75799788D01*
X213620912Y-79349788D02*
X213620912Y-78879789D01*
X202670912Y-77799788D02*
G75*
G02*
X204670912Y-75799788I2000005J-5D01*
G01*
X206261766Y-81689789D02*
G75*
G02*
X208556089Y-79849788I2293456J-509330D01*
G01*
X213620912Y-79349788D02*
G75*
G02*
X213120912Y-79849788I-500001J1D01*
G01*
%TD*%
%LPC*%
D14*
%TO.C,SW2*%
X313412500Y-56712500D03*
X318412500Y-56712500D03*
D15*
X315912500Y-56712500D03*
D14*
X318412500Y-42212500D03*
X313412500Y-42212500D03*
%TD*%
D16*
%TO.C,MXS2*%
X153669880Y-82550008D03*
D17*
X158749880Y-82550008D03*
D16*
X163829880Y-82550008D03*
D18*
X154939880Y-80010008D03*
X161289880Y-77470008D03*
%TD*%
D17*
%TO.C,S1*%
X106362435Y-74295000D03*
D19*
X106362434Y-89535000D03*
X82549934Y-89535000D03*
D17*
X82549933Y-74295000D03*
%TD*%
%TO.C,S3*%
X153987395Y-74295000D03*
D19*
X153987394Y-89535000D03*
X130174894Y-89535000D03*
D17*
X130174893Y-74295000D03*
%TD*%
%TO.C,S4*%
X213518573Y-33654992D03*
D19*
X213518574Y-18414992D03*
X237331074Y-18414992D03*
D17*
X237331075Y-33654992D03*
%TD*%
D19*
%TO.C,S6*%
X120649928Y-89535008D03*
D17*
X120649928Y-74295008D03*
D19*
X82549928Y-89535008D03*
D17*
X82549928Y-74295008D03*
%TD*%
D19*
%TO.C,S5*%
X275431042Y-89535000D03*
D17*
X275431042Y-74295000D03*
D19*
X251618542Y-89535000D03*
D17*
X251618542Y-74295000D03*
%TD*%
D16*
%TO.C,MXS1*%
X106679927Y-82550008D03*
D17*
X101599928Y-82550008D03*
D16*
X96519929Y-82550008D03*
D18*
X105409928Y-85090008D03*
X99059928Y-87630008D03*
%TD*%
D19*
%TO.C,S2*%
X187324904Y-89534999D03*
D17*
X187324904Y-74295000D03*
D19*
X73024904Y-89534999D03*
D17*
X73024904Y-74295000D03*
%TD*%
D19*
%TO.C,S7*%
X177799880Y-89535008D03*
D17*
X177799880Y-74295008D03*
D19*
X139699880Y-89535008D03*
D17*
X139699880Y-74295008D03*
%TD*%
D14*
%TO.C,SW1*%
X313412500Y-32900000D03*
X318412500Y-32900000D03*
D15*
X315912500Y-32900000D03*
D14*
X318412500Y-18400000D03*
X313412500Y-18400000D03*
%TD*%
D20*
%TO.C,C2*%
X34329672Y-30259361D03*
X34329672Y-29299361D03*
%TD*%
D16*
%TO.C,MX9*%
X182880000Y-25400000D03*
D17*
X177800000Y-25400000D03*
D16*
X172720000Y-25400000D03*
D21*
X170440000Y-22860000D03*
X183890000Y-20320000D03*
%TD*%
D22*
%TO.C,D6*%
X123731928Y-27843750D03*
X123731928Y-24543750D03*
%TD*%
%TO.C,D56*%
X180899450Y-84993750D03*
X180899450Y-81693750D03*
%TD*%
D16*
%TO.C,MX51*%
X46513721Y-82550008D03*
D17*
X51593720Y-82550008D03*
D16*
X56673719Y-82550008D03*
D23*
X45503720Y-87630008D03*
X58953720Y-85090008D03*
%TD*%
D24*
%TO.C,U2*%
X57787464Y-34047640D03*
X58737464Y-34047641D03*
X59687464Y-34047640D03*
X59687464Y-36397640D03*
X58737464Y-36397639D03*
X57787464Y-36397640D03*
%TD*%
D25*
%TO.C,D43*%
X221736880Y-69155488D03*
X218436880Y-69155488D03*
%TD*%
D16*
%TO.C,MX20*%
X87630000Y-44450000D03*
D17*
X82550000Y-44450000D03*
D16*
X77470000Y-44450000D03*
D21*
X75190000Y-41910000D03*
X88640000Y-39370000D03*
%TD*%
D16*
%TO.C,MX90*%
X227488585Y-63500024D03*
D17*
X232568584Y-63500024D03*
D16*
X237648583Y-63500024D03*
D23*
X239928584Y-66040024D03*
X226478584Y-68580024D03*
%TD*%
D22*
%TO.C,D1*%
X28482008Y-27843750D03*
X28482008Y-24543750D03*
%TD*%
%TO.C,D3*%
X66581976Y-27843750D03*
X66581976Y-24543750D03*
%TD*%
D25*
%TO.C,D17*%
X40444512Y-49807784D03*
X37144512Y-49807784D03*
%TD*%
D26*
%TO.C,D11*%
X208458432Y-24543750D03*
X208458432Y-27843750D03*
%TD*%
D22*
%TO.C,D45*%
X257081816Y-65943750D03*
X257081816Y-62643750D03*
%TD*%
D16*
%TO.C,MX50*%
X49529999Y-82550000D03*
D17*
X44450000Y-82550000D03*
D16*
X39370001Y-82550000D03*
D21*
X37090000Y-80010000D03*
X50540000Y-77470000D03*
%TD*%
D16*
%TO.C,MX36*%
X97154951Y-63500048D03*
D17*
X92074952Y-63500048D03*
D16*
X86994953Y-63500048D03*
D21*
X98164952Y-58420048D03*
X84714952Y-60960048D03*
%TD*%
D22*
%TO.C,D62*%
X295181784Y-84993750D03*
X295181784Y-81693750D03*
%TD*%
%TO.C,D63*%
X314231768Y-84993750D03*
X314231768Y-81693750D03*
%TD*%
D27*
%TO.C,C1*%
X40233420Y-31209360D03*
X40233420Y-32169360D03*
%TD*%
D16*
%TO.C,MX16*%
X320992500Y-25400000D03*
D17*
X315912500Y-25400000D03*
D16*
X310832500Y-25400000D03*
D21*
X308552500Y-22860000D03*
X322002500Y-20320000D03*
%TD*%
D25*
%TO.C,D27*%
X226181856Y-49807784D03*
X222881856Y-49807784D03*
%TD*%
D22*
%TO.C,D59*%
X245367776Y-88367192D03*
X245367776Y-85067192D03*
%TD*%
D16*
%TO.C,MX5*%
X106680000Y-25400000D03*
D17*
X101600000Y-25400000D03*
D16*
X96520000Y-25400000D03*
D21*
X94240000Y-22860000D03*
X107690000Y-20320000D03*
%TD*%
D28*
%TO.C,R4*%
X322800276Y-40574184D03*
X323820276Y-40574184D03*
%TD*%
D16*
%TO.C,MX37*%
X116204951Y-63500048D03*
D17*
X111124952Y-63500048D03*
D16*
X106044953Y-63500048D03*
D21*
X117214952Y-58420048D03*
X103764952Y-60960048D03*
%TD*%
D25*
%TO.C,D44*%
X243148248Y-69155488D03*
X239848248Y-69155488D03*
%TD*%
%TO.C,D22*%
X135694432Y-49807784D03*
X132394432Y-49807784D03*
%TD*%
D16*
%TO.C,MX49*%
X22701241Y-82550008D03*
D17*
X27781240Y-82550008D03*
D16*
X32861239Y-82550008D03*
D23*
X21691240Y-87630008D03*
X35141240Y-85090008D03*
%TD*%
D16*
%TO.C,MX82*%
X72707465Y-63500024D03*
D17*
X77787464Y-63500024D03*
D16*
X82867463Y-63500024D03*
D23*
X85147464Y-66040024D03*
X71697464Y-68580024D03*
%TD*%
D16*
%TO.C,MX44*%
X235267335Y-63500024D03*
D17*
X230187336Y-63500024D03*
D16*
X225107337Y-63500024D03*
D21*
X236277336Y-58420024D03*
X222827336Y-60960024D03*
%TD*%
D16*
%TO.C,MX30*%
X278130000Y-44450000D03*
D17*
X273050000Y-44450000D03*
D16*
X267970000Y-44450000D03*
D21*
X265690000Y-41910000D03*
X279140000Y-39370000D03*
%TD*%
D29*
%TO.C,R8*%
X305748572Y-51375112D03*
X305748572Y-52395112D03*
%TD*%
D22*
%TO.C,D13*%
X257081816Y-27843750D03*
X257081816Y-24543750D03*
%TD*%
D16*
%TO.C,MX52*%
X68579999Y-82550000D03*
D17*
X63500000Y-82550000D03*
D16*
X58420001Y-82550000D03*
D21*
X56140000Y-80010000D03*
X69590000Y-77470000D03*
%TD*%
D22*
%TO.C,D15*%
X295181784Y-27843750D03*
X295181784Y-24543750D03*
%TD*%
D30*
%TO.C,C10*%
X309278689Y-74846379D03*
X309957511Y-74167557D03*
%TD*%
D16*
%TO.C,MX54*%
X135254904Y-82550000D03*
D17*
X130174904Y-82550000D03*
D16*
X125094904Y-82550000D03*
D21*
X136264904Y-77470000D03*
X122814904Y-80010000D03*
%TD*%
D22*
%TO.C,D31*%
X295181784Y-46893750D03*
X295181784Y-43593750D03*
%TD*%
D16*
%TO.C,MX83*%
X91757449Y-63500024D03*
D17*
X96837448Y-63500024D03*
D16*
X101917447Y-63500024D03*
D23*
X104197448Y-66040024D03*
X90747448Y-68580024D03*
%TD*%
D16*
%TO.C,MX74*%
X120332409Y-44450000D03*
D17*
X125412408Y-44450000D03*
D16*
X130492407Y-44450000D03*
D23*
X119322408Y-49530000D03*
X132772408Y-46990000D03*
%TD*%
D25*
%TO.C,D41*%
X183636912Y-69155488D03*
X180336912Y-69155488D03*
%TD*%
D16*
%TO.C,MX47*%
X297180000Y-63500000D03*
D17*
X292100000Y-63500000D03*
D16*
X287020000Y-63500000D03*
D21*
X284740000Y-60960000D03*
X298190000Y-58420000D03*
%TD*%
D29*
%TO.C,R7*%
X306939196Y-51375112D03*
X306939196Y-52395112D03*
%TD*%
D22*
%TO.C,D60*%
X248046680Y-88367192D03*
X248046680Y-85067192D03*
%TD*%
D31*
%TO.C,C7*%
X312114660Y-60070652D03*
X313074660Y-60070652D03*
%TD*%
D16*
%TO.C,MX73*%
X101282425Y-44450000D03*
D17*
X106362424Y-44450000D03*
D16*
X111442423Y-44450000D03*
D23*
X100272424Y-49530000D03*
X113722424Y-46990000D03*
%TD*%
D22*
%TO.C,D29*%
X257081816Y-46893750D03*
X257081816Y-43593750D03*
%TD*%
D16*
%TO.C,MX1*%
X30480000Y-25400000D03*
D17*
X25400000Y-25400000D03*
D16*
X20320000Y-25400000D03*
D21*
X18040000Y-22860000D03*
X31490000Y-20320000D03*
%TD*%
D25*
%TO.C,D19*%
X78544480Y-49807784D03*
X75244480Y-49807784D03*
%TD*%
D16*
%TO.C,MX66*%
X316230000Y-82550000D03*
D17*
X311150000Y-82550000D03*
D16*
X306070000Y-82550000D03*
D21*
X303790000Y-80010000D03*
X317240000Y-77470000D03*
%TD*%
D22*
%TO.C,D30*%
X276131800Y-46893750D03*
X276131800Y-43593750D03*
%TD*%
D27*
%TO.C,C8*%
X313636456Y-67329708D03*
X313636456Y-68289708D03*
%TD*%
D16*
%TO.C,MX55*%
X137001145Y-82550000D03*
D17*
X142081144Y-82550000D03*
D16*
X147161143Y-82550000D03*
D23*
X149441144Y-85090000D03*
X135991144Y-87630000D03*
%TD*%
D25*
%TO.C,D12*%
X238981064Y-21828120D03*
X235681064Y-21828120D03*
%TD*%
D16*
%TO.C,MX84*%
X110807433Y-63500024D03*
D17*
X115887432Y-63500024D03*
D16*
X120967431Y-63500024D03*
D23*
X123247432Y-66040024D03*
X109797432Y-68580024D03*
%TD*%
D20*
%TO.C,C3*%
X305004432Y-56681124D03*
X305004432Y-55721124D03*
%TD*%
D22*
%TO.C,D7*%
X142781912Y-27843750D03*
X142781912Y-24543750D03*
%TD*%
D16*
%TO.C,MX28*%
X229870001Y-44450000D03*
D17*
X234950000Y-44450000D03*
D16*
X240029999Y-44450000D03*
D23*
X242310000Y-46990000D03*
X228860000Y-49530000D03*
%TD*%
D22*
%TO.C,D55*%
X161849330Y-84993750D03*
X161849330Y-81693750D03*
%TD*%
D16*
%TO.C,MX63*%
X258444792Y-82550000D03*
D17*
X263524792Y-82550000D03*
D16*
X268604792Y-82550000D03*
D32*
X270884792Y-85090000D03*
D23*
X257434792Y-87630000D03*
%TD*%
D16*
%TO.C,MX71*%
X63182457Y-44450000D03*
D17*
X68262456Y-44450000D03*
D16*
X73342455Y-44450000D03*
D23*
X62172456Y-49530000D03*
X75622456Y-46990000D03*
%TD*%
D25*
%TO.C,D38*%
X126486960Y-69155488D03*
X123186960Y-69155488D03*
%TD*%
D16*
%TO.C,MX70*%
X49529999Y-44450000D03*
D17*
X44450000Y-44450000D03*
D16*
X39370001Y-44450000D03*
D21*
X37090000Y-41910000D03*
X50540000Y-39370000D03*
%TD*%
D25*
%TO.C,D23*%
X154744416Y-49807784D03*
X151444416Y-49807784D03*
%TD*%
D28*
%TO.C,R6*%
X322800276Y-39532388D03*
X323820276Y-39532388D03*
%TD*%
D16*
%TO.C,MX80*%
X27463753Y-63500024D03*
D17*
X32543752Y-63500024D03*
D16*
X37623751Y-63500024D03*
D23*
X26453752Y-68580024D03*
X39903752Y-66040024D03*
%TD*%
D16*
%TO.C,MX19*%
X68580000Y-44450000D03*
D17*
X63500000Y-44450000D03*
D16*
X58420000Y-44450000D03*
D21*
X56140000Y-41910000D03*
X69590000Y-39370000D03*
%TD*%
D33*
%TO.C,RST1*%
X295250000Y-70821032D03*
X288950000Y-70821032D03*
X295250000Y-74621032D03*
X288950000Y-74621032D03*
%TD*%
D34*
%TO.C,U3*%
X310972008Y-61191352D03*
X310972008Y-61591352D03*
X310972008Y-61991352D03*
X310972008Y-62391352D03*
X310972008Y-62791352D03*
X310972008Y-63191352D03*
X310972008Y-63591352D03*
X310972008Y-63991352D03*
X310972008Y-64391352D03*
X310972008Y-64791352D03*
X310972008Y-65191352D03*
X310972008Y-65591352D03*
X310972008Y-65991352D03*
X310972008Y-66391352D03*
D35*
X310134508Y-67228852D03*
X309734508Y-67228852D03*
X309334508Y-67228852D03*
X308934508Y-67228852D03*
X308534508Y-67228852D03*
X308134508Y-67228852D03*
X307734508Y-67228852D03*
X307334508Y-67228852D03*
X306934508Y-67228852D03*
X306534508Y-67228852D03*
X306134508Y-67228852D03*
X305734508Y-67228852D03*
X305334508Y-67228852D03*
X304934508Y-67228852D03*
D34*
X304097008Y-66391352D03*
X304097008Y-65991352D03*
X304097008Y-65591352D03*
X304097008Y-65191352D03*
X304097008Y-64791352D03*
X304097008Y-64391352D03*
X304097008Y-63991352D03*
X304097008Y-63591352D03*
X304097008Y-63191352D03*
X304097008Y-62791352D03*
X304097008Y-62391352D03*
X304097008Y-61991352D03*
X304097008Y-61591352D03*
X304097008Y-61191352D03*
D35*
X304934508Y-60353852D03*
X305334508Y-60353852D03*
X305734508Y-60353852D03*
X306134508Y-60353852D03*
X306534508Y-60353852D03*
X306934508Y-60353852D03*
X307334508Y-60353852D03*
X307734508Y-60353852D03*
X308134508Y-60353852D03*
X308534508Y-60353852D03*
X308934508Y-60353852D03*
X309334508Y-60353852D03*
X309734508Y-60353852D03*
X310134508Y-60353852D03*
D36*
X307534508Y-63791352D03*
%TD*%
D25*
%TO.C,D21*%
X116644448Y-49807784D03*
X113344448Y-49807784D03*
%TD*%
%TO.C,D49*%
X62173400Y-87907816D03*
X58873400Y-87907816D03*
%TD*%
D37*
%TO.C,U1*%
X36168732Y-32159359D03*
X36168732Y-30259361D03*
X38443732Y-31209360D03*
%TD*%
D16*
%TO.C,MX69*%
X22701241Y-44450000D03*
D17*
X27781240Y-44450000D03*
D16*
X32861239Y-44450000D03*
D23*
X21691240Y-49530000D03*
X35141240Y-46990000D03*
%TD*%
D16*
%TO.C,MX35*%
X78104967Y-63500048D03*
D17*
X73024968Y-63500048D03*
D16*
X67944969Y-63500048D03*
D21*
X79114968Y-58420048D03*
X65664968Y-60960048D03*
%TD*%
D22*
%TO.C,D52*%
X86717128Y-85985944D03*
X86717128Y-82685944D03*
%TD*%
D16*
%TO.C,MX31*%
X297180000Y-44450000D03*
D17*
X292100000Y-44450000D03*
D16*
X287020000Y-44450000D03*
D21*
X284740000Y-41910000D03*
X298190000Y-39370000D03*
%TD*%
D22*
%TO.C,D4*%
X85631960Y-27843750D03*
X85631960Y-24543750D03*
%TD*%
D16*
%TO.C,MX10*%
X201930000Y-25400000D03*
D17*
X196850000Y-25400000D03*
D16*
X191770000Y-25400000D03*
D21*
X189490000Y-22860000D03*
X202940000Y-20320000D03*
%TD*%
D22*
%TO.C,D50*%
X71239016Y-85985944D03*
X71239016Y-82685944D03*
%TD*%
D16*
%TO.C,MX12*%
X229870001Y-25400000D03*
D17*
X234950000Y-25400000D03*
D16*
X240029999Y-25400000D03*
D23*
X242310000Y-27940000D03*
X228860000Y-30480000D03*
%TD*%
D16*
%TO.C,MX77*%
X177482361Y-44450000D03*
D17*
X182562360Y-44450000D03*
D16*
X187642359Y-44450000D03*
D23*
X176472360Y-49530000D03*
X189922360Y-46990000D03*
%TD*%
D16*
%TO.C,MX23*%
X144780000Y-44450000D03*
D17*
X139700000Y-44450000D03*
D16*
X134620000Y-44450000D03*
D21*
X132340000Y-41910000D03*
X145790000Y-39370000D03*
%TD*%
D16*
%TO.C,MX17*%
X30480000Y-44450000D03*
D17*
X25400000Y-44450000D03*
D16*
X20320000Y-44450000D03*
D21*
X18040000Y-41910000D03*
X31490000Y-39370000D03*
%TD*%
D38*
%TO.C,J1*%
X43996064Y-31209360D03*
X44996064Y-31209360D03*
X45996064Y-31209360D03*
X46996064Y-31209360D03*
X47996064Y-31209360D03*
X48996064Y-31209360D03*
X49996064Y-31209360D03*
D39*
X42696064Y-33734360D03*
X51296064Y-33734360D03*
%TD*%
D16*
%TO.C,MX24*%
X163830000Y-44450000D03*
D17*
X158750000Y-44450000D03*
D16*
X153670000Y-44450000D03*
D21*
X151390000Y-41910000D03*
X164840000Y-39370000D03*
%TD*%
D25*
%TO.C,D35*%
X69337008Y-69155488D03*
X66037008Y-69155488D03*
%TD*%
D16*
%TO.C,MX75*%
X139382393Y-44450000D03*
D17*
X144462392Y-44450000D03*
D16*
X149542391Y-44450000D03*
D23*
X138372392Y-49530000D03*
X151822392Y-46990000D03*
%TD*%
D16*
%TO.C,MX53*%
X99536183Y-82550000D03*
D17*
X94456184Y-82550000D03*
D16*
X89376185Y-82550000D03*
D21*
X100546184Y-77470000D03*
X87096184Y-80010000D03*
%TD*%
D40*
%TO.C,C13*%
X307072937Y-69896056D03*
X306394115Y-70574878D03*
%TD*%
D16*
%TO.C,MX81*%
X53657481Y-63500024D03*
D17*
X58737480Y-63500024D03*
D16*
X63817479Y-63500024D03*
D41*
X66097479Y-65940024D03*
D23*
X52647480Y-68580024D03*
%TD*%
D16*
%TO.C,MX85*%
X129857417Y-63500024D03*
D17*
X134937416Y-63500024D03*
D16*
X140017415Y-63500024D03*
D23*
X142297416Y-66040024D03*
X128847416Y-68580024D03*
%TD*%
D22*
%TO.C,D32*%
X318994264Y-51656250D03*
X318994264Y-48356250D03*
%TD*%
D16*
%TO.C,MX27*%
X210820001Y-44450000D03*
D17*
X215900000Y-44450000D03*
D16*
X220979999Y-44450000D03*
D41*
X209810000Y-49630000D03*
D23*
X223260000Y-46990000D03*
%TD*%
D16*
%TO.C,MX26*%
X201930000Y-44450000D03*
D17*
X196850000Y-44450000D03*
D16*
X191770000Y-44450000D03*
D21*
X189490000Y-41910000D03*
X202940000Y-39370000D03*
%TD*%
D25*
%TO.C,D48*%
X38360920Y-87907816D03*
X35060920Y-87907816D03*
%TD*%
D26*
%TO.C,D26*%
X208756088Y-41609352D03*
X208756088Y-44909352D03*
%TD*%
D16*
%TO.C,MX13*%
X259080000Y-25400000D03*
D17*
X254000000Y-25400000D03*
D16*
X248920000Y-25400000D03*
D21*
X246640000Y-22860000D03*
X260090000Y-20320000D03*
%TD*%
D42*
%TO.C,C5*%
X302220072Y-56976124D03*
X302220072Y-55426124D03*
%TD*%
D25*
%TO.C,D39*%
X145536944Y-69155488D03*
X142236944Y-69155488D03*
%TD*%
D43*
%TO.C,Y1*%
X306602134Y-73046637D03*
X308157769Y-71491002D03*
X309359850Y-72693083D03*
X307804215Y-74248718D03*
%TD*%
D20*
%TO.C,C16*%
X308427476Y-56681124D03*
X308427476Y-55721124D03*
%TD*%
D16*
%TO.C,MX62*%
X259080000Y-82550000D03*
D17*
X254000000Y-82550000D03*
D16*
X248920000Y-82550000D03*
D21*
X246640000Y-80010000D03*
X260090000Y-77470000D03*
%TD*%
D16*
%TO.C,MX78*%
X196532345Y-44450000D03*
D17*
X201612344Y-44450000D03*
D16*
X206692343Y-44450000D03*
D23*
X195522344Y-49530000D03*
D41*
X208972344Y-46890000D03*
%TD*%
D16*
%TO.C,MX4*%
X87630000Y-25400000D03*
D17*
X82550000Y-25400000D03*
D16*
X77470000Y-25400000D03*
D21*
X75190000Y-22860000D03*
X88640000Y-20320000D03*
%TD*%
D16*
%TO.C,MX61*%
X229870001Y-82550000D03*
D17*
X234950000Y-82550000D03*
D16*
X240029999Y-82550000D03*
D23*
X228860000Y-87630000D03*
D44*
X242310000Y-85090000D03*
%TD*%
D22*
%TO.C,D9*%
X180881880Y-27843750D03*
X180881880Y-24543750D03*
%TD*%
D16*
%TO.C,MX41*%
X192404951Y-63500048D03*
D17*
X187324952Y-63500048D03*
D16*
X182244953Y-63500048D03*
D21*
X193414952Y-58420048D03*
X179964952Y-60960048D03*
%TD*%
D16*
%TO.C,MX15*%
X297180000Y-25400000D03*
D17*
X292100000Y-25400000D03*
D16*
X287020000Y-25400000D03*
D21*
X284740000Y-22860000D03*
X298190000Y-20320000D03*
%TD*%
D20*
%TO.C,C11*%
X322119652Y-58020576D03*
X322119652Y-57060576D03*
%TD*%
D16*
%TO.C,MX56*%
X182879999Y-82550000D03*
D17*
X177800000Y-82550000D03*
D16*
X172720001Y-82550000D03*
D21*
X170440000Y-80010000D03*
X183890000Y-77470000D03*
%TD*%
D25*
%TO.C,D58*%
X226479512Y-87907816D03*
X223179512Y-87907816D03*
%TD*%
D16*
%TO.C,MX39*%
X154304951Y-63500048D03*
D17*
X149224952Y-63500048D03*
D16*
X144144953Y-63500048D03*
D21*
X155314952Y-58420048D03*
X141864952Y-60960048D03*
%TD*%
D16*
%TO.C,MX68*%
X230504823Y-25399992D03*
D17*
X225424824Y-25399992D03*
D16*
X220344825Y-25399992D03*
D45*
X218064824Y-22859992D03*
D21*
X231514824Y-20319992D03*
%TD*%
D25*
%TO.C,D37*%
X107436976Y-69155488D03*
X104136976Y-69155488D03*
%TD*%
%TO.C,D40*%
X164586928Y-69155488D03*
X161286928Y-69155488D03*
%TD*%
D16*
%TO.C,MX14*%
X278130000Y-25400000D03*
D17*
X273050000Y-25400000D03*
D16*
X267970000Y-25400000D03*
D21*
X265690000Y-22860000D03*
X279140000Y-20320000D03*
%TD*%
D28*
%TO.C,R3*%
X320865512Y-40574184D03*
X321885512Y-40574184D03*
%TD*%
D16*
%TO.C,MX88*%
X187007369Y-63500024D03*
D17*
X192087368Y-63500024D03*
D16*
X197167367Y-63500024D03*
D23*
X199447368Y-66040024D03*
X185997368Y-68580024D03*
%TD*%
D16*
%TO.C,MX40*%
X173354951Y-63500048D03*
D17*
X168274952Y-63500048D03*
D16*
X163194953Y-63500048D03*
D21*
X174364952Y-58420048D03*
X160914952Y-60960048D03*
%TD*%
D16*
%TO.C,MX11*%
X210820001Y-25400000D03*
D17*
X215900000Y-25400000D03*
D16*
X220979999Y-25400000D03*
D32*
X223260000Y-27940000D03*
D23*
X209810000Y-30480000D03*
%TD*%
D16*
%TO.C,MX89*%
X206057353Y-63500024D03*
D17*
X211137352Y-63500024D03*
D16*
X216217351Y-63500024D03*
D23*
X218497352Y-66040024D03*
X205047352Y-68580024D03*
%TD*%
D46*
%TO.C,U4*%
X322089888Y-66796040D03*
X320819888Y-66796040D03*
X319549888Y-66796040D03*
X318279888Y-66796040D03*
X318279888Y-59596040D03*
X319549888Y-59596040D03*
X320819888Y-59596040D03*
X322089888Y-59596040D03*
%TD*%
D16*
%TO.C,MX48*%
X30479999Y-82550000D03*
D17*
X25400000Y-82550000D03*
D16*
X20320001Y-82550000D03*
D21*
X18040000Y-80010000D03*
X31490000Y-77470000D03*
%TD*%
D25*
%TO.C,D42*%
X202667032Y-69155488D03*
X199367032Y-69155488D03*
%TD*%
D22*
%TO.C,D14*%
X276131800Y-27843750D03*
X276131800Y-24543750D03*
%TD*%
D16*
%TO.C,MX21*%
X106680000Y-44450000D03*
D17*
X101600000Y-44450000D03*
D16*
X96520000Y-44450000D03*
D21*
X94240000Y-41910000D03*
X107690000Y-39370000D03*
%TD*%
D16*
%TO.C,MX59*%
X210820001Y-82550000D03*
D17*
X215900000Y-82550000D03*
D16*
X220979999Y-82550000D03*
D23*
X209810000Y-87630000D03*
X223260000Y-85090000D03*
%TD*%
D16*
%TO.C,MX25*%
X182880000Y-44450000D03*
D17*
X177800000Y-44450000D03*
D16*
X172720000Y-44450000D03*
D21*
X170440000Y-41910000D03*
X183890000Y-39370000D03*
%TD*%
D25*
%TO.C,D28*%
X245231840Y-49807784D03*
X241931840Y-49807784D03*
%TD*%
D22*
%TO.C,D10*%
X199931864Y-27843750D03*
X199931864Y-24543750D03*
%TD*%
D16*
%TO.C,MX32*%
X320992500Y-49212500D03*
D17*
X315912500Y-49212500D03*
D16*
X310832500Y-49212500D03*
D21*
X308552500Y-46672500D03*
X322002500Y-44132500D03*
%TD*%
D47*
%TO.C,C12*%
X306385639Y-74995207D03*
X305706817Y-74316385D03*
%TD*%
D16*
%TO.C,MX86*%
X148907401Y-63500024D03*
D17*
X153987400Y-63500024D03*
D16*
X159067399Y-63500024D03*
D23*
X161347400Y-66040024D03*
X147897400Y-68580024D03*
%TD*%
D25*
%TO.C,D18*%
X59494496Y-49807784D03*
X56194496Y-49807784D03*
%TD*%
D16*
%TO.C,MX22*%
X125730000Y-44450000D03*
D17*
X120650000Y-44450000D03*
D16*
X115570000Y-44450000D03*
D21*
X113290000Y-41910000D03*
X126740000Y-39370000D03*
%TD*%
D22*
%TO.C,D54*%
X122435848Y-85985944D03*
X122435848Y-82685944D03*
%TD*%
%TO.C,D16*%
X318994264Y-27843750D03*
X318994264Y-24543750D03*
%TD*%
D16*
%TO.C,MX46*%
X278129999Y-63500000D03*
D17*
X273050000Y-63500000D03*
D16*
X267970001Y-63500000D03*
D21*
X265690000Y-60960000D03*
X279140000Y-58420000D03*
%TD*%
D25*
%TO.C,D36*%
X88367128Y-69155488D03*
X85067128Y-69155488D03*
%TD*%
D16*
%TO.C,MX72*%
X82232441Y-44450000D03*
D17*
X87312440Y-44450000D03*
D16*
X92392439Y-44450000D03*
D23*
X81222440Y-49530000D03*
X94672440Y-46990000D03*
%TD*%
D25*
%TO.C,D33*%
X43143280Y-68857808D03*
X39843280Y-68857808D03*
%TD*%
D22*
%TO.C,D61*%
X276131800Y-84993750D03*
X276131800Y-81693750D03*
%TD*%
D33*
%TO.C,BOOT1*%
X319018876Y-35697624D03*
X312718876Y-35697624D03*
X319018876Y-39497624D03*
X312718876Y-39497624D03*
%TD*%
D40*
%TO.C,C4*%
X305880734Y-69778837D03*
X305201912Y-70457659D03*
%TD*%
D16*
%TO.C,MX29*%
X259080000Y-44450000D03*
D17*
X254000000Y-44450000D03*
D16*
X248920000Y-44450000D03*
D21*
X246640000Y-41910000D03*
X260090000Y-39370000D03*
%TD*%
D16*
%TO.C,MX42*%
X211454951Y-63500048D03*
D17*
X206374952Y-63500048D03*
D16*
X201294953Y-63500048D03*
D21*
X212464952Y-58420048D03*
X199014952Y-60960048D03*
%TD*%
D16*
%TO.C,MX33*%
X35262352Y-63500024D03*
D17*
X30182352Y-63500024D03*
D16*
X25102352Y-63500024D03*
D21*
X22822352Y-60960024D03*
X36272352Y-58420024D03*
%TD*%
D22*
%TO.C,D2*%
X47531992Y-27843750D03*
X47531992Y-24543750D03*
%TD*%
D16*
%TO.C,MX34*%
X59054968Y-63500048D03*
D17*
X53974968Y-63500048D03*
D16*
X48894968Y-63500048D03*
D48*
X60064968Y-58320048D03*
D21*
X46614968Y-60960048D03*
%TD*%
D20*
%TO.C,C14*%
X303962636Y-56681124D03*
X303962636Y-55721124D03*
%TD*%
D22*
%TO.C,D46*%
X276131800Y-65943750D03*
X276131800Y-62643750D03*
%TD*%
D25*
%TO.C,D25*%
X192844384Y-49807784D03*
X189544384Y-49807784D03*
%TD*%
D16*
%TO.C,MX87*%
X167957385Y-63500024D03*
D17*
X173037384Y-63500024D03*
D16*
X178117383Y-63500024D03*
D23*
X180397384Y-66040024D03*
X166947384Y-68580024D03*
%TD*%
D22*
%TO.C,D47*%
X295181784Y-65943750D03*
X295181784Y-62643750D03*
%TD*%
D49*
%TO.C,J3*%
X297404280Y-89892112D03*
D50*
X299944280Y-89892112D03*
X302484280Y-89892112D03*
X305024280Y-89892112D03*
X307564280Y-89892112D03*
%TD*%
D16*
%TO.C,MX45*%
X259079999Y-63500000D03*
D17*
X254000000Y-63500000D03*
D16*
X248920001Y-63500000D03*
D21*
X246640000Y-60960000D03*
X260090000Y-58420000D03*
%TD*%
D25*
%TO.C,D57*%
X207429528Y-87907816D03*
X204129528Y-87907816D03*
%TD*%
D29*
%TO.C,R5*%
X298753656Y-71954384D03*
X298753656Y-72974384D03*
%TD*%
D16*
%TO.C,MX65*%
X297180000Y-82550000D03*
D17*
X292100000Y-82550000D03*
D16*
X287020000Y-82550000D03*
D21*
X284740000Y-80010000D03*
X298190000Y-77470000D03*
%TD*%
D16*
%TO.C,MX18*%
X44132473Y-44450040D03*
D17*
X49212472Y-44450040D03*
D16*
X54292471Y-44450040D03*
D23*
X43122472Y-49530040D03*
X56572472Y-46990040D03*
%TD*%
D16*
%TO.C,MX64*%
X278130000Y-82550000D03*
D17*
X273050000Y-82550000D03*
D16*
X267970000Y-82550000D03*
D45*
X265690000Y-80010000D03*
D21*
X279140000Y-77470000D03*
%TD*%
D22*
%TO.C,D8*%
X161831896Y-27843750D03*
X161831896Y-24543750D03*
%TD*%
D47*
%TO.C,C9*%
X301176659Y-63088967D03*
X300497837Y-62410145D03*
%TD*%
D20*
%TO.C,C15*%
X307385680Y-56681124D03*
X307385680Y-55721124D03*
%TD*%
D25*
%TO.C,D24*%
X173794400Y-49807784D03*
X170494400Y-49807784D03*
%TD*%
D16*
%TO.C,MX76*%
X158432377Y-44450000D03*
D17*
X163512376Y-44450000D03*
D16*
X168592375Y-44450000D03*
D23*
X157422376Y-49530000D03*
X170872376Y-46990000D03*
%TD*%
D20*
%TO.C,C6*%
X302220072Y-60110432D03*
X302220072Y-59150432D03*
%TD*%
D16*
%TO.C,MX2*%
X49530000Y-25400000D03*
D17*
X44450000Y-25400000D03*
D16*
X39370000Y-25400000D03*
D21*
X37090000Y-22860000D03*
X50540000Y-20320000D03*
%TD*%
D16*
%TO.C,MX57*%
X191770001Y-82550000D03*
D17*
X196850000Y-82550000D03*
D16*
X201929999Y-82550000D03*
D23*
X190760000Y-87630000D03*
X204210000Y-85090000D03*
%TD*%
D16*
%TO.C,MX6*%
X125730000Y-25400000D03*
D17*
X120650000Y-25400000D03*
D16*
X115570000Y-25400000D03*
D21*
X113290000Y-22860000D03*
X126740000Y-20320000D03*
%TD*%
D25*
%TO.C,D20*%
X97594464Y-49807784D03*
X94294464Y-49807784D03*
%TD*%
D16*
%TO.C,MX8*%
X163830000Y-25400000D03*
D17*
X158750000Y-25400000D03*
D16*
X153670000Y-25400000D03*
D21*
X151390000Y-22860000D03*
X164840000Y-20320000D03*
%TD*%
D16*
%TO.C,MX38*%
X135254951Y-63500048D03*
D17*
X130174952Y-63500048D03*
D16*
X125094953Y-63500048D03*
D21*
X136264952Y-58420048D03*
X122814952Y-60960048D03*
%TD*%
D16*
%TO.C,MX60*%
X237648567Y-82550008D03*
D17*
X232568568Y-82550008D03*
D16*
X227488569Y-82550008D03*
D21*
X225208568Y-80010008D03*
X238658568Y-77470008D03*
%TD*%
D51*
%TO.C,R9*%
X304643808Y-73081656D03*
X305365056Y-72360408D03*
%TD*%
D16*
%TO.C,MX79*%
X232886071Y-44450000D03*
D17*
X227806072Y-44450000D03*
D16*
X222726073Y-44450000D03*
D21*
X233896072Y-39370000D03*
X220446072Y-41910000D03*
%TD*%
D16*
%TO.C,MX7*%
X144780000Y-25400000D03*
D17*
X139700000Y-25400000D03*
D16*
X134620000Y-25400000D03*
D21*
X132340000Y-22860000D03*
X145790000Y-20320000D03*
%TD*%
D16*
%TO.C,MX3*%
X68580000Y-25400000D03*
D17*
X63500000Y-25400000D03*
D16*
X58420000Y-25400000D03*
D21*
X56140000Y-22860000D03*
X69590000Y-20320000D03*
%TD*%
D22*
%TO.C,D5*%
X104681944Y-27843750D03*
X104681944Y-24543750D03*
%TD*%
D16*
%TO.C,MX58*%
X213836087Y-82550008D03*
D17*
X208756088Y-82550008D03*
D16*
X203676089Y-82550008D03*
D21*
X201396088Y-80010008D03*
X214846088Y-77470008D03*
%TD*%
%LPD*%
M02*
